<svg width="32" height="32" viewBox="0 0 32 32" fill="none" xmlns="http://www.w3.org/2000/svg">
<path d="M19.7986 20.8409C18.2507 21.2285 16.4948 21.2285 14.7266 20.7548C12.9584 20.281 11.4376 19.4025 10.2908 18.2926" stroke="#CCCCCC" stroke-width="1.5" stroke-linecap="round"/>
<path d="M12.4351 15.0444C11.7787 14.8685 11.4604 13.9277 11.7243 12.9431C11.9881 11.9585 12.7341 11.3029 13.3905 11.4788C14.0469 11.6547 14.3652 12.5954 14.1013 13.5801C13.8375 14.5647 13.0915 15.2203 12.4351 15.0444Z" fill="#CCCCCC"/>
<path d="M19.5656 16.9561C18.9092 16.7803 18.5909 15.8395 18.8548 14.8549C19.1186 13.8702 19.8646 13.2146 20.521 13.3905C21.1774 13.5664 21.4957 14.5072 21.2318 15.4918C20.968 16.4764 20.222 17.132 19.5656 16.9561Z" fill="#CCCCCC"/>
<path d="M14.7695 20.9222L14.1814 22.1207C14.075 22.3389 13.9265 22.534 13.7446 22.6948C13.5627 22.8556 13.3508 22.9789 13.1211 23.0577C12.8915 23.1365 12.6485 23.1692 12.4062 23.1539C12.1639 23.1386 11.9269 23.0757 11.709 22.9687C11.491 22.8617 11.2963 22.7127 11.136 22.5304C10.9757 22.348 10.853 22.1358 10.7748 21.9059C10.6967 21.676 10.6647 21.433 10.6806 21.1907C10.6965 20.9484 10.7601 20.7117 10.8677 20.494L11.4337 19.3435" stroke="#CCCCCC" stroke-width="1.5"/>
<path d="M27.3127 20.8453C28.1653 18.8602 28.4776 16.6849 28.2181 14.5401C27.4131 7.7929 21.288 2.97596 14.5412 3.78208C7.79282 4.58752 2.97656 10.711 3.78154 17.4583C4.58698 24.2066 10.7121 29.0236 17.4589 28.2175C19.6041 27.9647 21.6444 27.1491 23.3727 25.8534" stroke="#CCCCCC" stroke-width="1.5" stroke-linecap="round"/>
<path d="M24.6716 28.3032V19.6167H26.1456V28.3032H24.6716ZM21.0654 24.697V23.2229H29.7518V24.697H21.0654Z" fill="#D9D9D9"/>
</svg>
