<svg width="1440" height="202" viewBox="0 0 1440 202" fill="none" xmlns="http://www.w3.org/2000/svg">
<path d="M-21 37L31 66L162 18L241 111L374 31L459 136" stroke="#9C9898"/>
<path d="M242 113L31 66" stroke="#9C9898"/>
<path d="M814 189L1153 138L1368 62L1452 178" stroke="#9C9898"/>
<path d="M1562 34L1366 62L1179 18L1152 137L1126 18L814 189" stroke="#9C9898"/>
<path d="M740 18L644 68L814 189" stroke="#9C9898"/>
<path d="M644 68L372 32" stroke="#9C9898"/>
<path d="M372.5 35C374.433 35 376 33.433 376 31.5C376 29.567 374.433 28 372.5 28C370.567 28 369 29.567 369 31.5C369 33.433 370.567 35 372.5 35Z" fill="#00AAFF"/>
<path d="M372.5 44C379.404 44 385 38.4036 385 31.5C385 24.5964 379.404 19 372.5 19C365.596 19 360 24.5964 360 31.5C360 38.4036 365.596 44 372.5 44Z" stroke="#00AAFF"/>
<path d="M241.5 118C244.538 118 247 115.538 247 112.5C247 109.462 244.538 107 241.5 107C238.462 107 236 109.462 236 112.5C236 115.538 238.462 118 241.5 118Z" fill="#00AAFF"/>
<path d="M241.5 130C251.165 130 259 122.165 259 112.5C259 102.835 251.165 95 241.5 95C231.835 95 224 102.835 224 112.5C224 122.165 231.835 130 241.5 130Z" stroke="#00AAFF"/>
<path d="M1365.5 68C1368.54 68 1371 65.5376 1371 62.5C1371 59.4624 1368.54 57 1365.5 57C1362.46 57 1360 59.4624 1360 62.5C1360 65.5376 1362.46 68 1365.5 68Z" fill="#00AAFF"/>
<path d="M1365.5 80C1375.16 80 1383 72.165 1383 62.5C1383 52.835 1375.16 45 1365.5 45C1355.84 45 1348 52.835 1348 62.5C1348 72.165 1355.84 80 1365.5 80Z" stroke="#00AAFF"/>
<path d="M1124.5 24C1127.54 24 1130 21.5376 1130 18.5C1130 15.4624 1127.54 13 1124.5 13C1121.46 13 1119 15.4624 1119 18.5C1119 21.5376 1121.46 24 1124.5 24Z" fill="#00AAFF"/>
<path d="M1124.5 36C1134.16 36 1142 28.165 1142 18.5C1142 8.83502 1134.16 1 1124.5 1C1114.84 1 1107 8.83502 1107 18.5C1107 28.165 1114.84 36 1124.5 36Z" stroke="#00AAFF"/>
<path d="M1152.5 142C1154.43 142 1156 140.433 1156 138.5C1156 136.567 1154.43 135 1152.5 135C1150.57 135 1149 136.567 1149 138.5C1149 140.433 1150.57 142 1152.5 142Z" fill="#9C9898"/>
<path d="M1152.5 151C1159.4 151 1165 145.404 1165 138.5C1165 131.596 1159.4 126 1152.5 126C1145.6 126 1140 131.596 1140 138.5C1140 145.404 1145.6 151 1152.5 151Z" stroke="#9C9898"/>
<path d="M643.5 70C645.433 70 647 68.433 647 66.5C647 64.567 645.433 63 643.5 63C641.567 63 640 64.567 640 66.5C640 68.433 641.567 70 643.5 70Z" fill="#9C9898"/>
<path d="M643.5 79C650.404 79 656 73.4036 656 66.5C656 59.5964 650.404 54 643.5 54C636.596 54 631 59.5964 631 66.5C631 73.4036 636.596 79 643.5 79Z" stroke="#9C9898"/>
<path d="M161.5 21C163.433 21 165 19.433 165 17.5C165 15.567 163.433 14 161.5 14C159.567 14 158 15.567 158 17.5C158 19.433 159.567 21 161.5 21Z" fill="#9C9898"/>
<path d="M161.5 30C168.404 30 174 24.4036 174 17.5C174 10.5964 168.404 5 161.5 5C154.596 5 149 10.5964 149 17.5C149 24.4036 154.596 30 161.5 30Z" stroke="#9C9898"/>
<path d="M738.5 22C740.433 22 742 20.433 742 18.5C742 16.567 740.433 15 738.5 15C736.567 15 735 16.567 735 18.5C735 20.433 736.567 22 738.5 22Z" fill="#9C9898"/>
<path d="M738.5 31C745.404 31 751 25.4036 751 18.5C751 11.5964 745.404 6 738.5 6C731.596 6 726 11.5964 726 18.5C726 25.4036 731.596 31 738.5 31Z" stroke="#9C9898"/>
<path d="M1179.5 22C1181.43 22 1183 20.433 1183 18.5C1183 16.567 1181.43 15 1179.5 15C1177.57 15 1176 16.567 1176 18.5C1176 20.433 1177.57 22 1179.5 22Z" fill="#9C9898"/>
<path d="M1179.5 31C1186.4 31 1192 25.4036 1192 18.5C1192 11.5964 1186.4 6 1179.5 6C1172.6 6 1167 11.5964 1167 18.5C1167 25.4036 1172.6 31 1179.5 31Z" stroke="#9C9898"/>
<path d="M460.5 141C462.433 141 464 139.433 464 137.5C464 135.567 462.433 134 460.5 134C458.567 134 457 135.567 457 137.5C457 139.433 458.567 141 460.5 141Z" fill="#00AAFF"/>
<path d="M460.5 150C467.404 150 473 144.404 473 137.5C473 130.596 467.404 125 460.5 125C453.596 125 448 130.596 448 137.5C448 144.404 453.596 150 460.5 150Z" stroke="#00AAFF"/>
<path d="M814.5 192C816.433 192 818 190.433 818 188.5C818 186.567 816.433 185 814.5 185C812.567 185 811 186.567 811 188.5C811 190.433 812.567 192 814.5 192Z" fill="#00AAFF"/>
<path d="M814.5 201C821.404 201 827 195.404 827 188.5C827 181.596 821.404 176 814.5 176C807.596 176 802 181.596 802 188.5C802 195.404 807.596 201 814.5 201Z" stroke="#00AAFF"/>
<g style="mix-blend-mode:color-dodge">
<path d="M372.5 35C374.433 35 376 33.433 376 31.5C376 29.567 374.433 28 372.5 28C370.567 28 369 29.567 369 31.5C369 33.433 370.567 35 372.5 35Z" fill="#00AAFF"/>
<path d="M372.5 44C379.404 44 385 38.4036 385 31.5C385 24.5964 379.404 19 372.5 19C365.596 19 360 24.5964 360 31.5C360 38.4036 365.596 44 372.5 44Z" stroke="#00AAFF"/>
<path d="M241.5 118C244.538 118 247 115.538 247 112.5C247 109.462 244.538 107 241.5 107C238.462 107 236 109.462 236 112.5C236 115.538 238.462 118 241.5 118Z" fill="#00AAFF"/>
<path d="M241.5 130C251.165 130 259 122.165 259 112.5C259 102.835 251.165 95 241.5 95C231.835 95 224 102.835 224 112.5C224 122.165 231.835 130 241.5 130Z" stroke="#00AAFF"/>
<path d="M1365.5 68C1368.54 68 1371 65.5376 1371 62.5C1371 59.4624 1368.54 57 1365.5 57C1362.46 57 1360 59.4624 1360 62.5C1360 65.5376 1362.46 68 1365.5 68Z" fill="#00AAFF"/>
<path d="M1365.5 80C1375.16 80 1383 72.165 1383 62.5C1383 52.835 1375.16 45 1365.5 45C1355.84 45 1348 52.835 1348 62.5C1348 72.165 1355.84 80 1365.5 80Z" stroke="#00AAFF"/>
<path d="M1124.5 24C1127.54 24 1130 21.5376 1130 18.5C1130 15.4624 1127.54 13 1124.5 13C1121.46 13 1119 15.4624 1119 18.5C1119 21.5376 1121.46 24 1124.5 24Z" fill="#00AAFF"/>
<path d="M1124.5 36C1134.16 36 1142 28.165 1142 18.5C1142 8.83502 1134.16 1 1124.5 1C1114.84 1 1107 8.83502 1107 18.5C1107 28.165 1114.84 36 1124.5 36Z" stroke="#00AAFF"/>
<path d="M1152.5 142C1154.43 142 1156 140.433 1156 138.5C1156 136.567 1154.43 135 1152.5 135C1150.57 135 1149 136.567 1149 138.5C1149 140.433 1150.57 142 1152.5 142Z" fill="#9C9898"/>
<path d="M1152.5 151C1159.4 151 1165 145.404 1165 138.5C1165 131.596 1159.4 126 1152.5 126C1145.6 126 1140 131.596 1140 138.5C1140 145.404 1145.6 151 1152.5 151Z" stroke="#9C9898"/>
<path d="M643.5 70C645.433 70 647 68.433 647 66.5C647 64.567 645.433 63 643.5 63C641.567 63 640 64.567 640 66.5C640 68.433 641.567 70 643.5 70Z" fill="#9C9898"/>
<path d="M643.5 79C650.404 79 656 73.4036 656 66.5C656 59.5964 650.404 54 643.5 54C636.596 54 631 59.5964 631 66.5C631 73.4036 636.596 79 643.5 79Z" stroke="#9C9898"/>
<path d="M161.5 21C163.433 21 165 19.433 165 17.5C165 15.567 163.433 14 161.5 14C159.567 14 158 15.567 158 17.5C158 19.433 159.567 21 161.5 21Z" fill="#9C9898"/>
<path d="M161.5 30C168.404 30 174 24.4036 174 17.5C174 10.5964 168.404 5 161.5 5C154.596 5 149 10.5964 149 17.5C149 24.4036 154.596 30 161.5 30Z" stroke="#9C9898"/>
<path d="M738.5 22C740.433 22 742 20.433 742 18.5C742 16.567 740.433 15 738.5 15C736.567 15 735 16.567 735 18.5C735 20.433 736.567 22 738.5 22Z" fill="#9C9898"/>
<path d="M738.5 31C745.404 31 751 25.4036 751 18.5C751 11.5964 745.404 6 738.5 6C731.596 6 726 11.5964 726 18.5C726 25.4036 731.596 31 738.5 31Z" stroke="#9C9898"/>
<path d="M1179.5 22C1181.43 22 1183 20.433 1183 18.5C1183 16.567 1181.43 15 1179.5 15C1177.57 15 1176 16.567 1176 18.5C1176 20.433 1177.57 22 1179.5 22Z" fill="#9C9898"/>
<path d="M1179.5 31C1186.4 31 1192 25.4036 1192 18.5C1192 11.5964 1186.4 6 1179.5 6C1172.6 6 1167 11.5964 1167 18.5C1167 25.4036 1172.6 31 1179.5 31Z" stroke="#9C9898"/>
<path d="M460.5 141C462.433 141 464 139.433 464 137.5C464 135.567 462.433 134 460.5 134C458.567 134 457 135.567 457 137.5C457 139.433 458.567 141 460.5 141Z" fill="#00AAFF"/>
<path d="M460.5 150C467.404 150 473 144.404 473 137.5C473 130.596 467.404 125 460.5 125C453.596 125 448 130.596 448 137.5C448 144.404 453.596 150 460.5 150Z" stroke="#00AAFF"/>
<path d="M814.5 192C816.433 192 818 190.433 818 188.5C818 186.567 816.433 185 814.5 185C812.567 185 811 186.567 811 188.5C811 190.433 812.567 192 814.5 192Z" fill="#00AAFF"/>
<path d="M814.5 201C821.404 201 827 195.404 827 188.5C827 181.596 821.404 176 814.5 176C807.596 176 802 181.596 802 188.5C802 195.404 807.596 201 814.5 201Z" stroke="#00AAFF"/>
</g>
</svg>
