<svg width="37" height="1118" viewBox="0 0 37 1118" fill="none" xmlns="http://www.w3.org/2000/svg">
<line x1="18.5" y1="21" x2="18.5" y2="360" stroke="#B5B5B5"/>
<path d="M18.5 24C21.5376 24 24 21.5376 24 18.5C24 15.4624 21.5376 13 18.5 13C15.4624 13 13 15.4624 13 18.5C13 21.5376 15.4624 24 18.5 24Z" fill="#00AAFF"/>
<path d="M18.5 36C28.165 36 36 28.165 36 18.5C36 8.83502 28.165 1 18.5 1C8.83502 1 1 8.83502 1 18.5C1 28.165 8.83502 36 18.5 36Z" stroke="#00AAFF"/>
<line x1="18.5" y1="364" x2="18.5" y2="683" stroke="#B5B5B5"/>
<path d="M18.5 367C21.5376 367 24 364.538 24 361.5C24 358.462 21.5376 356 18.5 356C15.4624 356 13 358.462 13 361.5C13 364.538 15.4624 367 18.5 367Z" fill="#00AAFF"/>
<path d="M18.5 379C28.165 379 36 371.165 36 361.5C36 351.835 28.165 344 18.5 344C8.83502 344 1 351.835 1 361.5C1 371.165 8.83502 379 18.5 379Z" stroke="#00AAFF"/>
<line x1="18.5" y1="687" x2="18.5" y2="907" stroke="#B5B5B5"/>
<path d="M18.5 690C21.5376 690 24 687.538 24 684.5C24 681.462 21.5376 679 18.5 679C15.4624 679 13 681.462 13 684.5C13 687.538 15.4624 690 18.5 690Z" fill="#00AAFF"/>
<path d="M18.5 702C28.165 702 36 694.165 36 684.5C36 674.835 28.165 667 18.5 667C8.83502 667 1 674.835 1 684.5C1 694.165 8.83502 702 18.5 702Z" stroke="#00AAFF"/>
<line x1="18.5" y1="912" x2="18.5" y2="1099" stroke="#B5B5B5"/>
<path d="M18.5 915C21.5376 915 24 912.538 24 909.5C24 906.462 21.5376 904 18.5 904C15.4624 904 13 906.462 13 909.5C13 912.538 15.4624 915 18.5 915Z" fill="#00AAFF"/>
<path d="M18.5 927C28.165 927 36 919.165 36 909.5C36 899.835 28.165 892 18.5 892C8.83502 892 1 899.835 1 909.5C1 919.165 8.83502 927 18.5 927Z" stroke="#00AAFF"/>
<path d="M18.5 1105C21.5376 1105 24 1102.54 24 1099.5C24 1096.46 21.5376 1094 18.5 1094C15.4624 1094 13 1096.46 13 1099.5C13 1102.54 15.4624 1105 18.5 1105Z" fill="#00AAFF"/>
<path d="M18.5 1117C28.165 1117 36 1109.16 36 1099.5C36 1089.84 28.165 1082 18.5 1082C8.83502 1082 1 1089.84 1 1099.5C1 1109.16 8.83502 1117 18.5 1117Z" stroke="#00AAFF"/>
</svg>
