<svg width="126" height="48" viewBox="0 0 126 48" fill="none" xmlns="http://www.w3.org/2000/svg">
<mask id="path-1-inside-1_403_6511" fill="white">
<path d="M0 4.01331e-08H22.3051C22.3061 4.01331e-08 22.307 -5.01663e-08 22.3079 4.01331e-08C29.0678 0.000674934 35.5507 2.51877 40.3307 7.00053C45.1114 11.4829 47.7971 17.5623 47.7971 23.9013C47.7971 30.2403 45.1114 36.3197 40.3307 40.802C35.55 45.2844 29.066 47.8026 22.3051 47.8026V38.2421C26.3617 38.2421 30.2521 36.7312 33.1205 34.0417C35.9889 31.3523 37.6003 27.7047 37.6003 23.9013C37.6003 20.0979 35.9889 16.4502 33.1205 13.7608C30.2527 11.072 26.3634 9.56119 22.3079 9.56051C22.307 9.56051 22.306 9.56051 22.3051 9.56051H11.1539V47.8026H0V4.01331e-08Z"/>
</mask>
<path d="M0 4.01331e-08H22.3051C22.3061 4.01331e-08 22.307 -5.01663e-08 22.3079 4.01331e-08C29.0678 0.000674934 35.5507 2.51877 40.3307 7.00053C45.1114 11.4829 47.7971 17.5623 47.7971 23.9013C47.7971 30.2403 45.1114 36.3197 40.3307 40.802C35.55 45.2844 29.066 47.8026 22.3051 47.8026V38.2421C26.3617 38.2421 30.2521 36.7312 33.1205 34.0417C35.9889 31.3523 37.6003 27.7047 37.6003 23.9013C37.6003 20.0979 35.9889 16.4502 33.1205 13.7608C30.2527 11.072 26.3634 9.56119 22.3079 9.56051C22.307 9.56051 22.306 9.56051 22.3051 9.56051H11.1539V47.8026H0V4.01331e-08Z" fill="#00AAFF"/>
<path d="M0 4.01331e-08V-40H-40V4.01331e-08H0ZM22.3079 4.01331e-08L22.3119 -40L22.3079 4.01331e-08ZM40.3307 7.00053L67.6899 -22.1795L67.6899 -22.1795L40.3307 7.00053ZM40.3307 40.802L67.6899 69.9821L67.6899 69.9821L40.3307 40.802ZM22.3051 47.8026H-17.6949V87.8026H22.3051V47.8026ZM22.3051 38.2421V-1.75795H-17.6949V38.2421H22.3051ZM33.1205 34.0417L60.4797 63.2218L60.4797 63.2218L33.1205 34.0417ZM37.6003 23.9013L-2.39967 23.9013V23.9013H37.6003ZM33.1205 13.7608L60.4797 -15.4192L60.4797 -15.4192L33.1205 13.7608ZM22.3079 9.56051L22.3145 -30.4395H22.3079V9.56051ZM11.1539 9.56051V-30.4395H-28.8461V9.56051H11.1539ZM11.1539 47.8026V87.8026H51.1539V47.8026H11.1539ZM0 47.8026H-40V87.8026H0V47.8026ZM22.3051 40C22.3062 40 22.3085 40 22.3075 40C22.3074 40 22.3059 40 22.3039 40L22.3119 -40C22.3089 -40 22.3065 -40 22.3055 -40C22.3036 -40 22.305 -40 22.3051 -40V40ZM22.3039 40C19.2583 39.9997 15.8604 38.8892 12.9715 36.1806L67.6899 -22.1795C55.241 -33.8516 38.8772 -39.9983 22.3119 -40L22.3039 40ZM12.9715 36.1805C9.99498 33.3898 7.79712 29.033 7.79712 23.9013H87.7971C87.7971 6.09155 80.2278 -10.424 67.6899 -22.1795L12.9715 36.1805ZM7.79712 23.9013C7.79712 18.7696 9.99499 14.4128 12.9715 11.622L67.6899 69.9821C80.2277 58.2266 87.7971 41.711 87.7971 23.9013H7.79712ZM12.9715 11.622C15.8607 8.91305 19.2592 7.80256 22.3051 7.80256V87.8026C38.8729 87.8026 55.2393 81.6557 67.6899 69.9821L12.9715 11.622ZM62.3051 47.8026V38.2421H-17.6949V47.8026H62.3051ZM22.3051 78.2421C36.1685 78.2421 49.9413 73.1025 60.4797 63.2218L5.76128 4.8617C10.5628 0.359798 16.5549 -1.75795 22.3051 -1.75795V78.2421ZM60.4797 63.2218C71.1053 53.2592 77.6003 39.1754 77.6003 23.9013H-2.39967C-2.39967 16.234 0.872494 9.44543 5.76127 4.86171L60.4797 63.2218ZM77.6003 23.9013C77.6003 8.62716 71.1053 -5.45665 60.4797 -15.4192L5.76127 42.9409C0.872493 38.3571 -2.39968 31.5686 -2.39967 23.9013L77.6003 23.9013ZM60.4797 -15.4192C49.9437 -25.2978 36.1746 -30.4372 22.3145 -30.4395L22.3012 49.5605C16.5522 49.5596 10.5617 47.4418 5.76128 42.9409L60.4797 -15.4192ZM22.3079 -30.4395C22.3079 -30.4395 22.3079 -30.4395 22.3079 -30.4395C22.3079 -30.4395 22.3079 -30.4395 22.3078 -30.4395C22.3078 -30.4395 22.3078 -30.4395 22.3078 -30.4395C22.3078 -30.4395 22.3078 -30.4395 22.3078 -30.4395C22.3078 -30.4395 22.3078 -30.4395 22.3078 -30.4395C22.3078 -30.4395 22.3078 -30.4395 22.3078 -30.4395C22.3078 -30.4395 22.3078 -30.4395 22.3078 -30.4395C22.3078 -30.4395 22.3078 -30.4395 22.3078 -30.4395C22.3078 -30.4395 22.3078 -30.4395 22.3078 -30.4395C22.3078 -30.4395 22.3078 -30.4395 22.3078 -30.4395C22.3078 -30.4395 22.3078 -30.4395 22.3078 -30.4395C22.3078 -30.4395 22.3078 -30.4395 22.3078 -30.4395C22.3078 -30.4395 22.3078 -30.4395 22.3078 -30.4395C22.3078 -30.4395 22.3078 -30.4395 22.3078 -30.4395C22.3078 -30.4395 22.3078 -30.4395 22.3078 -30.4395C22.3078 -30.4395 22.3078 -30.4395 22.3078 -30.4395C22.3078 -30.4395 22.3078 -30.4395 22.3078 -30.4395C22.3078 -30.4395 22.3078 -30.4395 22.3078 -30.4395C22.3078 -30.4395 22.3078 -30.4395 22.3078 -30.4395C22.3078 -30.4395 22.3078 -30.4395 22.3078 -30.4395C22.3078 -30.4395 22.3078 -30.4395 22.3077 -30.4395C22.3077 -30.4395 22.3077 -30.4395 22.3077 -30.4395C22.3077 -30.4395 22.3077 -30.4395 22.3077 -30.4395C22.3077 -30.4395 22.3077 -30.4395 22.3077 -30.4395C22.3077 -30.4395 22.3077 -30.4395 22.3077 -30.4395C22.3077 -30.4395 22.3077 -30.4395 22.3077 -30.4395C22.3077 -30.4395 22.3077 -30.4395 22.3077 -30.4395C22.3077 -30.4395 22.3077 -30.4395 22.3077 -30.4395C22.3077 -30.4395 22.3077 -30.4395 22.3077 -30.4395C22.3077 -30.4395 22.3077 -30.4395 22.3077 -30.4395C22.3077 -30.4395 22.3077 -30.4395 22.3077 -30.4395C22.3077 -30.4395 22.3077 -30.4395 22.3077 -30.4395C22.3077 -30.4395 22.3077 -30.4395 22.3077 -30.4395C22.3077 -30.4395 22.3077 -30.4395 22.3077 -30.4395C22.3077 -30.4395 22.3077 -30.4395 22.3077 -30.4395C22.3077 -30.4395 22.3077 -30.4395 22.3077 -30.4395C22.3077 -30.4395 22.3077 -30.4395 22.3077 -30.4395C22.3077 -30.4395 22.3077 -30.4395 22.3077 -30.4395C22.3077 -30.4395 22.3077 -30.4395 22.3077 -30.4395C22.3077 -30.4395 22.3076 -30.4395 22.3076 -30.4395C22.3076 -30.4395 22.3076 -30.4395 22.3076 -30.4395C22.3076 -30.4395 22.3076 -30.4395 22.3076 -30.4395C22.3076 -30.4395 22.3076 -30.4395 22.3076 -30.4395C22.3076 -30.4395 22.3076 -30.4395 22.3076 -30.4395C22.3076 -30.4395 22.3076 -30.4395 22.3076 -30.4395C22.3076 -30.4395 22.3076 -30.4395 22.3076 -30.4395C22.3076 -30.4395 22.3076 -30.4395 22.3076 -30.4395C22.3076 -30.4395 22.3076 -30.4395 22.3076 -30.4395C22.3076 -30.4395 22.3076 -30.4395 22.3076 -30.4395C22.3076 -30.4395 22.3076 -30.4395 22.3076 -30.4395C22.3076 -30.4395 22.3076 -30.4395 22.3076 -30.4395C22.3076 -30.4395 22.3076 -30.4395 22.3076 -30.4395C22.3076 -30.4395 22.3076 -30.4395 22.3076 -30.4395C22.3076 -30.4395 22.3076 -30.4395 22.3076 -30.4395C22.3076 -30.4395 22.3076 -30.4395 22.3076 -30.4395C22.3076 -30.4395 22.3076 -30.4395 22.3076 -30.4395C22.3076 -30.4395 22.3076 -30.4395 22.3076 -30.4395C22.3076 -30.4395 22.3076 -30.4395 22.3076 -30.4395C22.3076 -30.4395 22.3075 -30.4395 22.3075 -30.4395C22.3075 -30.4395 22.3075 -30.4395 22.3075 -30.4395C22.3075 -30.4395 22.3075 -30.4395 22.3075 -30.4395C22.3075 -30.4395 22.3075 -30.4395 22.3075 -30.4395C22.3075 -30.4395 22.3075 -30.4395 22.3075 -30.4395C22.3075 -30.4395 22.3075 -30.4395 22.3075 -30.4395C22.3075 -30.4395 22.3075 -30.4395 22.3075 -30.4395C22.3075 -30.4395 22.3075 -30.4395 22.3075 -30.4395C22.3075 -30.4395 22.3075 -30.4395 22.3075 -30.4395C22.3075 -30.4395 22.3075 -30.4395 22.3075 -30.4395C22.3075 -30.4395 22.3075 -30.4395 22.3075 -30.4395C22.3075 -30.4395 22.3075 -30.4395 22.3075 -30.4395C22.3075 -30.4395 22.3075 -30.4395 22.3075 -30.4395C22.3075 -30.4395 22.3075 -30.4395 22.3075 -30.4395C22.3075 -30.4395 22.3075 -30.4395 22.3075 -30.4395C22.3075 -30.4395 22.3075 -30.4395 22.3075 -30.4395C22.3075 -30.4395 22.3075 -30.4395 22.3075 -30.4395C22.3075 -30.4395 22.3075 -30.4395 22.3075 -30.4395C22.3075 -30.4395 22.3075 -30.4395 22.3075 -30.4395C22.3074 -30.4395 22.3074 -30.4395 22.3074 -30.4395C22.3074 -30.4395 22.3074 -30.4395 22.3074 -30.4395C22.3074 -30.4395 22.3074 -30.4395 22.3074 -30.4395C22.3074 -30.4395 22.3074 -30.4395 22.3074 -30.4395C22.3074 -30.4395 22.3074 -30.4395 22.3074 -30.4395C22.3074 -30.4395 22.3074 -30.4395 22.3074 -30.4395C22.3074 -30.4395 22.3074 -30.4395 22.3074 -30.4395C22.3074 -30.4395 22.3074 -30.4395 22.3074 -30.4395C22.3074 -30.4395 22.3074 -30.4395 22.3074 -30.4395C22.3074 -30.4395 22.3074 -30.4395 22.3074 -30.4395C22.3074 -30.4395 22.3074 -30.4395 22.3074 -30.4395C22.3074 -30.4395 22.3074 -30.4395 22.3074 -30.4395C22.3074 -30.4395 22.3074 -30.4395 22.3074 -30.4395C22.3074 -30.4395 22.3074 -30.4395 22.3074 -30.4395C22.3074 -30.4395 22.3074 -30.4395 22.3074 -30.4395C22.3074 -30.4395 22.3074 -30.4395 22.3074 -30.4395C22.3074 -30.4395 22.3074 -30.4395 22.3074 -30.4395C22.3074 -30.4395 22.3074 -30.4395 22.3074 -30.4395C22.3074 -30.4395 22.3074 -30.4395 22.3074 -30.4395C22.3073 -30.4395 22.3073 -30.4395 22.3073 -30.4395C22.3073 -30.4395 22.3073 -30.4395 22.3073 -30.4395C22.3073 -30.4395 22.3073 -30.4395 22.3073 -30.4395C22.3073 -30.4395 22.3073 -30.4395 22.3073 -30.4395C22.3073 -30.4395 22.3073 -30.4395 22.3073 -30.4395C22.3073 -30.4395 22.3073 -30.4395 22.3073 -30.4395C22.3073 -30.4395 22.3073 -30.4395 22.3073 -30.4395C22.3073 -30.4395 22.3073 -30.4395 22.3073 -30.4395C22.3073 -30.4395 22.3073 -30.4395 22.3073 -30.4395C22.3073 -30.4395 22.3073 -30.4395 22.3073 -30.4395C22.3073 -30.4395 22.3073 -30.4395 22.3073 -30.4395C22.3073 -30.4395 22.3073 -30.4395 22.3073 -30.4395C22.3073 -30.4395 22.3073 -30.4395 22.3073 -30.4395C22.3073 -30.4395 22.3073 -30.4395 22.3073 -30.4395C22.3073 -30.4395 22.3073 -30.4395 22.3073 -30.4395C22.3073 -30.4395 22.3073 -30.4395 22.3073 -30.4395C22.3073 -30.4395 22.3073 -30.4395 22.3073 -30.4395C22.3073 -30.4395 22.3073 -30.4395 22.3073 -30.4395C22.3073 -30.4395 22.3073 -30.4395 22.3073 -30.4395C22.3072 -30.4395 22.3072 -30.4395 22.3072 -30.4395C22.3072 -30.4395 22.3072 -30.4395 22.3072 -30.4395C22.3072 -30.4395 22.3072 -30.4395 22.3072 -30.4395C22.3072 -30.4395 22.3072 -30.4395 22.3072 -30.4395C22.3072 -30.4395 22.3072 -30.4395 22.3072 -30.4395C22.3072 -30.4395 22.3072 -30.4395 22.3072 -30.4395C22.3072 -30.4395 22.3072 -30.4395 22.3072 -30.4395C22.3072 -30.4395 22.3072 -30.4395 22.3072 -30.4395C22.3072 -30.4395 22.3072 -30.4395 22.3072 -30.4395C22.3072 -30.4395 22.3072 -30.4395 22.3072 -30.4395C22.3072 -30.4395 22.3072 -30.4395 22.3072 -30.4395C22.3072 -30.4395 22.3072 -30.4395 22.3072 -30.4395C22.3072 -30.4395 22.3072 -30.4395 22.3072 -30.4395C22.3072 -30.4395 22.3072 -30.4395 22.3072 -30.4395C22.3072 -30.4395 22.3072 -30.4395 22.3072 -30.4395C22.3072 -30.4395 22.3072 -30.4395 22.3072 -30.4395C22.3072 -30.4395 22.3072 -30.4395 22.3072 -30.4395C22.3072 -30.4395 22.3072 -30.4395 22.3072 -30.4395C22.3072 -30.4395 22.3072 -30.4395 22.3071 -30.4395C22.3071 -30.4395 22.3071 -30.4395 22.3071 -30.4395C22.3071 -30.4395 22.3071 -30.4395 22.3071 -30.4395C22.3071 -30.4395 22.3071 -30.4395 22.3071 -30.4395C22.3071 -30.4395 22.3071 -30.4395 22.3071 -30.4395C22.3071 -30.4395 22.3071 -30.4395 22.3071 -30.4395C22.3071 -30.4395 22.3071 -30.4395 22.3071 -30.4395C22.3071 -30.4395 22.3071 -30.4395 22.3071 -30.4395C22.3071 -30.4395 22.3071 -30.4395 22.3071 -30.4395C22.3071 -30.4395 22.3071 -30.4395 22.3071 -30.4395C22.3071 -30.4395 22.3071 -30.4395 22.3071 -30.4395C22.3071 -30.4395 22.3071 -30.4395 22.3071 -30.4395C22.3071 -30.4395 22.3071 -30.4395 22.3071 -30.4395C22.3071 -30.4395 22.3071 -30.4395 22.3071 -30.4395C22.3071 -30.4395 22.3071 -30.4395 22.3071 -30.4395C22.3071 -30.4395 22.3071 -30.4395 22.3071 -30.4395C22.3071 -30.4395 22.3071 -30.4395 22.3071 -30.4395C22.3071 -30.4395 22.3071 -30.4395 22.3071 -30.4395C22.3071 -30.4395 22.3071 -30.4395 22.3071 -30.4395C22.3071 -30.4395 22.3071 -30.4395 22.307 -30.4395C22.307 -30.4395 22.307 -30.4395 22.307 -30.4395C22.307 -30.4395 22.307 -30.4395 22.307 -30.4395C22.307 -30.4395 22.307 -30.4395 22.307 -30.4395C22.307 -30.4395 22.307 -30.4395 22.307 -30.4395C22.307 -30.4395 22.307 -30.4395 22.307 -30.4395C22.307 -30.4395 22.307 -30.4395 22.307 -30.4395C22.307 -30.4395 22.307 -30.4395 22.307 -30.4395C22.307 -30.4395 22.307 -30.4395 22.307 -30.4395C22.307 -30.4395 22.307 -30.4395 22.307 -30.4395C22.307 -30.4395 22.307 -30.4395 22.307 -30.4395C22.307 -30.4395 22.307 -30.4395 22.307 -30.4395C22.307 -30.4395 22.307 -30.4395 22.307 -30.4395C22.307 -30.4395 22.307 -30.4395 22.307 -30.4395C22.307 -30.4395 22.307 -30.4395 22.307 -30.4395C22.307 -30.4395 22.307 -30.4395 22.307 -30.4395C22.307 -30.4395 22.307 -30.4395 22.307 -30.4395C22.307 -30.4395 22.307 -30.4395 22.307 -30.4395C22.307 -30.4395 22.307 -30.4395 22.307 -30.4395C22.307 -30.4395 22.3069 -30.4395 22.3069 -30.4395C22.3069 -30.4395 22.3069 -30.4395 22.3069 -30.4395C22.3069 -30.4395 22.3069 -30.4395 22.3069 -30.4395C22.3069 -30.4395 22.3069 -30.4395 22.3069 -30.4395C22.3069 -30.4395 22.3069 -30.4395 22.3069 -30.4395C22.3069 -30.4395 22.3069 -30.4395 22.3069 -30.4395C22.3069 -30.4395 22.3069 -30.4395 22.3069 -30.4395C22.3069 -30.4395 22.3069 -30.4395 22.3069 -30.4395C22.3069 -30.4395 22.3069 -30.4395 22.3069 -30.4395C22.3069 -30.4395 22.3069 -30.4395 22.3069 -30.4395C22.3069 -30.4395 22.3069 -30.4395 22.3069 -30.4395C22.3069 -30.4395 22.3069 -30.4395 22.3069 -30.4395C22.3069 -30.4395 22.3069 -30.4395 22.3069 -30.4395C22.3069 -30.4395 22.3069 -30.4395 22.3069 -30.4395C22.3069 -30.4395 22.3069 -30.4395 22.3069 -30.4395C22.3069 -30.4395 22.3069 -30.4395 22.3069 -30.4395C22.3069 -30.4395 22.3069 -30.4395 22.3069 -30.4395C22.3069 -30.4395 22.3069 -30.4395 22.3069 -30.4395C22.3069 -30.4395 22.3069 -30.4395 22.3069 -30.4395C22.3069 -30.4395 22.3068 -30.4395 22.3068 -30.4395C22.3068 -30.4395 22.3068 -30.4395 22.3068 -30.4395C22.3068 -30.4395 22.3068 -30.4395 22.3068 -30.4395C22.3068 -30.4395 22.3068 -30.4395 22.3068 -30.4395C22.3068 -30.4395 22.3068 -30.4395 22.3068 -30.4395C22.3068 -30.4395 22.3068 -30.4395 22.3068 -30.4395C22.3068 -30.4395 22.3068 -30.4395 22.3068 -30.4395C22.3068 -30.4395 22.3068 -30.4395 22.3068 -30.4395C22.3068 -30.4395 22.3068 -30.4395 22.3068 -30.4395C22.3068 -30.4395 22.3068 -30.4395 22.3068 -30.4395C22.3068 -30.4395 22.3068 -30.4395 22.3068 -30.4395C22.3068 -30.4395 22.3068 -30.4395 22.3068 -30.4395C22.3068 -30.4395 22.3068 -30.4395 22.3068 -30.4395C22.3068 -30.4395 22.3068 -30.4395 22.3068 -30.4395C22.3068 -30.4395 22.3068 -30.4395 22.3068 -30.4395C22.3068 -30.4395 22.3068 -30.4395 22.3068 -30.4395C22.3068 -30.4395 22.3068 -30.4395 22.3068 -30.4395C22.3068 -30.4395 22.3068 -30.4395 22.3068 -30.4395C22.3068 -30.4395 22.3068 -30.4395 22.3068 -30.4395C22.3067 -30.4395 22.3067 -30.4395 22.3067 -30.4395C22.3067 -30.4395 22.3067 -30.4395 22.3067 -30.4395C22.3067 -30.4395 22.3067 -30.4395 22.3067 -30.4395C22.3067 -30.4395 22.3067 -30.4395 22.3067 -30.4395C22.3067 -30.4395 22.3067 -30.4395 22.3067 -30.4395C22.3067 -30.4395 22.3067 -30.4395 22.3067 -30.4395C22.3067 -30.4395 22.3067 -30.4395 22.3067 -30.4395C22.3067 -30.4395 22.3067 -30.4395 22.3067 -30.4395C22.3067 -30.4395 22.3067 -30.4395 22.3067 -30.4395C22.3067 -30.4395 22.3067 -30.4395 22.3067 -30.4395C22.3067 -30.4395 22.3067 -30.4395 22.3067 -30.4395C22.3067 -30.4395 22.3067 -30.4395 22.3067 -30.4395C22.3067 -30.4395 22.3067 -30.4395 22.3067 -30.4395C22.3067 -30.4395 22.3067 -30.4395 22.3067 -30.4395C22.3067 -30.4395 22.3067 -30.4395 22.3067 -30.4395C22.3067 -30.4395 22.3067 -30.4395 22.3067 -30.4395C22.3067 -30.4395 22.3067 -30.4395 22.3067 -30.4395C22.3067 -30.4395 22.3067 -30.4395 22.3067 -30.4395C22.3067 -30.4395 22.3067 -30.4395 22.3067 -30.4395C22.3066 -30.4395 22.3066 -30.4395 22.3066 -30.4395C22.3066 -30.4395 22.3066 -30.4395 22.3066 -30.4395C22.3066 -30.4395 22.3066 -30.4395 22.3066 -30.4395C22.3066 -30.4395 22.3066 -30.4395 22.3066 -30.4395C22.3066 -30.4395 22.3066 -30.4395 22.3066 -30.4395C22.3066 -30.4395 22.3066 -30.4395 22.3066 -30.4395C22.3066 -30.4395 22.3066 -30.4395 22.3066 -30.4395C22.3066 -30.4395 22.3066 -30.4395 22.3066 -30.4395C22.3066 -30.4395 22.3066 -30.4395 22.3066 -30.4395C22.3066 -30.4395 22.3066 -30.4395 22.3066 -30.4395C22.3066 -30.4395 22.3066 -30.4395 22.3066 -30.4395C22.3066 -30.4395 22.3066 -30.4395 22.3066 -30.4395C22.3066 -30.4395 22.3066 -30.4395 22.3066 -30.4395C22.3066 -30.4395 22.3066 -30.4395 22.3066 -30.4395C22.3066 -30.4395 22.3066 -30.4395 22.3066 -30.4395C22.3066 -30.4395 22.3066 -30.4395 22.3066 -30.4395C22.3066 -30.4395 22.3066 -30.4395 22.3066 -30.4395C22.3066 -30.4395 22.3066 -30.4395 22.3066 -30.4395C22.3066 -30.4395 22.3066 -30.4395 22.3065 -30.4395C22.3065 -30.4395 22.3065 -30.4395 22.3065 -30.4395C22.3065 -30.4395 22.3065 -30.4395 22.3065 -30.4395C22.3065 -30.4395 22.3065 -30.4395 22.3065 -30.4395C22.3065 -30.4395 22.3065 -30.4395 22.3065 -30.4395C22.3065 -30.4395 22.3065 -30.4395 22.3065 -30.4395C22.3065 -30.4395 22.3065 -30.4395 22.3065 -30.4395C22.3065 -30.4395 22.3065 -30.4395 22.3065 -30.4395C22.3065 -30.4395 22.3065 -30.4395 22.3065 -30.4395C22.3065 -30.4395 22.3065 -30.4395 22.3065 -30.4395C22.3065 -30.4395 22.3065 -30.4395 22.3065 -30.4395C22.3065 -30.4395 22.3065 -30.4395 22.3065 -30.4395C22.3065 -30.4395 22.3065 -30.4395 22.3065 -30.4395C22.3065 -30.4395 22.3065 -30.4395 22.3065 -30.4395C22.3065 -30.4395 22.3065 -30.4395 22.3065 -30.4395C22.3065 -30.4395 22.3065 -30.4395 22.3065 -30.4395C22.3065 -30.4395 22.3065 -30.4395 22.3065 -30.4395C22.3065 -30.4395 22.3065 -30.4395 22.3065 -30.4395C22.3065 -30.4395 22.3065 -30.4395 22.3065 -30.4395C22.3065 -30.4395 22.3064 -30.4395 22.3064 -30.4395C22.3064 -30.4395 22.3064 -30.4395 22.3064 -30.4395C22.3064 -30.4395 22.3064 -30.4395 22.3064 -30.4395C22.3064 -30.4395 22.3064 -30.4395 22.3064 -30.4395C22.3064 -30.4395 22.3064 -30.4395 22.3064 -30.4395C22.3064 -30.4395 22.3064 -30.4395 22.3064 -30.4395C22.3064 -30.4395 22.3064 -30.4395 22.3064 -30.4395C22.3064 -30.4395 22.3064 -30.4395 22.3064 -30.4395C22.3064 -30.4395 22.3064 -30.4395 22.3064 -30.4395C22.3064 -30.4395 22.3064 -30.4395 22.3064 -30.4395C22.3064 -30.4395 22.3064 -30.4395 22.3064 -30.4395C22.3064 -30.4395 22.3064 -30.4395 22.3064 -30.4395C22.3064 -30.4395 22.3064 -30.4395 22.3064 -30.4395C22.3064 -30.4395 22.3064 -30.4395 22.3064 -30.4395C22.3064 -30.4395 22.3064 -30.4395 22.3064 -30.4395C22.3064 -30.4395 22.3064 -30.4395 22.3064 -30.4395C22.3064 -30.4395 22.3064 -30.4395 22.3064 -30.4395C22.3064 -30.4395 22.3064 -30.4395 22.3064 -30.4395C22.3064 -30.4395 22.3064 -30.4395 22.3064 -30.4395C22.3064 -30.4395 22.3064 -30.4395 22.3063 -30.4395C22.3063 -30.4395 22.3063 -30.4395 22.3063 -30.4395C22.3063 -30.4395 22.3063 -30.4395 22.3063 -30.4395C22.3063 -30.4395 22.3063 -30.4395 22.3063 -30.4395C22.3063 -30.4395 22.3063 -30.4395 22.3063 -30.4395C22.3063 -30.4395 22.3063 -30.4395 22.3063 -30.4395C22.3063 -30.4395 22.3063 -30.4395 22.3063 -30.4395C22.3063 -30.4395 22.3063 -30.4395 22.3063 -30.4395C22.3063 -30.4395 22.3063 -30.4395 22.3063 -30.4395C22.3063 -30.4395 22.3063 -30.4395 22.3063 -30.4395C22.3063 -30.4395 22.3063 -30.4395 22.3063 -30.4395C22.3063 -30.4395 22.3063 -30.4395 22.3063 -30.4395C22.3063 -30.4395 22.3063 -30.4395 22.3063 -30.4395C22.3063 -30.4395 22.3063 -30.4395 22.3063 -30.4395C22.3063 -30.4395 22.3063 -30.4395 22.3063 -30.4395C22.3063 -30.4395 22.3063 -30.4395 22.3063 -30.4395C22.3063 -30.4395 22.3063 -30.4395 22.3063 -30.4395C22.3063 -30.4395 22.3063 -30.4395 22.3063 -30.4395C22.3063 -30.4395 22.3063 -30.4395 22.3063 -30.4395C22.3063 -30.4395 22.3062 -30.4395 22.3062 -30.4395C22.3062 -30.4395 22.3062 -30.4395 22.3062 -30.4395C22.3062 -30.4395 22.3062 -30.4395 22.3062 -30.4395C22.3062 -30.4395 22.3062 -30.4395 22.3062 -30.4395C22.3062 -30.4395 22.3062 -30.4395 22.3062 -30.4395C22.3062 -30.4395 22.3062 -30.4395 22.3062 -30.4395C22.3062 -30.4395 22.3062 -30.4395 22.3062 -30.4395C22.3062 -30.4395 22.3062 -30.4395 22.3062 -30.4395C22.3062 -30.4395 22.3062 -30.4395 22.3062 -30.4395C22.3062 -30.4395 22.3062 -30.4395 22.3062 -30.4395C22.3062 -30.4395 22.3062 -30.4395 22.3062 -30.4395C22.3062 -30.4395 22.3062 -30.4395 22.3062 -30.4395C22.3062 -30.4395 22.3062 -30.4395 22.3062 -30.4395C22.3062 -30.4395 22.3062 -30.4395 22.3062 -30.4395C22.3062 -30.4395 22.3062 -30.4395 22.3062 -30.4395C22.3062 -30.4395 22.3062 -30.4395 22.3062 -30.4395C22.3062 -30.4395 22.3062 -30.4395 22.3062 -30.4395C22.3062 -30.4395 22.3062 -30.4395 22.3062 -30.4395C22.3062 -30.4395 22.3062 -30.4395 22.3062 -30.4395C22.3062 -30.4395 22.3061 -30.4395 22.3061 -30.4395C22.3061 -30.4395 22.3061 -30.4395 22.3061 -30.4395C22.3061 -30.4395 22.3061 -30.4395 22.3061 -30.4395C22.3061 -30.4395 22.3061 -30.4395 22.3061 -30.4395C22.3061 -30.4395 22.3061 -30.4395 22.3061 -30.4395C22.3061 -30.4395 22.3061 -30.4395 22.3061 -30.4395C22.3061 -30.4395 22.3061 -30.4395 22.3061 -30.4395C22.3061 -30.4395 22.3061 -30.4395 22.3061 -30.4395C22.3061 -30.4395 22.3061 -30.4395 22.3061 -30.4395C22.3061 -30.4395 22.3061 -30.4395 22.3061 -30.4395C22.3061 -30.4395 22.3061 -30.4395 22.3061 -30.4395C22.3061 -30.4395 22.3061 -30.4395 22.3061 -30.4395C22.3061 -30.4395 22.3061 -30.4395 22.3061 -30.4395C22.3061 -30.4395 22.3061 -30.4395 22.3061 -30.4395C22.3061 -30.4395 22.3061 -30.4395 22.3061 -30.4395C22.3061 -30.4395 22.3061 -30.4395 22.3061 -30.4395C22.3061 -30.4395 22.3061 -30.4395 22.3061 -30.4395C22.3061 -30.4395 22.3061 -30.4395 22.3061 -30.4395C22.3061 -30.4395 22.3061 -30.4395 22.3061 -30.4395C22.306 -30.4395 22.306 -30.4395 22.306 -30.4395C22.306 -30.4395 22.306 -30.4395 22.306 -30.4395C22.306 -30.4395 22.306 -30.4395 22.306 -30.4395C22.306 -30.4395 22.306 -30.4395 22.306 -30.4395C22.306 -30.4395 22.306 -30.4395 22.306 -30.4395C22.306 -30.4395 22.306 -30.4395 22.306 -30.4395C22.306 -30.4395 22.306 -30.4395 22.306 -30.4395C22.306 -30.4395 22.306 -30.4395 22.306 -30.4395C22.306 -30.4395 22.306 -30.4395 22.306 -30.4395C22.306 -30.4395 22.306 -30.4395 22.306 -30.4395C22.306 -30.4395 22.306 -30.4395 22.306 -30.4395C22.306 -30.4395 22.306 -30.4395 22.306 -30.4395C22.306 -30.4395 22.306 -30.4395 22.306 -30.4395C22.306 -30.4395 22.306 -30.4395 22.306 -30.4395C22.306 -30.4395 22.306 -30.4395 22.306 -30.4395C22.306 -30.4395 22.306 -30.4395 22.306 -30.4395C22.306 -30.4395 22.306 -30.4395 22.306 -30.4395C22.306 -30.4395 22.306 -30.4395 22.306 -30.4395C22.306 -30.4395 22.306 -30.4395 22.306 -30.4395C22.3059 -30.4395 22.3059 -30.4395 22.3059 -30.4395C22.3059 -30.4395 22.3059 -30.4395 22.3059 -30.4395C22.3059 -30.4395 22.3059 -30.4395 22.3059 -30.4395C22.3059 -30.4395 22.3059 -30.4395 22.3059 -30.4395C22.3059 -30.4395 22.3059 -30.4395 22.3059 -30.4395C22.3059 -30.4395 22.3059 -30.4395 22.3059 -30.4395C22.3059 -30.4395 22.3059 -30.4395 22.3059 -30.4395C22.3059 -30.4395 22.3059 -30.4395 22.3059 -30.4395C22.3059 -30.4395 22.3059 -30.4395 22.3059 -30.4395C22.3059 -30.4395 22.3059 -30.4395 22.3059 -30.4395C22.3059 -30.4395 22.3059 -30.4395 22.3059 -30.4395C22.3059 -30.4395 22.3059 -30.4395 22.3059 -30.4395C22.3059 -30.4395 22.3059 -30.4395 22.3059 -30.4395C22.3059 -30.4395 22.3059 -30.4395 22.3059 -30.4395C22.3059 -30.4395 22.3059 -30.4395 22.3059 -30.4395C22.3059 -30.4395 22.3059 -30.4395 22.3059 -30.4395C22.3059 -30.4395 22.3059 -30.4395 22.3059 -30.4395C22.3059 -30.4395 22.3059 -30.4395 22.3059 -30.4395C22.3059 -30.4395 22.3059 -30.4395 22.3058 -30.4395C22.3058 -30.4395 22.3058 -30.4395 22.3058 -30.4395C22.3058 -30.4395 22.3058 -30.4395 22.3058 -30.4395C22.3058 -30.4395 22.3058 -30.4395 22.3058 -30.4395C22.3058 -30.4395 22.3058 -30.4395 22.3058 -30.4395C22.3058 -30.4395 22.3058 -30.4395 22.3058 -30.4395C22.3058 -30.4395 22.3058 -30.4395 22.3058 -30.4395C22.3058 -30.4395 22.3058 -30.4395 22.3058 -30.4395C22.3058 -30.4395 22.3058 -30.4395 22.3058 -30.4395C22.3058 -30.4395 22.3058 -30.4395 22.3058 -30.4395C22.3058 -30.4395 22.3058 -30.4395 22.3058 -30.4395C22.3058 -30.4395 22.3058 -30.4395 22.3058 -30.4395C22.3058 -30.4395 22.3058 -30.4395 22.3058 -30.4395C22.3058 -30.4395 22.3058 -30.4395 22.3058 -30.4395C22.3058 -30.4395 22.3058 -30.4395 22.3058 -30.4395C22.3058 -30.4395 22.3058 -30.4395 22.3058 -30.4395C22.3058 -30.4395 22.3058 -30.4395 22.3058 -30.4395C22.3058 -30.4395 22.3058 -30.4395 22.3058 -30.4395C22.3058 -30.4395 22.3058 -30.4395 22.3058 -30.4395C22.3058 -30.4395 22.3057 -30.4395 22.3057 -30.4395C22.3057 -30.4395 22.3057 -30.4395 22.3057 -30.4395C22.3057 -30.4395 22.3057 -30.4395 22.3057 -30.4395C22.3057 -30.4395 22.3057 -30.4395 22.3057 -30.4395C22.3057 -30.4395 22.3057 -30.4395 22.3057 -30.4395C22.3057 -30.4395 22.3057 -30.4395 22.3057 -30.4395C22.3057 -30.4395 22.3057 -30.4395 22.3057 -30.4395C22.3057 -30.4395 22.3057 -30.4395 22.3057 -30.4395C22.3057 -30.4395 22.3057 -30.4395 22.3057 -30.4395C22.3057 -30.4395 22.3057 -30.4395 22.3057 -30.4395C22.3057 -30.4395 22.3057 -30.4395 22.3057 -30.4395C22.3057 -30.4395 22.3057 -30.4395 22.3057 -30.4395C22.3057 -30.4395 22.3057 -30.4395 22.3057 -30.4395C22.3057 -30.4395 22.3057 -30.4395 22.3057 -30.4395C22.3057 -30.4395 22.3057 -30.4395 22.3057 -30.4395C22.3057 -30.4395 22.3057 -30.4395 22.3057 -30.4395C22.3057 -30.4395 22.3057 -30.4395 22.3057 -30.4395C22.3057 -30.4395 22.3057 -30.4395 22.3057 -30.4395C22.3057 -30.4395 22.3057 -30.4395 22.3057 -30.4395C22.3057 -30.4395 22.3056 -30.4395 22.3056 -30.4395C22.3056 -30.4395 22.3056 -30.4395 22.3056 -30.4395C22.3056 -30.4395 22.3056 -30.4395 22.3056 -30.4395C22.3056 -30.4395 22.3056 -30.4395 22.3056 -30.4395C22.3056 -30.4395 22.3056 -30.4395 22.3056 -30.4395C22.3056 -30.4395 22.3056 -30.4395 22.3056 -30.4395C22.3056 -30.4395 22.3056 -30.4395 22.3056 -30.4395C22.3056 -30.4395 22.3056 -30.4395 22.3056 -30.4395C22.3056 -30.4395 22.3056 -30.4395 22.3056 -30.4395C22.3056 -30.4395 22.3056 -30.4395 22.3056 -30.4395C22.3056 -30.4395 22.3056 -30.4395 22.3056 -30.4395C22.3056 -30.4395 22.3056 -30.4395 22.3056 -30.4395C22.3056 -30.4395 22.3056 -30.4395 22.3056 -30.4395C22.3056 -30.4395 22.3056 -30.4395 22.3056 -30.4395C22.3056 -30.4395 22.3056 -30.4395 22.3056 -30.4395C22.3056 -30.4395 22.3056 -30.4395 22.3056 -30.4395C22.3056 -30.4395 22.3056 -30.4395 22.3056 -30.4395C22.3056 -30.4395 22.3056 -30.4395 22.3056 -30.4395C22.3056 -30.4395 22.3056 -30.4395 22.3056 -30.4395C22.3055 -30.4395 22.3055 -30.4395 22.3055 -30.4395C22.3055 -30.4395 22.3055 -30.4395 22.3055 -30.4395C22.3055 -30.4395 22.3055 -30.4395 22.3055 -30.4395C22.3055 -30.4395 22.3055 -30.4395 22.3055 -30.4395C22.3055 -30.4395 22.3055 -30.4395 22.3055 -30.4395C22.3055 -30.4395 22.3055 -30.4395 22.3055 -30.4395C22.3055 -30.4395 22.3055 -30.4395 22.3055 -30.4395C22.3055 -30.4395 22.3055 -30.4395 22.3055 -30.4395C22.3055 -30.4395 22.3055 -30.4395 22.3055 -30.4395C22.3055 -30.4395 22.3055 -30.4395 22.3055 -30.4395C22.3055 -30.4395 22.3055 -30.4395 22.3055 -30.4395C22.3055 -30.4395 22.3055 -30.4395 22.3055 -30.4395C22.3055 -30.4395 22.3055 -30.4395 22.3055 -30.4395C22.3055 -30.4395 22.3055 -30.4395 22.3055 -30.4395C22.3055 -30.4395 22.3055 -30.4395 22.3055 -30.4395C22.3055 -30.4395 22.3055 -30.4395 22.3055 -30.4395C22.3055 -30.4395 22.3055 -30.4395 22.3055 -30.4395C22.3055 -30.4395 22.3055 -30.4395 22.3055 -30.4395C22.3055 -30.4395 22.3055 -30.4395 22.3055 -30.4395C22.3055 -30.4395 22.3054 -30.4395 22.3054 -30.4395C22.3054 -30.4395 22.3054 -30.4395 22.3054 -30.4395C22.3054 -30.4395 22.3054 -30.4395 22.3054 -30.4395C22.3054 -30.4395 22.3054 -30.4395 22.3054 -30.4395C22.3054 -30.4395 22.3054 -30.4395 22.3054 -30.4395C22.3054 -30.4395 22.3054 -30.4395 22.3054 -30.4395C22.3054 -30.4395 22.3054 -30.4395 22.3054 -30.4395C22.3054 -30.4395 22.3054 -30.4395 22.3054 -30.4395C22.3054 -30.4395 22.3054 -30.4395 22.3054 -30.4395C22.3054 -30.4395 22.3054 -30.4395 22.3054 -30.4395C22.3054 -30.4395 22.3054 -30.4395 22.3054 -30.4395C22.3054 -30.4395 22.3054 -30.4395 22.3054 -30.4395C22.3054 -30.4395 22.3054 -30.4395 22.3054 -30.4395C22.3054 -30.4395 22.3054 -30.4395 22.3054 -30.4395C22.3054 -30.4395 22.3054 -30.4395 22.3054 -30.4395C22.3054 -30.4395 22.3054 -30.4395 22.3054 -30.4395C22.3054 -30.4395 22.3054 -30.4395 22.3054 -30.4395C22.3054 -30.4395 22.3054 -30.4395 22.3054 -30.4395C22.3054 -30.4395 22.3054 -30.4395 22.3054 -30.4395C22.3053 -30.4395 22.3053 -30.4395 22.3053 -30.4395C22.3053 -30.4395 22.3053 -30.4395 22.3053 -30.4395C22.3053 -30.4395 22.3053 -30.4395 22.3053 -30.4395C22.3053 -30.4395 22.3053 -30.4395 22.3053 -30.4395C22.3053 -30.4395 22.3053 -30.4395 22.3053 -30.4395C22.3053 -30.4395 22.3053 -30.4395 22.3053 -30.4395C22.3053 -30.4395 22.3053 -30.4395 22.3053 -30.4395C22.3053 -30.4395 22.3053 -30.4395 22.3053 -30.4395C22.3053 -30.4395 22.3053 -30.4395 22.3053 -30.4395C22.3053 -30.4395 22.3053 -30.4395 22.3053 -30.4395C22.3053 -30.4395 22.3053 -30.4395 22.3053 -30.4395C22.3053 -30.4395 22.3053 -30.4395 22.3053 -30.4395C22.3053 -30.4395 22.3053 -30.4395 22.3053 -30.4395C22.3053 -30.4395 22.3053 -30.4395 22.3053 -30.4395C22.3053 -30.4395 22.3053 -30.4395 22.3053 -30.4395C22.3053 -30.4395 22.3053 -30.4395 22.3053 -30.4395C22.3053 -30.4395 22.3053 -30.4395 22.3053 -30.4395C22.3053 -30.4395 22.3053 -30.4395 22.3053 -30.4395C22.3053 -30.4395 22.3053 -30.4395 22.3053 -30.4395C22.3052 -30.4395 22.3052 -30.4395 22.3052 -30.4395C22.3052 -30.4395 22.3052 -30.4395 22.3052 -30.4395C22.3052 -30.4395 22.3052 -30.4395 22.3052 -30.4395C22.3052 -30.4395 22.3052 -30.4395 22.3052 -30.4395C22.3052 -30.4395 22.3052 -30.4395 22.3052 -30.4395C22.3052 -30.4395 22.3052 -30.4395 22.3052 -30.4395C22.3052 -30.4395 22.3052 -30.4395 22.3052 -30.4395C22.3052 -30.4395 22.3052 -30.4395 22.3052 -30.4395C22.3052 -30.4395 22.3052 -30.4395 22.3052 -30.4395C22.3052 -30.4395 22.3052 -30.4395 22.3052 -30.4395C22.3052 -30.4395 22.3052 -30.4395 22.3052 -30.4395C22.3052 -30.4395 22.3052 -30.4395 22.3052 -30.4395C22.3052 -30.4395 22.3052 -30.4395 22.3052 -30.4395C22.3052 -30.4395 22.3052 -30.4395 22.3052 -30.4395C22.3052 -30.4395 22.3052 -30.4395 22.3052 -30.4395C22.3052 -30.4395 22.3052 -30.4395 22.3052 -30.4395C22.3052 -30.4395 22.3052 -30.4395 22.3052 -30.4395C22.3052 -30.4395 22.3052 -30.4395 22.3052 -30.4395C22.3052 -30.4395 22.3052 -30.4395 22.3051 -30.4395C22.3051 -30.4395 22.3051 -30.4395 22.3051 -30.4395V49.5605C22.3051 49.5605 22.3051 49.5605 22.3051 49.5605C22.3052 49.5605 22.3052 49.5605 22.3052 49.5605C22.3052 49.5605 22.3052 49.5605 22.3052 49.5605C22.3052 49.5605 22.3052 49.5605 22.3052 49.5605C22.3052 49.5605 22.3052 49.5605 22.3052 49.5605C22.3052 49.5605 22.3052 49.5605 22.3052 49.5605C22.3052 49.5605 22.3052 49.5605 22.3052 49.5605C22.3052 49.5605 22.3052 49.5605 22.3052 49.5605C22.3052 49.5605 22.3052 49.5605 22.3052 49.5605C22.3052 49.5605 22.3052 49.5605 22.3052 49.5605C22.3052 49.5605 22.3052 49.5605 22.3052 49.5605C22.3052 49.5605 22.3052 49.5605 22.3052 49.5605C22.3052 49.5605 22.3052 49.5605 22.3052 49.5605C22.3052 49.5605 22.3052 49.5605 22.3052 49.5605C22.3052 49.5605 22.3052 49.5605 22.3052 49.5605C22.3052 49.5605 22.3052 49.5605 22.3052 49.5605C22.3052 49.5605 22.3052 49.5605 22.3052 49.5605C22.3052 49.5605 22.3052 49.5605 22.3052 49.5605C22.3052 49.5605 22.3052 49.5605 22.3052 49.5605C22.3052 49.5605 22.3052 49.5605 22.3053 49.5605C22.3053 49.5605 22.3053 49.5605 22.3053 49.5605C22.3053 49.5605 22.3053 49.5605 22.3053 49.5605C22.3053 49.5605 22.3053 49.5605 22.3053 49.5605C22.3053 49.5605 22.3053 49.5605 22.3053 49.5605C22.3053 49.5605 22.3053 49.5605 22.3053 49.5605C22.3053 49.5605 22.3053 49.5605 22.3053 49.5605C22.3053 49.5605 22.3053 49.5605 22.3053 49.5605C22.3053 49.5605 22.3053 49.5605 22.3053 49.5605C22.3053 49.5605 22.3053 49.5605 22.3053 49.5605C22.3053 49.5605 22.3053 49.5605 22.3053 49.5605C22.3053 49.5605 22.3053 49.5605 22.3053 49.5605C22.3053 49.5605 22.3053 49.5605 22.3053 49.5605C22.3053 49.5605 22.3053 49.5605 22.3053 49.5605C22.3053 49.5605 22.3053 49.5605 22.3053 49.5605C22.3053 49.5605 22.3053 49.5605 22.3053 49.5605C22.3053 49.5605 22.3053 49.5605 22.3053 49.5605C22.3053 49.5605 22.3053 49.5605 22.3053 49.5605C22.3053 49.5605 22.3053 49.5605 22.3053 49.5605C22.3053 49.5605 22.3053 49.5605 22.3054 49.5605C22.3054 49.5605 22.3054 49.5605 22.3054 49.5605C22.3054 49.5605 22.3054 49.5605 22.3054 49.5605C22.3054 49.5605 22.3054 49.5605 22.3054 49.5605C22.3054 49.5605 22.3054 49.5605 22.3054 49.5605C22.3054 49.5605 22.3054 49.5605 22.3054 49.5605C22.3054 49.5605 22.3054 49.5605 22.3054 49.5605C22.3054 49.5605 22.3054 49.5605 22.3054 49.5605C22.3054 49.5605 22.3054 49.5605 22.3054 49.5605C22.3054 49.5605 22.3054 49.5605 22.3054 49.5605C22.3054 49.5605 22.3054 49.5605 22.3054 49.5605C22.3054 49.5605 22.3054 49.5605 22.3054 49.5605C22.3054 49.5605 22.3054 49.5605 22.3054 49.5605C22.3054 49.5605 22.3054 49.5605 22.3054 49.5605C22.3054 49.5605 22.3054 49.5605 22.3054 49.5605C22.3054 49.5605 22.3054 49.5605 22.3054 49.5605C22.3054 49.5605 22.3054 49.5605 22.3054 49.5605C22.3054 49.5605 22.3054 49.5605 22.3054 49.5605C22.3054 49.5605 22.3054 49.5605 22.3054 49.5605C22.3054 49.5605 22.3055 49.5605 22.3055 49.5605C22.3055 49.5605 22.3055 49.5605 22.3055 49.5605C22.3055 49.5605 22.3055 49.5605 22.3055 49.5605C22.3055 49.5605 22.3055 49.5605 22.3055 49.5605C22.3055 49.5605 22.3055 49.5605 22.3055 49.5605C22.3055 49.5605 22.3055 49.5605 22.3055 49.5605C22.3055 49.5605 22.3055 49.5605 22.3055 49.5605C22.3055 49.5605 22.3055 49.5605 22.3055 49.5605C22.3055 49.5605 22.3055 49.5605 22.3055 49.5605C22.3055 49.5605 22.3055 49.5605 22.3055 49.5605C22.3055 49.5605 22.3055 49.5605 22.3055 49.5605C22.3055 49.5605 22.3055 49.5605 22.3055 49.5605C22.3055 49.5605 22.3055 49.5605 22.3055 49.5605C22.3055 49.5605 22.3055 49.5605 22.3055 49.5605C22.3055 49.5605 22.3055 49.5605 22.3055 49.5605C22.3055 49.5605 22.3055 49.5605 22.3055 49.5605C22.3055 49.5605 22.3055 49.5605 22.3055 49.5605C22.3055 49.5605 22.3055 49.5605 22.3055 49.5605C22.3055 49.5605 22.3055 49.5605 22.3055 49.5605C22.3055 49.5605 22.3055 49.5605 22.3056 49.5605C22.3056 49.5605 22.3056 49.5605 22.3056 49.5605C22.3056 49.5605 22.3056 49.5605 22.3056 49.5605C22.3056 49.5605 22.3056 49.5605 22.3056 49.5605C22.3056 49.5605 22.3056 49.5605 22.3056 49.5605C22.3056 49.5605 22.3056 49.5605 22.3056 49.5605C22.3056 49.5605 22.3056 49.5605 22.3056 49.5605C22.3056 49.5605 22.3056 49.5605 22.3056 49.5605C22.3056 49.5605 22.3056 49.5605 22.3056 49.5605C22.3056 49.5605 22.3056 49.5605 22.3056 49.5605C22.3056 49.5605 22.3056 49.5605 22.3056 49.5605C22.3056 49.5605 22.3056 49.5605 22.3056 49.5605C22.3056 49.5605 22.3056 49.5605 22.3056 49.5605C22.3056 49.5605 22.3056 49.5605 22.3056 49.5605C22.3056 49.5605 22.3056 49.5605 22.3056 49.5605C22.3056 49.5605 22.3056 49.5605 22.3056 49.5605C22.3056 49.5605 22.3056 49.5605 22.3056 49.5605C22.3056 49.5605 22.3056 49.5605 22.3056 49.5605C22.3056 49.5605 22.3056 49.5605 22.3056 49.5605C22.3056 49.5605 22.3057 49.5605 22.3057 49.5605C22.3057 49.5605 22.3057 49.5605 22.3057 49.5605C22.3057 49.5605 22.3057 49.5605 22.3057 49.5605C22.3057 49.5605 22.3057 49.5605 22.3057 49.5605C22.3057 49.5605 22.3057 49.5605 22.3057 49.5605C22.3057 49.5605 22.3057 49.5605 22.3057 49.5605C22.3057 49.5605 22.3057 49.5605 22.3057 49.5605C22.3057 49.5605 22.3057 49.5605 22.3057 49.5605C22.3057 49.5605 22.3057 49.5605 22.3057 49.5605C22.3057 49.5605 22.3057 49.5605 22.3057 49.5605C22.3057 49.5605 22.3057 49.5605 22.3057 49.5605C22.3057 49.5605 22.3057 49.5605 22.3057 49.5605C22.3057 49.5605 22.3057 49.5605 22.3057 49.5605C22.3057 49.5605 22.3057 49.5605 22.3057 49.5605C22.3057 49.5605 22.3057 49.5605 22.3057 49.5605C22.3057 49.5605 22.3057 49.5605 22.3057 49.5605C22.3057 49.5605 22.3057 49.5605 22.3057 49.5605C22.3057 49.5605 22.3057 49.5605 22.3057 49.5605C22.3057 49.5605 22.3057 49.5605 22.3057 49.5605C22.3057 49.5605 22.3058 49.5605 22.3058 49.5605C22.3058 49.5605 22.3058 49.5605 22.3058 49.5605C22.3058 49.5605 22.3058 49.5605 22.3058 49.5605C22.3058 49.5605 22.3058 49.5605 22.3058 49.5605C22.3058 49.5605 22.3058 49.5605 22.3058 49.5605C22.3058 49.5605 22.3058 49.5605 22.3058 49.5605C22.3058 49.5605 22.3058 49.5605 22.3058 49.5605C22.3058 49.5605 22.3058 49.5605 22.3058 49.5605C22.3058 49.5605 22.3058 49.5605 22.3058 49.5605C22.3058 49.5605 22.3058 49.5605 22.3058 49.5605C22.3058 49.5605 22.3058 49.5605 22.3058 49.5605C22.3058 49.5605 22.3058 49.5605 22.3058 49.5605C22.3058 49.5605 22.3058 49.5605 22.3058 49.5605C22.3058 49.5605 22.3058 49.5605 22.3058 49.5605C22.3058 49.5605 22.3058 49.5605 22.3058 49.5605C22.3058 49.5605 22.3058 49.5605 22.3058 49.5605C22.3058 49.5605 22.3058 49.5605 22.3058 49.5605C22.3058 49.5605 22.3058 49.5605 22.3058 49.5605C22.3058 49.5605 22.3058 49.5605 22.3058 49.5605C22.3059 49.5605 22.3059 49.5605 22.3059 49.5605C22.3059 49.5605 22.3059 49.5605 22.3059 49.5605C22.3059 49.5605 22.3059 49.5605 22.3059 49.5605C22.3059 49.5605 22.3059 49.5605 22.3059 49.5605C22.3059 49.5605 22.3059 49.5605 22.3059 49.5605C22.3059 49.5605 22.3059 49.5605 22.3059 49.5605C22.3059 49.5605 22.3059 49.5605 22.3059 49.5605C22.3059 49.5605 22.3059 49.5605 22.3059 49.5605C22.3059 49.5605 22.3059 49.5605 22.3059 49.5605C22.3059 49.5605 22.3059 49.5605 22.3059 49.5605C22.3059 49.5605 22.3059 49.5605 22.3059 49.5605C22.3059 49.5605 22.3059 49.5605 22.3059 49.5605C22.3059 49.5605 22.3059 49.5605 22.3059 49.5605C22.3059 49.5605 22.3059 49.5605 22.3059 49.5605C22.3059 49.5605 22.3059 49.5605 22.3059 49.5605C22.3059 49.5605 22.3059 49.5605 22.3059 49.5605C22.3059 49.5605 22.3059 49.5605 22.3059 49.5605C22.3059 49.5605 22.3059 49.5605 22.3059 49.5605C22.3059 49.5605 22.3059 49.5605 22.306 49.5605C22.306 49.5605 22.306 49.5605 22.306 49.5605C22.306 49.5605 22.306 49.5605 22.306 49.5605C22.306 49.5605 22.306 49.5605 22.306 49.5605C22.306 49.5605 22.306 49.5605 22.306 49.5605C22.306 49.5605 22.306 49.5605 22.306 49.5605C22.306 49.5605 22.306 49.5605 22.306 49.5605C22.306 49.5605 22.306 49.5605 22.306 49.5605C22.306 49.5605 22.306 49.5605 22.306 49.5605C22.306 49.5605 22.306 49.5605 22.306 49.5605C22.306 49.5605 22.306 49.5605 22.306 49.5605C22.306 49.5605 22.306 49.5605 22.306 49.5605C22.306 49.5605 22.306 49.5605 22.306 49.5605C22.306 49.5605 22.306 49.5605 22.306 49.5605C22.306 49.5605 22.306 49.5605 22.306 49.5605C22.306 49.5605 22.306 49.5605 22.306 49.5605C22.306 49.5605 22.306 49.5605 22.306 49.5605C22.306 49.5605 22.306 49.5605 22.306 49.5605C22.306 49.5605 22.306 49.5605 22.306 49.5605C22.306 49.5605 22.306 49.5605 22.3061 49.5605C22.3061 49.5605 22.3061 49.5605 22.3061 49.5605C22.3061 49.5605 22.3061 49.5605 22.3061 49.5605C22.3061 49.5605 22.3061 49.5605 22.3061 49.5605C22.3061 49.5605 22.3061 49.5605 22.3061 49.5605C22.3061 49.5605 22.3061 49.5605 22.3061 49.5605C22.3061 49.5605 22.3061 49.5605 22.3061 49.5605C22.3061 49.5605 22.3061 49.5605 22.3061 49.5605C22.3061 49.5605 22.3061 49.5605 22.3061 49.5605C22.3061 49.5605 22.3061 49.5605 22.3061 49.5605C22.3061 49.5605 22.3061 49.5605 22.3061 49.5605C22.3061 49.5605 22.3061 49.5605 22.3061 49.5605C22.3061 49.5605 22.3061 49.5605 22.3061 49.5605C22.3061 49.5605 22.3061 49.5605 22.3061 49.5605C22.3061 49.5605 22.3061 49.5605 22.3061 49.5605C22.3061 49.5605 22.3061 49.5605 22.3061 49.5605C22.3061 49.5605 22.3061 49.5605 22.3061 49.5605C22.3061 49.5605 22.3061 49.5605 22.3061 49.5605C22.3061 49.5605 22.3061 49.5605 22.3061 49.5605C22.3061 49.5605 22.3062 49.5605 22.3062 49.5605C22.3062 49.5605 22.3062 49.5605 22.3062 49.5605C22.3062 49.5605 22.3062 49.5605 22.3062 49.5605C22.3062 49.5605 22.3062 49.5605 22.3062 49.5605C22.3062 49.5605 22.3062 49.5605 22.3062 49.5605C22.3062 49.5605 22.3062 49.5605 22.3062 49.5605C22.3062 49.5605 22.3062 49.5605 22.3062 49.5605C22.3062 49.5605 22.3062 49.5605 22.3062 49.5605C22.3062 49.5605 22.3062 49.5605 22.3062 49.5605C22.3062 49.5605 22.3062 49.5605 22.3062 49.5605C22.3062 49.5605 22.3062 49.5605 22.3062 49.5605C22.3062 49.5605 22.3062 49.5605 22.3062 49.5605C22.3062 49.5605 22.3062 49.5605 22.3062 49.5605C22.3062 49.5605 22.3062 49.5605 22.3062 49.5605C22.3062 49.5605 22.3062 49.5605 22.3062 49.5605C22.3062 49.5605 22.3062 49.5605 22.3062 49.5605C22.3062 49.5605 22.3062 49.5605 22.3062 49.5605C22.3062 49.5605 22.3062 49.5605 22.3062 49.5605C22.3062 49.5605 22.3062 49.5605 22.3062 49.5605C22.3062 49.5605 22.3063 49.5605 22.3063 49.5605C22.3063 49.5605 22.3063 49.5605 22.3063 49.5605C22.3063 49.5605 22.3063 49.5605 22.3063 49.5605C22.3063 49.5605 22.3063 49.5605 22.3063 49.5605C22.3063 49.5605 22.3063 49.5605 22.3063 49.5605C22.3063 49.5605 22.3063 49.5605 22.3063 49.5605C22.3063 49.5605 22.3063 49.5605 22.3063 49.5605C22.3063 49.5605 22.3063 49.5605 22.3063 49.5605C22.3063 49.5605 22.3063 49.5605 22.3063 49.5605C22.3063 49.5605 22.3063 49.5605 22.3063 49.5605C22.3063 49.5605 22.3063 49.5605 22.3063 49.5605C22.3063 49.5605 22.3063 49.5605 22.3063 49.5605C22.3063 49.5605 22.3063 49.5605 22.3063 49.5605C22.3063 49.5605 22.3063 49.5605 22.3063 49.5605C22.3063 49.5605 22.3063 49.5605 22.3063 49.5605C22.3063 49.5605 22.3063 49.5605 22.3063 49.5605C22.3063 49.5605 22.3063 49.5605 22.3063 49.5605C22.3063 49.5605 22.3063 49.5605 22.3063 49.5605C22.3063 49.5605 22.3063 49.5605 22.3063 49.5605C22.3064 49.5605 22.3064 49.5605 22.3064 49.5605C22.3064 49.5605 22.3064 49.5605 22.3064 49.5605C22.3064 49.5605 22.3064 49.5605 22.3064 49.5605C22.3064 49.5605 22.3064 49.5605 22.3064 49.5605C22.3064 49.5605 22.3064 49.5605 22.3064 49.5605C22.3064 49.5605 22.3064 49.5605 22.3064 49.5605C22.3064 49.5605 22.3064 49.5605 22.3064 49.5605C22.3064 49.5605 22.3064 49.5605 22.3064 49.5605C22.3064 49.5605 22.3064 49.5605 22.3064 49.5605C22.3064 49.5605 22.3064 49.5605 22.3064 49.5605C22.3064 49.5605 22.3064 49.5605 22.3064 49.5605C22.3064 49.5605 22.3064 49.5605 22.3064 49.5605C22.3064 49.5605 22.3064 49.5605 22.3064 49.5605C22.3064 49.5605 22.3064 49.5605 22.3064 49.5605C22.3064 49.5605 22.3064 49.5605 22.3064 49.5605C22.3064 49.5605 22.3064 49.5605 22.3064 49.5605C22.3064 49.5605 22.3064 49.5605 22.3064 49.5605C22.3064 49.5605 22.3064 49.5605 22.3064 49.5605C22.3064 49.5605 22.3064 49.5605 22.3064 49.5605C22.3064 49.5605 22.3065 49.5605 22.3065 49.5605C22.3065 49.5605 22.3065 49.5605 22.3065 49.5605C22.3065 49.5605 22.3065 49.5605 22.3065 49.5605C22.3065 49.5605 22.3065 49.5605 22.3065 49.5605C22.3065 49.5605 22.3065 49.5605 22.3065 49.5605C22.3065 49.5605 22.3065 49.5605 22.3065 49.5605C22.3065 49.5605 22.3065 49.5605 22.3065 49.5605C22.3065 49.5605 22.3065 49.5605 22.3065 49.5605C22.3065 49.5605 22.3065 49.5605 22.3065 49.5605C22.3065 49.5605 22.3065 49.5605 22.3065 49.5605C22.3065 49.5605 22.3065 49.5605 22.3065 49.5605C22.3065 49.5605 22.3065 49.5605 22.3065 49.5605C22.3065 49.5605 22.3065 49.5605 22.3065 49.5605C22.3065 49.5605 22.3065 49.5605 22.3065 49.5605C22.3065 49.5605 22.3065 49.5605 22.3065 49.5605C22.3065 49.5605 22.3065 49.5605 22.3065 49.5605C22.3065 49.5605 22.3065 49.5605 22.3065 49.5605C22.3065 49.5605 22.3065 49.5605 22.3065 49.5605C22.3065 49.5605 22.3065 49.5605 22.3065 49.5605C22.3066 49.5605 22.3066 49.5605 22.3066 49.5605C22.3066 49.5605 22.3066 49.5605 22.3066 49.5605C22.3066 49.5605 22.3066 49.5605 22.3066 49.5605C22.3066 49.5605 22.3066 49.5605 22.3066 49.5605C22.3066 49.5605 22.3066 49.5605 22.3066 49.5605C22.3066 49.5605 22.3066 49.5605 22.3066 49.5605C22.3066 49.5605 22.3066 49.5605 22.3066 49.5605C22.3066 49.5605 22.3066 49.5605 22.3066 49.5605C22.3066 49.5605 22.3066 49.5605 22.3066 49.5605C22.3066 49.5605 22.3066 49.5605 22.3066 49.5605C22.3066 49.5605 22.3066 49.5605 22.3066 49.5605C22.3066 49.5605 22.3066 49.5605 22.3066 49.5605C22.3066 49.5605 22.3066 49.5605 22.3066 49.5605C22.3066 49.5605 22.3066 49.5605 22.3066 49.5605C22.3066 49.5605 22.3066 49.5605 22.3066 49.5605C22.3066 49.5605 22.3066 49.5605 22.3066 49.5605C22.3066 49.5605 22.3066 49.5605 22.3066 49.5605C22.3066 49.5605 22.3066 49.5605 22.3066 49.5605C22.3066 49.5605 22.3066 49.5605 22.3067 49.5605C22.3067 49.5605 22.3067 49.5605 22.3067 49.5605C22.3067 49.5605 22.3067 49.5605 22.3067 49.5605C22.3067 49.5605 22.3067 49.5605 22.3067 49.5605C22.3067 49.5605 22.3067 49.5605 22.3067 49.5605C22.3067 49.5605 22.3067 49.5605 22.3067 49.5605C22.3067 49.5605 22.3067 49.5605 22.3067 49.5605C22.3067 49.5605 22.3067 49.5605 22.3067 49.5605C22.3067 49.5605 22.3067 49.5605 22.3067 49.5605C22.3067 49.5605 22.3067 49.5605 22.3067 49.5605C22.3067 49.5605 22.3067 49.5605 22.3067 49.5605C22.3067 49.5605 22.3067 49.5605 22.3067 49.5605C22.3067 49.5605 22.3067 49.5605 22.3067 49.5605C22.3067 49.5605 22.3067 49.5605 22.3067 49.5605C22.3067 49.5605 22.3067 49.5605 22.3067 49.5605C22.3067 49.5605 22.3067 49.5605 22.3067 49.5605C22.3067 49.5605 22.3067 49.5605 22.3067 49.5605C22.3067 49.5605 22.3067 49.5605 22.3067 49.5605C22.3067 49.5605 22.3067 49.5605 22.3067 49.5605C22.3067 49.5605 22.3067 49.5605 22.3068 49.5605C22.3068 49.5605 22.3068 49.5605 22.3068 49.5605C22.3068 49.5605 22.3068 49.5605 22.3068 49.5605C22.3068 49.5605 22.3068 49.5605 22.3068 49.5605C22.3068 49.5605 22.3068 49.5605 22.3068 49.5605C22.3068 49.5605 22.3068 49.5605 22.3068 49.5605C22.3068 49.5605 22.3068 49.5605 22.3068 49.5605C22.3068 49.5605 22.3068 49.5605 22.3068 49.5605C22.3068 49.5605 22.3068 49.5605 22.3068 49.5605C22.3068 49.5605 22.3068 49.5605 22.3068 49.5605C22.3068 49.5605 22.3068 49.5605 22.3068 49.5605C22.3068 49.5605 22.3068 49.5605 22.3068 49.5605C22.3068 49.5605 22.3068 49.5605 22.3068 49.5605C22.3068 49.5605 22.3068 49.5605 22.3068 49.5605C22.3068 49.5605 22.3068 49.5605 22.3068 49.5605C22.3068 49.5605 22.3068 49.5605 22.3068 49.5605C22.3068 49.5605 22.3068 49.5605 22.3068 49.5605C22.3068 49.5605 22.3068 49.5605 22.3068 49.5605C22.3068 49.5605 22.3068 49.5605 22.3068 49.5605C22.3068 49.5605 22.3069 49.5605 22.3069 49.5605C22.3069 49.5605 22.3069 49.5605 22.3069 49.5605C22.3069 49.5605 22.3069 49.5605 22.3069 49.5605C22.3069 49.5605 22.3069 49.5605 22.3069 49.5605C22.3069 49.5605 22.3069 49.5605 22.3069 49.5605C22.3069 49.5605 22.3069 49.5605 22.3069 49.5605C22.3069 49.5605 22.3069 49.5605 22.3069 49.5605C22.3069 49.5605 22.3069 49.5605 22.3069 49.5605C22.3069 49.5605 22.3069 49.5605 22.3069 49.5605C22.3069 49.5605 22.3069 49.5605 22.3069 49.5605C22.3069 49.5605 22.3069 49.5605 22.3069 49.5605C22.3069 49.5605 22.3069 49.5605 22.3069 49.5605C22.3069 49.5605 22.3069 49.5605 22.3069 49.5605C22.3069 49.5605 22.3069 49.5605 22.3069 49.5605C22.3069 49.5605 22.3069 49.5605 22.3069 49.5605C22.3069 49.5605 22.3069 49.5605 22.3069 49.5605C22.3069 49.5605 22.3069 49.5605 22.3069 49.5605C22.3069 49.5605 22.3069 49.5605 22.3069 49.5605C22.3069 49.5605 22.3069 49.5605 22.3069 49.5605C22.3069 49.5605 22.307 49.5605 22.307 49.5605C22.307 49.5605 22.307 49.5605 22.307 49.5605C22.307 49.5605 22.307 49.5605 22.307 49.5605C22.307 49.5605 22.307 49.5605 22.307 49.5605C22.307 49.5605 22.307 49.5605 22.307 49.5605C22.307 49.5605 22.307 49.5605 22.307 49.5605C22.307 49.5605 22.307 49.5605 22.307 49.5605C22.307 49.5605 22.307 49.5605 22.307 49.5605C22.307 49.5605 22.307 49.5605 22.307 49.5605C22.307 49.5605 22.307 49.5605 22.307 49.5605C22.307 49.5605 22.307 49.5605 22.307 49.5605C22.307 49.5605 22.307 49.5605 22.307 49.5605C22.307 49.5605 22.307 49.5605 22.307 49.5605C22.307 49.5605 22.307 49.5605 22.307 49.5605C22.307 49.5605 22.307 49.5605 22.307 49.5605C22.307 49.5605 22.307 49.5605 22.307 49.5605C22.307 49.5605 22.307 49.5605 22.307 49.5605C22.307 49.5605 22.307 49.5605 22.307 49.5605C22.307 49.5605 22.307 49.5605 22.307 49.5605C22.3071 49.5605 22.3071 49.5605 22.3071 49.5605C22.3071 49.5605 22.3071 49.5605 22.3071 49.5605C22.3071 49.5605 22.3071 49.5605 22.3071 49.5605C22.3071 49.5605 22.3071 49.5605 22.3071 49.5605C22.3071 49.5605 22.3071 49.5605 22.3071 49.5605C22.3071 49.5605 22.3071 49.5605 22.3071 49.5605C22.3071 49.5605 22.3071 49.5605 22.3071 49.5605C22.3071 49.5605 22.3071 49.5605 22.3071 49.5605C22.3071 49.5605 22.3071 49.5605 22.3071 49.5605C22.3071 49.5605 22.3071 49.5605 22.3071 49.5605C22.3071 49.5605 22.3071 49.5605 22.3071 49.5605C22.3071 49.5605 22.3071 49.5605 22.3071 49.5605C22.3071 49.5605 22.3071 49.5605 22.3071 49.5605C22.3071 49.5605 22.3071 49.5605 22.3071 49.5605C22.3071 49.5605 22.3071 49.5605 22.3071 49.5605C22.3071 49.5605 22.3071 49.5605 22.3071 49.5605C22.3071 49.5605 22.3071 49.5605 22.3071 49.5605C22.3071 49.5605 22.3071 49.5605 22.3071 49.5605C22.3071 49.5605 22.3071 49.5605 22.3071 49.5605C22.3072 49.5605 22.3072 49.5605 22.3072 49.5605C22.3072 49.5605 22.3072 49.5605 22.3072 49.5605C22.3072 49.5605 22.3072 49.5605 22.3072 49.5605C22.3072 49.5605 22.3072 49.5605 22.3072 49.5605C22.3072 49.5605 22.3072 49.5605 22.3072 49.5605C22.3072 49.5605 22.3072 49.5605 22.3072 49.5605C22.3072 49.5605 22.3072 49.5605 22.3072 49.5605C22.3072 49.5605 22.3072 49.5605 22.3072 49.5605C22.3072 49.5605 22.3072 49.5605 22.3072 49.5605C22.3072 49.5605 22.3072 49.5605 22.3072 49.5605C22.3072 49.5605 22.3072 49.5605 22.3072 49.5605C22.3072 49.5605 22.3072 49.5605 22.3072 49.5605C22.3072 49.5605 22.3072 49.5605 22.3072 49.5605C22.3072 49.5605 22.3072 49.5605 22.3072 49.5605C22.3072 49.5605 22.3072 49.5605 22.3072 49.5605C22.3072 49.5605 22.3072 49.5605 22.3072 49.5605C22.3072 49.5605 22.3072 49.5605 22.3072 49.5605C22.3072 49.5605 22.3072 49.5605 22.3072 49.5605C22.3072 49.5605 22.3072 49.5605 22.3073 49.5605C22.3073 49.5605 22.3073 49.5605 22.3073 49.5605C22.3073 49.5605 22.3073 49.5605 22.3073 49.5605C22.3073 49.5605 22.3073 49.5605 22.3073 49.5605C22.3073 49.5605 22.3073 49.5605 22.3073 49.5605C22.3073 49.5605 22.3073 49.5605 22.3073 49.5605C22.3073 49.5605 22.3073 49.5605 22.3073 49.5605C22.3073 49.5605 22.3073 49.5605 22.3073 49.5605C22.3073 49.5605 22.3073 49.5605 22.3073 49.5605C22.3073 49.5605 22.3073 49.5605 22.3073 49.5605C22.3073 49.5605 22.3073 49.5605 22.3073 49.5605C22.3073 49.5605 22.3073 49.5605 22.3073 49.5605C22.3073 49.5605 22.3073 49.5605 22.3073 49.5605C22.3073 49.5605 22.3073 49.5605 22.3073 49.5605C22.3073 49.5605 22.3073 49.5605 22.3073 49.5605C22.3073 49.5605 22.3073 49.5605 22.3073 49.5605C22.3073 49.5605 22.3073 49.5605 22.3073 49.5605C22.3073 49.5605 22.3073 49.5605 22.3073 49.5605C22.3073 49.5605 22.3073 49.5605 22.3073 49.5605C22.3073 49.5605 22.3073 49.5605 22.3074 49.5605C22.3074 49.5605 22.3074 49.5605 22.3074 49.5605C22.3074 49.5605 22.3074 49.5605 22.3074 49.5605C22.3074 49.5605 22.3074 49.5605 22.3074 49.5605C22.3074 49.5605 22.3074 49.5605 22.3074 49.5605C22.3074 49.5605 22.3074 49.5605 22.3074 49.5605C22.3074 49.5605 22.3074 49.5605 22.3074 49.5605C22.3074 49.5605 22.3074 49.5605 22.3074 49.5605C22.3074 49.5605 22.3074 49.5605 22.3074 49.5605C22.3074 49.5605 22.3074 49.5605 22.3074 49.5605C22.3074 49.5605 22.3074 49.5605 22.3074 49.5605C22.3074 49.5605 22.3074 49.5605 22.3074 49.5605C22.3074 49.5605 22.3074 49.5605 22.3074 49.5605C22.3074 49.5605 22.3074 49.5605 22.3074 49.5605C22.3074 49.5605 22.3074 49.5605 22.3074 49.5605C22.3074 49.5605 22.3074 49.5605 22.3074 49.5605C22.3074 49.5605 22.3074 49.5605 22.3074 49.5605C22.3074 49.5605 22.3074 49.5605 22.3074 49.5605C22.3074 49.5605 22.3074 49.5605 22.3074 49.5605C22.3074 49.5605 22.3074 49.5605 22.3075 49.5605C22.3075 49.5605 22.3075 49.5605 22.3075 49.5605C22.3075 49.5605 22.3075 49.5605 22.3075 49.5605C22.3075 49.5605 22.3075 49.5605 22.3075 49.5605C22.3075 49.5605 22.3075 49.5605 22.3075 49.5605C22.3075 49.5605 22.3075 49.5605 22.3075 49.5605C22.3075 49.5605 22.3075 49.5605 22.3075 49.5605C22.3075 49.5605 22.3075 49.5605 22.3075 49.5605C22.3075 49.5605 22.3075 49.5605 22.3075 49.5605C22.3075 49.5605 22.3075 49.5605 22.3075 49.5605C22.3075 49.5605 22.3075 49.5605 22.3075 49.5605C22.3075 49.5605 22.3075 49.5605 22.3075 49.5605C22.3075 49.5605 22.3075 49.5605 22.3075 49.5605C22.3075 49.5605 22.3075 49.5605 22.3075 49.5605C22.3075 49.5605 22.3075 49.5605 22.3075 49.5605C22.3075 49.5605 22.3075 49.5605 22.3075 49.5605C22.3075 49.5605 22.3075 49.5605 22.3075 49.5605C22.3075 49.5605 22.3075 49.5605 22.3075 49.5605C22.3075 49.5605 22.3075 49.5605 22.3075 49.5605C22.3075 49.5605 22.3076 49.5605 22.3076 49.5605C22.3076 49.5605 22.3076 49.5605 22.3076 49.5605C22.3076 49.5605 22.3076 49.5605 22.3076 49.5605C22.3076 49.5605 22.3076 49.5605 22.3076 49.5605C22.3076 49.5605 22.3076 49.5605 22.3076 49.5605C22.3076 49.5605 22.3076 49.5605 22.3076 49.5605C22.3076 49.5605 22.3076 49.5605 22.3076 49.5605C22.3076 49.5605 22.3076 49.5605 22.3076 49.5605C22.3076 49.5605 22.3076 49.5605 22.3076 49.5605C22.3076 49.5605 22.3076 49.5605 22.3076 49.5605C22.3076 49.5605 22.3076 49.5605 22.3076 49.5605C22.3076 49.5605 22.3076 49.5605 22.3076 49.5605C22.3076 49.5605 22.3076 49.5605 22.3076 49.5605C22.3076 49.5605 22.3076 49.5605 22.3076 49.5605C22.3076 49.5605 22.3076 49.5605 22.3076 49.5605C22.3076 49.5605 22.3076 49.5605 22.3076 49.5605C22.3076 49.5605 22.3076 49.5605 22.3076 49.5605C22.3076 49.5605 22.3076 49.5605 22.3076 49.5605C22.3076 49.5605 22.3076 49.5605 22.3076 49.5605C22.3076 49.5605 22.3077 49.5605 22.3077 49.5605C22.3077 49.5605 22.3077 49.5605 22.3077 49.5605C22.3077 49.5605 22.3077 49.5605 22.3077 49.5605C22.3077 49.5605 22.3077 49.5605 22.3077 49.5605C22.3077 49.5605 22.3077 49.5605 22.3077 49.5605C22.3077 49.5605 22.3077 49.5605 22.3077 49.5605C22.3077 49.5605 22.3077 49.5605 22.3077 49.5605C22.3077 49.5605 22.3077 49.5605 22.3077 49.5605C22.3077 49.5605 22.3077 49.5605 22.3077 49.5605C22.3077 49.5605 22.3077 49.5605 22.3077 49.5605C22.3077 49.5605 22.3077 49.5605 22.3077 49.5605C22.3077 49.5605 22.3077 49.5605 22.3077 49.5605C22.3077 49.5605 22.3077 49.5605 22.3077 49.5605C22.3077 49.5605 22.3077 49.5605 22.3077 49.5605C22.3077 49.5605 22.3077 49.5605 22.3077 49.5605C22.3077 49.5605 22.3077 49.5605 22.3077 49.5605C22.3077 49.5605 22.3077 49.5605 22.3077 49.5605C22.3077 49.5605 22.3077 49.5605 22.3077 49.5605C22.3077 49.5605 22.3077 49.5605 22.3077 49.5605C22.3078 49.5605 22.3078 49.5605 22.3078 49.5605C22.3078 49.5605 22.3078 49.5605 22.3078 49.5605C22.3078 49.5605 22.3078 49.5605 22.3078 49.5605C22.3078 49.5605 22.3078 49.5605 22.3078 49.5605C22.3078 49.5605 22.3078 49.5605 22.3078 49.5605C22.3078 49.5605 22.3078 49.5605 22.3078 49.5605C22.3078 49.5605 22.3078 49.5605 22.3078 49.5605C22.3078 49.5605 22.3078 49.5605 22.3078 49.5605C22.3078 49.5605 22.3078 49.5605 22.3078 49.5605C22.3078 49.5605 22.3078 49.5605 22.3078 49.5605C22.3078 49.5605 22.3078 49.5605 22.3078 49.5605C22.3078 49.5605 22.3078 49.5605 22.3078 49.5605C22.3078 49.5605 22.3078 49.5605 22.3078 49.5605C22.3078 49.5605 22.3078 49.5605 22.3078 49.5605C22.3078 49.5605 22.3078 49.5605 22.3078 49.5605C22.3078 49.5605 22.3078 49.5605 22.3078 49.5605C22.3078 49.5605 22.3078 49.5605 22.3078 49.5605C22.3078 49.5605 22.3078 49.5605 22.3078 49.5605C22.3078 49.5605 22.3078 49.5605 22.3078 49.5605C22.3079 49.5605 22.3079 49.5605 22.3079 49.5605C22.3079 49.5605 22.3079 49.5605 22.3079 49.5605V-30.4395ZM22.3051 -30.4395H11.1539V49.5605H22.3051V-30.4395ZM51.1539 47.8026V9.56051H-28.8461V47.8026H51.1539ZM0 87.8026H11.1539V7.80256H0V87.8026ZM-40 4.01331e-08V47.8026H40V4.01331e-08H-40ZM22.3051 -40H0V40H22.3051V-40Z" fill="#00AAFF" mask="url(#path-1-inside-1_403_6511)"/>
<path d="M121.238 47.7968H117.831C117.743 47.7968 117.699 47.7477 117.699 47.6494V30.4296H113.776C113.678 30.4296 113.629 30.3805 113.629 30.2822L113.658 26.906C113.658 26.8274 113.698 26.7881 113.776 26.7881H125.248C125.356 26.7881 125.411 26.8274 125.411 26.906V30.2822C125.411 30.3805 125.371 30.4296 125.293 30.4296H121.326L121.356 47.6494C121.356 47.7477 121.316 47.7968 121.238 47.7968Z" fill="#00AAFF"/>
<path d="M103.764 47.7968H100.343C100.265 47.7968 100.225 47.7477 100.225 47.6494L100.284 26.906C100.284 26.8274 100.324 26.7881 100.402 26.7881H106.507C107.598 26.7881 108.601 27.0535 109.515 27.5842C110.429 28.115 111.157 28.8275 111.697 29.7219C112.248 30.6163 112.523 31.6287 112.523 32.759C112.523 33.4961 112.41 34.1645 112.184 34.764C111.958 35.3636 111.692 35.8698 111.388 36.2826C111.093 36.6954 110.822 37 110.577 37.1966C111.668 38.4055 112.213 39.8258 112.213 41.4573L112.243 47.6494C112.243 47.7477 112.194 47.7968 112.095 47.7968H108.675C108.596 47.7968 108.557 47.7673 108.557 47.7083V41.4573C108.557 40.73 108.301 40.101 107.79 39.5702C107.279 39.0395 106.649 38.7741 105.902 38.7741H103.912L103.882 47.6494C103.882 47.7477 103.843 47.7968 103.764 47.7968ZM106.507 30.4001H103.912V35.1473H106.507C107.126 35.1473 107.677 34.9164 108.158 34.4544C108.65 33.9925 108.896 33.4273 108.896 32.759C108.896 32.1201 108.66 31.5697 108.188 31.1078C107.716 30.636 107.156 30.4001 106.507 30.4001Z" fill="#00AAFF"/>
<path d="M97.4238 47.7968H87.6624C87.5837 47.7968 87.5444 47.7477 87.5444 47.6494L87.5739 26.906C87.5739 26.8274 87.6132 26.7881 87.6919 26.7881H97.3943C97.4729 26.7881 97.5123 26.8372 97.5123 26.9355V30.3117C97.5123 30.3903 97.4729 30.4296 97.3943 30.4296H91.2013V35.1473H97.3943C97.4729 35.1473 97.5123 35.1867 97.5123 35.2653L97.5418 38.6857C97.5418 38.7643 97.5024 38.8036 97.4238 38.8036H91.2013V44.0816H97.4238C97.5024 44.0816 97.5418 44.1307 97.5418 44.229V47.6789C97.5418 47.7575 97.5024 47.7968 97.4238 47.7968Z" fill="#00AAFF"/>
<path d="M77.2816 47.7968H73.8902C73.7919 47.7968 73.7427 47.7477 73.7427 47.6494L73.8017 26.906C73.8017 26.8274 73.841 26.7881 73.9197 26.7881H79.7293C81.5774 26.7881 83.0372 27.3532 84.1087 28.4835C85.1901 29.604 85.7307 31.1323 85.7307 33.0686C85.7307 34.4839 85.4506 35.7174 84.8902 36.7691C84.3201 37.8109 83.5828 38.6169 82.6784 39.1869C81.774 39.757 80.791 40.042 79.7293 40.042H77.4291V47.6494C77.4291 47.7477 77.3799 47.7968 77.2816 47.7968ZM79.7293 30.3706L77.4291 30.4001V36.3858H79.7293C80.3683 36.3858 80.9237 36.0811 81.3956 35.4717C81.8674 34.8525 82.1034 34.0515 82.1034 33.0686C82.1034 32.2823 81.892 31.6385 81.4693 31.1373C81.0466 30.6262 80.4666 30.3706 79.7293 30.3706Z" fill="#00AAFF"/>
<path d="M63.996 47.7968H60.6046C60.5358 47.7968 60.5063 47.7477 60.5161 47.6494L63.9665 36.8723L60.5751 26.906C60.5555 26.8274 60.5849 26.7881 60.6636 26.7881H64.055C64.1533 26.7881 64.2123 26.8274 64.232 26.906L66.2521 34.0859L68.3017 26.906C68.3213 26.8274 68.3852 26.7881 68.4934 26.7881H71.8406C71.9192 26.7881 71.9487 26.8274 71.929 26.906L68.5524 36.8428L71.9585 47.6494C71.9979 47.7477 71.9684 47.7968 71.8701 47.7968H68.4934C68.4049 47.7968 68.341 47.7477 68.3017 47.6494L66.2521 39.8504L64.173 47.6494C64.1632 47.7477 64.1042 47.7968 63.996 47.7968Z" fill="#00AAFF"/>
<path d="M58.7319 47.7968H48.9705C48.8919 47.7968 48.8525 47.7477 48.8525 47.6494L48.882 26.906C48.882 26.8274 48.9214 26.7881 49 26.7881H58.7024C58.7811 26.7881 58.8204 26.8372 58.8204 26.9355V30.3117C58.8204 30.3903 58.7811 30.4296 58.7024 30.4296H52.5094V35.1473H58.7024C58.7811 35.1473 58.8204 35.1867 58.8204 35.2653L58.8499 38.6857C58.8499 38.7643 58.8106 38.8036 58.7319 38.8036H52.5094V44.0816H58.7319C58.8106 44.0816 58.8499 44.1307 58.8499 44.229V47.6789C58.8499 47.7575 58.8106 47.7968 58.7319 47.7968Z" fill="#00AAFF"/>
<ellipse cx="18.5191" cy="19.1162" rx="3.61184" ry="3.61184" fill="#00AAFF"/>
<ellipse cx="29.2525" cy="19.1162" rx="3.61184" ry="3.61184" fill="#00AAFF"/>
<rect x="11.1465" y="38.2559" width="11.1924" height="9.54108" fill="#00AAFF"/>
</svg>
