<svg width="32" height="32" viewBox="0 0 32 32" fill="none" xmlns="http://www.w3.org/2000/svg">
<path d="M24.8702 19.7502C24.9699 19.7084 25.0689 19.6649 25.1671 19.6198C25.71 19.3723 26.3189 19.2793 26.8963 19.4338L27.6102 19.6243C27.9405 19.7126 28.2884 19.7126 28.6187 19.624C28.949 19.5355 29.2503 19.3616 29.4922 19.1199C29.7341 18.8781 29.9081 18.577 29.9969 18.2467C30.0856 17.9164 30.0859 17.5686 29.9977 17.2382L29.8058 16.5243C29.6513 15.9469 29.7458 15.3381 29.9932 14.7952C30.5725 13.525 30.8713 12.1449 30.8691 10.7489C30.8721 8.9091 30.3519 7.10634 29.3693 5.55088M12.1226 6.99361C12.6707 5.68095 13.4994 4.50411 14.5506 3.54565C15.6018 2.58719 16.8499 1.87033 18.2075 1.44534C19.565 1.02035 20.9991 0.897536 22.4092 1.0855C23.8192 1.27347 25.1711 1.76768 26.3699 2.53344" stroke="#00AAFF" stroke-width="1.5" stroke-linecap="round"/>
<path d="M18.8714 8.60428C16.6391 7.31386 14.0504 6.77693 11.489 7.07305C8.92765 7.36917 6.5298 8.48259 4.65082 10.2483C2.77183 12.014 1.51168 14.3381 1.05709 16.8762C0.602499 19.4142 0.977662 22.0312 2.12698 24.3393C2.33994 24.7668 2.41043 25.2542 2.28745 25.7161L1.57209 28.3871C1.50111 28.6516 1.50103 28.9302 1.57187 29.1947C1.64271 29.4593 1.78196 29.7005 1.97562 29.8942C2.16929 30.0879 2.41053 30.2271 2.6751 30.298C2.93966 30.3688 3.21821 30.3687 3.48273 30.2977L6.15223 29.5824C6.61587 29.4664 7.10587 29.5235 7.53048 29.7428C9.8386 30.8922 12.4556 31.2673 14.9936 30.8127C17.5317 30.3581 19.8558 29.098 21.6215 27.219C23.3872 25.34 24.5006 22.9422 24.7968 20.3808C25.0929 17.8194 24.556 15.2308 23.2655 12.9985" stroke="#07FB95" stroke-width="1.5" stroke-linecap="round"/>
<path d="M7.65039 18.9973H7.66539M12.8859 18.9973H12.8994M18.1214 18.9973H18.1349" stroke="#07FB95" stroke-width="2" stroke-linecap="round" stroke-linejoin="round"/>
</svg>
