<svg width="48" height="48" viewBox="0 0 48 48" fill="none" xmlns="http://www.w3.org/2000/svg">
<path d="M40.634 8.31218C37.5747 6.90842 34.294 5.87419 30.8638 5.28184C30.8013 5.27041 30.7389 5.29898 30.7067 5.35612C30.2848 6.10655 29.8175 7.08555 29.4902 7.85504C25.8008 7.3027 22.1304 7.3027 18.5166 7.85504C18.1893 7.06844 17.705 6.10655 17.2811 5.35612C17.249 5.30089 17.1866 5.27232 17.1241 5.28184C13.6958 5.8723 10.4151 6.90653 7.35387 8.31218C7.32737 8.32361 7.30465 8.34267 7.28958 8.36742C1.06678 17.6641 -0.6379 26.7324 0.19836 35.6881C0.202144 35.732 0.22674 35.7739 0.260796 35.8005C4.36642 38.8156 8.34341 40.646 12.2466 41.8593C12.309 41.8783 12.3752 41.8555 12.415 41.804C13.3383 40.5432 14.1613 39.2137 14.867 37.8156C14.9086 37.7338 14.8688 37.6366 14.7837 37.6042C13.4783 37.109 12.2352 36.5052 11.0395 35.8196C10.9449 35.7643 10.9373 35.6291 11.0243 35.5643C11.2759 35.3757 11.5276 35.1795 11.7679 34.9815C11.8114 34.9453 11.872 34.9377 11.9231 34.9605C19.7786 38.5471 28.2831 38.5471 36.0459 34.9605C36.097 34.9358 36.1576 34.9434 36.203 34.9796C36.4433 35.1777 36.6949 35.3757 36.9484 35.5643C37.0354 35.6291 37.0298 35.7643 36.9352 35.8196C35.7394 36.5185 34.4964 37.109 33.189 37.6023C33.1039 37.6347 33.0661 37.7338 33.1077 37.8156C33.8285 39.2117 34.6515 40.5412 35.5578 41.8021C35.5956 41.8555 35.6637 41.8783 35.7262 41.8593C39.6483 40.646 43.6252 38.8156 47.7309 35.8005C47.7668 35.7739 47.7895 35.7338 47.7933 35.69C48.7942 25.3362 46.117 16.3423 40.6964 8.36931C40.6832 8.34267 40.6605 8.32361 40.634 8.31218ZM16.04 30.235C13.675 30.235 11.7263 28.0637 11.7263 25.3971C11.7263 22.7306 13.6372 20.5593 16.04 20.5593C18.4617 20.5593 20.3916 22.7496 20.3538 25.3971C20.3538 28.0637 18.4428 30.235 16.04 30.235ZM31.9895 30.235C29.6245 30.235 27.6758 28.0637 27.6758 25.3971C27.6758 22.7306 29.5867 20.5593 31.9895 20.5593C34.4113 20.5593 36.3411 22.7496 36.3033 25.3971C36.3033 28.0637 34.4113 30.235 31.9895 30.235Z" fill="white"/>
</svg>
