<svg width="193" height="76" viewBox="0 0 193 76" fill="none" xmlns="http://www.w3.org/2000/svg">
<path d="M0.320312 5.71793C0.320312 2.76981 2.71024 0.379883 5.65836 0.379883H14.0605V59.2666H0.320312V5.71793Z" fill="url(#paint0_linear_1500_21619)"/>
<path fill-rule="evenodd" clip-rule="evenodd" d="M27.7964 0.379883H14.0605V12.1572L27.7964 12.1572C27.7979 12.1572 27.7993 12.1572 27.8008 12.1572C32.7963 12.1583 37.587 14.0194 41.1195 17.3315C44.653 20.6445 46.6381 25.1379 46.6381 29.8232C46.6381 34.5086 44.653 39.002 41.1195 42.315C37.586 45.628 32.7935 47.4893 27.7964 47.4893V59.2666C36.125 59.2666 44.1124 56.1645 50.0016 50.6428C55.8908 45.1211 59.1993 37.6321 59.1993 29.8232C59.1993 22.0144 55.8908 14.5253 50.0016 9.00364C44.1135 3.48291 36.1278 0.380967 27.8008 0.379883C27.7993 0.379883 27.7979 0.379883 27.7964 0.379883Z" fill="url(#paint1_linear_1500_21619)"/>
<ellipse cx="36.1445" cy="25.8975" rx="5.88867" ry="5.88867" fill="url(#paint2_linear_1500_21619)"/>
<ellipse cx="21.5176" cy="25.8975" rx="5.88867" ry="5.88867" fill="url(#paint3_linear_1500_21619)"/>
<path d="M62.0863 30.6323H83.3125V34.7539H66.9086V42.9147H82.3233V47.0363H66.9086V55.9389H84.0132V60.0605H62.0863V30.6323ZM86.511 30.6323H92.4048L99.3291 41.0188L106.253 30.6323H112.147L102.214 44.8518L112.807 60.0605H106.913L99.3291 48.6849L91.7454 60.0605H85.8515L96.3616 44.8518L86.511 30.6323ZM126.287 38.1749C129.419 38.1749 131.892 39.2877 133.706 41.5133C135.354 43.5741 136.179 46.212 136.179 49.5093C136.179 52.6417 135.354 55.2383 133.747 57.2991C132.016 59.5247 129.584 60.6376 126.534 60.6376C124.061 60.6376 121.918 59.4423 120.187 57.1342V68.2213H115.488V38.7519H119.857V41.0188C121.341 39.1228 123.484 38.1749 126.287 38.1749ZM125.586 41.9667C123.732 41.9667 122.33 42.6674 121.341 44.1512C120.434 45.4289 120.022 47.1187 120.022 49.262V49.5917C120.022 51.8173 120.558 53.6309 121.671 54.991C122.66 56.2275 123.896 56.8457 125.421 56.8457C127.482 56.8457 129.048 56.145 130.038 54.8261C130.903 53.5896 131.357 51.8173 131.357 49.5093C131.357 47.2012 130.944 45.4289 130.161 44.1924C129.172 42.7086 127.647 41.9667 125.586 41.9667ZM149.35 38.1749C152.853 38.1749 155.532 39.3289 157.387 41.7194C159.077 43.8627 159.942 46.8714 159.942 50.7045H143.992C144.157 52.6829 144.692 54.2079 145.599 55.2383C146.506 56.2687 147.825 56.8045 149.515 56.8045C150.957 56.8045 152.111 56.4748 153.018 55.8153C153.719 55.2795 154.337 54.414 154.914 53.2187H159.613C159.118 55.1971 158.129 56.8869 156.645 58.2058C154.749 59.8133 152.4 60.6376 149.556 60.6376C146.382 60.6376 143.868 59.6484 142.013 57.7112C140.035 55.6917 139.046 52.9302 139.046 49.3856C139.046 46.212 139.953 43.5741 141.849 41.4309C143.662 39.2465 146.176 38.1749 149.35 38.1749ZM149.474 42.0079C147.907 42.0079 146.712 42.4201 145.805 43.3269C144.94 44.1924 144.363 45.4701 144.074 47.1599H155.038C154.626 43.6978 152.771 42.0079 149.474 42.0079ZM173.724 38.1749C174.755 38.1749 175.661 38.3397 176.403 38.7107V43.4093C175.332 43.0796 174.343 42.9559 173.353 42.9559C172.117 42.9559 171.004 43.4093 170.015 44.3985C168.861 45.5113 168.325 46.9539 168.325 48.7674V60.0605H163.668V38.7519H168.325V41.8019C168.902 40.7302 169.562 39.9059 170.345 39.3289C171.293 38.5458 172.405 38.1749 173.724 38.1749ZM185.76 31.8688V38.7519H190.5V42.6262H185.76V54.6613C185.76 55.1558 185.843 55.5268 186.09 55.8153C186.337 56.0626 186.667 56.1862 187.162 56.1862H189.964V60.0605H186.379C184.524 60.0605 183.164 59.566 182.298 58.5768C181.474 57.67 181.062 56.3923 181.062 54.6613V42.6262H177.229V38.7519H181.062V33.806L185.76 31.8688Z" fill="white"/>
<defs>
<linearGradient id="paint0_linear_1500_21619" x1="7.19043" y1="0.379883" x2="7.19043" y2="59.2666" gradientUnits="userSpaceOnUse">
<stop stop-color="#09F89F"/>
<stop offset="1" stop-color="#16D0F0"/>
</linearGradient>
<linearGradient id="paint1_linear_1500_21619" x1="36.6299" y1="0.379883" x2="36.6299" y2="59.2666" gradientUnits="userSpaceOnUse">
<stop stop-color="#09F89F"/>
<stop offset="1" stop-color="#16D0F0"/>
</linearGradient>
<linearGradient id="paint2_linear_1500_21619" x1="36.1445" y1="20.0088" x2="36.1445" y2="31.7861" gradientUnits="userSpaceOnUse">
<stop stop-color="#09F89F"/>
<stop offset="1" stop-color="#16D0F0"/>
</linearGradient>
<linearGradient id="paint3_linear_1500_21619" x1="21.5176" y1="20.0088" x2="21.5176" y2="31.7861" gradientUnits="userSpaceOnUse">
<stop stop-color="#09F89F"/>
<stop offset="1" stop-color="#16D0F0"/>
</linearGradient>
</defs>
</svg>
