<svg width="1025" height="101" viewBox="0 0 1025 101" fill="none" xmlns="http://www.w3.org/2000/svg">
<path d="M13.6619 99.0039L83.2139 19.5159H1021.38L951.83 99.0039H13.6619Z" stroke="url(#paint0_linear_1500_21629)" stroke-width="2.944"/>
<path d="M72.2413 0.379883H1014.32L942.193 82.8119H0.113281L72.2413 0.379883Z" fill="url(#paint1_linear_1500_21629)"/>
<path d="M219.839 59.2119H210.725L210.782 52.4844H219.839C222.1 52.4844 224.007 51.9765 225.56 50.9607C227.112 49.9257 228.282 48.4211 229.067 46.4469C229.872 44.4727 230.275 42.0865 230.275 39.2882V37.2469C230.275 35.1002 230.045 33.2123 229.585 31.5832C229.144 29.954 228.483 28.5836 227.601 27.4719C226.72 26.3602 225.637 25.5265 224.352 24.9707C223.068 24.3957 221.592 24.1082 219.925 24.1082H210.552V17.3519H219.925C222.723 17.3519 225.282 17.8311 227.601 18.7894C229.94 19.7286 231.962 21.0798 233.667 22.8432C235.373 24.6065 236.686 26.7148 237.606 29.1682C238.545 31.6023 239.015 34.3144 239.015 37.3044V39.2882C239.015 42.259 238.545 44.9711 237.606 47.4244C236.686 49.8777 235.373 51.9861 233.667 53.7494C231.981 55.4936 229.959 56.8448 227.601 57.8032C225.263 58.7423 222.675 59.2119 219.839 59.2119ZM215.612 17.3519V59.2119H206.987V17.3519H215.612ZM262.026 59.7869C259.611 59.7869 257.446 59.4036 255.529 58.6369C253.612 57.8511 251.983 56.7682 250.641 55.3882C249.319 54.0082 248.303 52.4077 247.594 50.5869C246.885 48.7469 246.53 46.7919 246.53 44.7219V43.5719C246.53 41.2144 246.866 39.0582 247.536 37.1032C248.207 35.1482 249.166 33.4519 250.411 32.0144C251.676 30.5769 253.21 29.4748 255.011 28.7082C256.813 27.9223 258.845 27.5294 261.106 27.5294C263.311 27.5294 265.266 27.8936 266.971 28.6219C268.677 29.3502 270.105 30.3852 271.255 31.7269C272.424 33.0686 273.306 34.6786 273.9 36.5569C274.494 38.4161 274.791 40.4861 274.791 42.7669V46.2169H250.066V40.6969H266.655V40.0644C266.655 38.9144 266.444 37.889 266.023 36.9882C265.62 36.0682 265.007 35.3398 264.183 34.8032C263.359 34.2665 262.304 33.9982 261.02 33.9982C259.928 33.9982 258.989 34.2377 258.203 34.7169C257.417 35.1961 256.775 35.8669 256.276 36.7294C255.797 37.5919 255.433 38.6077 255.184 39.7769C254.954 40.9269 254.839 42.1919 254.839 43.5719V44.7219C254.839 45.9677 255.011 47.1177 255.356 48.1719C255.721 49.2261 256.229 50.1365 256.88 50.9032C257.551 51.6698 258.356 52.264 259.295 52.6857C260.254 53.1073 261.336 53.3182 262.544 53.3182C264.039 53.3182 265.429 53.0307 266.713 52.4557C268.016 51.8615 269.137 50.9702 270.076 49.7819L274.101 54.1519C273.45 55.0911 272.559 55.9919 271.428 56.8544C270.316 57.7169 268.974 58.4261 267.403 58.9819C265.831 59.5186 264.039 59.7869 262.026 59.7869ZM289.12 28.1044L294.267 37.5632L299.557 28.1044H308.383L299.585 43.3132L308.785 59.2119H299.93L294.324 49.2069L288.718 59.2119H279.863L289.063 43.3132L280.265 28.1044H289.12ZM323.632 34.0844V71.1719H315.352V28.1044H323.028L323.632 34.0844ZM343.326 43.3132V43.9169C343.326 46.1786 343.057 48.2773 342.521 50.2132C342.003 52.149 341.237 53.8357 340.221 55.2732C339.205 56.6915 337.94 57.8032 336.426 58.6082C334.931 59.394 333.206 59.7869 331.251 59.7869C329.353 59.7869 327.705 59.4036 326.306 58.6369C324.907 57.8702 323.728 56.7969 322.769 55.4169C321.83 54.0177 321.073 52.3982 320.498 50.5582C319.923 48.7182 319.482 46.744 319.176 44.6357V43.0544C319.482 40.7927 319.923 38.7227 320.498 36.8444C321.073 34.9469 321.83 33.3082 322.769 31.9282C323.728 30.529 324.897 29.4461 326.277 28.6794C327.676 27.9127 329.315 27.5294 331.193 27.5294C333.167 27.5294 334.902 27.9032 336.397 28.6507C337.911 29.3982 339.176 30.4715 340.192 31.8707C341.227 33.2698 342.003 34.9373 342.521 36.8732C343.057 38.809 343.326 40.9557 343.326 43.3132ZM335.017 43.9169V43.3132C335.017 41.9907 334.902 40.7736 334.672 39.6619C334.461 38.5311 334.116 37.544 333.637 36.7007C333.177 35.8573 332.564 35.2057 331.797 34.7457C331.049 34.2665 330.139 34.0269 329.066 34.0269C327.935 34.0269 326.967 34.209 326.162 34.5732C325.376 34.9373 324.734 35.4644 324.236 36.1544C323.737 36.8444 323.364 37.6686 323.114 38.6269C322.865 39.5852 322.712 40.6682 322.654 41.8757V45.8719C322.75 47.2902 323.019 48.5648 323.459 49.6957C323.9 50.8073 324.581 51.689 325.501 52.3407C326.421 52.9923 327.628 53.3182 329.123 53.3182C330.216 53.3182 331.136 53.0786 331.883 52.5994C332.631 52.1011 333.234 51.4207 333.694 50.5582C334.174 49.6957 334.509 48.699 334.701 47.5682C334.912 46.4373 335.017 45.2202 335.017 43.9169ZM365.733 59.7869C363.318 59.7869 361.153 59.4036 359.236 58.6369C357.319 57.8511 355.69 56.7682 354.348 55.3882C353.026 54.0082 352.01 52.4077 351.301 50.5869C350.592 48.7469 350.237 46.7919 350.237 44.7219V43.5719C350.237 41.2144 350.573 39.0582 351.243 37.1032C351.914 35.1482 352.873 33.4519 354.118 32.0144C355.383 30.5769 356.917 29.4748 358.718 28.7082C360.52 27.9223 362.552 27.5294 364.813 27.5294C367.018 27.5294 368.973 27.8936 370.678 28.6219C372.384 29.3502 373.812 30.3852 374.962 31.7269C376.131 33.0686 377.013 34.6786 377.607 36.5569C378.201 38.4161 378.498 40.4861 378.498 42.7669V46.2169H353.773V40.6969H370.362V40.0644C370.362 38.9144 370.151 37.889 369.73 36.9882C369.327 36.0682 368.714 35.3398 367.89 34.8032C367.066 34.2665 366.011 33.9982 364.727 33.9982C363.635 33.9982 362.696 34.2377 361.91 34.7169C361.124 35.1961 360.482 35.8669 359.983 36.7294C359.504 37.5919 359.14 38.6077 358.891 39.7769C358.661 40.9269 358.546 42.1919 358.546 43.5719V44.7219C358.546 45.9677 358.718 47.1177 359.063 48.1719C359.428 49.2261 359.936 50.1365 360.587 50.9032C361.258 51.6698 362.063 52.264 363.002 52.6857C363.961 53.1073 365.043 53.3182 366.251 53.3182C367.746 53.3182 369.136 53.0307 370.42 52.4557C371.723 51.8615 372.844 50.9702 373.783 49.7819L377.808 54.1519C377.157 55.0911 376.266 55.9919 375.135 56.8544C374.023 57.7169 372.681 58.4261 371.11 58.9819C369.538 59.5186 367.746 59.7869 365.733 59.7869ZM394.437 34.8894V59.2119H386.157V28.1044H393.949L394.437 34.8894ZM403.81 27.9032L403.666 35.5794C403.264 35.5219 402.775 35.474 402.2 35.4357C401.644 35.3782 401.136 35.3494 400.676 35.3494C399.507 35.3494 398.491 35.5027 397.629 35.8094C396.785 36.0969 396.076 36.5282 395.501 37.1032C394.945 37.6782 394.524 38.3777 394.236 39.2019C393.968 40.0261 393.815 40.9652 393.776 42.0194L392.109 41.5019C392.109 39.4894 392.31 37.6398 392.712 35.9532C393.115 34.2473 393.7 32.7619 394.466 31.4969C395.252 30.2319 396.21 29.2544 397.341 28.5644C398.472 27.8744 399.766 27.5294 401.222 27.5294C401.682 27.5294 402.152 27.5677 402.631 27.6444C403.11 27.7019 403.503 27.7882 403.81 27.9032ZM427.339 28.1044V33.9694H409.226V28.1044H427.339ZM413.711 20.4282H421.991V49.8394C421.991 50.7402 422.106 51.4302 422.336 51.9094C422.586 52.3886 422.95 52.724 423.429 52.9157C423.908 53.0882 424.512 53.1744 425.24 53.1744C425.758 53.1744 426.218 53.1552 426.62 53.1169C427.042 53.0594 427.396 53.0019 427.684 52.9444L427.713 59.0394C427.004 59.2694 426.237 59.4515 425.413 59.5857C424.589 59.7198 423.678 59.7869 422.681 59.7869C420.861 59.7869 419.27 59.4898 417.909 58.8957C416.567 58.2823 415.532 57.3048 414.804 55.9632C414.076 54.6215 413.711 52.8582 413.711 50.6732V20.4282ZM460.884 34.0844V71.1719H452.604V28.1044H460.281L460.884 34.0844ZM480.578 43.3132V43.9169C480.578 46.1786 480.31 48.2773 479.773 50.2132C479.256 52.149 478.489 53.8357 477.473 55.2732C476.457 56.6915 475.192 57.8032 473.678 58.6082C472.183 59.394 470.458 59.7869 468.503 59.7869C466.606 59.7869 464.957 59.4036 463.558 58.6369C462.159 57.8702 460.98 56.7969 460.022 55.4169C459.083 54.0177 458.326 52.3982 457.751 50.5582C457.176 48.7182 456.735 46.744 456.428 44.6357V43.0544C456.735 40.7927 457.176 38.7227 457.751 36.8444C458.326 34.9469 459.083 33.3082 460.022 31.9282C460.98 30.529 462.149 29.4461 463.529 28.6794C464.929 27.9127 466.567 27.5294 468.446 27.5294C470.42 27.5294 472.154 27.9032 473.649 28.6507C475.164 29.3982 476.429 30.4715 477.444 31.8707C478.479 33.2698 479.256 34.9373 479.773 36.8732C480.31 38.809 480.578 40.9557 480.578 43.3132ZM472.269 43.9169V43.3132C472.269 41.9907 472.154 40.7736 471.924 39.6619C471.714 38.5311 471.369 37.544 470.889 36.7007C470.429 35.8573 469.816 35.2057 469.049 34.7457C468.302 34.2665 467.392 34.0269 466.318 34.0269C465.187 34.0269 464.219 34.209 463.414 34.5732C462.629 34.9373 461.987 35.4644 461.488 36.1544C460.99 36.8444 460.616 37.6686 460.367 38.6269C460.118 39.5852 459.964 40.6682 459.907 41.8757V45.8719C460.003 47.2902 460.271 48.5648 460.712 49.6957C461.153 50.8073 461.833 51.689 462.753 52.3407C463.673 52.9923 464.881 53.3182 466.376 53.3182C467.468 53.3182 468.388 53.0786 469.136 52.5994C469.883 52.1011 470.487 51.4207 470.947 50.5582C471.426 49.6957 471.762 48.699 471.953 47.5682C472.164 46.4373 472.269 45.2202 472.269 43.9169ZM487.346 43.9744V43.3707C487.346 41.0898 487.672 38.9911 488.323 37.0744C488.975 35.1386 489.924 33.4615 491.17 32.0432C492.416 30.6248 493.949 29.5227 495.77 28.7369C497.591 27.9319 499.68 27.5294 502.037 27.5294C504.395 27.5294 506.493 27.9319 508.333 28.7369C510.173 29.5227 511.716 30.6248 512.962 32.0432C514.227 33.4615 515.186 35.1386 515.837 37.0744C516.489 38.9911 516.815 41.0898 516.815 43.3707V43.9744C516.815 46.2361 516.489 48.3348 515.837 50.2707C515.186 52.1873 514.227 53.8644 512.962 55.3019C511.716 56.7202 510.183 57.8223 508.362 58.6082C506.541 59.394 504.452 59.7869 502.095 59.7869C499.737 59.7869 497.638 59.394 495.798 58.6082C493.978 57.8223 492.435 56.7202 491.17 55.3019C489.924 53.8644 488.975 52.1873 488.323 50.2707C487.672 48.3348 487.346 46.2361 487.346 43.9744ZM495.626 43.3707V43.9744C495.626 45.2777 495.741 46.4948 495.971 47.6257C496.201 48.7565 496.565 49.7532 497.063 50.6157C497.581 51.459 498.252 52.1202 499.076 52.5994C499.9 53.0786 500.906 53.3182 502.095 53.3182C503.245 53.3182 504.232 53.0786 505.056 52.5994C505.88 52.1202 506.541 51.459 507.04 50.6157C507.538 49.7532 507.902 48.7565 508.132 47.6257C508.381 46.4948 508.506 45.2777 508.506 43.9744V43.3707C508.506 42.1057 508.381 40.9173 508.132 39.8057C507.902 38.6748 507.528 37.6782 507.011 36.8157C506.513 35.934 505.851 35.244 505.027 34.7457C504.203 34.2473 503.206 33.9982 502.037 33.9982C500.868 33.9982 499.871 34.2473 499.047 34.7457C498.242 35.244 497.581 35.934 497.063 36.8157C496.565 37.6782 496.201 38.6748 495.971 39.8057C495.741 40.9173 495.626 42.1057 495.626 43.3707ZM533.587 28.1044V59.2119H525.279V28.1044H533.587ZM524.761 19.9969C524.761 18.7894 525.183 17.7927 526.026 17.0069C526.87 16.2211 528 15.8282 529.419 15.8282C530.818 15.8282 531.939 16.2211 532.782 17.0069C533.645 17.7927 534.076 18.7894 534.076 19.9969C534.076 21.2044 533.645 22.2011 532.782 22.9869C531.939 23.7727 530.818 24.1657 529.419 24.1657C528 24.1657 526.87 23.7727 526.026 22.9869C525.183 22.2011 524.761 21.2044 524.761 19.9969ZM551.481 34.7457V59.2119H543.201V28.1044H550.964L551.481 34.7457ZM550.274 42.5657H548.031C548.031 40.2657 548.329 38.1957 548.923 36.3557C549.517 34.4965 550.351 32.9152 551.424 31.6119C552.497 30.2894 553.772 29.2832 555.248 28.5932C556.743 27.884 558.41 27.5294 560.25 27.5294C561.707 27.5294 563.039 27.7402 564.246 28.1619C565.454 28.5836 566.489 29.2544 567.351 30.1744C568.233 31.0944 568.904 32.3115 569.364 33.8257C569.843 35.3398 570.083 37.1894 570.083 39.3744V59.2119H561.745V39.3457C561.745 37.9657 561.554 36.8923 561.17 36.1257C560.787 35.359 560.221 34.8223 559.474 34.5157C558.746 34.1898 557.845 34.0269 556.771 34.0269C555.66 34.0269 554.692 34.2473 553.868 34.6882C553.063 35.129 552.392 35.7423 551.855 36.5282C551.338 37.2948 550.945 38.1957 550.676 39.2307C550.408 40.2657 550.274 41.3773 550.274 42.5657ZM594.56 28.1044V33.9694H576.448V28.1044H594.56ZM580.933 20.4282H589.213V49.8394C589.213 50.7402 589.328 51.4302 589.558 51.9094C589.807 52.3886 590.171 52.724 590.65 52.9157C591.13 53.0882 591.733 53.1744 592.462 53.1744C592.979 53.1744 593.439 53.1552 593.842 53.1169C594.263 53.0594 594.618 53.0019 594.905 52.9444L594.934 59.0394C594.225 59.2694 593.458 59.4515 592.634 59.5857C591.81 59.7198 590.9 59.7869 589.903 59.7869C588.082 59.7869 586.491 59.4898 585.13 58.8957C583.789 58.2823 582.754 57.3048 582.025 55.9632C581.297 54.6215 580.933 52.8582 580.933 50.6732V20.4282ZM619.038 50.6157C619.038 50.0215 618.866 49.4848 618.521 49.0057C618.176 48.5265 617.534 48.0857 616.594 47.6832C615.674 47.2615 614.342 46.8782 612.598 46.5332C611.027 46.1882 609.56 45.7569 608.199 45.2394C606.858 44.7027 605.689 44.0607 604.692 43.3132C603.714 42.5657 602.948 41.684 602.392 40.6682C601.836 39.6332 601.558 38.4544 601.558 37.1319C601.558 35.8286 601.836 34.6019 602.392 33.4519C602.967 32.3019 603.782 31.2861 604.836 30.4044C605.909 29.5036 607.212 28.804 608.746 28.3057C610.298 27.7882 612.042 27.5294 613.978 27.5294C616.681 27.5294 619 27.9607 620.936 28.8232C622.891 29.6857 624.386 30.874 625.421 32.3882C626.475 33.8832 627.002 35.589 627.002 37.5057H618.722C618.722 36.7007 618.549 35.9819 618.204 35.3494C617.879 34.6977 617.361 34.1898 616.652 33.8257C615.962 33.4423 615.061 33.2507 613.949 33.2507C613.029 33.2507 612.234 33.4136 611.563 33.7394C610.892 34.0461 610.375 34.4677 610.011 35.0044C609.666 35.5219 609.493 36.0969 609.493 36.7294C609.493 37.2086 609.589 37.6398 609.781 38.0232C609.992 38.3873 610.327 38.7227 610.787 39.0294C611.247 39.3361 611.841 39.6236 612.569 39.8919C613.317 40.1411 614.237 40.3711 615.329 40.5819C617.572 41.0419 619.575 41.6457 621.338 42.3932C623.102 43.1215 624.501 44.1182 625.536 45.3832C626.571 46.629 627.088 48.2677 627.088 50.2994C627.088 51.6794 626.782 52.9444 626.168 54.0944C625.555 55.2444 624.673 56.2507 623.523 57.1132C622.373 57.9565 620.993 58.6177 619.383 59.0969C617.792 59.5569 616 59.7869 614.007 59.7869C611.113 59.7869 608.659 59.2694 606.647 58.2344C604.654 57.1994 603.139 55.8865 602.104 54.2957C601.089 52.6857 600.581 51.0373 600.581 49.3507H608.429C608.468 50.4815 608.755 51.3919 609.292 52.0819C609.848 52.7719 610.547 53.2702 611.391 53.5769C612.253 53.8836 613.183 54.0369 614.179 54.0369C615.253 54.0369 616.144 53.8932 616.853 53.6057C617.562 53.299 618.099 52.8965 618.463 52.3982C618.847 51.8807 619.038 51.2865 619.038 50.6157ZM661.295 34.0844V71.1719H653.015V28.1044H660.691L661.295 34.0844ZM680.989 43.3132V43.9169C680.989 46.1786 680.72 48.2773 680.184 50.2132C679.666 52.149 678.9 53.8357 677.884 55.2732C676.868 56.6915 675.603 57.8032 674.089 58.6082C672.594 59.394 670.869 59.7869 668.914 59.7869C667.016 59.7869 665.368 59.4036 663.969 58.6369C662.57 57.8702 661.391 56.7969 660.432 55.4169C659.493 54.0177 658.736 52.3982 658.161 50.5582C657.586 48.7182 657.145 46.744 656.839 44.6357V43.0544C657.145 40.7927 657.586 38.7227 658.161 36.8444C658.736 34.9469 659.493 33.3082 660.432 31.9282C661.391 30.529 662.56 29.4461 663.94 28.6794C665.339 27.9127 666.978 27.5294 668.856 27.5294C670.83 27.5294 672.565 27.9032 674.06 28.6507C675.574 29.3982 676.839 30.4715 677.855 31.8707C678.89 33.2698 679.666 34.9373 680.184 36.8732C680.72 38.809 680.989 40.9557 680.989 43.3132ZM672.68 43.9169V43.3132C672.68 41.9907 672.565 40.7736 672.335 39.6619C672.124 38.5311 671.779 37.544 671.3 36.7007C670.84 35.8573 670.227 35.2057 669.46 34.7457C668.712 34.2665 667.802 34.0269 666.729 34.0269C665.598 34.0269 664.63 34.209 663.825 34.5732C663.039 34.9373 662.397 35.4644 661.899 36.1544C661.4 36.8444 661.027 37.6686 660.777 38.6269C660.528 39.5852 660.375 40.6682 660.317 41.8757V45.8719C660.413 47.2902 660.682 48.5648 661.122 49.6957C661.563 50.8073 662.244 51.689 663.164 52.3407C664.084 52.9923 665.291 53.3182 666.786 53.3182C667.879 53.3182 668.799 53.0786 669.546 52.5994C670.294 52.1011 670.897 51.4207 671.357 50.5582C671.837 49.6957 672.172 48.699 672.364 47.5682C672.575 46.4373 672.68 45.2202 672.68 43.9169ZM697.359 34.8894V59.2119H689.079V28.1044H696.87L697.359 34.8894ZM706.731 27.9032L706.588 35.5794C706.185 35.5219 705.696 35.474 705.121 35.4357C704.566 35.3782 704.058 35.3494 703.598 35.3494C702.429 35.3494 701.413 35.5027 700.55 35.8094C699.707 36.0969 698.998 36.5282 698.423 37.1032C697.867 37.6782 697.445 38.3777 697.158 39.2019C696.889 40.0261 696.736 40.9652 696.698 42.0194L695.03 41.5019C695.03 39.4894 695.231 37.6398 695.634 35.9532C696.036 34.2473 696.621 32.7619 697.388 31.4969C698.174 30.2319 699.132 29.2544 700.263 28.5644C701.394 27.8744 702.687 27.5294 704.144 27.5294C704.604 27.5294 705.074 27.5677 705.553 27.6444C706.032 27.7019 706.425 27.7882 706.731 27.9032ZM711.4 43.9744V43.3707C711.4 41.0898 711.726 38.9911 712.378 37.0744C713.03 35.1386 713.978 33.4615 715.224 32.0432C716.47 30.6248 718.003 29.5227 719.824 28.7369C721.645 27.9319 723.734 27.5294 726.092 27.5294C728.449 27.5294 730.548 27.9319 732.388 28.7369C734.228 29.5227 735.771 30.6248 737.017 32.0432C738.282 33.4615 739.24 35.1386 739.892 37.0744C740.543 38.9911 740.869 41.0898 740.869 43.3707V43.9744C740.869 46.2361 740.543 48.3348 739.892 50.2707C739.24 52.1873 738.282 53.8644 737.017 55.3019C735.771 56.7202 734.238 57.8223 732.417 58.6082C730.596 59.394 728.507 59.7869 726.149 59.7869C723.792 59.7869 721.693 59.394 719.853 58.6082C718.032 57.8223 716.489 56.7202 715.224 55.3019C713.978 53.8644 713.03 52.1873 712.378 50.2707C711.726 48.3348 711.4 46.2361 711.4 43.9744ZM719.68 43.3707V43.9744C719.68 45.2777 719.795 46.4948 720.025 47.6257C720.255 48.7565 720.62 49.7532 721.118 50.6157C721.635 51.459 722.306 52.1202 723.13 52.5994C723.955 53.0786 724.961 53.3182 726.149 53.3182C727.299 53.3182 728.286 53.0786 729.11 52.5994C729.935 52.1202 730.596 51.459 731.094 50.6157C731.593 49.7532 731.957 48.7565 732.187 47.6257C732.436 46.4948 732.56 45.2777 732.56 43.9744V43.3707C732.56 42.1057 732.436 40.9173 732.187 39.8057C731.957 38.6748 731.583 37.6782 731.065 36.8157C730.567 35.934 729.906 35.244 729.082 34.7457C728.258 34.2473 727.261 33.9982 726.092 33.9982C724.923 33.9982 723.926 34.2473 723.102 34.7457C722.297 35.244 721.635 35.934 721.118 36.8157C720.62 37.6782 720.255 38.6748 720.025 39.8057C719.795 40.9173 719.68 42.1057 719.68 43.3707ZM768.596 28.1044H776.099V58.1769C776.099 61.0136 775.467 63.419 774.202 65.3932C772.956 67.3865 771.212 68.8911 768.969 69.9069C766.727 70.9419 764.12 71.4594 761.149 71.4594C759.846 71.4594 758.466 71.2869 757.009 70.9419C755.572 70.5969 754.192 70.0602 752.869 69.3319C751.566 68.6036 750.474 67.6836 749.592 66.5719L753.243 61.6844C754.202 62.7961 755.313 63.6586 756.578 64.2719C757.843 64.9044 759.242 65.2207 760.776 65.2207C762.271 65.2207 763.536 64.9427 764.571 64.3869C765.606 63.8502 766.401 63.0548 766.957 62.0007C767.513 60.9657 767.791 59.7102 767.791 58.2344V35.2919L768.596 28.1044ZM747.666 44.0319V43.4282C747.666 41.0515 747.953 38.8952 748.528 36.9594C749.122 35.0044 749.956 33.3273 751.029 31.9282C752.122 30.529 753.444 29.4461 754.997 28.6794C756.549 27.9127 758.303 27.5294 760.258 27.5294C762.328 27.5294 764.063 27.9127 765.462 28.6794C766.861 29.4461 768.011 30.5386 768.912 31.9569C769.813 33.3561 770.512 35.014 771.011 36.9307C771.528 38.8282 771.931 40.9077 772.218 43.1694V44.4919C771.931 46.6577 771.499 48.6702 770.924 50.5294C770.349 52.3886 769.592 54.0177 768.653 55.4169C767.714 56.7969 766.545 57.8702 765.146 58.6369C763.766 59.4036 762.117 59.7869 760.201 59.7869C758.284 59.7869 756.549 59.394 754.997 58.6082C753.464 57.8223 752.151 56.7202 751.058 55.3019C749.966 53.8836 749.122 52.2161 748.528 50.2994C747.953 48.3827 747.666 46.2936 747.666 44.0319ZM755.946 43.4282V44.0319C755.946 45.3161 756.07 46.514 756.319 47.6257C756.569 48.7373 756.952 49.7244 757.469 50.5869C758.006 51.4302 758.667 52.0915 759.453 52.5707C760.258 53.0307 761.207 53.2607 762.299 53.2607C763.814 53.2607 765.05 52.9444 766.008 52.3119C766.967 51.6602 767.685 50.769 768.164 49.6382C768.644 48.5073 768.922 47.204 768.998 45.7282V41.9619C768.96 40.7544 768.797 39.6715 768.509 38.7132C768.222 37.7357 767.819 36.9019 767.302 36.2119C766.784 35.5219 766.114 34.9852 765.289 34.6019C764.465 34.2186 763.488 34.0269 762.357 34.0269C761.264 34.0269 760.316 34.2761 759.511 34.7744C758.725 35.2536 758.064 35.9148 757.527 36.7582C757.009 37.6015 756.617 38.5982 756.348 39.7482C756.08 40.879 755.946 42.1057 755.946 43.4282ZM793.763 34.8894V59.2119H785.483V28.1044H793.275L793.763 34.8894ZM803.136 27.9032L802.992 35.5794C802.59 35.5219 802.101 35.474 801.526 35.4357C800.97 35.3782 800.462 35.3494 800.002 35.3494C798.833 35.3494 797.817 35.5027 796.955 35.8094C796.111 36.0969 795.402 36.5282 794.827 37.1032C794.271 37.6782 793.85 38.3777 793.562 39.2019C793.294 40.0261 793.141 40.9652 793.102 42.0194L791.435 41.5019C791.435 39.4894 791.636 37.6398 792.038 35.9532C792.441 34.2473 793.026 32.7619 793.792 31.4969C794.578 30.2319 795.536 29.2544 796.667 28.5644C797.798 27.8744 799.092 27.5294 800.548 27.5294C801.008 27.5294 801.478 27.5677 801.957 27.6444C802.436 27.7019 802.829 27.7882 803.136 27.9032ZM825.802 52.1969V38.3394C825.802 37.3427 825.64 36.4898 825.314 35.7807C824.988 35.0523 824.48 34.4869 823.79 34.0844C823.119 33.6819 822.247 33.4807 821.174 33.4807C820.254 33.4807 819.458 33.6436 818.787 33.9694C818.117 34.2761 817.599 34.7265 817.235 35.3207C816.871 35.8957 816.689 36.5761 816.689 37.3619H808.409C808.409 36.0394 808.715 34.784 809.329 33.5957C809.942 32.4073 810.833 31.3627 812.002 30.4619C813.172 29.5419 814.561 28.8232 816.171 28.3057C817.8 27.7882 819.621 27.5294 821.634 27.5294C824.049 27.5294 826.195 27.9319 828.074 28.7369C829.952 29.5419 831.428 30.7494 832.501 32.3594C833.594 33.9694 834.14 35.9819 834.14 38.3969V51.7082C834.14 53.414 834.245 54.8132 834.456 55.9057C834.667 56.979 834.974 57.9182 835.376 58.7232V59.2119H827.01C826.607 58.3686 826.301 57.3144 826.09 56.0494C825.898 54.7652 825.802 53.4811 825.802 52.1969ZM826.895 40.2657L826.952 44.9519H822.324C821.231 44.9519 820.282 45.0765 819.477 45.3257C818.672 45.5748 818.011 45.9294 817.494 46.3894C816.976 46.8302 816.593 47.3477 816.344 47.9419C816.114 48.5361 815.999 49.1877 815.999 49.8969C815.999 50.6061 816.162 51.2482 816.487 51.8232C816.813 52.379 817.283 52.8198 817.896 53.1457C818.51 53.4523 819.228 53.6057 820.052 53.6057C821.298 53.6057 822.381 53.3565 823.301 52.8582C824.221 52.3598 824.93 51.7465 825.429 51.0182C825.946 50.2898 826.215 49.5998 826.234 48.9482L828.419 52.4557C828.112 53.2415 827.69 54.0561 827.154 54.8994C826.636 55.7427 825.975 56.5382 825.17 57.2857C824.365 58.014 823.397 58.6177 822.266 59.0969C821.135 59.5569 819.794 59.7869 818.241 59.7869C816.267 59.7869 814.475 59.394 812.865 58.6082C811.274 57.8032 810.009 56.7011 809.07 55.3019C808.15 53.8836 807.69 52.2736 807.69 50.4719C807.69 48.8427 807.997 47.3957 808.61 46.1307C809.223 44.8657 810.124 43.8019 811.312 42.9394C812.52 42.0577 814.025 41.3965 815.826 40.9557C817.628 40.4957 819.717 40.2657 822.094 40.2657H826.895ZM851.746 34.5444V59.2119H843.438V28.1044H851.229L851.746 34.5444ZM850.596 42.5657H848.296C848.296 40.3998 848.555 38.4065 849.073 36.5857C849.609 34.7457 850.386 33.1548 851.401 31.8132C852.436 30.4523 853.711 29.3982 855.225 28.6507C856.739 27.9032 858.493 27.5294 860.486 27.5294C861.866 27.5294 863.131 27.7402 864.281 28.1619C865.431 28.5644 866.419 29.2065 867.243 30.0882C868.086 30.9507 868.738 32.0815 869.198 33.4807C869.658 34.8607 869.888 36.5186 869.888 38.4544V59.2119H861.608V39.3744C861.608 37.9561 861.416 36.8636 861.033 36.0969C860.649 35.3302 860.103 34.7936 859.394 34.4869C858.704 34.1802 857.87 34.0269 856.893 34.0269C855.819 34.0269 854.88 34.2473 854.075 34.6882C853.289 35.129 852.638 35.7423 852.12 36.5282C851.603 37.2948 851.219 38.1957 850.97 39.2307C850.721 40.2657 850.596 41.3773 850.596 42.5657ZM869.111 41.6169L866.15 41.9907C866.15 39.959 866.399 38.0711 866.898 36.3269C867.415 34.5827 868.172 33.0494 869.169 31.7269C870.185 30.4044 871.44 29.379 872.935 28.6507C874.43 27.9032 876.155 27.5294 878.11 27.5294C879.605 27.5294 880.966 27.7498 882.193 28.1907C883.419 28.6123 884.464 29.2927 885.326 30.2319C886.208 31.1519 886.879 32.3594 887.339 33.8544C887.818 35.3494 888.058 37.1798 888.058 39.3457V59.2119H879.749V39.3457C879.749 37.9082 879.557 36.8157 879.174 36.0682C878.81 35.3015 878.273 34.7744 877.564 34.4869C876.874 34.1802 876.05 34.0269 875.091 34.0269C874.095 34.0269 873.223 34.2282 872.475 34.6307C871.728 35.014 871.105 35.5507 870.606 36.2407C870.108 36.9307 869.734 37.7357 869.485 38.6557C869.236 39.5565 869.111 40.5436 869.111 41.6169Z" fill="white"/>
<defs>
<linearGradient id="paint0_linear_1500_21629" x1="1024.63" y1="100.476" x2="11.89" y2="100.476" gradientUnits="userSpaceOnUse">
<stop stop-color="#8F00FF"/>
<stop offset="1" stop-color="#00A4FF"/>
</linearGradient>
<linearGradient id="paint1_linear_1500_21629" x1="16.3053" y1="32.7639" x2="958.386" y2="32.7639" gradientUnits="userSpaceOnUse">
<stop stop-color="#00DAFF"/>
<stop offset="0.71" stop-color="#A056FF"/>
</linearGradient>
</defs>
</svg>
