<svg width="200" height="200" viewBox="0 0 200 200" fill="none" xmlns="http://www.w3.org/2000/svg">
<rect width="200" height="200" rx="100" fill="#D9D9D9"/>
<circle cx="97.4907" cy="87.9868" r="9.06689" fill="#878787"/>
<circle cx="124.436" cy="87.9868" r="9.06689" fill="#878787"/>
<path d="M51 40H106.993C106.995 40 106.998 40 107 40C123.97 40.0017 140.244 46.3229 152.243 57.5736C164.244 68.8258 170.986 84.087 170.986 100C170.986 115.913 164.244 131.174 152.243 142.426C140.242 153.679 123.965 160 106.993 160V136C117.176 136 126.943 132.207 134.143 125.456C141.344 118.705 145.389 109.548 145.389 100C145.389 90.4522 141.344 81.2955 134.143 74.5442C126.944 67.7944 117.181 64.0017 107 64C106.998 64 106.995 64 106.993 64H79V160H51V40Z" fill="#878787"/>
</svg>
