<svg width="120" height="120" viewBox="0 0 120 120" fill="none" xmlns="http://www.w3.org/2000/svg">
<circle cx="46.4907" cy="47.9873" r="9.06689" fill="#878787"/>
<circle cx="73.4355" cy="47.9873" r="9.06689" fill="#878787"/>
<path d="M0 1.00747e-07H55.9932C55.9955 1.00747e-07 55.9977 -1.25934e-07 56 1.00747e-07C72.9696 0.0016943 89.2437 6.32292 101.243 17.5736C113.244 28.8258 119.986 44.087 119.986 60C119.986 75.913 113.244 91.1742 101.243 102.426C89.2421 113.679 72.9652 120 55.9932 120V96C66.1764 96 75.9426 92.2071 83.1432 85.4558C90.3438 78.7045 94.3891 69.5478 94.3891 60C94.3891 50.4522 90.3438 41.2955 83.1432 34.5442C75.9442 27.7944 66.1808 24.0017 56 24C55.9977 24 55.9954 24 55.9932 24H28V120H0V1.00747e-07Z" fill="#878787"/>
<path d="M28.0016 96.0281L55.9932 96V120H28L28.0016 96.0281Z" fill="#878787"/>
</svg>
