<svg width="27" height="24" viewBox="0 0 27 24" fill="none" xmlns="http://www.w3.org/2000/svg">
<path d="M13.8037 16.6667C14.8947 16.6667 15.7792 15.7713 15.7792 14.6667C15.7792 13.5621 14.8947 12.6667 13.8037 12.6667C12.7127 12.6667 11.8282 13.5621 11.8282 14.6667C11.8282 15.7713 12.7127 16.6667 13.8037 16.6667Z" fill="#231F20"/>
<path d="M23.0225 5.33339H19.0716V3.33339C19.0716 2.44934 18.7247 1.60149 18.1073 0.976372C17.4898 0.35125 16.6524 6.10352e-05 15.7792 6.10352e-05H11.8282C10.955 6.10352e-05 10.1176 0.35125 9.50014 0.976372C8.88268 1.60149 8.5358 2.44934 8.5358 3.33339V5.33339H4.58487C3.53702 5.33339 2.53209 5.75482 1.79114 6.50497C1.0502 7.25511 0.633942 8.27253 0.633942 9.3334V20.0001C0.633942 21.0609 1.0502 22.0783 1.79114 22.8285C2.53209 23.5786 3.53702 24.0001 4.58487 24.0001H23.0225C24.0704 24.0001 25.0753 23.5786 25.8163 22.8285C26.5572 22.0783 26.9735 21.0609 26.9735 20.0001V9.3334C26.9735 8.27253 26.5572 7.25511 25.8163 6.50497C25.0753 5.75482 24.0704 5.33339 23.0225 5.33339ZM11.1698 3.33339C11.1698 3.15658 11.2391 2.98701 11.3626 2.86199C11.4861 2.73697 11.6536 2.66673 11.8282 2.66673H15.7792C15.9538 2.66673 16.1213 2.73697 16.2448 2.86199C16.3683 2.98701 16.4377 3.15658 16.4377 3.33339V5.33339H11.1698V3.33339ZM13.8037 19.3334C12.8921 19.3334 12.0009 19.0597 11.2429 18.5469C10.4848 18.0341 9.89404 17.3053 9.54516 16.4526C9.19629 15.5999 9.105 14.6616 9.28286 13.7563C9.46072 12.8511 9.89972 12.0195 10.5444 11.3669C11.189 10.7143 12.0103 10.2698 12.9045 10.0897C13.7986 9.90967 14.7254 10.0021 15.5677 10.3553C16.4099 10.7085 17.1298 11.3066 17.6363 12.0741C18.1428 12.8415 18.4131 13.7437 18.4131 14.6667C18.4131 15.9044 17.9275 17.0914 17.0631 17.9666C16.1986 18.8417 15.0262 19.3334 13.8037 19.3334Z" fill="#231F20"/>
</svg>
