<svg width="27" height="24" viewBox="0 0 27 24" fill="none" xmlns="http://www.w3.org/2000/svg">
<path d="M13.8036 16.6667C14.8946 16.6667 15.7791 15.7713 15.7791 14.6667C15.7791 13.5621 14.8946 12.6667 13.8036 12.6667C12.7126 12.6667 11.8281 13.5621 11.8281 14.6667C11.8281 15.7713 12.7126 16.6667 13.8036 16.6667Z" fill="url(#paint0_linear_120_5284)"/>
<path d="M23.0224 5.33339H19.0715V3.33339C19.0715 2.44934 18.7246 1.60149 18.1071 0.976372C17.4897 0.35125 16.6522 6.10352e-05 15.779 6.10352e-05H11.8281C10.9549 6.10352e-05 10.1174 0.35125 9.49998 0.976372C8.88253 1.60149 8.53565 2.44934 8.53565 3.33339V5.33339H4.58472C3.53687 5.33339 2.53193 5.75482 1.79099 6.50497C1.05005 7.25511 0.633789 8.27253 0.633789 9.3334V20.0001C0.633789 21.0609 1.05005 22.0783 1.79099 22.8285C2.53193 23.5786 3.53687 24.0001 4.58472 24.0001H23.0224C24.0702 24.0001 25.0752 23.5786 25.8161 22.8285C26.5571 22.0783 26.9733 21.0609 26.9733 20.0001V9.3334C26.9733 8.27253 26.5571 7.25511 25.8161 6.50497C25.0752 5.75482 24.0702 5.33339 23.0224 5.33339ZM11.1696 3.33339C11.1696 3.15658 11.239 2.98701 11.3625 2.86199C11.486 2.73697 11.6535 2.66673 11.8281 2.66673H15.779C15.9537 2.66673 16.1212 2.73697 16.2446 2.86199C16.3681 2.98701 16.4375 3.15658 16.4375 3.33339V5.33339H11.1696V3.33339ZM13.8036 19.3334C12.8919 19.3334 12.0007 19.0597 11.2427 18.5469C10.4847 18.0341 9.89389 17.3053 9.54501 16.4526C9.19613 15.5999 9.10485 14.6616 9.28271 13.7563C9.46056 12.8511 9.89957 12.0195 10.5442 11.3669C11.1888 10.7143 12.0102 10.2698 12.9043 10.0897C13.7984 9.90967 14.7252 10.0021 15.5675 10.3553C16.4098 10.7085 17.1297 11.3066 17.6362 12.0741C18.1426 12.8415 18.413 13.7437 18.413 14.6667C18.413 15.9044 17.9273 17.0914 17.0629 17.9666C16.1985 18.8417 15.0261 19.3334 13.8036 19.3334Z" fill="url(#paint1_linear_120_5284)"/>
<defs>
<linearGradient id="paint0_linear_120_5284" x1="13.8036" y1="12.6667" x2="13.8036" y2="16.6667" gradientUnits="userSpaceOnUse">
<stop stop-color="#00AAFF"/>
<stop offset="1" stop-color="#627EEA"/>
</linearGradient>
<linearGradient id="paint1_linear_120_5284" x1="13.8036" y1="6.10352e-05" x2="13.8036" y2="24.0001" gradientUnits="userSpaceOnUse">
<stop stop-color="#00AAFF"/>
<stop offset="1" stop-color="#627EEA"/>
</linearGradient>
</defs>
</svg>
