<svg width="140" height="132" viewBox="0 0 140 132" fill="none" xmlns="http://www.w3.org/2000/svg">
<path d="M70.3747 91.3825C76.1305 91.3825 80.7965 86.5133 80.7965 80.5068C80.7965 74.5003 76.1305 69.6311 70.3747 69.6311C64.6188 69.6311 59.9528 74.5003 59.9528 80.5068C59.9528 86.5133 64.6188 91.3825 70.3747 91.3825Z" fill="#9C9C9C"/>
<path d="M119.01 29.7533H98.1662V18.8776C98.1662 14.0703 96.3362 9.45982 93.0788 6.0605C89.8213 2.66118 85.4033 0.751465 80.7965 0.751465H59.9529C55.3461 0.751465 50.9281 2.66118 47.6706 6.0605C44.4131 9.45982 42.5831 14.0703 42.5831 18.8776V29.7533H21.7395C16.2114 29.7533 10.9097 32.045 7.00075 36.1242C3.09181 40.2034 0.895782 45.7359 0.895782 51.5048V109.509C0.895782 115.277 3.09181 120.81 7.00075 124.889C10.9097 128.968 16.2114 131.26 21.7395 131.26H119.01C124.538 131.26 129.84 128.968 133.749 124.889C137.658 120.81 139.854 115.277 139.854 109.509V51.5048C139.854 45.7359 137.658 40.2034 133.749 36.1242C129.84 32.045 124.538 29.7533 119.01 29.7533ZM56.4789 18.8776C56.4789 17.9162 56.8449 16.9941 57.4964 16.3142C58.1479 15.6343 59.0315 15.2524 59.9529 15.2524H80.7965C81.7179 15.2524 82.6015 15.6343 83.253 16.3142C83.9045 16.9941 84.2705 17.9162 84.2705 18.8776V29.7533H56.4789V18.8776ZM70.3747 105.883C65.5651 105.883 60.8636 104.395 56.8645 101.607C52.8655 98.8181 49.7487 94.8548 47.9081 90.2179C46.0676 85.5809 45.586 80.4785 46.5243 75.5559C47.4626 70.6333 49.7787 66.1116 53.1795 62.5626C56.5804 59.0137 60.9134 56.5968 65.6306 55.6176C70.3477 54.6384 75.2372 55.141 79.6806 57.0617C84.1241 58.9824 87.922 62.235 90.594 66.4081C93.2661 70.5813 94.6923 75.4876 94.6923 80.5066C94.6923 87.2369 92.1303 93.6916 87.5698 98.4506C83.0094 103.21 76.8241 105.883 70.3747 105.883Z" fill="#9C9C9C"/>
</svg>
