<svg width="995" height="380" viewBox="0 0 995 380" fill="none" xmlns="http://www.w3.org/2000/svg">
<path d="M961.892 379.221H934.867C934.165 379.221 933.814 378.831 933.814 378.051V241.43H902.695C901.915 241.43 901.525 241.04 901.525 240.26L901.759 213.474C901.759 212.85 902.071 212.538 902.695 212.538H993.713C994.571 212.538 995 212.85 995 213.474V240.26C995 241.04 994.688 241.43 994.064 241.43H962.594L962.828 378.051C962.828 378.831 962.516 379.221 961.892 379.221Z" fill="#00AAFF"/>
<path d="M823.26 379.221H796.118C795.494 379.221 795.182 378.831 795.182 378.051L795.65 213.474C795.65 212.85 795.962 212.538 796.586 212.538H845.02C853.677 212.538 861.632 214.644 868.885 218.854C876.139 223.065 881.91 228.719 886.2 235.815C890.567 242.911 892.751 250.943 892.751 259.911C892.751 265.76 891.854 271.062 890.06 275.819C888.267 280.576 886.161 284.592 883.743 287.867C881.403 291.142 879.258 293.559 877.309 295.119C885.966 304.711 890.294 315.979 890.294 328.923L890.528 378.051C890.528 378.831 890.138 379.221 889.359 379.221H862.217C861.593 379.221 861.281 378.987 861.281 378.519V328.923C861.281 323.153 859.253 318.162 855.198 313.951C851.142 309.74 846.15 307.635 840.223 307.635H824.429L824.195 378.051C824.195 378.831 823.883 379.221 823.26 379.221ZM845.02 241.196H824.429V278.86H845.02C849.933 278.86 854.301 277.028 858.122 273.363C862.022 269.698 863.972 265.214 863.972 259.911C863.972 254.842 862.1 250.475 858.356 246.81C854.613 243.067 850.167 241.196 845.02 241.196Z" fill="#00AAFF"/>
<path d="M772.954 379.221H695.507C694.883 379.221 694.571 378.831 694.571 378.051L694.805 213.474C694.805 212.85 695.117 212.538 695.741 212.538H772.72C773.344 212.538 773.656 212.928 773.656 213.708V240.494C773.656 241.118 773.344 241.43 772.72 241.43H723.585V278.86H772.72C773.344 278.86 773.656 279.172 773.656 279.796L773.89 306.933C773.89 307.557 773.578 307.869 772.954 307.869H723.585V349.744H772.954C773.578 349.744 773.89 350.134 773.89 350.914V378.285C773.89 378.909 773.578 379.221 772.954 379.221Z" fill="#00AAFF"/>
<path d="M613.147 379.221H586.239C585.459 379.221 585.069 378.831 585.069 378.051L585.537 213.474C585.537 212.85 585.849 212.538 586.473 212.538H632.567C647.23 212.538 658.812 217.022 667.313 225.99C675.892 234.879 680.182 247.005 680.182 262.367C680.182 273.597 677.959 283.383 673.513 291.727C668.99 299.993 663.14 306.387 655.965 310.91C648.789 315.433 640.99 317.694 632.567 317.694H614.317V378.051C614.317 378.831 613.927 379.221 613.147 379.221ZM632.567 240.962L614.317 241.196V288.686H632.567C637.636 288.686 642.043 286.268 645.787 281.434C649.53 276.521 651.402 270.165 651.402 262.367C651.402 256.129 649.725 251.021 646.372 247.044C643.018 242.989 638.416 240.962 632.567 240.962Z" fill="#00AAFF"/>
<path d="M507.739 379.221H480.832C480.286 379.221 480.052 378.831 480.13 378.051L507.505 292.546L480.598 213.474C480.442 212.85 480.676 212.538 481.3 212.538H508.207C508.987 212.538 509.455 212.85 509.611 213.474L525.639 270.438L541.9 213.474C542.056 212.85 542.563 212.538 543.421 212.538H569.978C570.602 212.538 570.836 212.85 570.68 213.474L543.889 292.312L570.914 378.051C571.226 378.831 570.992 379.221 570.212 379.221H543.421C542.719 379.221 542.212 378.831 541.9 378.051L525.639 316.174L509.143 378.051C509.065 378.831 508.597 379.221 507.739 379.221Z" fill="#00AAFF"/>
<path d="M465.974 379.221H388.527C387.903 379.221 387.591 378.831 387.591 378.051L387.825 213.474C387.825 212.85 388.137 212.538 388.761 212.538H465.74C466.364 212.538 466.676 212.928 466.676 213.708V240.494C466.676 241.118 466.364 241.43 465.74 241.43H416.605V278.86H465.74C466.364 278.86 466.676 279.172 466.676 279.796L466.91 306.933C466.91 307.557 466.598 307.869 465.974 307.869H416.605V349.744H465.974C466.598 349.744 466.91 350.134 466.91 350.914V378.285C466.91 378.909 466.598 379.221 465.974 379.221Z" fill="#00AAFF"/>
<circle cx="146.936" cy="151.666" r="14.6562" fill="#00AAFF" stroke="#00AAFF" stroke-width="28"/>
<circle cx="232.096" cy="151.666" r="14.6562" fill="#00AAFF" stroke="#00AAFF" stroke-width="28"/>
<path d="M0 3.18415e-07H176.968C176.976 3.18415e-07 176.983 -3.98017e-07 176.99 3.18415e-07C230.623 0.0053549 282.058 19.9838 319.983 55.542C357.912 91.1049 379.221 139.339 379.221 189.632C379.221 239.926 357.912 288.159 319.982 323.722C282.053 359.285 230.609 379.264 176.968 379.264V303.411C209.153 303.411 240.019 291.424 262.777 270.086C285.535 248.748 298.32 219.808 298.32 189.632C298.32 159.456 285.535 130.516 262.777 109.178C240.024 87.845 209.167 75.8582 176.99 75.8528C176.983 75.8528 176.976 75.8528 176.968 75.8528H88.4949V379.264H0V3.18415e-07Z" fill="#00AAFF"/>
<path d="M88.5 303.5L176.968 303.411V379.264H88.4949L88.5 303.5Z" fill="#00AAFF"/>
</svg>
