<svg width="23" height="22" viewBox="0 0 23 22" fill="none" xmlns="http://www.w3.org/2000/svg">
<path opacity="0.5" d="M0.542969 12C0.542969 7.28636 0.542969 4.92909 2.00661 3.46364C3.47297 2 5.83024 2 10.543 2C15.2566 2 17.6139 2 19.0793 3.46364C20.543 4.93 20.543 7.28727 20.543 12C20.543 16.7136 20.543 19.0709 19.0793 20.5364C17.613 22 15.2557 22 10.543 22C5.82933 22 3.47206 22 2.00661 20.5364C0.542969 19.07 0.542969 16.7127 0.542969 12Z" fill="url(#paint0_linear_238_5595)"/>
<path d="M12.6437 14.5109C12.911 14.3026 13.1531 14.0604 13.6386 13.575L19.6821 7.53141C19.8283 7.38523 19.7618 7.13324 19.5665 7.0656C18.6213 6.7353 17.7634 6.19483 17.0574 5.4849C16.3471 4.77901 15.8063 3.92112 15.4756 2.97585C15.4091 2.77949 15.1571 2.71404 15.0109 2.86022L8.96739 8.90376C8.48194 9.38811 8.23976 9.63138 8.0314 9.89865C7.78528 10.2137 7.57422 10.5546 7.40196 10.9154C7.25687 11.2208 7.14778 11.547 6.93178 12.1972L6.65142 13.0371L6.20525 14.3746L5.78853 15.6269C5.73648 15.7838 5.72906 15.952 5.76709 16.1128C5.80512 16.2736 5.88711 16.4207 6.0039 16.5376C6.12069 16.6545 6.26768 16.7366 6.42845 16.7748C6.58922 16.813 6.75745 16.8057 6.91433 16.7538L8.16886 16.336L9.50411 15.8909L10.3441 15.6106C10.9954 15.3935 11.3204 15.2855 11.6259 15.1393C11.987 14.9676 12.3283 14.7569 12.6437 14.5109ZM21.5748 5.63981C22.1944 5.02037 22.5425 4.18017 22.5426 3.30405C22.5427 2.42793 22.1948 1.58765 21.5754 0.968066C20.9559 0.348483 20.1157 0.000346454 19.2396 0.000244163C18.3635 0.000141872 17.5232 0.348082 16.9036 0.967521L16.7084 1.1617C16.6162 1.25301 16.5475 1.36535 16.5084 1.48906C16.4692 1.61277 16.4607 1.74415 16.4836 1.87187C16.5131 2.0355 16.5676 2.2755 16.6669 2.5624C16.9345 3.32806 17.3724 4.02297 17.9476 4.59473C18.519 5.16986 19.2136 5.60777 19.9788 5.87544C20.2657 5.97362 20.5057 6.02926 20.6694 6.05871C20.9312 6.10562 21.193 6.02053 21.3806 5.8329L21.5748 5.63981Z" fill="#00AAFF"/>
<defs>
<linearGradient id="paint0_linear_238_5595" x1="10.543" y1="2" x2="10.543" y2="22" gradientUnits="userSpaceOnUse">
<stop stop-color="#00AAFF"/>
<stop offset="1" stop-color="#627EEA"/>
</linearGradient>
</defs>
</svg>
