<svg width="35" height="34" viewBox="0 0 35 34" fill="none" xmlns="http://www.w3.org/2000/svg">
<path d="M17.5425 33C26.3793 33 33.5425 25.8368 33.5425 17C33.5425 8.1632 26.3793 1 17.5425 1C8.70568 1 1.54248 8.1632 1.54248 17C1.54248 19.56 2.14408 21.9792 3.21128 24.1248C3.49608 24.6944 3.59048 25.3456 3.42568 25.9616L2.47368 29.5232C2.37939 29.8757 2.37948 30.2467 2.47393 30.5992C2.56838 30.9516 2.75387 31.273 3.01178 31.531C3.2697 31.7891 3.59096 31.9748 3.94332 32.0695C4.29569 32.1641 4.66675 32.1645 5.01928 32.0704L8.58088 31.1168C9.19913 30.9612 9.85292 31.0369 10.4193 31.3296C12.632 32.4314 15.0707 33.0033 17.5425 33Z" stroke="#00AAFF" stroke-width="1.5"/>
<path opacity="0.5" d="M11.1426 17H11.157M17.5282 17H17.5426M23.9282 17H23.9426" stroke="#00AAFF" stroke-width="2" stroke-linecap="round" stroke-linejoin="round"/>
</svg>
