<svg width="20" height="20" viewBox="0 0 20 20" fill="none" xmlns="http://www.w3.org/2000/svg">
<mask id="path-1-inside-1_48_782" fill="white">
<path d="M0 1.67912e-08H9.3322C9.33258 1.67912e-08 9.33295 -2.0989e-08 9.33333 1.67912e-08C12.1616 0.000282384 14.874 1.05382 16.8739 2.92893C18.874 4.8043 19.9977 7.34784 19.9977 10C19.9977 12.6522 18.874 15.1957 16.8739 17.0711C14.8737 18.9464 12.1609 20 9.3322 20V16C11.0294 16 12.6571 15.3679 13.8572 14.2426C15.0573 13.1174 15.7315 11.5913 15.7315 10C15.7315 8.4087 15.0573 6.88258 13.8572 5.75736C12.6574 4.63239 11.0301 4.00028 9.33333 4C9.33295 4 9.33257 4 9.3322 4H4.66667V20H0V1.67912e-08Z"/>
</mask>
<path d="M0 1.67912e-08H9.3322C9.33258 1.67912e-08 9.33295 -2.0989e-08 9.33333 1.67912e-08C12.1616 0.000282384 14.874 1.05382 16.8739 2.92893C18.874 4.8043 19.9977 7.34784 19.9977 10C19.9977 12.6522 18.874 15.1957 16.8739 17.0711C14.8737 18.9464 12.1609 20 9.3322 20V16C11.0294 16 12.6571 15.3679 13.8572 14.2426C15.0573 13.1174 15.7315 11.5913 15.7315 10C15.7315 8.4087 15.0573 6.88258 13.8572 5.75736C12.6574 4.63239 11.0301 4.00028 9.33333 4C9.33295 4 9.33257 4 9.3322 4H4.66667V20H0V1.67912e-08Z" fill="#00AAFF"/>
<path d="M0 1.67912e-08V-40H-40V1.67912e-08H0ZM9.33333 1.67912e-08L9.33733 -40L9.33333 1.67912e-08ZM16.8739 2.92893L44.2331 -26.2511L44.2331 -26.2511L16.8739 2.92893ZM16.8739 17.0711L44.233 46.2511L44.2331 46.2511L16.8739 17.0711ZM9.3322 20H-30.6678V60H9.3322V20ZM9.3322 16V-24H-30.6678V16H9.3322ZM13.8572 14.2426L41.2164 43.4227L41.2164 43.4227L13.8572 14.2426ZM15.7315 10L-24.2685 9.99998V10H15.7315ZM13.8572 5.75736L41.2164 -23.4227L41.2164 -23.4227L13.8572 5.75736ZM9.33333 4L9.33999 -36H9.33333V4ZM4.66667 4V-36H-35.3333V4H4.66667ZM4.66667 20V60H44.6667V20H4.66667ZM0 20H-40V60H0V20ZM9.3322 40C9.33297 40 9.33499 40 9.33376 40C9.33344 40 9.33166 40 9.32934 40L9.33733 -40C9.33462 -40 9.33247 -40 9.33177 -40C9.33016 -40 9.3318 -40 9.3322 -40V40ZM9.32934 40C2.35216 39.9993 -4.81633 37.4242 -10.4853 32.109L44.2331 -26.2511C34.5642 -35.3166 21.971 -39.9987 9.33733 -40L9.32934 40ZM-10.4853 32.109C-16.2423 26.7112 -20.0023 18.8186 -20.0023 10H59.9977C59.9977 -4.12288 53.9904 -17.1026 44.2331 -26.2511L-10.4853 32.109ZM-20.0023 10C-20.0023 1.18143 -16.2423 -6.71119 -10.4853 -12.109L44.2331 46.2511C53.9904 37.1026 59.9977 24.1229 59.9977 10H-20.0023ZM-10.4853 -12.109C-4.81558 -17.4249 2.35405 -20 9.3322 -20V60C21.9677 60 34.563 55.3178 44.233 46.2511L-10.4853 -12.109ZM49.3322 20V16H-30.6678V20H49.3322ZM9.3322 56C20.8362 56 32.3464 51.7392 41.2164 43.4227L-13.502 -14.9374C-7.03218 -21.0035 1.22258 -24 9.3322 -24V56ZM41.2164 43.4227C50.1737 35.0243 55.7315 23.062 55.7315 10H-24.2685C-24.2685 0.120575 -20.0591 -8.78947 -13.502 -14.9374L41.2164 43.4227ZM55.7315 10C55.7315 -3.06201 50.1737 -15.0243 41.2164 -23.4227L-13.502 34.9374C-20.0591 28.7895 -24.2685 19.8794 -24.2685 9.99998L55.7315 10ZM41.2164 -23.4227C32.3483 -31.7374 20.8413 -35.9981 9.33999 -36L9.32668 44C1.21894 43.9986 -7.0336 41.0022 -13.502 34.9374L41.2164 -23.4227ZM9.33333 -36C9.33333 -36 9.33333 -36 9.33333 -36C9.33333 -36 9.33333 -36 9.33333 -36C9.33333 -36 9.33333 -36 9.33333 -36C9.33333 -36 9.33332 -36 9.33332 -36C9.33332 -36 9.33332 -36 9.33332 -36C9.33332 -36 9.33332 -36 9.33332 -36C9.33332 -36 9.33332 -36 9.33332 -36C9.33332 -36 9.33332 -36 9.33331 -36C9.33331 -36 9.33331 -36 9.33331 -36C9.33331 -36 9.33331 -36 9.33331 -36C9.33331 -36 9.33331 -36 9.33331 -36C9.33331 -36 9.33331 -36 9.33331 -36C9.33331 -36 9.3333 -36 9.3333 -36C9.3333 -36 9.3333 -36 9.3333 -36C9.3333 -36 9.3333 -36 9.3333 -36C9.3333 -36 9.3333 -36 9.3333 -36C9.3333 -36 9.3333 -36 9.33329 -36C9.33329 -36 9.33329 -36 9.33329 -36C9.33329 -36 9.33329 -36 9.33329 -36C9.33329 -36 9.33329 -36 9.33329 -36C9.33329 -36 9.33329 -36 9.33329 -36C9.33329 -36 9.33328 -36 9.33328 -36C9.33328 -36 9.33328 -36 9.33328 -36C9.33328 -36 9.33328 -36 9.33328 -36C9.33328 -36 9.33328 -36 9.33328 -36C9.33328 -36 9.33328 -36 9.33327 -36C9.33327 -36 9.33327 -36 9.33327 -36C9.33327 -36 9.33327 -36 9.33327 -36C9.33327 -36 9.33327 -36 9.33327 -36C9.33327 -36 9.33327 -36 9.33327 -36C9.33327 -36 9.33326 -36 9.33326 -36C9.33326 -36 9.33326 -36 9.33326 -36C9.33326 -36 9.33326 -36 9.33326 -36C9.33326 -36 9.33326 -36 9.33326 -36C9.33326 -36 9.33326 -36 9.33325 -36C9.33325 -36 9.33325 -36 9.33325 -36C9.33325 -36 9.33325 -36 9.33325 -36C9.33325 -36 9.33325 -36 9.33325 -36C9.33325 -36 9.33325 -36 9.33325 -36C9.33325 -36 9.33325 -36 9.33324 -36C9.33324 -36 9.33324 -36 9.33324 -36C9.33324 -36 9.33324 -36 9.33324 -36C9.33324 -36 9.33324 -36 9.33324 -36C9.33324 -36 9.33324 -36 9.33323 -36C9.33323 -36 9.33323 -36 9.33323 -36C9.33323 -36 9.33323 -36 9.33323 -36C9.33323 -36 9.33323 -36 9.33323 -36C9.33323 -36 9.33323 -36 9.33323 -36C9.33323 -36 9.33323 -36 9.33322 -36C9.33322 -36 9.33322 -36 9.33322 -36C9.33322 -36 9.33322 -36 9.33322 -36C9.33322 -36 9.33322 -36 9.33322 -36C9.33322 -36 9.33322 -36 9.33321 -36C9.33321 -36 9.33321 -36 9.33321 -36C9.33321 -36 9.33321 -36 9.33321 -36C9.33321 -36 9.33321 -36 9.33321 -36C9.33321 -36 9.33321 -36 9.33321 -36C9.33321 -36 9.33321 -36 9.3332 -36C9.3332 -36 9.3332 -36 9.3332 -36C9.3332 -36 9.3332 -36 9.3332 -36C9.3332 -36 9.3332 -36 9.3332 -36C9.3332 -36 9.3332 -36 9.3332 -36C9.33319 -36 9.33319 -36 9.33319 -36C9.33319 -36 9.33319 -36 9.33319 -36C9.33319 -36 9.33319 -36 9.33319 -36C9.33319 -36 9.33319 -36 9.33319 -36C9.33319 -36 9.33319 -36 9.33318 -36C9.33318 -36 9.33318 -36 9.33318 -36C9.33318 -36 9.33318 -36 9.33318 -36C9.33318 -36 9.33318 -36 9.33318 -36C9.33318 -36 9.33318 -36 9.33318 -36C9.33317 -36 9.33317 -36 9.33317 -36C9.33317 -36 9.33317 -36 9.33317 -36C9.33317 -36 9.33317 -36 9.33317 -36C9.33317 -36 9.33317 -36 9.33317 -36C9.33317 -36 9.33317 -36 9.33316 -36C9.33316 -36 9.33316 -36 9.33316 -36C9.33316 -36 9.33316 -36 9.33316 -36C9.33316 -36 9.33316 -36 9.33316 -36C9.33316 -36 9.33316 -36 9.33316 -36C9.33315 -36 9.33315 -36 9.33315 -36C9.33315 -36 9.33315 -36 9.33315 -36C9.33315 -36 9.33315 -36 9.33315 -36C9.33315 -36 9.33315 -36 9.33315 -36C9.33315 -36 9.33315 -36 9.33314 -36C9.33314 -36 9.33314 -36 9.33314 -36C9.33314 -36 9.33314 -36 9.33314 -36C9.33314 -36 9.33314 -36 9.33314 -36C9.33314 -36 9.33314 -36 9.33314 -36C9.33313 -36 9.33313 -36 9.33313 -36C9.33313 -36 9.33313 -36 9.33313 -36C9.33313 -36 9.33313 -36 9.33313 -36C9.33313 -36 9.33313 -36 9.33313 -36C9.33313 -36 9.33313 -36 9.33312 -36C9.33312 -36 9.33312 -36 9.33312 -36C9.33312 -36 9.33312 -36 9.33312 -36C9.33312 -36 9.33312 -36 9.33312 -36C9.33312 -36 9.33312 -36 9.33312 -36C9.33311 -36 9.33311 -36 9.33311 -36C9.33311 -36 9.33311 -36 9.33311 -36C9.33311 -36 9.33311 -36 9.33311 -36C9.33311 -36 9.33311 -36 9.33311 -36C9.33311 -36 9.33311 -36 9.3331 -36C9.3331 -36 9.3331 -36 9.3331 -36C9.3331 -36 9.3331 -36 9.3331 -36C9.3331 -36 9.3331 -36 9.3331 -36C9.3331 -36 9.3331 -36 9.3331 -36C9.33309 -36 9.33309 -36 9.33309 -36C9.33309 -36 9.33309 -36 9.33309 -36C9.33309 -36 9.33309 -36 9.33309 -36C9.33309 -36 9.33309 -36 9.33309 -36C9.33309 -36 9.33309 -36 9.33308 -36C9.33308 -36 9.33308 -36 9.33308 -36C9.33308 -36 9.33308 -36 9.33308 -36C9.33308 -36 9.33308 -36 9.33308 -36C9.33308 -36 9.33308 -36 9.33308 -36C9.33307 -36 9.33307 -36 9.33307 -36C9.33307 -36 9.33307 -36 9.33307 -36C9.33307 -36 9.33307 -36 9.33307 -36C9.33307 -36 9.33307 -36 9.33307 -36C9.33307 -36 9.33307 -36 9.33306 -36C9.33306 -36 9.33306 -36 9.33306 -36C9.33306 -36 9.33306 -36 9.33306 -36C9.33306 -36 9.33306 -36 9.33306 -36C9.33306 -36 9.33306 -36 9.33306 -36C9.33305 -36 9.33305 -36 9.33305 -36C9.33305 -36 9.33305 -36 9.33305 -36C9.33305 -36 9.33305 -36 9.33305 -36C9.33305 -36 9.33305 -36 9.33305 -36C9.33305 -36 9.33305 -36 9.33304 -36C9.33304 -36 9.33304 -36 9.33304 -36C9.33304 -36 9.33304 -36 9.33304 -36C9.33304 -36 9.33304 -36 9.33304 -36C9.33304 -36 9.33304 -36 9.33304 -36C9.33303 -36 9.33303 -36 9.33303 -36C9.33303 -36 9.33303 -36 9.33303 -36C9.33303 -36 9.33303 -36 9.33303 -36C9.33303 -36 9.33303 -36 9.33303 -36C9.33303 -36 9.33302 -36 9.33302 -36C9.33302 -36 9.33302 -36 9.33302 -36C9.33302 -36 9.33302 -36 9.33302 -36C9.33302 -36 9.33302 -36 9.33302 -36C9.33302 -36 9.33302 -36 9.33302 -36C9.33301 -36 9.33301 -36 9.33301 -36C9.33301 -36 9.33301 -36 9.33301 -36C9.33301 -36 9.33301 -36 9.33301 -36C9.33301 -36 9.33301 -36 9.33301 -36C9.33301 -36 9.333 -36 9.333 -36C9.333 -36 9.333 -36 9.333 -36C9.333 -36 9.333 -36 9.333 -36C9.333 -36 9.333 -36 9.333 -36C9.333 -36 9.333 -36 9.333 -36C9.33299 -36 9.33299 -36 9.33299 -36C9.33299 -36 9.33299 -36 9.33299 -36C9.33299 -36 9.33299 -36 9.33299 -36C9.33299 -36 9.33299 -36 9.33299 -36C9.33299 -36 9.33298 -36 9.33298 -36C9.33298 -36 9.33298 -36 9.33298 -36C9.33298 -36 9.33298 -36 9.33298 -36C9.33298 -36 9.33298 -36 9.33298 -36C9.33298 -36 9.33298 -36 9.33298 -36C9.33297 -36 9.33297 -36 9.33297 -36C9.33297 -36 9.33297 -36 9.33297 -36C9.33297 -36 9.33297 -36 9.33297 -36C9.33297 -36 9.33297 -36 9.33297 -36C9.33297 -36 9.33296 -36 9.33296 -36C9.33296 -36 9.33296 -36 9.33296 -36C9.33296 -36 9.33296 -36 9.33296 -36C9.33296 -36 9.33296 -36 9.33296 -36C9.33296 -36 9.33296 -36 9.33296 -36C9.33295 -36 9.33295 -36 9.33295 -36C9.33295 -36 9.33295 -36 9.33295 -36C9.33295 -36 9.33295 -36 9.33295 -36C9.33295 -36 9.33295 -36 9.33295 -36C9.33295 -36 9.33294 -36 9.33294 -36C9.33294 -36 9.33294 -36 9.33294 -36C9.33294 -36 9.33294 -36 9.33294 -36C9.33294 -36 9.33294 -36 9.33294 -36C9.33294 -36 9.33294 -36 9.33294 -36C9.33293 -36 9.33293 -36 9.33293 -36C9.33293 -36 9.33293 -36 9.33293 -36C9.33293 -36 9.33293 -36 9.33293 -36C9.33293 -36 9.33293 -36 9.33293 -36C9.33293 -36 9.33292 -36 9.33292 -36C9.33292 -36 9.33292 -36 9.33292 -36C9.33292 -36 9.33292 -36 9.33292 -36C9.33292 -36 9.33292 -36 9.33292 -36C9.33292 -36 9.33292 -36 9.33292 -36C9.33292 -36 9.33291 -36 9.33291 -36C9.33291 -36 9.33291 -36 9.33291 -36C9.33291 -36 9.33291 -36 9.33291 -36C9.33291 -36 9.33291 -36 9.33291 -36C9.33291 -36 9.3329 -36 9.3329 -36C9.3329 -36 9.3329 -36 9.3329 -36C9.3329 -36 9.3329 -36 9.3329 -36C9.3329 -36 9.3329 -36 9.3329 -36C9.3329 -36 9.3329 -36 9.3329 -36C9.3329 -36 9.33289 -36 9.33289 -36C9.33289 -36 9.33289 -36 9.33289 -36C9.33289 -36 9.33289 -36 9.33289 -36C9.33289 -36 9.33289 -36 9.33289 -36C9.33289 -36 9.33289 -36 9.33288 -36C9.33288 -36 9.33288 -36 9.33288 -36C9.33288 -36 9.33288 -36 9.33288 -36C9.33288 -36 9.33288 -36 9.33288 -36C9.33288 -36 9.33288 -36 9.33288 -36C9.33288 -36 9.33287 -36 9.33287 -36C9.33287 -36 9.33287 -36 9.33287 -36C9.33287 -36 9.33287 -36 9.33287 -36C9.33287 -36 9.33287 -36 9.33287 -36C9.33287 -36 9.33287 -36 9.33286 -36C9.33286 -36 9.33286 -36 9.33286 -36C9.33286 -36 9.33286 -36 9.33286 -36C9.33286 -36 9.33286 -36 9.33286 -36C9.33286 -36 9.33286 -36 9.33286 -36C9.33286 -36 9.33285 -36 9.33285 -36C9.33285 -36 9.33285 -36 9.33285 -36C9.33285 -36 9.33285 -36 9.33285 -36C9.33285 -36 9.33285 -36 9.33285 -36C9.33285 -36 9.33285 -36 9.33284 -36C9.33284 -36 9.33284 -36 9.33284 -36C9.33284 -36 9.33284 -36 9.33284 -36C9.33284 -36 9.33284 -36 9.33284 -36C9.33284 -36 9.33284 -36 9.33284 -36C9.33284 -36 9.33283 -36 9.33283 -36C9.33283 -36 9.33283 -36 9.33283 -36C9.33283 -36 9.33283 -36 9.33283 -36C9.33283 -36 9.33283 -36 9.33283 -36C9.33283 -36 9.33283 -36 9.33282 -36C9.33282 -36 9.33282 -36 9.33282 -36C9.33282 -36 9.33282 -36 9.33282 -36C9.33282 -36 9.33282 -36 9.33282 -36C9.33282 -36 9.33282 -36 9.33282 -36C9.33282 -36 9.33281 -36 9.33281 -36C9.33281 -36 9.33281 -36 9.33281 -36C9.33281 -36 9.33281 -36 9.33281 -36C9.33281 -36 9.33281 -36 9.33281 -36C9.33281 -36 9.33281 -36 9.3328 -36C9.3328 -36 9.3328 -36 9.3328 -36C9.3328 -36 9.3328 -36 9.3328 -36C9.3328 -36 9.3328 -36 9.3328 -36C9.3328 -36 9.3328 -36 9.3328 -36C9.3328 -36 9.33279 -36 9.33279 -36C9.33279 -36 9.33279 -36 9.33279 -36C9.33279 -36 9.33279 -36 9.33279 -36C9.33279 -36 9.33279 -36 9.33279 -36C9.33279 -36 9.33279 -36 9.33278 -36C9.33278 -36 9.33278 -36 9.33278 -36C9.33278 -36 9.33278 -36 9.33278 -36C9.33278 -36 9.33278 -36 9.33278 -36C9.33278 -36 9.33278 -36 9.33278 -36C9.33278 -36 9.33277 -36 9.33277 -36C9.33277 -36 9.33277 -36 9.33277 -36C9.33277 -36 9.33277 -36 9.33277 -36C9.33277 -36 9.33277 -36 9.33277 -36C9.33277 -36 9.33277 -36 9.33276 -36C9.33276 -36 9.33276 -36 9.33276 -36C9.33276 -36 9.33276 -36 9.33276 -36C9.33276 -36 9.33276 -36 9.33276 -36C9.33276 -36 9.33276 -36 9.33276 -36C9.33276 -36 9.33275 -36 9.33275 -36C9.33275 -36 9.33275 -36 9.33275 -36C9.33275 -36 9.33275 -36 9.33275 -36C9.33275 -36 9.33275 -36 9.33275 -36C9.33275 -36 9.33275 -36 9.33274 -36C9.33274 -36 9.33274 -36 9.33274 -36C9.33274 -36 9.33274 -36 9.33274 -36C9.33274 -36 9.33274 -36 9.33274 -36C9.33274 -36 9.33274 -36 9.33274 -36C9.33274 -36 9.33273 -36 9.33273 -36C9.33273 -36 9.33273 -36 9.33273 -36C9.33273 -36 9.33273 -36 9.33273 -36C9.33273 -36 9.33273 -36 9.33273 -36C9.33273 -36 9.33273 -36 9.33272 -36C9.33272 -36 9.33272 -36 9.33272 -36C9.33272 -36 9.33272 -36 9.33272 -36C9.33272 -36 9.33272 -36 9.33272 -36C9.33272 -36 9.33272 -36 9.33272 -36C9.33272 -36 9.33271 -36 9.33271 -36C9.33271 -36 9.33271 -36 9.33271 -36C9.33271 -36 9.33271 -36 9.33271 -36C9.33271 -36 9.33271 -36 9.33271 -36C9.33271 -36 9.33271 -36 9.3327 -36C9.3327 -36 9.3327 -36 9.3327 -36C9.3327 -36 9.3327 -36 9.3327 -36C9.3327 -36 9.3327 -36 9.3327 -36C9.3327 -36 9.3327 -36 9.3327 -36C9.3327 -36 9.33269 -36 9.33269 -36C9.33269 -36 9.33269 -36 9.33269 -36C9.33269 -36 9.33269 -36 9.33269 -36C9.33269 -36 9.33269 -36 9.33269 -36C9.33269 -36 9.33269 -36 9.33268 -36C9.33268 -36 9.33268 -36 9.33268 -36C9.33268 -36 9.33268 -36 9.33268 -36C9.33268 -36 9.33268 -36 9.33268 -36C9.33268 -36 9.33268 -36 9.33268 -36C9.33267 -36 9.33267 -36 9.33267 -36C9.33267 -36 9.33267 -36 9.33267 -36C9.33267 -36 9.33267 -36 9.33267 -36C9.33267 -36 9.33267 -36 9.33267 -36C9.33267 -36 9.33267 -36 9.33266 -36C9.33266 -36 9.33266 -36 9.33266 -36C9.33266 -36 9.33266 -36 9.33266 -36C9.33266 -36 9.33266 -36 9.33266 -36C9.33266 -36 9.33266 -36 9.33266 -36C9.33265 -36 9.33265 -36 9.33265 -36C9.33265 -36 9.33265 -36 9.33265 -36C9.33265 -36 9.33265 -36 9.33265 -36C9.33265 -36 9.33265 -36 9.33265 -36C9.33265 -36 9.33265 -36 9.33264 -36C9.33264 -36 9.33264 -36 9.33264 -36C9.33264 -36 9.33264 -36 9.33264 -36C9.33264 -36 9.33264 -36 9.33264 -36C9.33264 -36 9.33264 -36 9.33264 -36C9.33263 -36 9.33263 -36 9.33263 -36C9.33263 -36 9.33263 -36 9.33263 -36C9.33263 -36 9.33263 -36 9.33263 -36C9.33263 -36 9.33263 -36 9.33263 -36C9.33263 -36 9.33263 -36 9.33262 -36C9.33262 -36 9.33262 -36 9.33262 -36C9.33262 -36 9.33262 -36 9.33262 -36C9.33262 -36 9.33262 -36 9.33262 -36C9.33262 -36 9.33262 -36 9.33262 -36C9.33261 -36 9.33261 -36 9.33261 -36C9.33261 -36 9.33261 -36 9.33261 -36C9.33261 -36 9.33261 -36 9.33261 -36C9.33261 -36 9.33261 -36 9.33261 -36C9.33261 -36 9.33261 -36 9.3326 -36C9.3326 -36 9.3326 -36 9.3326 -36C9.3326 -36 9.3326 -36 9.3326 -36C9.3326 -36 9.3326 -36 9.3326 -36C9.3326 -36 9.3326 -36 9.3326 -36C9.33259 -36 9.33259 -36 9.33259 -36C9.33259 -36 9.33259 -36 9.33259 -36C9.33259 -36 9.33259 -36 9.33259 -36C9.33259 -36 9.33259 -36 9.33259 -36C9.33259 -36 9.33259 -36 9.33258 -36C9.33258 -36 9.33258 -36 9.33258 -36C9.33258 -36 9.33258 -36 9.33258 -36C9.33258 -36 9.33258 -36 9.33258 -36C9.33258 -36 9.33258 -36 9.33258 -36C9.33257 -36 9.33257 -36 9.33257 -36C9.33257 -36 9.33257 -36 9.33257 -36C9.33257 -36 9.33257 -36 9.33257 -36C9.33257 -36 9.33257 -36 9.33257 -36C9.33257 -36 9.33257 -36 9.33256 -36C9.33256 -36 9.33256 -36 9.33256 -36C9.33256 -36 9.33256 -36 9.33256 -36C9.33256 -36 9.33256 -36 9.33256 -36C9.33256 -36 9.33256 -36 9.33256 -36C9.33255 -36 9.33255 -36 9.33255 -36C9.33255 -36 9.33255 -36 9.33255 -36C9.33255 -36 9.33255 -36 9.33255 -36C9.33255 -36 9.33255 -36 9.33255 -36C9.33255 -36 9.33255 -36 9.33255 -36C9.33254 -36 9.33254 -36 9.33254 -36C9.33254 -36 9.33254 -36 9.33254 -36C9.33254 -36 9.33254 -36 9.33254 -36C9.33254 -36 9.33254 -36 9.33254 -36C9.33253 -36 9.33253 -36 9.33253 -36C9.33253 -36 9.33253 -36 9.33253 -36C9.33253 -36 9.33253 -36 9.33253 -36C9.33253 -36 9.33253 -36 9.33253 -36C9.33253 -36 9.33253 -36 9.33253 -36C9.33252 -36 9.33252 -36 9.33252 -36C9.33252 -36 9.33252 -36 9.33252 -36C9.33252 -36 9.33252 -36 9.33252 -36C9.33252 -36 9.33252 -36 9.33252 -36C9.33252 -36 9.33251 -36 9.33251 -36C9.33251 -36 9.33251 -36 9.33251 -36C9.33251 -36 9.33251 -36 9.33251 -36C9.33251 -36 9.33251 -36 9.33251 -36C9.33251 -36 9.33251 -36 9.33251 -36C9.3325 -36 9.3325 -36 9.3325 -36C9.3325 -36 9.3325 -36 9.3325 -36C9.3325 -36 9.3325 -36 9.3325 -36C9.3325 -36 9.3325 -36 9.3325 -36C9.3325 -36 9.33249 -36 9.33249 -36C9.33249 -36 9.33249 -36 9.33249 -36C9.33249 -36 9.33249 -36 9.33249 -36C9.33249 -36 9.33249 -36 9.33249 -36C9.33249 -36 9.33249 -36 9.33249 -36C9.33248 -36 9.33248 -36 9.33248 -36C9.33248 -36 9.33248 -36 9.33248 -36C9.33248 -36 9.33248 -36 9.33248 -36C9.33248 -36 9.33248 -36 9.33248 -36C9.33248 -36 9.33247 -36 9.33247 -36C9.33247 -36 9.33247 -36 9.33247 -36C9.33247 -36 9.33247 -36 9.33247 -36C9.33247 -36 9.33247 -36 9.33247 -36C9.33247 -36 9.33247 -36 9.33247 -36C9.33246 -36 9.33246 -36 9.33246 -36C9.33246 -36 9.33246 -36 9.33246 -36C9.33246 -36 9.33246 -36 9.33246 -36C9.33246 -36 9.33246 -36 9.33246 -36C9.33246 -36 9.33245 -36 9.33245 -36C9.33245 -36 9.33245 -36 9.33245 -36C9.33245 -36 9.33245 -36 9.33245 -36C9.33245 -36 9.33245 -36 9.33245 -36C9.33245 -36 9.33245 -36 9.33245 -36C9.33244 -36 9.33244 -36 9.33244 -36C9.33244 -36 9.33244 -36 9.33244 -36C9.33244 -36 9.33244 -36 9.33244 -36C9.33244 -36 9.33244 -36 9.33244 -36C9.33244 -36 9.33243 -36 9.33243 -36C9.33243 -36 9.33243 -36 9.33243 -36C9.33243 -36 9.33243 -36 9.33243 -36C9.33243 -36 9.33243 -36 9.33243 -36C9.33243 -36 9.33243 -36 9.33243 -36C9.33242 -36 9.33242 -36 9.33242 -36C9.33242 -36 9.33242 -36 9.33242 -36C9.33242 -36 9.33242 -36 9.33242 -36C9.33242 -36 9.33242 -36 9.33242 -36C9.33242 -36 9.33241 -36 9.33241 -36C9.33241 -36 9.33241 -36 9.33241 -36C9.33241 -36 9.33241 -36 9.33241 -36C9.33241 -36 9.33241 -36 9.33241 -36C9.33241 -36 9.33241 -36 9.33241 -36C9.3324 -36 9.3324 -36 9.3324 -36C9.3324 -36 9.3324 -36 9.3324 -36C9.3324 -36 9.3324 -36 9.3324 -36C9.3324 -36 9.3324 -36 9.3324 -36C9.3324 -36 9.33239 -36 9.33239 -36C9.33239 -36 9.33239 -36 9.33239 -36C9.33239 -36 9.33239 -36 9.33239 -36C9.33239 -36 9.33239 -36 9.33239 -36C9.33239 -36 9.33239 -36 9.33239 -36C9.33238 -36 9.33238 -36 9.33238 -36C9.33238 -36 9.33238 -36 9.33238 -36C9.33238 -36 9.33238 -36 9.33238 -36C9.33238 -36 9.33238 -36 9.33238 -36C9.33238 -36 9.33237 -36 9.33237 -36C9.33237 -36 9.33237 -36 9.33237 -36C9.33237 -36 9.33237 -36 9.33237 -36C9.33237 -36 9.33237 -36 9.33237 -36C9.33237 -36 9.33237 -36 9.33237 -36C9.33236 -36 9.33236 -36 9.33236 -36C9.33236 -36 9.33236 -36 9.33236 -36C9.33236 -36 9.33236 -36 9.33236 -36C9.33236 -36 9.33236 -36 9.33236 -36C9.33236 -36 9.33235 -36 9.33235 -36C9.33235 -36 9.33235 -36 9.33235 -36C9.33235 -36 9.33235 -36 9.33235 -36C9.33235 -36 9.33235 -36 9.33235 -36C9.33235 -36 9.33235 -36 9.33235 -36C9.33234 -36 9.33234 -36 9.33234 -36C9.33234 -36 9.33234 -36 9.33234 -36C9.33234 -36 9.33234 -36 9.33234 -36C9.33234 -36 9.33234 -36 9.33234 -36C9.33234 -36 9.33233 -36 9.33233 -36C9.33233 -36 9.33233 -36 9.33233 -36C9.33233 -36 9.33233 -36 9.33233 -36C9.33233 -36 9.33233 -36 9.33233 -36C9.33233 -36 9.33233 -36 9.33232 -36C9.33232 -36 9.33232 -36 9.33232 -36C9.33232 -36 9.33232 -36 9.33232 -36C9.33232 -36 9.33232 -36 9.33232 -36C9.33232 -36 9.33232 -36 9.33232 -36C9.33232 -36 9.33231 -36 9.33231 -36C9.33231 -36 9.33231 -36 9.33231 -36C9.33231 -36 9.33231 -36 9.33231 -36C9.33231 -36 9.33231 -36 9.33231 -36C9.33231 -36 9.33231 -36 9.3323 -36C9.3323 -36 9.3323 -36 9.3323 -36C9.3323 -36 9.3323 -36 9.3323 -36C9.3323 -36 9.3323 -36 9.3323 -36C9.3323 -36 9.3323 -36 9.3323 -36C9.3323 -36 9.33229 -36 9.33229 -36C9.33229 -36 9.33229 -36 9.33229 -36C9.33229 -36 9.33229 -36 9.33229 -36C9.33229 -36 9.33229 -36 9.33229 -36C9.33229 -36 9.33229 -36 9.33228 -36C9.33228 -36 9.33228 -36 9.33228 -36C9.33228 -36 9.33228 -36 9.33228 -36C9.33228 -36 9.33228 -36 9.33228 -36C9.33228 -36 9.33228 -36 9.33228 -36C9.33228 -36 9.33227 -36 9.33227 -36C9.33227 -36 9.33227 -36 9.33227 -36C9.33227 -36 9.33227 -36 9.33227 -36C9.33227 -36 9.33227 -36 9.33227 -36C9.33227 -36 9.33227 -36 9.33226 -36C9.33226 -36 9.33226 -36 9.33226 -36C9.33226 -36 9.33226 -36 9.33226 -36C9.33226 -36 9.33226 -36 9.33226 -36C9.33226 -36 9.33226 -36 9.33226 -36C9.33226 -36 9.33226 -36 9.33225 -36C9.33225 -36 9.33225 -36 9.33225 -36C9.33225 -36 9.33225 -36 9.33225 -36C9.33225 -36 9.33225 -36 9.33225 -36C9.33225 -36 9.33225 -36 9.33224 -36C9.33224 -36 9.33224 -36 9.33224 -36C9.33224 -36 9.33224 -36 9.33224 -36C9.33224 -36 9.33224 -36 9.33224 -36C9.33224 -36 9.33224 -36 9.33224 -36C9.33224 -36 9.33224 -36 9.33223 -36C9.33223 -36 9.33223 -36 9.33223 -36C9.33223 -36 9.33223 -36 9.33223 -36C9.33223 -36 9.33223 -36 9.33223 -36C9.33223 -36 9.33223 -36 9.33223 -36C9.33222 -36 9.33222 -36 9.33222 -36C9.33222 -36 9.33222 -36 9.33222 -36C9.33222 -36 9.33222 -36 9.33222 -36C9.33222 -36 9.33222 -36 9.33222 -36C9.33222 -36 9.33222 -36 9.33221 -36C9.33221 -36 9.33221 -36 9.33221 -36C9.33221 -36 9.33221 -36 9.33221 -36C9.33221 -36 9.33221 -36 9.33221 -36C9.33221 -36 9.33221 -36 9.33221 -36C9.3322 -36 9.3322 -36 9.3322 -36C9.3322 -36 9.3322 -36 9.3322 -36C9.3322 -36 9.3322 -36 9.3322 -36C9.3322 -36 9.3322 -36 9.3322 -36V44C9.3322 44 9.3322 44 9.3322 44C9.3322 44 9.3322 44 9.3322 44C9.3322 44 9.3322 44 9.3322 44C9.3322 44 9.3322 44 9.33221 44C9.33221 44 9.33221 44 9.33221 44C9.33221 44 9.33221 44 9.33221 44C9.33221 44 9.33221 44 9.33221 44C9.33221 44 9.33221 44 9.33221 44C9.33222 44 9.33222 44 9.33222 44C9.33222 44 9.33222 44 9.33222 44C9.33222 44 9.33222 44 9.33222 44C9.33222 44 9.33222 44 9.33222 44C9.33222 44 9.33222 44 9.33223 44C9.33223 44 9.33223 44 9.33223 44C9.33223 44 9.33223 44 9.33223 44C9.33223 44 9.33223 44 9.33223 44C9.33223 44 9.33223 44 9.33223 44C9.33224 44 9.33224 44 9.33224 44C9.33224 44 9.33224 44 9.33224 44C9.33224 44 9.33224 44 9.33224 44C9.33224 44 9.33224 44 9.33224 44C9.33224 44 9.33224 44 9.33224 44C9.33225 44 9.33225 44 9.33225 44C9.33225 44 9.33225 44 9.33225 44C9.33225 44 9.33225 44 9.33225 44C9.33225 44 9.33225 44 9.33225 44C9.33226 44 9.33226 44 9.33226 44C9.33226 44 9.33226 44 9.33226 44C9.33226 44 9.33226 44 9.33226 44C9.33226 44 9.33226 44 9.33226 44C9.33226 44 9.33226 44 9.33226 44C9.33227 44 9.33227 44 9.33227 44C9.33227 44 9.33227 44 9.33227 44C9.33227 44 9.33227 44 9.33227 44C9.33227 44 9.33227 44 9.33227 44C9.33227 44 9.33228 44 9.33228 44C9.33228 44 9.33228 44 9.33228 44C9.33228 44 9.33228 44 9.33228 44C9.33228 44 9.33228 44 9.33228 44C9.33228 44 9.33228 44 9.33228 44C9.33229 44 9.33229 44 9.33229 44C9.33229 44 9.33229 44 9.33229 44C9.33229 44 9.33229 44 9.33229 44C9.33229 44 9.33229 44 9.33229 44C9.33229 44 9.3323 44 9.3323 44C9.3323 44 9.3323 44 9.3323 44C9.3323 44 9.3323 44 9.3323 44C9.3323 44 9.3323 44 9.3323 44C9.3323 44 9.3323 44 9.3323 44C9.33231 44 9.33231 44 9.33231 44C9.33231 44 9.33231 44 9.33231 44C9.33231 44 9.33231 44 9.33231 44C9.33231 44 9.33231 44 9.33231 44C9.33231 44 9.33232 44 9.33232 44C9.33232 44 9.33232 44 9.33232 44C9.33232 44 9.33232 44 9.33232 44C9.33232 44 9.33232 44 9.33232 44C9.33232 44 9.33232 44 9.33232 44C9.33233 44 9.33233 44 9.33233 44C9.33233 44 9.33233 44 9.33233 44C9.33233 44 9.33233 44 9.33233 44C9.33233 44 9.33233 44 9.33233 44C9.33233 44 9.33234 44 9.33234 44C9.33234 44 9.33234 44 9.33234 44C9.33234 44 9.33234 44 9.33234 44C9.33234 44 9.33234 44 9.33234 44C9.33234 44 9.33234 44 9.33235 44C9.33235 44 9.33235 44 9.33235 44C9.33235 44 9.33235 44 9.33235 44C9.33235 44 9.33235 44 9.33235 44C9.33235 44 9.33235 44 9.33235 44C9.33235 44 9.33236 44 9.33236 44C9.33236 44 9.33236 44 9.33236 44C9.33236 44 9.33236 44 9.33236 44C9.33236 44 9.33236 44 9.33236 44C9.33236 44 9.33236 44 9.33237 44C9.33237 44 9.33237 44 9.33237 44C9.33237 44 9.33237 44 9.33237 44C9.33237 44 9.33237 44 9.33237 44C9.33237 44 9.33237 44 9.33237 44C9.33237 44 9.33238 44 9.33238 44C9.33238 44 9.33238 44 9.33238 44C9.33238 44 9.33238 44 9.33238 44C9.33238 44 9.33238 44 9.33238 44C9.33238 44 9.33238 44 9.33239 44C9.33239 44 9.33239 44 9.33239 44C9.33239 44 9.33239 44 9.33239 44C9.33239 44 9.33239 44 9.33239 44C9.33239 44 9.33239 44 9.33239 44C9.33239 44 9.3324 44 9.3324 44C9.3324 44 9.3324 44 9.3324 44C9.3324 44 9.3324 44 9.3324 44C9.3324 44 9.3324 44 9.3324 44C9.3324 44 9.3324 44 9.33241 44C9.33241 44 9.33241 44 9.33241 44C9.33241 44 9.33241 44 9.33241 44C9.33241 44 9.33241 44 9.33241 44C9.33241 44 9.33241 44 9.33241 44C9.33241 44 9.33242 44 9.33242 44C9.33242 44 9.33242 44 9.33242 44C9.33242 44 9.33242 44 9.33242 44C9.33242 44 9.33242 44 9.33242 44C9.33242 44 9.33242 44 9.33243 44C9.33243 44 9.33243 44 9.33243 44C9.33243 44 9.33243 44 9.33243 44C9.33243 44 9.33243 44 9.33243 44C9.33243 44 9.33243 44 9.33243 44C9.33243 44 9.33244 44 9.33244 44C9.33244 44 9.33244 44 9.33244 44C9.33244 44 9.33244 44 9.33244 44C9.33244 44 9.33244 44 9.33244 44C9.33244 44 9.33244 44 9.33245 44C9.33245 44 9.33245 44 9.33245 44C9.33245 44 9.33245 44 9.33245 44C9.33245 44 9.33245 44 9.33245 44C9.33245 44 9.33245 44 9.33245 44C9.33245 44 9.33246 44 9.33246 44C9.33246 44 9.33246 44 9.33246 44C9.33246 44 9.33246 44 9.33246 44C9.33246 44 9.33246 44 9.33246 44C9.33246 44 9.33246 44 9.33247 44C9.33247 44 9.33247 44 9.33247 44C9.33247 44 9.33247 44 9.33247 44C9.33247 44 9.33247 44 9.33247 44C9.33247 44 9.33247 44 9.33247 44C9.33247 44 9.33248 44 9.33248 44C9.33248 44 9.33248 44 9.33248 44C9.33248 44 9.33248 44 9.33248 44C9.33248 44 9.33248 44 9.33248 44C9.33248 44 9.33248 44 9.33249 44C9.33249 44 9.33249 44 9.33249 44C9.33249 44 9.33249 44 9.33249 44C9.33249 44 9.33249 44 9.33249 44C9.33249 44 9.33249 44 9.33249 44C9.33249 44 9.3325 44 9.3325 44C9.3325 44 9.3325 44 9.3325 44C9.3325 44 9.3325 44 9.3325 44C9.3325 44 9.3325 44 9.3325 44C9.3325 44 9.3325 44 9.33251 44C9.33251 44 9.33251 44 9.33251 44C9.33251 44 9.33251 44 9.33251 44C9.33251 44 9.33251 44 9.33251 44C9.33251 44 9.33251 44 9.33251 44C9.33251 44 9.33252 44 9.33252 44C9.33252 44 9.33252 44 9.33252 44C9.33252 44 9.33252 44 9.33252 44C9.33252 44 9.33252 44 9.33252 44C9.33252 44 9.33252 44 9.33253 44C9.33253 44 9.33253 44 9.33253 44C9.33253 44 9.33253 44 9.33253 44C9.33253 44 9.33253 44 9.33253 44C9.33253 44 9.33253 44 9.33253 44C9.33253 44 9.33253 44 9.33254 44C9.33254 44 9.33254 44 9.33254 44C9.33254 44 9.33254 44 9.33254 44C9.33254 44 9.33254 44 9.33254 44C9.33254 44 9.33254 44 9.33255 44C9.33255 44 9.33255 44 9.33255 44C9.33255 44 9.33255 44 9.33255 44C9.33255 44 9.33255 44 9.33255 44C9.33255 44 9.33255 44 9.33255 44C9.33255 44 9.33255 44 9.33256 44C9.33256 44 9.33256 44 9.33256 44C9.33256 44 9.33256 44 9.33256 44C9.33256 44 9.33256 44 9.33256 44C9.33256 44 9.33256 44 9.33256 44C9.33257 44 9.33257 44 9.33257 44C9.33257 44 9.33257 44 9.33257 44C9.33257 44 9.33257 44 9.33257 44C9.33257 44 9.33257 44 9.33257 44C9.33257 44 9.33257 44 9.33258 44C9.33258 44 9.33258 44 9.33258 44C9.33258 44 9.33258 44 9.33258 44C9.33258 44 9.33258 44 9.33258 44C9.33258 44 9.33258 44 9.33258 44C9.33259 44 9.33259 44 9.33259 44C9.33259 44 9.33259 44 9.33259 44C9.33259 44 9.33259 44 9.33259 44C9.33259 44 9.33259 44 9.33259 44C9.33259 44 9.33259 44 9.3326 44C9.3326 44 9.3326 44 9.3326 44C9.3326 44 9.3326 44 9.3326 44C9.3326 44 9.3326 44 9.3326 44C9.3326 44 9.3326 44 9.3326 44C9.33261 44 9.33261 44 9.33261 44C9.33261 44 9.33261 44 9.33261 44C9.33261 44 9.33261 44 9.33261 44C9.33261 44 9.33261 44 9.33261 44C9.33261 44 9.33261 44 9.33262 44C9.33262 44 9.33262 44 9.33262 44C9.33262 44 9.33262 44 9.33262 44C9.33262 44 9.33262 44 9.33262 44C9.33262 44 9.33262 44 9.33262 44C9.33263 44 9.33263 44 9.33263 44C9.33263 44 9.33263 44 9.33263 44C9.33263 44 9.33263 44 9.33263 44C9.33263 44 9.33263 44 9.33263 44C9.33263 44 9.33263 44 9.33264 44C9.33264 44 9.33264 44 9.33264 44C9.33264 44 9.33264 44 9.33264 44C9.33264 44 9.33264 44 9.33264 44C9.33264 44 9.33264 44 9.33264 44C9.33265 44 9.33265 44 9.33265 44C9.33265 44 9.33265 44 9.33265 44C9.33265 44 9.33265 44 9.33265 44C9.33265 44 9.33265 44 9.33265 44C9.33265 44 9.33265 44 9.33266 44C9.33266 44 9.33266 44 9.33266 44C9.33266 44 9.33266 44 9.33266 44C9.33266 44 9.33266 44 9.33266 44C9.33266 44 9.33266 44 9.33266 44C9.33267 44 9.33267 44 9.33267 44C9.33267 44 9.33267 44 9.33267 44C9.33267 44 9.33267 44 9.33267 44C9.33267 44 9.33267 44 9.33267 44C9.33267 44 9.33267 44 9.33268 44C9.33268 44 9.33268 44 9.33268 44C9.33268 44 9.33268 44 9.33268 44C9.33268 44 9.33268 44 9.33268 44C9.33268 44 9.33268 44 9.33268 44C9.33269 44 9.33269 44 9.33269 44C9.33269 44 9.33269 44 9.33269 44C9.33269 44 9.33269 44 9.33269 44C9.33269 44 9.33269 44 9.33269 44C9.33269 44 9.3327 44 9.3327 44C9.3327 44 9.3327 44 9.3327 44C9.3327 44 9.3327 44 9.3327 44C9.3327 44 9.3327 44 9.3327 44C9.3327 44 9.3327 44 9.3327 44C9.33271 44 9.33271 44 9.33271 44C9.33271 44 9.33271 44 9.33271 44C9.33271 44 9.33271 44 9.33271 44C9.33271 44 9.33271 44 9.33271 44C9.33271 44 9.33272 44 9.33272 44C9.33272 44 9.33272 44 9.33272 44C9.33272 44 9.33272 44 9.33272 44C9.33272 44 9.33272 44 9.33272 44C9.33272 44 9.33272 44 9.33272 44C9.33273 44 9.33273 44 9.33273 44C9.33273 44 9.33273 44 9.33273 44C9.33273 44 9.33273 44 9.33273 44C9.33273 44 9.33273 44 9.33273 44C9.33273 44 9.33274 44 9.33274 44C9.33274 44 9.33274 44 9.33274 44C9.33274 44 9.33274 44 9.33274 44C9.33274 44 9.33274 44 9.33274 44C9.33274 44 9.33274 44 9.33274 44C9.33275 44 9.33275 44 9.33275 44C9.33275 44 9.33275 44 9.33275 44C9.33275 44 9.33275 44 9.33275 44C9.33275 44 9.33275 44 9.33275 44C9.33275 44 9.33276 44 9.33276 44C9.33276 44 9.33276 44 9.33276 44C9.33276 44 9.33276 44 9.33276 44C9.33276 44 9.33276 44 9.33276 44C9.33276 44 9.33276 44 9.33276 44C9.33277 44 9.33277 44 9.33277 44C9.33277 44 9.33277 44 9.33277 44C9.33277 44 9.33277 44 9.33277 44C9.33277 44 9.33277 44 9.33277 44C9.33277 44 9.33278 44 9.33278 44C9.33278 44 9.33278 44 9.33278 44C9.33278 44 9.33278 44 9.33278 44C9.33278 44 9.33278 44 9.33278 44C9.33278 44 9.33278 44 9.33278 44C9.33279 44 9.33279 44 9.33279 44C9.33279 44 9.33279 44 9.33279 44C9.33279 44 9.33279 44 9.33279 44C9.33279 44 9.33279 44 9.33279 44C9.33279 44 9.3328 44 9.3328 44C9.3328 44 9.3328 44 9.3328 44C9.3328 44 9.3328 44 9.3328 44C9.3328 44 9.3328 44 9.3328 44C9.3328 44 9.3328 44 9.3328 44C9.33281 44 9.33281 44 9.33281 44C9.33281 44 9.33281 44 9.33281 44C9.33281 44 9.33281 44 9.33281 44C9.33281 44 9.33281 44 9.33281 44C9.33281 44 9.33282 44 9.33282 44C9.33282 44 9.33282 44 9.33282 44C9.33282 44 9.33282 44 9.33282 44C9.33282 44 9.33282 44 9.33282 44C9.33282 44 9.33282 44 9.33282 44C9.33283 44 9.33283 44 9.33283 44C9.33283 44 9.33283 44 9.33283 44C9.33283 44 9.33283 44 9.33283 44C9.33283 44 9.33283 44 9.33283 44C9.33283 44 9.33284 44 9.33284 44C9.33284 44 9.33284 44 9.33284 44C9.33284 44 9.33284 44 9.33284 44C9.33284 44 9.33284 44 9.33284 44C9.33284 44 9.33284 44 9.33284 44C9.33285 44 9.33285 44 9.33285 44C9.33285 44 9.33285 44 9.33285 44C9.33285 44 9.33285 44 9.33285 44C9.33285 44 9.33285 44 9.33285 44C9.33285 44 9.33286 44 9.33286 44C9.33286 44 9.33286 44 9.33286 44C9.33286 44 9.33286 44 9.33286 44C9.33286 44 9.33286 44 9.33286 44C9.33286 44 9.33286 44 9.33286 44C9.33287 44 9.33287 44 9.33287 44C9.33287 44 9.33287 44 9.33287 44C9.33287 44 9.33287 44 9.33287 44C9.33287 44 9.33287 44 9.33287 44C9.33287 44 9.33288 44 9.33288 44C9.33288 44 9.33288 44 9.33288 44C9.33288 44 9.33288 44 9.33288 44C9.33288 44 9.33288 44 9.33288 44C9.33288 44 9.33288 44 9.33288 44C9.33289 44 9.33289 44 9.33289 44C9.33289 44 9.33289 44 9.33289 44C9.33289 44 9.33289 44 9.33289 44C9.33289 44 9.33289 44 9.33289 44C9.33289 44 9.3329 44 9.3329 44C9.3329 44 9.3329 44 9.3329 44C9.3329 44 9.3329 44 9.3329 44C9.3329 44 9.3329 44 9.3329 44C9.3329 44 9.3329 44 9.3329 44C9.3329 44 9.33291 44 9.33291 44C9.33291 44 9.33291 44 9.33291 44C9.33291 44 9.33291 44 9.33291 44C9.33291 44 9.33291 44 9.33291 44C9.33291 44 9.33292 44 9.33292 44C9.33292 44 9.33292 44 9.33292 44C9.33292 44 9.33292 44 9.33292 44C9.33292 44 9.33292 44 9.33292 44C9.33292 44 9.33292 44 9.33292 44C9.33292 44 9.33293 44 9.33293 44C9.33293 44 9.33293 44 9.33293 44C9.33293 44 9.33293 44 9.33293 44C9.33293 44 9.33293 44 9.33293 44C9.33293 44 9.33293 44 9.33294 44C9.33294 44 9.33294 44 9.33294 44C9.33294 44 9.33294 44 9.33294 44C9.33294 44 9.33294 44 9.33294 44C9.33294 44 9.33294 44 9.33294 44C9.33294 44 9.33295 44 9.33295 44C9.33295 44 9.33295 44 9.33295 44C9.33295 44 9.33295 44 9.33295 44C9.33295 44 9.33295 44 9.33295 44C9.33295 44 9.33295 44 9.33296 44C9.33296 44 9.33296 44 9.33296 44C9.33296 44 9.33296 44 9.33296 44C9.33296 44 9.33296 44 9.33296 44C9.33296 44 9.33296 44 9.33296 44C9.33296 44 9.33297 44 9.33297 44C9.33297 44 9.33297 44 9.33297 44C9.33297 44 9.33297 44 9.33297 44C9.33297 44 9.33297 44 9.33297 44C9.33297 44 9.33297 44 9.33298 44C9.33298 44 9.33298 44 9.33298 44C9.33298 44 9.33298 44 9.33298 44C9.33298 44 9.33298 44 9.33298 44C9.33298 44 9.33298 44 9.33298 44C9.33298 44 9.33299 44 9.33299 44C9.33299 44 9.33299 44 9.33299 44C9.33299 44 9.33299 44 9.33299 44C9.33299 44 9.33299 44 9.33299 44C9.33299 44 9.33299 44 9.333 44C9.333 44 9.333 44 9.333 44C9.333 44 9.333 44 9.333 44C9.333 44 9.333 44 9.333 44C9.333 44 9.333 44 9.333 44C9.333 44 9.33301 44 9.33301 44C9.33301 44 9.33301 44 9.33301 44C9.33301 44 9.33301 44 9.33301 44C9.33301 44 9.33301 44 9.33301 44C9.33301 44 9.33301 44 9.33302 44C9.33302 44 9.33302 44 9.33302 44C9.33302 44 9.33302 44 9.33302 44C9.33302 44 9.33302 44 9.33302 44C9.33302 44 9.33302 44 9.33302 44C9.33302 44 9.33303 44 9.33303 44C9.33303 44 9.33303 44 9.33303 44C9.33303 44 9.33303 44 9.33303 44C9.33303 44 9.33303 44 9.33303 44C9.33303 44 9.33303 44 9.33304 44C9.33304 44 9.33304 44 9.33304 44C9.33304 44 9.33304 44 9.33304 44C9.33304 44 9.33304 44 9.33304 44C9.33304 44 9.33304 44 9.33304 44C9.33305 44 9.33305 44 9.33305 44C9.33305 44 9.33305 44 9.33305 44C9.33305 44 9.33305 44 9.33305 44C9.33305 44 9.33305 44 9.33305 44C9.33305 44 9.33305 44 9.33306 44C9.33306 44 9.33306 44 9.33306 44C9.33306 44 9.33306 44 9.33306 44C9.33306 44 9.33306 44 9.33306 44C9.33306 44 9.33306 44 9.33306 44C9.33307 44 9.33307 44 9.33307 44C9.33307 44 9.33307 44 9.33307 44C9.33307 44 9.33307 44 9.33307 44C9.33307 44 9.33307 44 9.33307 44C9.33307 44 9.33307 44 9.33308 44C9.33308 44 9.33308 44 9.33308 44C9.33308 44 9.33308 44 9.33308 44C9.33308 44 9.33308 44 9.33308 44C9.33308 44 9.33308 44 9.33308 44C9.33309 44 9.33309 44 9.33309 44C9.33309 44 9.33309 44 9.33309 44C9.33309 44 9.33309 44 9.33309 44C9.33309 44 9.33309 44 9.33309 44C9.33309 44 9.33309 44 9.3331 44C9.3331 44 9.3331 44 9.3331 44C9.3331 44 9.3331 44 9.3331 44C9.3331 44 9.3331 44 9.3331 44C9.3331 44 9.3331 44 9.3331 44C9.33311 44 9.33311 44 9.33311 44C9.33311 44 9.33311 44 9.33311 44C9.33311 44 9.33311 44 9.33311 44C9.33311 44 9.33311 44 9.33311 44C9.33311 44 9.33311 44 9.33312 44C9.33312 44 9.33312 44 9.33312 44C9.33312 44 9.33312 44 9.33312 44C9.33312 44 9.33312 44 9.33312 44C9.33312 44 9.33312 44 9.33312 44C9.33313 44 9.33313 44 9.33313 44C9.33313 44 9.33313 44 9.33313 44C9.33313 44 9.33313 44 9.33313 44C9.33313 44 9.33313 44 9.33313 44C9.33313 44 9.33313 44 9.33314 44C9.33314 44 9.33314 44 9.33314 44C9.33314 44 9.33314 44 9.33314 44C9.33314 44 9.33314 44 9.33314 44C9.33314 44 9.33314 44 9.33314 44C9.33315 44 9.33315 44 9.33315 44C9.33315 44 9.33315 44 9.33315 44C9.33315 44 9.33315 44 9.33315 44C9.33315 44 9.33315 44 9.33315 44C9.33315 44 9.33315 44 9.33316 44C9.33316 44 9.33316 44 9.33316 44C9.33316 44 9.33316 44 9.33316 44C9.33316 44 9.33316 44 9.33316 44C9.33316 44 9.33316 44 9.33316 44C9.33317 44 9.33317 44 9.33317 44C9.33317 44 9.33317 44 9.33317 44C9.33317 44 9.33317 44 9.33317 44C9.33317 44 9.33317 44 9.33317 44C9.33317 44 9.33317 44 9.33318 44C9.33318 44 9.33318 44 9.33318 44C9.33318 44 9.33318 44 9.33318 44C9.33318 44 9.33318 44 9.33318 44C9.33318 44 9.33318 44 9.33318 44C9.33319 44 9.33319 44 9.33319 44C9.33319 44 9.33319 44 9.33319 44C9.33319 44 9.33319 44 9.33319 44C9.33319 44 9.33319 44 9.33319 44C9.33319 44 9.33319 44 9.3332 44C9.3332 44 9.3332 44 9.3332 44C9.3332 44 9.3332 44 9.3332 44C9.3332 44 9.3332 44 9.3332 44C9.3332 44 9.3332 44 9.3332 44C9.33321 44 9.33321 44 9.33321 44C9.33321 44 9.33321 44 9.33321 44C9.33321 44 9.33321 44 9.33321 44C9.33321 44 9.33321 44 9.33321 44C9.33321 44 9.33321 44 9.33321 44C9.33322 44 9.33322 44 9.33322 44C9.33322 44 9.33322 44 9.33322 44C9.33322 44 9.33322 44 9.33322 44C9.33322 44 9.33322 44 9.33322 44C9.33323 44 9.33323 44 9.33323 44C9.33323 44 9.33323 44 9.33323 44C9.33323 44 9.33323 44 9.33323 44C9.33323 44 9.33323 44 9.33323 44C9.33323 44 9.33323 44 9.33323 44C9.33324 44 9.33324 44 9.33324 44C9.33324 44 9.33324 44 9.33324 44C9.33324 44 9.33324 44 9.33324 44C9.33324 44 9.33324 44 9.33324 44C9.33325 44 9.33325 44 9.33325 44C9.33325 44 9.33325 44 9.33325 44C9.33325 44 9.33325 44 9.33325 44C9.33325 44 9.33325 44 9.33325 44C9.33325 44 9.33325 44 9.33325 44C9.33326 44 9.33326 44 9.33326 44C9.33326 44 9.33326 44 9.33326 44C9.33326 44 9.33326 44 9.33326 44C9.33326 44 9.33326 44 9.33326 44C9.33326 44 9.33327 44 9.33327 44C9.33327 44 9.33327 44 9.33327 44C9.33327 44 9.33327 44 9.33327 44C9.33327 44 9.33327 44 9.33327 44C9.33327 44 9.33327 44 9.33327 44C9.33328 44 9.33328 44 9.33328 44C9.33328 44 9.33328 44 9.33328 44C9.33328 44 9.33328 44 9.33328 44C9.33328 44 9.33328 44 9.33328 44C9.33328 44 9.33329 44 9.33329 44C9.33329 44 9.33329 44 9.33329 44C9.33329 44 9.33329 44 9.33329 44C9.33329 44 9.33329 44 9.33329 44C9.33329 44 9.33329 44 9.33329 44C9.3333 44 9.3333 44 9.3333 44C9.3333 44 9.3333 44 9.3333 44C9.3333 44 9.3333 44 9.3333 44C9.3333 44 9.3333 44 9.3333 44C9.3333 44 9.33331 44 9.33331 44C9.33331 44 9.33331 44 9.33331 44C9.33331 44 9.33331 44 9.33331 44C9.33331 44 9.33331 44 9.33331 44C9.33331 44 9.33331 44 9.33331 44C9.33332 44 9.33332 44 9.33332 44C9.33332 44 9.33332 44 9.33332 44C9.33332 44 9.33332 44 9.33332 44C9.33332 44 9.33332 44 9.33332 44C9.33332 44 9.33333 44 9.33333 44C9.33333 44 9.33333 44 9.33333 44C9.33333 44 9.33333 44 9.33333 44C9.33333 44 9.33333 44 9.33333 44V-36ZM9.3322 -36H4.66667V44H9.3322V-36ZM44.6667 20V4H-35.3333V20H44.6667ZM0 60H4.66667V-20H0V60ZM-40 1.67912e-08V20H40V1.67912e-08H-40ZM9.3322 -40H0V40H9.3322V-40Z" fill="#00AAFF" mask="url(#path-1-inside-1_48_782)"/>
<circle cx="7.16667" cy="8.66667" r="1.66667" fill="#00AAFF"/>
<circle cx="12.1332" cy="8.66667" r="1.66667" fill="#00AAFF"/>
</svg>
