<svg width="41" height="38" viewBox="0 0 41 38" fill="none" xmlns="http://www.w3.org/2000/svg">
<path d="M20.0857 0V4.07143H24.1572V4.19357C17.2357 5.17071 11.9429 11.1557 11.9429 18.3214C11.9429 26.1793 18.335 32.5714 26.1929 32.5714C34.0507 32.5714 40.4429 26.1793 40.4429 18.3214C40.4429 16.4893 40.0357 14.7793 39.425 13.2321L35.72 14.7793C36.1679 15.96 36.3714 17.1 36.3714 18.3621C36.3714 24.0214 31.8522 28.5407 26.1929 28.5407C20.5336 28.5407 16.0143 24.0214 16.0143 18.3621C16.0143 12.7029 20.5336 8.18357 26.1929 8.18357C27.4143 8.18357 28.595 8.38714 29.7757 8.835L31.16 5.00786C30.2236 4.68214 29.2464 4.51929 28.2286 4.35643V4.11214H32.3V0.0407143H20.0857V0ZM40.4429 4.72286C40.4429 4.72286 25.5822 16.1636 24.8086 16.9371C24.035 17.7514 24.035 18.9321 24.8086 19.7464C25.5822 20.5607 26.8036 20.5607 27.6179 19.7464C28.4322 18.9321 40.4836 4.72286 40.4836 4.72286H40.4429Z" fill="#00AAFF"/>
<path d="M0 33.4752V35.2861C0 36.7832 3.64732 38.0004 8.14286 38.0004C12.6384 38.0004 16.2857 36.7832 16.2857 35.2861V33.4752C14.5342 34.7093 11.3321 35.2861 8.14286 35.2861C4.95357 35.2861 1.75156 34.7093 0 33.4752ZM13.5714 21.7147C18.067 21.7147 21.7143 20.4975 21.7143 19.0004C21.7143 17.5033 18.067 16.2861 13.5714 16.2861C9.07589 16.2861 5.42857 17.5033 5.42857 19.0004C5.42857 20.4975 9.07589 21.7147 13.5714 21.7147ZM0 29.0263V31.2147C0 32.7118 3.64732 33.929 8.14286 33.929C12.6384 33.929 16.2857 32.7118 16.2857 31.2147V29.0263C14.5342 30.4683 11.3279 31.2147 8.14286 31.2147C4.95781 31.2147 1.75156 30.4683 0 29.0263ZM17.6429 29.4928C20.073 29.0221 21.7143 28.1484 21.7143 27.1433V25.3323C20.7304 26.0279 19.2842 26.5029 17.6429 26.7955V29.4928ZM8.14286 23.0718C3.64732 23.0718 0 24.5902 0 26.4647C0 28.3393 3.64732 29.8576 8.14286 29.8576C12.6384 29.8576 16.2857 28.3393 16.2857 26.4647C16.2857 24.5902 12.6384 23.0718 8.14286 23.0718ZM17.4435 25.4596C19.9882 25.0015 21.7143 24.1024 21.7143 23.0718V21.2609C20.2087 22.3254 17.6217 22.898 14.8989 23.0337C16.15 23.6402 17.0703 24.4544 17.4435 25.4596Z" fill="#00AAFF"/>
</svg>
