<svg width="99" height="101" viewBox="0 0 99 101" fill="none" xmlns="http://www.w3.org/2000/svg">
<path d="M75.8023 44.1776C75.6352 43.7823 74.9944 42.4648 74.7825 42.2394C73.6399 40.447 72.0683 38.9721 70.212 37.9501C68.3557 36.928 66.274 36.3916 64.1581 36.39C57.1923 36.39 51.527 42.0938 51.527 49.1029C51.527 56.1121 57.1923 61.8159 64.1581 61.8159C69.3411 61.8159 73.8041 58.6554 75.7489 54.1496C76.1674 56.3861 76.3758 58.6728 76.3758 61.0011C76.3758 81.3335 59.9432 97.8743 39.7416 97.8743C19.5401 97.8743 3.1074 81.3335 3.1074 61.0011C3.1074 40.6687 19.5418 24.1278 39.7433 24.1278C45.4293 24.1278 50.8759 25.4021 55.9314 27.9141C56.2985 28.0784 56.7144 28.0933 57.0921 27.9559C57.4698 27.8184 57.7801 27.5393 57.9579 27.1768C58.1358 26.8143 58.1674 26.3967 58.0462 26.0112C57.925 25.6258 57.6604 25.3025 57.3077 25.1091C51.848 22.3892 45.8352 20.9827 39.7433 21.0003C17.8279 21.002 0 38.9454 0 61.0011C0 83.0585 17.8279 101 39.7416 101C61.657 101 79.4832 83.0585 79.4832 61.0011C79.4814 55.1911 78.2255 49.4509 75.8023 44.1776ZM64.1581 58.2064C59.1698 58.2064 55.1098 54.1219 55.1098 49.1029C55.1098 44.084 59.168 40.0012 64.1581 40.0012C65.7782 40.0022 67.3683 40.441 68.7624 41.2717C70.1565 42.1024 71.3034 43.2945 72.0834 44.7237C72.2263 45.0063 72.3624 45.2924 72.4968 45.5784C72.9636 46.6966 73.2047 47.8929 73.203 49.1047C73.2003 51.5181 72.2464 53.8318 70.5507 55.5381C68.855 57.2445 66.556 58.2041 64.1581 58.2064Z" fill="#CCCCCC" fill-opacity="0.8"/>
<path d="M33.0913 36.39C26.1272 36.39 20.4602 42.0938 20.4602 49.103C20.4602 56.1122 26.1272 61.8159 33.0913 61.8159C40.0589 61.8159 45.7242 56.1122 45.7242 49.103C45.7242 42.0938 40.0571 36.39 33.0913 36.39ZM33.0913 58.6901C27.8394 58.6901 23.5676 54.3889 23.5676 49.103C23.5676 43.817 27.8394 39.5175 33.0913 39.5175C38.3432 39.5175 42.6168 43.817 42.6168 49.103C42.6145 51.6449 41.6102 54.0821 39.8243 55.8796C38.0385 57.677 35.6169 58.6878 33.0913 58.6901Z" fill="#CCCCCC" fill-opacity="0.8"/>
<path d="M28.7607 43.2745C28.7605 43.4797 28.8005 43.683 28.8783 43.8727C28.9561 44.0624 29.0703 44.2348 29.2143 44.3801C29.3584 44.5254 29.5294 44.6407 29.7177 44.7195C29.9061 44.7982 30.1079 44.8389 30.3119 44.8391C30.5158 44.8393 30.7177 44.7991 30.9062 44.7208C31.0947 44.6425 31.266 44.5275 31.4104 44.3826C31.5547 44.2376 31.6693 44.0655 31.7476 43.8759C31.8258 43.6864 31.8662 43.4832 31.8664 43.278V43.2762C31.8532 42.8707 31.684 42.4862 31.3944 42.204C31.1048 41.9218 30.7175 41.7639 30.3144 41.7636C29.9113 41.7634 29.5239 41.9209 29.234 42.2028C28.9441 42.4847 28.7744 42.869 28.7607 43.2745ZM60.2791 43.056C60.2791 43.471 60.4429 43.869 60.7345 44.1624C61.026 44.4558 61.4214 44.6207 61.8337 44.6207C62.246 44.6207 62.6414 44.4558 62.9329 44.1624C63.2245 43.869 63.3883 43.471 63.3883 43.056C63.3883 42.6411 63.2245 42.2431 62.9329 41.9497C62.6414 41.6563 62.246 41.4914 61.8337 41.4914C61.4214 41.4914 61.026 41.6563 60.7345 41.9497C60.4429 42.2431 60.2791 42.6411 60.2791 43.056ZM55.1237 77.6131C53.9791 77.2347 52.7818 77.0427 51.577 77.0445C47.5774 77.0445 43.7655 79.2775 41.6244 82.8713C41.4127 83.227 41.35 83.6527 41.4501 84.0549C41.5502 84.4571 41.805 84.8028 42.1584 85.0159C42.5117 85.229 42.9348 85.2921 43.3343 85.1913C43.7339 85.0905 44.0774 84.8341 44.2891 84.4784H44.2908C45.8704 81.8225 48.666 80.1703 51.577 80.1703C52.459 80.1703 53.3254 80.3107 54.1539 80.5829C54.5412 80.6979 54.9578 80.6565 55.3153 80.4677C55.6729 80.2789 55.9433 79.9573 56.0694 79.5713C56.1955 79.1852 56.1673 78.7648 55.9907 78.3993C55.8142 78.0338 55.5032 77.7518 55.1237 77.6131ZM59.8657 29.3445C59.8657 29.759 60.0293 30.1565 60.3205 30.4496C60.6118 30.7427 61.0067 30.9074 61.4186 30.9074C61.8304 30.9074 62.2254 30.7427 62.5166 30.4496C62.8078 30.1565 62.9714 29.759 62.9714 29.3445C62.9714 28.93 62.8078 28.5325 62.5166 28.2394C62.2254 27.9463 61.8304 27.7816 61.4186 27.7816C61.0067 27.7816 60.6118 27.9463 60.3205 28.2394C60.0293 28.5325 59.8657 28.93 59.8657 29.3445Z" fill="white" fill-opacity="0.8"/>
<path d="M76.2857 44.1775C76.1168 43.7822 75.4778 42.4646 75.2642 42.2393C74.1216 40.4468 72.55 38.972 70.6937 37.9499C68.8373 36.9279 66.7557 36.3915 64.6398 36.3899C57.6757 36.3899 52.0104 42.0936 52.0104 49.1028C52.0104 56.112 57.6757 61.8158 64.6398 61.8158C67.1037 61.8131 69.5132 61.0861 71.5723 59.7242C73.6314 58.3623 75.2504 56.4247 76.2305 54.1495C76.6474 56.3859 76.8575 58.6726 76.8575 61.0009C76.8575 81.3333 60.4231 97.8742 40.2216 97.8742C20.02 97.8742 3.58907 81.3333 3.58907 61.0009C3.58907 40.6686 20.0235 24.1277 40.225 24.1277C45.9127 24.1277 51.3576 25.4019 56.4166 27.914C56.7861 28.0975 57.213 28.1256 57.6032 27.9923C57.9934 27.859 58.3151 27.5752 58.4973 27.2032C58.6796 26.8312 58.7076 26.4016 58.5752 26.0089C58.4427 25.6161 58.1607 25.2924 57.7911 25.1089C52.3307 22.3892 46.3175 20.9827 40.225 21.0002C18.3096 21.0019 0.483398 38.9453 0.483398 61.0009C0.483398 83.0583 18.3113 101 40.225 101C62.1422 101 79.9666 83.0583 79.9666 61.0009C79.9666 55.1914 78.6954 49.4131 76.2857 44.1775ZM64.6415 58.2063C59.6531 58.2063 55.5949 54.1218 55.5949 49.1028C55.5949 44.0839 59.6531 40.0011 64.6415 40.0011C66.2616 40.0021 67.8517 40.4408 69.2458 41.2715C70.6399 42.1022 71.7868 43.2944 72.5668 44.7236C72.7115 45.0062 72.8458 45.2922 72.9802 45.5783C73.447 46.6965 73.6881 47.8927 73.6864 49.1046C73.6837 51.5179 72.7298 53.8317 71.0341 55.538C69.3384 57.2444 67.0394 58.204 64.6415 58.2063Z" fill="#CCCCCC" fill-opacity="0.8"/>
<path d="M79.7313 25.493C78.889 25.2127 78.3373 24.3536 78.6505 23.523C80.8335 17.7323 90.1918 18.7171 91.6737 14.2637C92.6407 11.3577 91.2281 8.54865 86.8289 7.08477C84.2778 6.23586 81.6079 6.37873 78.792 7.50433C77.9823 7.82799 77.0349 7.55111 76.6052 6.79231C76.1507 5.98949 76.449 4.96216 77.2959 4.59635C80.6711 3.13855 84.2371 2.66709 88.2822 4.01313C94.3634 6.03673 97.2651 10.4172 95.6535 15.2605C93.7903 20.8595 85.2407 19.8823 82.5533 24.1345C81.9417 25.1021 80.8174 25.8544 79.7313 25.493ZM76.6845 35.9869C75.1318 35.4702 74.2745 34.0155 74.8351 32.3308C75.3957 30.6462 77.0249 29.9253 78.5344 30.4276C80.0439 30.9299 80.9163 32.4832 80.3557 34.1678C79.7951 35.8525 78.194 36.4892 76.6845 35.9869Z" fill="#CCCCCC"/>
</svg>
