<svg width="343" height="343" viewBox="0 0 343 343" fill="none" xmlns="http://www.w3.org/2000/svg">
<path d="M0 46C0 20.5949 20.5949 0 46 0H80.0265V342.971H0V46Z" fill="url(#paint0_linear_653_5561)"/>
<path fill-rule="evenodd" clip-rule="evenodd" d="M160.053 0H80.0269V68.5941H160.034V68.5942C189.138 68.5943 217.051 79.4345 237.631 98.7304C258.211 118.026 269.773 144.197 269.773 171.485C269.773 198.774 258.211 224.945 237.631 244.241C217.051 263.536 189.138 274.377 160.034 274.377V342.971C208.541 342.971 255.062 324.904 289.362 292.744C323.662 260.584 342.932 216.966 342.932 171.486C342.932 126.005 323.662 82.3868 289.362 50.227C255.067 18.0716 208.554 0.00501043 160.053 9.94963e-05V0Z" fill="url(#paint1_linear_653_5561)"/>
<circle cx="208.641" cy="148.621" r="34.2971" fill="url(#paint2_linear_653_5561)"/>
<circle cx="123.469" cy="148.621" r="34.2971" fill="url(#paint3_linear_653_5561)"/>
<defs>
<linearGradient id="paint0_linear_653_5561" x1="40.0133" y1="0" x2="40.0133" y2="342.971" gradientUnits="userSpaceOnUse">
<stop stop-color="#06FB94"/>
<stop offset="1" stop-color="#18C8FF"/>
</linearGradient>
<linearGradient id="paint1_linear_653_5561" x1="282.665" y1="96.6034" x2="196.351" y2="302.957" gradientUnits="userSpaceOnUse">
<stop stop-color="#16D0F0"/>
<stop offset="1" stop-color="#08F79E"/>
</linearGradient>
<linearGradient id="paint2_linear_653_5561" x1="208.641" y1="141.476" x2="198.638" y2="182.918" gradientUnits="userSpaceOnUse">
<stop stop-color="#09F89F"/>
<stop offset="1" stop-color="#00AAFF"/>
</linearGradient>
<linearGradient id="paint3_linear_653_5561" x1="123.469" y1="141.476" x2="113.466" y2="182.918" gradientUnits="userSpaceOnUse">
<stop stop-color="#09F89F"/>
<stop offset="1" stop-color="#00AAFF"/>
</linearGradient>
</defs>
</svg>
