<svg width="26" height="25" viewBox="0 0 26 25" fill="none" xmlns="http://www.w3.org/2000/svg">
<path d="M24.0281 7.8801L15.2006 0.823205C13.8376 -0.272269 11.6339 -0.272269 10.2837 0.810467L1.45621 7.8801C0.46264 8.66986 -0.174264 10.3385 0.0422837 11.5868L1.73645 21.7263C2.04216 23.5351 3.77454 25 5.60882 25H19.8755C21.697 25 23.4421 23.5224 23.7478 21.7263L25.442 11.5868C25.6458 10.3385 25.0089 8.66986 24.0281 7.8801ZM12.7422 16.9623C10.9843 16.9623 9.55762 15.5356 9.55762 13.7778C9.55762 12.0199 10.9843 10.5932 12.7422 10.5932C14.5 10.5932 15.9267 12.0199 15.9267 13.7778C15.9267 15.5356 14.5 16.9623 12.7422 16.9623Z" fill="#6BB7DD"/>
</svg>
