<svg width="23" height="25" viewBox="0 0 23 25" fill="none" xmlns="http://www.w3.org/2000/svg">
<path fill-rule="evenodd" clip-rule="evenodd" d="M0 15.2779C0 13.7432 1.25279 12.5001 2.79032 12.5001H13.8766C15.4183 12.5001 16.6669 13.7418 16.6669 15.2863V21.453C16.6669 26.1823 0 26.1823 0 21.453V15.2779Z" fill="#6BB7DD"/>
<path d="M8.33347 11.1113C11.4017 11.1113 13.8891 8.62393 13.8891 5.55563C13.8891 2.48734 11.4017 0 8.33347 0C5.26517 0 2.77783 2.48734 2.77783 5.55563C2.77783 8.62393 5.26517 11.1113 8.33347 11.1113Z" fill="#6BB7DD"/>
<path d="M17.074 8.74043C16.9413 8.86856 16.8355 9.02181 16.7627 9.19127C16.69 9.36072 16.6516 9.54297 16.65 9.72739C16.6484 9.91184 16.6836 10.0948 16.7534 10.2655C16.8233 10.4362 16.9263 10.5912 17.0568 10.7216C17.1872 10.852 17.3423 10.955 17.5129 11.0249C17.6836 11.0948 17.8665 11.1299 18.0509 11.1284C18.2354 11.1267 18.4176 11.0884 18.5871 11.0156C18.7565 10.9428 18.9098 10.837 19.0379 10.7043L21.8102 7.93209C21.941 7.80302 22.0447 7.64927 22.1156 7.47973C22.1866 7.31022 22.2229 7.12831 22.2229 6.94457C22.2229 6.76084 22.1866 6.57893 22.1156 6.40941C22.0447 6.23988 21.941 6.08613 21.8102 5.95706L19.0379 3.1848C18.776 2.9318 18.4251 2.79181 18.0609 2.79497C17.6968 2.79813 17.3484 2.9442 17.0909 3.20172C16.8334 3.45923 16.6873 3.80759 16.6841 4.17176C16.6809 4.53593 16.8209 4.88677 17.074 5.14872L18.8698 6.94457L17.074 8.74043Z" fill="#6BB7DD"/>
</svg>
