<svg width="23" height="25" viewBox="0 0 23 25" fill="none" xmlns="http://www.w3.org/2000/svg">
<path fill-rule="evenodd" clip-rule="evenodd" d="M22.2086 4.16674C22.2099 4.347 22.1754 4.52572 22.1073 4.69259C22.0391 4.85945 21.9385 5.01117 21.8114 5.13898L19.96 6.9015L21.7434 8.70709C21.9356 8.8706 22.0786 9.08424 22.1567 9.32425C22.2348 9.56424 22.2446 9.82113 22.1853 10.0664C22.126 10.3117 21.9998 10.5357 21.8207 10.7136C21.6417 10.8914 21.4168 11.0161 21.1711 11.0738C20.9257 11.1324 20.6689 11.1223 20.4288 11.0446C20.1888 10.967 19.9746 10.8248 19.81 10.6335L17.0655 7.89874C16.8105 7.64306 16.6673 7.29666 16.6673 6.93553C16.6673 6.5744 16.8105 6.22801 17.0655 5.97233L19.8919 3.15562C20.0878 2.96956 20.334 2.84531 20.6001 2.79838C20.8661 2.75145 21.1402 2.78391 21.3878 2.89173C21.8948 3.11395 22.217 3.61674 22.2086 4.16674ZM0 15.278C0 13.7433 1.25279 12.5002 2.79032 12.5002H13.8766C15.4183 12.5002 16.6669 13.7419 16.6669 15.2863V21.4531C16.6669 26.1823 0 26.1823 0 21.4531V15.278Z" fill="#6BB7DD"/>
<path d="M8.33347 11.1113C11.4017 11.1113 13.8891 8.62393 13.8891 5.55563C13.8891 2.48734 11.4017 0 8.33347 0C5.26517 0 2.77783 2.48734 2.77783 5.55563C2.77783 8.62393 5.26517 11.1113 8.33347 11.1113Z" fill="#6BB7DD"/>
</svg>
