<svg width="44" height="50" viewBox="0 0 44 50" fill="none" xmlns="http://www.w3.org/2000/svg">
<path d="M12.5 0V6.25H18.75V6.4375C8.125 7.9375 0 17.125 0 28.125C0 40.1875 9.8125 50 21.875 50C33.9375 50 43.75 40.1875 43.75 28.125C43.75 25.3125 43.125 22.6875 42.1875 20.3125L36.5 22.6875C37.1875 24.5 37.5 26.25 37.5 28.1875C37.5 36.875 30.5625 43.8125 21.875 43.8125C13.1875 43.8125 6.25 36.875 6.25 28.1875C6.25 19.5 13.1875 12.5625 21.875 12.5625C23.75 12.5625 25.5625 12.875 27.375 13.5625L29.5 7.6875C28.0625 7.1875 26.5625 6.9375 25 6.6875V6.3125H31.25V0.0625H12.5V0ZM43.75 7.25C43.75 7.25 20.9375 24.8125 19.75 26C18.5625 27.25 18.5625 29.0625 19.75 30.3125C20.9375 31.5625 22.8125 31.5625 24.0625 30.3125C25.3125 29.0625 43.8125 7.25 43.8125 7.25H43.75Z" fill="black"/>
</svg>
