<svg width="52" height="40" viewBox="0 0 52 40" fill="none" xmlns="http://www.w3.org/2000/svg">
<path d="M37.1429 14.2857C37.1429 6.39286 28.8304 0 18.5714 0C8.3125 0 0 6.39286 0 14.2857C0 17.3482 1.25893 20.1696 3.39286 22.5C2.19643 25.1964 0.223214 27.3393 0.196429 27.3661C0 27.5714 -0.0535714 27.875 0.0625 28.1429C0.178571 28.4107 0.428571 28.5714 0.714286 28.5714C3.98214 28.5714 6.6875 27.4732 8.63393 26.3393C11.5089 27.7411 14.9107 28.5714 18.5714 28.5714C28.8304 28.5714 37.1429 22.1786 37.1429 14.2857ZM48.0357 33.9286C50.1696 31.6071 51.4286 28.7768 51.4286 25.7143C51.4286 19.7411 46.6518 14.625 39.8839 12.4911C39.9643 13.0804 40 13.6786 40 14.2857C40 23.7411 30.3839 31.4286 18.5714 31.4286C17.6071 31.4286 16.6696 31.3571 15.7411 31.2589C18.5536 36.3929 25.1607 40 32.8571 40C36.5179 40 39.9196 39.1786 42.7946 37.7679C44.7411 38.9018 47.4464 40 50.7143 40C51 40 51.2589 39.8304 51.3661 39.5714C51.4821 39.3125 51.4286 39.0089 51.2321 38.7946C51.2054 38.7679 49.2321 36.6339 48.0357 33.9286Z" fill="#00AAFF"/>
</svg>
