<svg width="40" height="40" viewBox="0 0 40 40" fill="none" xmlns="http://www.w3.org/2000/svg">
<path d="M36.4205 7.14307H34.2937C34.2915 7.14307 34.2895 7.14391 34.288 7.14542C34.2865 7.14693 34.2856 7.14897 34.2856 7.1511V34.2859C34.2856 35.0437 34.5867 35.7704 35.1225 36.3062C35.6583 36.842 36.385 37.1431 37.1428 37.1431C37.9005 37.1431 38.6273 36.842 39.1631 36.3062C39.6989 35.7704 39.9999 35.0437 39.9999 34.2859V10.7225C39.9999 9.7732 39.6228 8.86275 38.9515 8.19147C38.2802 7.52019 37.3698 7.14307 36.4205 7.14307Z" fill="#00AAFF"/>
<path d="M31.4286 34.2857V3.57143C31.4286 3.10242 31.3362 2.63801 31.1567 2.2047C30.9772 1.7714 30.7142 1.37768 30.3825 1.04605C30.0509 0.714409 29.6572 0.45134 29.2239 0.271859C28.7906 0.0923777 28.3261 0 27.8571 0H3.57143C2.62423 0 1.71582 0.376274 1.04605 1.04605C0.376274 1.71582 0 2.62423 0 3.57143V35C0 36.3261 0.526784 37.5979 1.46447 38.5355C2.40215 39.4732 3.67392 40 5 40H35.6116C35.6251 40.0001 35.6385 39.9975 35.651 39.9924C35.6635 39.9873 35.6749 39.9797 35.6845 39.9702C35.694 39.9606 35.7016 39.9493 35.7067 39.9368C35.7118 39.9242 35.7144 39.9108 35.7143 39.8973C35.7142 39.8749 35.7068 39.8531 35.693 39.8353C35.6793 39.8175 35.6601 39.8048 35.6384 39.7991C34.4299 39.4676 33.3636 38.7487 32.6032 37.7528C31.8427 36.7568 31.4301 35.5388 31.4286 34.2857ZM5.71428 8.57143C5.71428 8.19255 5.86479 7.82919 6.1327 7.56128C6.40061 7.29337 6.76398 7.14286 7.14286 7.14286H12.8571C13.236 7.14286 13.5994 7.29337 13.8673 7.56128C14.1352 7.82919 14.2857 8.19255 14.2857 8.57143V14.2857C14.2857 14.6646 14.1352 15.028 13.8673 15.2959C13.5994 15.5638 13.236 15.7143 12.8571 15.7143H7.14286C6.76398 15.7143 6.40061 15.5638 6.1327 15.2959C5.86479 15.028 5.71428 14.6646 5.71428 14.2857V8.57143ZM24.2857 32.8571H7.18303C6.41428 32.8571 5.75446 32.2661 5.71607 31.4973C5.70676 31.3042 5.73677 31.1111 5.80427 30.9299C5.87177 30.7487 5.97536 30.5831 6.10877 30.4431C6.24217 30.3031 6.40261 30.1916 6.58036 30.1155C6.75811 30.0393 6.94948 30 7.14286 30H24.2455C25.0143 30 25.6741 30.5911 25.7125 31.3598C25.7218 31.553 25.6918 31.746 25.6243 31.9272C25.5568 32.1084 25.4532 32.2741 25.3198 32.4141C25.1864 32.5541 25.026 32.6655 24.8482 32.7417C24.6705 32.8178 24.4791 32.8571 24.2857 32.8571ZM24.2857 27.1429H7.18303C6.41428 27.1429 5.75446 26.5518 5.71607 25.783C5.70676 25.5899 5.73677 25.3968 5.80427 25.2156C5.87177 25.0344 5.97536 24.8688 6.10877 24.7288C6.24217 24.5888 6.40261 24.4773 6.58036 24.4012C6.75811 24.325 6.94948 24.2857 7.14286 24.2857H24.2455C25.0143 24.2857 25.6741 24.8768 25.7125 25.6455C25.7218 25.8387 25.6918 26.0317 25.6243 26.2129C25.5568 26.3942 25.4532 26.5598 25.3198 26.6998C25.1864 26.8398 25.026 26.9512 24.8482 27.0274C24.6705 27.1036 24.4791 27.1428 24.2857 27.1429ZM24.2857 21.4286H7.18303C6.41428 21.4286 5.75446 20.8375 5.71607 20.0687C5.70676 19.8756 5.73677 19.6826 5.80427 19.5013C5.87177 19.3201 5.97536 19.1545 6.10877 19.0145C6.24217 18.8745 6.40261 18.763 6.58036 18.6869C6.75811 18.6107 6.94948 18.5714 7.14286 18.5714H24.2455C25.0143 18.5714 25.6741 19.1625 25.7125 19.9312C25.7218 20.1244 25.6918 20.3174 25.6243 20.4987C25.5568 20.6799 25.4532 20.8455 25.3198 20.9855C25.1864 21.1255 25.026 21.237 24.8482 21.3131C24.6705 21.3893 24.4791 21.4286 24.2857 21.4286ZM24.2857 15.7143H18.6116C17.8429 15.7143 17.183 15.1232 17.1446 14.3545C17.1353 14.1613 17.1653 13.9683 17.2328 13.7871C17.3003 13.6058 17.4039 13.4402 17.5373 13.3002C17.6707 13.1602 17.8312 13.0488 18.0089 12.9726C18.1867 12.8964 18.378 12.8572 18.5714 12.8571H24.2455C25.0143 12.8571 25.6741 13.4482 25.7125 14.217C25.7218 14.4101 25.6918 14.6032 25.6243 14.7844C25.5568 14.9656 25.4532 15.1312 25.3198 15.2712C25.1864 15.4112 25.026 15.5227 24.8482 15.5988C24.6705 15.675 24.4791 15.7143 24.2857 15.7143ZM24.2857 10H18.6116C17.8429 10 17.183 9.40893 17.1446 8.64018C17.1353 8.44702 17.1653 8.25399 17.2328 8.07277C17.3003 7.89155 17.4039 7.72593 17.5373 7.58593C17.6707 7.44593 17.8312 7.33447 18.0089 7.25831C18.1867 7.18215 18.378 7.14287 18.5714 7.14286H24.2455C25.0143 7.14286 25.6741 7.73393 25.7125 8.50268C25.7218 8.69584 25.6918 8.88887 25.6243 9.07009C25.5568 9.2513 25.4532 9.41693 25.3198 9.55693C25.1864 9.69693 25.026 9.80838 24.8482 9.88454C24.6705 9.9607 24.4791 9.99998 24.2857 10Z" fill="#00AAFF"/>
</svg>
