<svg width="22" height="25" viewBox="0 0 22 25" fill="none" xmlns="http://www.w3.org/2000/svg">
<path d="M20.9958 17.2606C20.9031 17.149 20.8122 17.0374 20.7229 16.9297C19.4952 15.4448 18.7525 14.5485 18.7525 10.3449C18.7525 8.16853 18.2318 6.38281 17.2056 5.04353C16.4489 4.05413 15.426 3.30357 14.0778 2.74888C14.0605 2.73923 14.045 2.72657 14.0321 2.7115C13.5471 1.08761 12.2201 0 10.7235 0C9.22681 0 7.90036 1.08761 7.41543 2.70982C7.40248 2.72434 7.38721 2.7366 7.37022 2.74609C4.22402 4.04129 2.695 6.52623 2.695 10.3432C2.695 14.5485 1.95337 15.4448 0.724578 16.928C0.635292 17.0357 0.544332 17.1451 0.451698 17.2589C0.212413 17.5475 0.0608062 17.8986 0.0148198 18.2706C-0.0311666 18.6427 0.0303924 19.0201 0.192212 19.3583C0.53652 20.0837 1.27034 20.534 2.10795 20.534H19.3451C20.1788 20.534 20.9076 20.0843 21.253 19.3622C21.4156 19.0239 21.4777 18.6462 21.4321 18.2737C21.3865 17.9012 21.2351 17.5497 20.9958 17.2606Z" fill="#6BB7DD"/>
<path d="M10.7237 25C11.5301 24.9993 12.3213 24.7804 13.0133 24.3665C13.7054 23.9526 14.2725 23.3591 14.6545 22.649C14.6725 22.6149 14.6814 22.5768 14.6803 22.5384C14.6792 22.4999 14.6682 22.4623 14.6483 22.4294C14.6285 22.3964 14.6004 22.3691 14.5669 22.3502C14.5333 22.3313 14.4955 22.3214 14.457 22.3214H6.99158C6.95303 22.3213 6.91511 22.3311 6.8815 22.35C6.84789 22.3689 6.81974 22.3961 6.79979 22.4291C6.77984 22.4621 6.76878 22.4997 6.76767 22.5382C6.76656 22.5767 6.77545 22.6149 6.79347 22.649C7.17547 23.359 7.7425 23.9525 8.43444 24.3664C9.12638 24.7803 9.91743 24.9992 10.7237 25Z" fill="#6BB7DD"/>
</svg>
