<svg width="40" height="40" viewBox="0 0 40 40" fill="none" xmlns="http://www.w3.org/2000/svg">
<path d="M26.5028 11.1416C25.9515 11.1419 25.4174 11.3334 24.9914 11.6833C24.5654 12.0333 24.2739 12.5202 24.1667 13.0609C24.0594 13.6017 24.1429 14.163 24.403 14.649C24.6632 15.1351 25.0838 15.516 25.5932 15.7267C26.1027 15.9375 26.6694 15.9651 27.1969 15.8048C27.7244 15.6445 28.18 15.3063 28.4861 14.8478C28.7922 14.3892 28.9299 13.8387 28.8756 13.2901C28.8214 12.7415 28.5786 12.2286 28.1886 11.8389C27.9674 11.6173 27.7046 11.4416 27.4153 11.322C27.126 11.2023 26.8159 11.141 26.5028 11.1416Z" fill="#00AAFF"/>
<path d="M39.7701 1.61231C39.7697 1.60964 39.7697 1.60693 39.7701 1.60427C39.6946 1.2733 39.5281 0.970017 39.2894 0.728637C39.0507 0.487256 38.7493 0.317386 38.4192 0.238192C35.7585 -0.410919 31.5728 0.28105 26.9344 2.1382C22.2593 4.01321 17.879 6.78108 14.9182 9.74717C13.9692 10.6911 13.0876 11.7004 12.2798 12.7677C10.2861 12.6784 8.5298 12.9624 7.05033 13.6079C1.89494 15.8767 0.422616 21.6829 0.0306501 24.0669C-0.0260686 24.4056 -0.00386023 24.7529 0.0955469 25.0816C0.194954 25.4103 0.368878 25.7117 0.603785 25.9623C0.838691 26.2128 1.12824 26.4058 1.44991 26.5261C1.77157 26.6465 2.11667 26.691 2.45834 26.6562H2.46995L8.21283 26.0294C8.21998 26.1026 8.22801 26.1696 8.23426 26.2312C8.30802 26.931 8.6201 27.5841 9.11819 28.0812L11.9209 30.8857C12.4172 31.3844 13.0702 31.6969 13.77 31.7705L13.962 31.791L13.337 37.5268C13.337 37.5268 13.337 37.5339 13.337 37.5384C13.305 37.8473 13.3379 38.1595 13.4335 38.455C13.5291 38.7504 13.6852 39.0227 13.8921 39.2544C14.0989 39.4861 14.3517 39.6721 14.6345 39.8005C14.9173 39.9288 15.2238 39.9968 15.5343 40C15.6584 40.0001 15.7824 39.9899 15.9048 39.9696C18.3022 39.5839 24.1058 38.1295 26.3683 32.9464C27.0085 31.4767 27.2915 29.7276 27.212 27.7374C28.2841 26.9314 29.2971 26.0497 30.2433 25.099C33.2281 22.1294 36.0049 17.7847 37.8603 13.1775C39.7076 8.59181 40.4032 4.37482 39.7701 1.61231ZM30.2112 17.2267C29.4775 17.9611 28.5425 18.4614 27.5245 18.6643C26.5065 18.8672 25.4511 18.7636 24.492 18.3666C23.5328 17.9696 22.713 17.297 22.1362 16.434C21.5593 15.571 21.2514 14.5562 21.2514 13.5182C21.2514 12.4801 21.5593 11.4654 22.1362 10.6023C22.713 9.73929 23.5328 9.06673 24.492 8.66973C25.4511 8.27273 26.5065 8.16914 27.5245 8.37205C28.5425 8.57496 29.4775 9.07527 30.2112 9.80967C30.7029 10.294 31.0934 10.8713 31.3599 11.508C31.6265 12.1446 31.7637 12.828 31.7637 13.5182C31.7637 14.2084 31.6265 14.8917 31.3599 15.5284C31.0934 16.165 30.7029 16.7423 30.2112 17.2267Z" fill="#00AAFF"/>
<path d="M11.6001 31.6464C11.2546 31.6036 10.9053 31.6884 10.6179 31.8848C10.0474 32.275 9.47418 32.6607 8.89561 33.0366C7.72507 33.7973 6.32506 32.4616 7.0206 31.2509L8.10543 29.3759C8.26052 29.149 8.34688 28.8822 8.35415 28.6075C8.36142 28.3328 8.2893 28.0618 8.14642 27.827C8.00355 27.5922 7.79598 27.4037 7.54863 27.2839C7.30127 27.1641 7.02462 27.1183 6.75185 27.1518C5.54782 27.304 4.42865 27.8525 3.57058 28.7107C3.2438 29.0384 2.25004 30.033 1.71522 33.8232C1.56298 34.9119 1.46702 36.0077 1.42772 37.1063C1.42283 37.297 1.45617 37.4867 1.52577 37.6642C1.59537 37.8418 1.69982 38.0036 1.83297 38.1402C1.96612 38.2768 2.12526 38.3853 2.30101 38.4593C2.47676 38.5334 2.66557 38.5715 2.85629 38.5715H2.89201C3.99142 38.5325 5.08811 38.4372 6.17774 38.2858C9.96972 37.75 10.9644 36.7554 11.2912 36.4286C12.1534 35.5702 12.7005 34.4457 12.8438 33.2375C12.8897 32.8616 12.7845 32.4829 12.5513 32.1845C12.3181 31.8862 11.9759 31.6926 11.6001 31.6464Z" fill="#00AAFF"/>
</svg>
