<svg width="98" height="37" viewBox="0 0 98 37" fill="none" xmlns="http://www.w3.org/2000/svg">
<path d="M0 2.96205C0 1.32615 1.32615 0 2.96205 0H7.62437V32.6759H0V2.96205Z" fill="url(#paint0_linear_1151_17433)"/>
<path fill-rule="evenodd" clip-rule="evenodd" d="M15.2474 0H7.625V6.53518L15.2474 6.53518C18.0202 6.53518 20.6796 7.56797 22.6403 9.40634C24.601 11.2447 25.7025 13.7381 25.7025 16.3379C25.7025 18.9378 24.601 21.4312 22.6403 23.2695C20.6796 25.1079 18.0202 26.1407 15.2474 26.1407L15.2474 32.6759C19.8688 32.6759 24.301 30.9546 27.5689 27.8906C30.8368 24.8267 32.6726 20.671 32.6726 16.3379C32.6726 12.0049 30.8368 7.84924 27.5689 4.78528C24.3015 1.72176 19.8701 0.000497685 15.2494 0C15.2487 0 15.248 0 15.2474 0Z" fill="url(#paint1_linear_1151_17433)"/>
<ellipse cx="19.8789" cy="14.1592" rx="3.26759" ry="3.26759" fill="url(#paint2_linear_1151_17433)"/>
<ellipse cx="11.7637" cy="14.1592" rx="3.26759" ry="3.26759" fill="url(#paint3_linear_1151_17433)"/>
<path d="M34.4 18.72H44.7V20.72H36.74V24.68H44.22V26.68H36.74V31H45.04V33H34.4V18.72ZM46.252 18.72H49.112L52.472 23.76L55.832 18.72H58.692L53.872 25.62L59.012 33H56.152L52.472 27.48L48.792 33H45.932L51.032 25.62L46.252 18.72ZM65.5533 22.38C67.0733 22.38 68.2733 22.92 69.1533 24C69.9533 25 70.3533 26.28 70.3533 27.88C70.3533 29.4 69.9533 30.66 69.1733 31.66C68.3333 32.74 67.1533 33.28 65.6733 33.28C64.4733 33.28 63.4333 32.7 62.5933 31.58V36.96H60.3133V22.66H62.4333V23.76C63.1533 22.84 64.1933 22.38 65.5533 22.38ZM65.2133 24.22C64.3133 24.22 63.6333 24.56 63.1533 25.28C62.7133 25.9 62.5133 26.72 62.5133 27.76V27.92C62.5133 29 62.7733 29.88 63.3133 30.54C63.7933 31.14 64.3933 31.44 65.1333 31.44C66.1333 31.44 66.8933 31.1 67.3733 30.46C67.7933 29.86 68.0133 29 68.0133 27.88C68.0133 26.76 67.8133 25.9 67.4333 25.3C66.9533 24.58 66.2133 24.22 65.2133 24.22ZM76.7445 22.38C78.4445 22.38 79.7445 22.94 80.6445 24.1C81.4645 25.14 81.8845 26.6 81.8845 28.46H74.1445C74.2245 29.42 74.4845 30.16 74.9245 30.66C75.3645 31.16 76.0045 31.42 76.8245 31.42C77.5245 31.42 78.0845 31.26 78.5245 30.94C78.8645 30.68 79.1645 30.26 79.4445 29.68H81.7245C81.4845 30.64 81.0045 31.46 80.2845 32.1C79.3645 32.88 78.2245 33.28 76.8445 33.28C75.3045 33.28 74.0845 32.8 73.1845 31.86C72.2245 30.88 71.7445 29.54 71.7445 27.82C71.7445 26.28 72.1845 25 73.1045 23.96C73.9845 22.9 75.2045 22.38 76.7445 22.38ZM76.8045 24.24C76.0445 24.24 75.4645 24.44 75.0245 24.88C74.6045 25.3 74.3245 25.92 74.1845 26.74H79.5045C79.3045 25.06 78.4045 24.24 76.8045 24.24ZM88.5722 22.38C89.0722 22.38 89.5122 22.46 89.8722 22.64V24.92C89.3522 24.76 88.8722 24.7 88.3922 24.7C87.7922 24.7 87.2522 24.92 86.7722 25.4C86.2122 25.94 85.9522 26.64 85.9522 27.52V33H83.6922V22.66H85.9522V24.14C86.2322 23.62 86.5522 23.22 86.9322 22.94C87.3922 22.56 87.9322 22.38 88.5722 22.38ZM94.4127 19.32V22.66H96.7127V24.54H94.4127V30.38C94.4127 30.62 94.4527 30.8 94.5727 30.94C94.6927 31.06 94.8527 31.12 95.0927 31.12H96.4527V33H94.7127C93.8127 33 93.1527 32.76 92.7327 32.28C92.3327 31.84 92.1327 31.22 92.1327 30.38V24.54H90.2727V22.66H92.1327V20.26L94.4127 19.32Z" fill="#17D0F0"/>
<defs>
<linearGradient id="paint0_linear_1151_17433" x1="3.81219" y1="0" x2="3.81219" y2="32.6759" gradientUnits="userSpaceOnUse">
<stop stop-color="#8F00FF"/>
<stop offset="1" stop-color="#18C8FF"/>
</linearGradient>
<linearGradient id="paint1_linear_1151_17433" x1="26.9307" y1="9.20371" x2="18.7072" y2="28.8636" gradientUnits="userSpaceOnUse">
<stop stop-color="#16D0F0"/>
<stop offset="1" stop-color="#8F00FF"/>
</linearGradient>
<linearGradient id="paint2_linear_1151_17433" x1="19.8789" y1="13.4784" x2="18.9259" y2="17.4268" gradientUnits="userSpaceOnUse">
<stop stop-color="#8F00FF"/>
<stop offset="1" stop-color="#00AAFF"/>
</linearGradient>
<linearGradient id="paint3_linear_1151_17433" x1="11.7637" y1="13.4784" x2="10.8106" y2="17.4268" gradientUnits="userSpaceOnUse">
<stop stop-color="#8F00FF"/>
<stop offset="1" stop-color="#00AAFF"/>
</linearGradient>
</defs>
</svg>
