<svg width="40" height="40" viewBox="0 0 40 40" fill="none" xmlns="http://www.w3.org/2000/svg">
<mask id="path-1-inside-1_296_5394" fill="white">
<path d="M0 3.32866e-08H18.5C18.5007 3.32866e-08 18.5015 -4.16081e-08 18.5022 3.32866e-08C24.1089 0.000559793 29.4859 2.08908 33.4505 5.80627C37.4156 9.52396 39.6432 14.5662 39.6432 19.8238C39.6432 25.0814 37.4156 30.1237 33.4505 33.8414C29.4853 37.5591 24.1075 39.6477 18.5 39.6477V31.7181C21.8645 31.7181 25.0912 30.465 27.4703 28.2344C29.8493 26.0038 31.1859 22.9784 31.1859 19.8238C31.1859 16.6693 29.8493 13.6439 27.4703 11.4133C25.0917 9.18318 21.8659 7.93009 18.5022 7.92953C18.5015 7.92953 18.5007 7.92953 18.5 7.92953H9.25112V39.6477H0V3.32866e-08Z"/>
</mask>
<path d="M0 3.32866e-08H18.5C18.5007 3.32866e-08 18.5015 -4.16081e-08 18.5022 3.32866e-08C24.1089 0.000559793 29.4859 2.08908 33.4505 5.80627C37.4156 9.52396 39.6432 14.5662 39.6432 19.8238C39.6432 25.0814 37.4156 30.1237 33.4505 33.8414C29.4853 37.5591 24.1075 39.6477 18.5 39.6477V31.7181C21.8645 31.7181 25.0912 30.465 27.4703 28.2344C29.8493 26.0038 31.1859 22.9784 31.1859 19.8238C31.1859 16.6693 29.8493 13.6439 27.4703 11.4133C25.0917 9.18318 21.8659 7.93009 18.5022 7.92953C18.5015 7.92953 18.5007 7.92953 18.5 7.92953H9.25112V39.6477H0V3.32866e-08Z" fill="#00AAFF"/>
<path d="M0 3.32866e-08V-40H-40V3.32866e-08H0ZM18.5022 3.32866e-08L18.5062 -40L18.5022 3.32866e-08ZM33.4505 5.80627L60.8097 -23.3738L60.8097 -23.3738L33.4505 5.80627ZM33.4505 33.8414L60.8096 63.0214L60.8097 63.0214L33.4505 33.8414ZM18.5 39.6477H-21.5V79.6477H18.5V39.6477ZM18.5 31.7181V-8.28187H-21.5V31.7181H18.5ZM27.4703 28.2344L54.8295 57.4144L54.8295 57.4144L27.4703 28.2344ZM31.1859 19.8238L-8.81412 19.8238V19.8238H31.1859ZM27.4703 11.4133L54.8295 -17.7667L54.8295 -17.7667L27.4703 11.4133ZM18.5022 7.92953L18.5089 -32.0705H18.5022V7.92953ZM9.25112 7.92953V-32.0705H-30.7489V7.92953H9.25112ZM9.25112 39.6477V79.6477H49.2511V39.6477H9.25112ZM0 39.6477H-40V79.6477H0V39.6477ZM18.5 40C18.5009 40 18.5032 40 18.5021 40C18.502 40 18.5004 40 18.4982 40L18.5062 -40C18.5033 -40 18.501 -40 18.5001 -40C18.4983 -40 18.4998 -40 18.5 -40V40ZM18.4982 40C14.2995 39.9996 9.79559 38.4595 6.09127 34.9863L60.8097 -23.3738C49.1762 -34.2813 33.9184 -39.9985 18.5062 -40L18.4982 40ZM6.09126 34.9863C2.29919 31.4308 -0.356851 26.0369 -0.356851 19.8238H79.6432C79.6432 3.09551 72.532 -12.3829 60.8097 -23.3738L6.09126 34.9863ZM-0.356851 19.8238C-0.356851 13.6107 2.2992 8.21681 6.09125 4.66137L60.8097 63.0214C72.5319 52.0306 79.6432 36.5522 79.6432 19.8238H-0.356851ZM6.09128 4.66135C9.79608 1.18773 14.3007 -0.352342 18.5 -0.352342V79.6477C33.9143 79.6477 49.1746 73.9304 60.8096 63.0214L6.09128 4.66135ZM58.5 39.6477V31.7181H-21.5V39.6477H58.5ZM18.5 71.7181C31.6713 71.7181 44.7805 66.8363 54.8295 57.4144L0.11108 -0.94567C5.40193 -5.90637 12.0577 -8.28187 18.5 -8.28187V71.7181ZM54.8295 57.4144C64.9657 47.9106 71.1859 34.4491 71.1859 19.8238H-8.81412C-8.81412 11.5077 -5.26704 4.09686 0.111066 -0.945658L54.8295 57.4144ZM71.1859 19.8239C71.1859 5.19855 64.9657 -8.26299 54.8295 -17.7667L0.111068 40.5933C-5.26704 35.5508 -8.81412 28.14 -8.81412 19.8238L71.1859 19.8239ZM54.8295 -17.7667C44.7827 -27.1866 31.6771 -32.0683 18.5089 -32.0705L18.4956 47.9295C12.0547 47.9285 5.40077 45.5529 0.11108 40.5933L54.8295 -17.7667ZM18.5022 -32.0705C18.5022 -32.0705 18.5022 -32.0705 18.5022 -32.0705C18.5022 -32.0705 18.5022 -32.0705 18.5022 -32.0705C18.5022 -32.0705 18.5022 -32.0705 18.5022 -32.0705C18.5022 -32.0705 18.5022 -32.0705 18.5022 -32.0705C18.5022 -32.0705 18.5022 -32.0705 18.5022 -32.0705C18.5022 -32.0705 18.5022 -32.0705 18.5022 -32.0705C18.5022 -32.0705 18.5022 -32.0705 18.5022 -32.0705C18.5022 -32.0705 18.5022 -32.0705 18.5022 -32.0705C18.5022 -32.0705 18.5022 -32.0705 18.5022 -32.0705C18.5022 -32.0705 18.5022 -32.0705 18.5022 -32.0705C18.5022 -32.0705 18.5022 -32.0705 18.5022 -32.0705C18.5022 -32.0705 18.5022 -32.0705 18.5022 -32.0705C18.5022 -32.0705 18.5022 -32.0705 18.5022 -32.0705C18.5022 -32.0705 18.5022 -32.0705 18.5022 -32.0705C18.5022 -32.0705 18.5022 -32.0705 18.5022 -32.0705C18.5022 -32.0705 18.5022 -32.0705 18.5022 -32.0705C18.5022 -32.0705 18.5022 -32.0705 18.5022 -32.0705C18.5022 -32.0705 18.5022 -32.0705 18.5022 -32.0705C18.5022 -32.0705 18.5022 -32.0705 18.5022 -32.0705C18.5022 -32.0705 18.5022 -32.0705 18.5022 -32.0705C18.5022 -32.0705 18.5021 -32.0705 18.5021 -32.0705C18.5021 -32.0705 18.5021 -32.0705 18.5021 -32.0705C18.5021 -32.0705 18.5021 -32.0705 18.5021 -32.0705C18.5021 -32.0705 18.5021 -32.0705 18.5021 -32.0705C18.5021 -32.0705 18.5021 -32.0705 18.5021 -32.0705C18.5021 -32.0705 18.5021 -32.0705 18.5021 -32.0705C18.5021 -32.0705 18.5021 -32.0705 18.5021 -32.0705C18.5021 -32.0705 18.5021 -32.0705 18.5021 -32.0705C18.5021 -32.0705 18.5021 -32.0705 18.5021 -32.0705C18.5021 -32.0705 18.5021 -32.0705 18.5021 -32.0705C18.5021 -32.0705 18.5021 -32.0705 18.5021 -32.0705C18.5021 -32.0705 18.5021 -32.0705 18.5021 -32.0705C18.5021 -32.0705 18.5021 -32.0705 18.5021 -32.0705C18.5021 -32.0705 18.5021 -32.0705 18.5021 -32.0705C18.5021 -32.0705 18.5021 -32.0705 18.5021 -32.0705C18.5021 -32.0705 18.5021 -32.0705 18.5021 -32.0705C18.5021 -32.0705 18.5021 -32.0705 18.5021 -32.0705C18.5021 -32.0705 18.5021 -32.0705 18.5021 -32.0705C18.5021 -32.0705 18.5021 -32.0705 18.5021 -32.0705C18.5021 -32.0705 18.5021 -32.0705 18.5021 -32.0705C18.5021 -32.0705 18.5021 -32.0705 18.5021 -32.0705C18.5021 -32.0705 18.5021 -32.0705 18.5021 -32.0705C18.5021 -32.0705 18.5021 -32.0705 18.5021 -32.0705C18.5021 -32.0705 18.502 -32.0705 18.502 -32.0705C18.502 -32.0705 18.502 -32.0705 18.502 -32.0705C18.502 -32.0705 18.502 -32.0705 18.502 -32.0705C18.502 -32.0705 18.502 -32.0705 18.502 -32.0705C18.502 -32.0705 18.502 -32.0705 18.502 -32.0705C18.502 -32.0705 18.502 -32.0705 18.502 -32.0705C18.502 -32.0705 18.502 -32.0705 18.502 -32.0705C18.502 -32.0705 18.502 -32.0705 18.502 -32.0705C18.502 -32.0705 18.502 -32.0705 18.502 -32.0705C18.502 -32.0705 18.502 -32.0705 18.502 -32.0705C18.502 -32.0705 18.502 -32.0705 18.502 -32.0705C18.502 -32.0705 18.502 -32.0705 18.502 -32.0705C18.502 -32.0705 18.502 -32.0705 18.502 -32.0705C18.502 -32.0705 18.502 -32.0705 18.502 -32.0705C18.502 -32.0705 18.502 -32.0705 18.502 -32.0705C18.502 -32.0705 18.502 -32.0705 18.502 -32.0705C18.502 -32.0705 18.502 -32.0705 18.502 -32.0705C18.502 -32.0705 18.502 -32.0705 18.502 -32.0705C18.502 -32.0705 18.502 -32.0705 18.502 -32.0705C18.502 -32.0705 18.502 -32.0705 18.502 -32.0705C18.502 -32.0705 18.502 -32.0705 18.502 -32.0705C18.502 -32.0705 18.502 -32.0705 18.502 -32.0705C18.502 -32.0705 18.502 -32.0705 18.502 -32.0705C18.5019 -32.0705 18.5019 -32.0705 18.5019 -32.0705C18.5019 -32.0705 18.5019 -32.0705 18.5019 -32.0705C18.5019 -32.0705 18.5019 -32.0705 18.5019 -32.0705C18.5019 -32.0705 18.5019 -32.0705 18.5019 -32.0705C18.5019 -32.0705 18.5019 -32.0705 18.5019 -32.0705C18.5019 -32.0705 18.5019 -32.0705 18.5019 -32.0705C18.5019 -32.0705 18.5019 -32.0705 18.5019 -32.0705C18.5019 -32.0705 18.5019 -32.0705 18.5019 -32.0705C18.5019 -32.0705 18.5019 -32.0705 18.5019 -32.0705C18.5019 -32.0705 18.5019 -32.0705 18.5019 -32.0705C18.5019 -32.0705 18.5019 -32.0705 18.5019 -32.0705C18.5019 -32.0705 18.5019 -32.0705 18.5019 -32.0705C18.5019 -32.0705 18.5019 -32.0705 18.5019 -32.0705C18.5019 -32.0705 18.5019 -32.0705 18.5019 -32.0705C18.5019 -32.0705 18.5019 -32.0705 18.5019 -32.0705C18.5019 -32.0705 18.5019 -32.0705 18.5019 -32.0705C18.5019 -32.0705 18.5019 -32.0705 18.5019 -32.0705C18.5019 -32.0705 18.5019 -32.0705 18.5019 -32.0705C18.5019 -32.0705 18.5019 -32.0705 18.5019 -32.0705C18.5019 -32.0705 18.5019 -32.0705 18.5019 -32.0705C18.5019 -32.0705 18.5019 -32.0705 18.5019 -32.0705C18.5019 -32.0705 18.5019 -32.0705 18.5019 -32.0705C18.5019 -32.0705 18.5019 -32.0705 18.5018 -32.0705C18.5018 -32.0705 18.5018 -32.0705 18.5018 -32.0705C18.5018 -32.0705 18.5018 -32.0705 18.5018 -32.0705C18.5018 -32.0705 18.5018 -32.0705 18.5018 -32.0705C18.5018 -32.0705 18.5018 -32.0705 18.5018 -32.0705C18.5018 -32.0705 18.5018 -32.0705 18.5018 -32.0705C18.5018 -32.0705 18.5018 -32.0705 18.5018 -32.0705C18.5018 -32.0705 18.5018 -32.0705 18.5018 -32.0705C18.5018 -32.0705 18.5018 -32.0705 18.5018 -32.0705C18.5018 -32.0705 18.5018 -32.0705 18.5018 -32.0705C18.5018 -32.0705 18.5018 -32.0705 18.5018 -32.0705C18.5018 -32.0705 18.5018 -32.0705 18.5018 -32.0705C18.5018 -32.0705 18.5018 -32.0705 18.5018 -32.0705C18.5018 -32.0705 18.5018 -32.0705 18.5018 -32.0705C18.5018 -32.0705 18.5018 -32.0705 18.5018 -32.0705C18.5018 -32.0705 18.5018 -32.0705 18.5018 -32.0705C18.5018 -32.0705 18.5018 -32.0705 18.5018 -32.0705C18.5018 -32.0705 18.5018 -32.0705 18.5018 -32.0705C18.5018 -32.0705 18.5018 -32.0705 18.5018 -32.0705C18.5018 -32.0705 18.5018 -32.0705 18.5018 -32.0705C18.5018 -32.0705 18.5018 -32.0705 18.5018 -32.0705C18.5018 -32.0705 18.5018 -32.0705 18.5018 -32.0705C18.5018 -32.0705 18.5018 -32.0705 18.5018 -32.0705C18.5018 -32.0705 18.5017 -32.0705 18.5017 -32.0705C18.5017 -32.0705 18.5017 -32.0705 18.5017 -32.0705C18.5017 -32.0705 18.5017 -32.0705 18.5017 -32.0705C18.5017 -32.0705 18.5017 -32.0705 18.5017 -32.0705C18.5017 -32.0705 18.5017 -32.0705 18.5017 -32.0705C18.5017 -32.0705 18.5017 -32.0705 18.5017 -32.0705C18.5017 -32.0705 18.5017 -32.0705 18.5017 -32.0705C18.5017 -32.0705 18.5017 -32.0705 18.5017 -32.0705C18.5017 -32.0705 18.5017 -32.0705 18.5017 -32.0705C18.5017 -32.0705 18.5017 -32.0705 18.5017 -32.0705C18.5017 -32.0705 18.5017 -32.0705 18.5017 -32.0705C18.5017 -32.0705 18.5017 -32.0705 18.5017 -32.0705C18.5017 -32.0705 18.5017 -32.0705 18.5017 -32.0705C18.5017 -32.0705 18.5017 -32.0705 18.5017 -32.0705C18.5017 -32.0705 18.5017 -32.0705 18.5017 -32.0705C18.5017 -32.0705 18.5017 -32.0705 18.5017 -32.0705C18.5017 -32.0705 18.5017 -32.0705 18.5017 -32.0705C18.5017 -32.0705 18.5017 -32.0705 18.5017 -32.0705C18.5017 -32.0705 18.5017 -32.0705 18.5017 -32.0705C18.5017 -32.0705 18.5017 -32.0705 18.5017 -32.0705C18.5017 -32.0705 18.5017 -32.0705 18.5017 -32.0705C18.5017 -32.0705 18.5017 -32.0705 18.5017 -32.0705C18.5017 -32.0705 18.5017 -32.0705 18.5017 -32.0705C18.5016 -32.0705 18.5016 -32.0705 18.5016 -32.0705C18.5016 -32.0705 18.5016 -32.0705 18.5016 -32.0705C18.5016 -32.0705 18.5016 -32.0705 18.5016 -32.0705C18.5016 -32.0705 18.5016 -32.0705 18.5016 -32.0705C18.5016 -32.0705 18.5016 -32.0705 18.5016 -32.0705C18.5016 -32.0705 18.5016 -32.0705 18.5016 -32.0705C18.5016 -32.0705 18.5016 -32.0705 18.5016 -32.0705C18.5016 -32.0705 18.5016 -32.0705 18.5016 -32.0705C18.5016 -32.0705 18.5016 -32.0705 18.5016 -32.0705C18.5016 -32.0705 18.5016 -32.0705 18.5016 -32.0705C18.5016 -32.0705 18.5016 -32.0705 18.5016 -32.0705C18.5016 -32.0705 18.5016 -32.0705 18.5016 -32.0705C18.5016 -32.0705 18.5016 -32.0705 18.5016 -32.0705C18.5016 -32.0705 18.5016 -32.0705 18.5016 -32.0705C18.5016 -32.0705 18.5016 -32.0705 18.5016 -32.0705C18.5016 -32.0705 18.5016 -32.0705 18.5016 -32.0705C18.5016 -32.0705 18.5016 -32.0705 18.5016 -32.0705C18.5016 -32.0705 18.5016 -32.0705 18.5016 -32.0705C18.5016 -32.0705 18.5016 -32.0705 18.5016 -32.0705C18.5016 -32.0705 18.5016 -32.0705 18.5016 -32.0705C18.5016 -32.0705 18.5016 -32.0705 18.5016 -32.0705C18.5016 -32.0705 18.5016 -32.0705 18.5016 -32.0705C18.5016 -32.0705 18.5016 -32.0705 18.5016 -32.0705C18.5015 -32.0705 18.5015 -32.0705 18.5015 -32.0705C18.5015 -32.0705 18.5015 -32.0705 18.5015 -32.0705C18.5015 -32.0705 18.5015 -32.0705 18.5015 -32.0705C18.5015 -32.0705 18.5015 -32.0705 18.5015 -32.0705C18.5015 -32.0705 18.5015 -32.0705 18.5015 -32.0705C18.5015 -32.0705 18.5015 -32.0705 18.5015 -32.0705C18.5015 -32.0705 18.5015 -32.0705 18.5015 -32.0705C18.5015 -32.0705 18.5015 -32.0705 18.5015 -32.0705C18.5015 -32.0705 18.5015 -32.0705 18.5015 -32.0705C18.5015 -32.0705 18.5015 -32.0705 18.5015 -32.0705C18.5015 -32.0705 18.5015 -32.0705 18.5015 -32.0705C18.5015 -32.0705 18.5015 -32.0705 18.5015 -32.0705C18.5015 -32.0705 18.5015 -32.0705 18.5015 -32.0705C18.5015 -32.0705 18.5015 -32.0705 18.5015 -32.0705C18.5015 -32.0705 18.5015 -32.0705 18.5015 -32.0705C18.5015 -32.0705 18.5015 -32.0705 18.5015 -32.0705C18.5015 -32.0705 18.5015 -32.0705 18.5015 -32.0705C18.5015 -32.0705 18.5015 -32.0705 18.5015 -32.0705C18.5015 -32.0705 18.5015 -32.0705 18.5015 -32.0705C18.5015 -32.0705 18.5015 -32.0705 18.5015 -32.0705C18.5015 -32.0705 18.5015 -32.0705 18.5015 -32.0705C18.5015 -32.0705 18.5015 -32.0705 18.5015 -32.0705C18.5015 -32.0705 18.5014 -32.0705 18.5014 -32.0705C18.5014 -32.0705 18.5014 -32.0705 18.5014 -32.0705C18.5014 -32.0705 18.5014 -32.0705 18.5014 -32.0705C18.5014 -32.0705 18.5014 -32.0705 18.5014 -32.0705C18.5014 -32.0705 18.5014 -32.0705 18.5014 -32.0705C18.5014 -32.0705 18.5014 -32.0705 18.5014 -32.0705C18.5014 -32.0705 18.5014 -32.0705 18.5014 -32.0705C18.5014 -32.0705 18.5014 -32.0705 18.5014 -32.0705C18.5014 -32.0705 18.5014 -32.0705 18.5014 -32.0705C18.5014 -32.0705 18.5014 -32.0705 18.5014 -32.0705C18.5014 -32.0705 18.5014 -32.0705 18.5014 -32.0705C18.5014 -32.0705 18.5014 -32.0705 18.5014 -32.0705C18.5014 -32.0705 18.5014 -32.0705 18.5014 -32.0705C18.5014 -32.0705 18.5014 -32.0705 18.5014 -32.0705C18.5014 -32.0705 18.5014 -32.0705 18.5014 -32.0705C18.5014 -32.0705 18.5014 -32.0705 18.5014 -32.0705C18.5014 -32.0705 18.5014 -32.0705 18.5014 -32.0705C18.5014 -32.0705 18.5014 -32.0705 18.5014 -32.0705C18.5014 -32.0705 18.5014 -32.0705 18.5014 -32.0705C18.5014 -32.0705 18.5014 -32.0705 18.5014 -32.0705C18.5014 -32.0705 18.5014 -32.0705 18.5014 -32.0705C18.5014 -32.0705 18.5014 -32.0705 18.5014 -32.0705C18.5014 -32.0705 18.5014 -32.0705 18.5014 -32.0705C18.5014 -32.0705 18.5013 -32.0705 18.5013 -32.0705C18.5013 -32.0705 18.5013 -32.0705 18.5013 -32.0705C18.5013 -32.0705 18.5013 -32.0705 18.5013 -32.0705C18.5013 -32.0705 18.5013 -32.0705 18.5013 -32.0705C18.5013 -32.0705 18.5013 -32.0705 18.5013 -32.0705C18.5013 -32.0705 18.5013 -32.0705 18.5013 -32.0705C18.5013 -32.0705 18.5013 -32.0705 18.5013 -32.0705C18.5013 -32.0705 18.5013 -32.0705 18.5013 -32.0705C18.5013 -32.0705 18.5013 -32.0705 18.5013 -32.0705C18.5013 -32.0705 18.5013 -32.0705 18.5013 -32.0705C18.5013 -32.0705 18.5013 -32.0705 18.5013 -32.0705C18.5013 -32.0705 18.5013 -32.0705 18.5013 -32.0705C18.5013 -32.0705 18.5013 -32.0705 18.5013 -32.0705C18.5013 -32.0705 18.5013 -32.0705 18.5013 -32.0705C18.5013 -32.0705 18.5013 -32.0705 18.5013 -32.0705C18.5013 -32.0705 18.5013 -32.0705 18.5013 -32.0705C18.5013 -32.0705 18.5013 -32.0705 18.5013 -32.0705C18.5013 -32.0705 18.5013 -32.0705 18.5013 -32.0705C18.5013 -32.0705 18.5013 -32.0705 18.5013 -32.0705C18.5013 -32.0705 18.5013 -32.0705 18.5013 -32.0705C18.5013 -32.0705 18.5013 -32.0705 18.5013 -32.0705C18.5013 -32.0705 18.5013 -32.0705 18.5013 -32.0705C18.5013 -32.0705 18.5013 -32.0705 18.5013 -32.0705C18.5012 -32.0705 18.5012 -32.0705 18.5012 -32.0705C18.5012 -32.0705 18.5012 -32.0705 18.5012 -32.0705C18.5012 -32.0705 18.5012 -32.0705 18.5012 -32.0705C18.5012 -32.0705 18.5012 -32.0705 18.5012 -32.0705C18.5012 -32.0705 18.5012 -32.0705 18.5012 -32.0705C18.5012 -32.0705 18.5012 -32.0705 18.5012 -32.0705C18.5012 -32.0705 18.5012 -32.0705 18.5012 -32.0705C18.5012 -32.0705 18.5012 -32.0705 18.5012 -32.0705C18.5012 -32.0705 18.5012 -32.0705 18.5012 -32.0705C18.5012 -32.0705 18.5012 -32.0705 18.5012 -32.0705C18.5012 -32.0705 18.5012 -32.0705 18.5012 -32.0705C18.5012 -32.0705 18.5012 -32.0705 18.5012 -32.0705C18.5012 -32.0705 18.5012 -32.0705 18.5012 -32.0705C18.5012 -32.0705 18.5012 -32.0705 18.5012 -32.0705C18.5012 -32.0705 18.5012 -32.0705 18.5012 -32.0705C18.5012 -32.0705 18.5012 -32.0705 18.5012 -32.0705C18.5012 -32.0705 18.5012 -32.0705 18.5012 -32.0705C18.5012 -32.0705 18.5012 -32.0705 18.5012 -32.0705C18.5012 -32.0705 18.5012 -32.0705 18.5012 -32.0705C18.5012 -32.0705 18.5012 -32.0705 18.5012 -32.0705C18.5012 -32.0705 18.5012 -32.0705 18.5012 -32.0705C18.5012 -32.0705 18.5012 -32.0705 18.5012 -32.0705C18.5012 -32.0705 18.5012 -32.0705 18.5012 -32.0705C18.5011 -32.0705 18.5011 -32.0705 18.5011 -32.0705C18.5011 -32.0705 18.5011 -32.0705 18.5011 -32.0705C18.5011 -32.0705 18.5011 -32.0705 18.5011 -32.0705C18.5011 -32.0705 18.5011 -32.0705 18.5011 -32.0705C18.5011 -32.0705 18.5011 -32.0705 18.5011 -32.0705C18.5011 -32.0705 18.5011 -32.0705 18.5011 -32.0705C18.5011 -32.0705 18.5011 -32.0705 18.5011 -32.0705C18.5011 -32.0705 18.5011 -32.0705 18.5011 -32.0705C18.5011 -32.0705 18.5011 -32.0705 18.5011 -32.0705C18.5011 -32.0705 18.5011 -32.0705 18.5011 -32.0705C18.5011 -32.0705 18.5011 -32.0705 18.5011 -32.0705C18.5011 -32.0705 18.5011 -32.0705 18.5011 -32.0705C18.5011 -32.0705 18.5011 -32.0705 18.5011 -32.0705C18.5011 -32.0705 18.5011 -32.0705 18.5011 -32.0705C18.5011 -32.0705 18.5011 -32.0705 18.5011 -32.0705C18.5011 -32.0705 18.5011 -32.0705 18.5011 -32.0705C18.5011 -32.0705 18.5011 -32.0705 18.5011 -32.0705C18.5011 -32.0705 18.5011 -32.0705 18.5011 -32.0705C18.5011 -32.0705 18.5011 -32.0705 18.5011 -32.0705C18.5011 -32.0705 18.5011 -32.0705 18.5011 -32.0705C18.5011 -32.0705 18.5011 -32.0705 18.5011 -32.0705C18.5011 -32.0705 18.5011 -32.0705 18.5011 -32.0705C18.5011 -32.0705 18.501 -32.0705 18.501 -32.0705C18.501 -32.0705 18.501 -32.0705 18.501 -32.0705C18.501 -32.0705 18.501 -32.0705 18.501 -32.0705C18.501 -32.0705 18.501 -32.0705 18.501 -32.0705C18.501 -32.0705 18.501 -32.0705 18.501 -32.0705C18.501 -32.0705 18.501 -32.0705 18.501 -32.0705C18.501 -32.0705 18.501 -32.0705 18.501 -32.0705C18.501 -32.0705 18.501 -32.0705 18.501 -32.0705C18.501 -32.0705 18.501 -32.0705 18.501 -32.0705C18.501 -32.0705 18.501 -32.0705 18.501 -32.0705C18.501 -32.0705 18.501 -32.0705 18.501 -32.0705C18.501 -32.0705 18.501 -32.0705 18.501 -32.0705C18.501 -32.0705 18.501 -32.0705 18.501 -32.0705C18.501 -32.0705 18.501 -32.0705 18.501 -32.0705C18.501 -32.0705 18.501 -32.0705 18.501 -32.0705C18.501 -32.0705 18.501 -32.0705 18.501 -32.0705C18.501 -32.0705 18.501 -32.0705 18.501 -32.0705C18.501 -32.0705 18.501 -32.0705 18.501 -32.0705C18.501 -32.0705 18.501 -32.0705 18.501 -32.0705C18.501 -32.0705 18.501 -32.0705 18.501 -32.0705C18.501 -32.0705 18.501 -32.0705 18.501 -32.0705C18.501 -32.0705 18.501 -32.0705 18.501 -32.0705C18.501 -32.0705 18.501 -32.0705 18.501 -32.0705C18.5009 -32.0705 18.5009 -32.0705 18.5009 -32.0705C18.5009 -32.0705 18.5009 -32.0705 18.5009 -32.0705C18.5009 -32.0705 18.5009 -32.0705 18.5009 -32.0705C18.5009 -32.0705 18.5009 -32.0705 18.5009 -32.0705C18.5009 -32.0705 18.5009 -32.0705 18.5009 -32.0705C18.5009 -32.0705 18.5009 -32.0705 18.5009 -32.0705C18.5009 -32.0705 18.5009 -32.0705 18.5009 -32.0705C18.5009 -32.0705 18.5009 -32.0705 18.5009 -32.0705C18.5009 -32.0705 18.5009 -32.0705 18.5009 -32.0705C18.5009 -32.0705 18.5009 -32.0705 18.5009 -32.0705C18.5009 -32.0705 18.5009 -32.0705 18.5009 -32.0705C18.5009 -32.0705 18.5009 -32.0705 18.5009 -32.0705C18.5009 -32.0705 18.5009 -32.0705 18.5009 -32.0705C18.5009 -32.0705 18.5009 -32.0705 18.5009 -32.0705C18.5009 -32.0705 18.5009 -32.0705 18.5009 -32.0705C18.5009 -32.0705 18.5009 -32.0705 18.5009 -32.0705C18.5009 -32.0705 18.5009 -32.0705 18.5009 -32.0705C18.5009 -32.0705 18.5009 -32.0705 18.5009 -32.0705C18.5009 -32.0705 18.5009 -32.0705 18.5009 -32.0705C18.5009 -32.0705 18.5009 -32.0705 18.5009 -32.0705C18.5009 -32.0705 18.5009 -32.0705 18.5009 -32.0705C18.5009 -32.0705 18.5009 -32.0705 18.5009 -32.0705C18.5009 -32.0705 18.5009 -32.0705 18.5009 -32.0705C18.5008 -32.0705 18.5008 -32.0705 18.5008 -32.0705C18.5008 -32.0705 18.5008 -32.0705 18.5008 -32.0705C18.5008 -32.0705 18.5008 -32.0705 18.5008 -32.0705C18.5008 -32.0705 18.5008 -32.0705 18.5008 -32.0705C18.5008 -32.0705 18.5008 -32.0705 18.5008 -32.0705C18.5008 -32.0705 18.5008 -32.0705 18.5008 -32.0705C18.5008 -32.0705 18.5008 -32.0705 18.5008 -32.0705C18.5008 -32.0705 18.5008 -32.0705 18.5008 -32.0705C18.5008 -32.0705 18.5008 -32.0705 18.5008 -32.0705C18.5008 -32.0705 18.5008 -32.0705 18.5008 -32.0705C18.5008 -32.0705 18.5008 -32.0705 18.5008 -32.0705C18.5008 -32.0705 18.5008 -32.0705 18.5008 -32.0705C18.5008 -32.0705 18.5008 -32.0705 18.5008 -32.0705C18.5008 -32.0705 18.5008 -32.0705 18.5008 -32.0705C18.5008 -32.0705 18.5008 -32.0705 18.5008 -32.0705C18.5008 -32.0705 18.5008 -32.0705 18.5008 -32.0705C18.5008 -32.0705 18.5008 -32.0705 18.5008 -32.0705C18.5008 -32.0705 18.5008 -32.0705 18.5008 -32.0705C18.5008 -32.0705 18.5008 -32.0705 18.5008 -32.0705C18.5008 -32.0705 18.5008 -32.0705 18.5008 -32.0705C18.5008 -32.0705 18.5008 -32.0705 18.5008 -32.0705C18.5008 -32.0705 18.5008 -32.0705 18.5008 -32.0705C18.5008 -32.0705 18.5007 -32.0705 18.5007 -32.0705C18.5007 -32.0705 18.5007 -32.0705 18.5007 -32.0705C18.5007 -32.0705 18.5007 -32.0705 18.5007 -32.0705C18.5007 -32.0705 18.5007 -32.0705 18.5007 -32.0705C18.5007 -32.0705 18.5007 -32.0705 18.5007 -32.0705C18.5007 -32.0705 18.5007 -32.0705 18.5007 -32.0705C18.5007 -32.0705 18.5007 -32.0705 18.5007 -32.0705C18.5007 -32.0705 18.5007 -32.0705 18.5007 -32.0705C18.5007 -32.0705 18.5007 -32.0705 18.5007 -32.0705C18.5007 -32.0705 18.5007 -32.0705 18.5007 -32.0705C18.5007 -32.0705 18.5007 -32.0705 18.5007 -32.0705C18.5007 -32.0705 18.5007 -32.0705 18.5007 -32.0705C18.5007 -32.0705 18.5007 -32.0705 18.5007 -32.0705C18.5007 -32.0705 18.5007 -32.0705 18.5007 -32.0705C18.5007 -32.0705 18.5007 -32.0705 18.5007 -32.0705C18.5007 -32.0705 18.5007 -32.0705 18.5007 -32.0705C18.5007 -32.0705 18.5007 -32.0705 18.5007 -32.0705C18.5007 -32.0705 18.5007 -32.0705 18.5007 -32.0705C18.5007 -32.0705 18.5007 -32.0705 18.5007 -32.0705C18.5007 -32.0705 18.5007 -32.0705 18.5007 -32.0705C18.5007 -32.0705 18.5007 -32.0705 18.5007 -32.0705C18.5007 -32.0705 18.5007 -32.0705 18.5007 -32.0705C18.5007 -32.0705 18.5007 -32.0705 18.5007 -32.0705C18.5007 -32.0705 18.5006 -32.0705 18.5006 -32.0705C18.5006 -32.0705 18.5006 -32.0705 18.5006 -32.0705C18.5006 -32.0705 18.5006 -32.0705 18.5006 -32.0705C18.5006 -32.0705 18.5006 -32.0705 18.5006 -32.0705C18.5006 -32.0705 18.5006 -32.0705 18.5006 -32.0705C18.5006 -32.0705 18.5006 -32.0705 18.5006 -32.0705C18.5006 -32.0705 18.5006 -32.0705 18.5006 -32.0705C18.5006 -32.0705 18.5006 -32.0705 18.5006 -32.0705C18.5006 -32.0705 18.5006 -32.0705 18.5006 -32.0705C18.5006 -32.0705 18.5006 -32.0705 18.5006 -32.0705C18.5006 -32.0705 18.5006 -32.0705 18.5006 -32.0705C18.5006 -32.0705 18.5006 -32.0705 18.5006 -32.0705C18.5006 -32.0705 18.5006 -32.0705 18.5006 -32.0705C18.5006 -32.0705 18.5006 -32.0705 18.5006 -32.0705C18.5006 -32.0705 18.5006 -32.0705 18.5006 -32.0705C18.5006 -32.0705 18.5006 -32.0705 18.5006 -32.0705C18.5006 -32.0705 18.5006 -32.0705 18.5006 -32.0705C18.5006 -32.0705 18.5006 -32.0705 18.5006 -32.0705C18.5006 -32.0705 18.5006 -32.0705 18.5006 -32.0705C18.5006 -32.0705 18.5006 -32.0705 18.5006 -32.0705C18.5006 -32.0705 18.5006 -32.0705 18.5006 -32.0705C18.5006 -32.0705 18.5006 -32.0705 18.5006 -32.0705C18.5006 -32.0705 18.5006 -32.0705 18.5006 -32.0705C18.5005 -32.0705 18.5005 -32.0705 18.5005 -32.0705C18.5005 -32.0705 18.5005 -32.0705 18.5005 -32.0705C18.5005 -32.0705 18.5005 -32.0705 18.5005 -32.0705C18.5005 -32.0705 18.5005 -32.0705 18.5005 -32.0705C18.5005 -32.0705 18.5005 -32.0705 18.5005 -32.0705C18.5005 -32.0705 18.5005 -32.0705 18.5005 -32.0705C18.5005 -32.0705 18.5005 -32.0705 18.5005 -32.0705C18.5005 -32.0705 18.5005 -32.0705 18.5005 -32.0705C18.5005 -32.0705 18.5005 -32.0705 18.5005 -32.0705C18.5005 -32.0705 18.5005 -32.0705 18.5005 -32.0705C18.5005 -32.0705 18.5005 -32.0705 18.5005 -32.0705C18.5005 -32.0705 18.5005 -32.0705 18.5005 -32.0705C18.5005 -32.0705 18.5005 -32.0705 18.5005 -32.0705C18.5005 -32.0705 18.5005 -32.0705 18.5005 -32.0705C18.5005 -32.0705 18.5005 -32.0705 18.5005 -32.0705C18.5005 -32.0705 18.5005 -32.0705 18.5005 -32.0705C18.5005 -32.0705 18.5005 -32.0705 18.5005 -32.0705C18.5005 -32.0705 18.5005 -32.0705 18.5005 -32.0705C18.5005 -32.0705 18.5005 -32.0705 18.5005 -32.0705C18.5005 -32.0705 18.5005 -32.0705 18.5005 -32.0705C18.5005 -32.0705 18.5005 -32.0705 18.5005 -32.0705C18.5005 -32.0705 18.5005 -32.0705 18.5005 -32.0705C18.5005 -32.0705 18.5005 -32.0705 18.5005 -32.0705C18.5004 -32.0705 18.5004 -32.0705 18.5004 -32.0705C18.5004 -32.0705 18.5004 -32.0705 18.5004 -32.0705C18.5004 -32.0705 18.5004 -32.0705 18.5004 -32.0705C18.5004 -32.0705 18.5004 -32.0705 18.5004 -32.0705C18.5004 -32.0705 18.5004 -32.0705 18.5004 -32.0705C18.5004 -32.0705 18.5004 -32.0705 18.5004 -32.0705C18.5004 -32.0705 18.5004 -32.0705 18.5004 -32.0705C18.5004 -32.0705 18.5004 -32.0705 18.5004 -32.0705C18.5004 -32.0705 18.5004 -32.0705 18.5004 -32.0705C18.5004 -32.0705 18.5004 -32.0705 18.5004 -32.0705C18.5004 -32.0705 18.5004 -32.0705 18.5004 -32.0705C18.5004 -32.0705 18.5004 -32.0705 18.5004 -32.0705C18.5004 -32.0705 18.5004 -32.0705 18.5004 -32.0705C18.5004 -32.0705 18.5004 -32.0705 18.5004 -32.0705C18.5004 -32.0705 18.5004 -32.0705 18.5004 -32.0705C18.5004 -32.0705 18.5004 -32.0705 18.5004 -32.0705C18.5004 -32.0705 18.5004 -32.0705 18.5004 -32.0705C18.5004 -32.0705 18.5004 -32.0705 18.5004 -32.0705C18.5004 -32.0705 18.5004 -32.0705 18.5004 -32.0705C18.5004 -32.0705 18.5004 -32.0705 18.5004 -32.0705C18.5004 -32.0705 18.5004 -32.0705 18.5004 -32.0705C18.5004 -32.0705 18.5004 -32.0705 18.5004 -32.0705C18.5004 -32.0705 18.5003 -32.0705 18.5003 -32.0705C18.5003 -32.0705 18.5003 -32.0705 18.5003 -32.0705C18.5003 -32.0705 18.5003 -32.0705 18.5003 -32.0705C18.5003 -32.0705 18.5003 -32.0705 18.5003 -32.0705C18.5003 -32.0705 18.5003 -32.0705 18.5003 -32.0705C18.5003 -32.0705 18.5003 -32.0705 18.5003 -32.0705C18.5003 -32.0705 18.5003 -32.0705 18.5003 -32.0705C18.5003 -32.0705 18.5003 -32.0705 18.5003 -32.0705C18.5003 -32.0705 18.5003 -32.0705 18.5003 -32.0705C18.5003 -32.0705 18.5003 -32.0705 18.5003 -32.0705C18.5003 -32.0705 18.5003 -32.0705 18.5003 -32.0705C18.5003 -32.0705 18.5003 -32.0705 18.5003 -32.0705C18.5003 -32.0705 18.5003 -32.0705 18.5003 -32.0705C18.5003 -32.0705 18.5003 -32.0705 18.5003 -32.0705C18.5003 -32.0705 18.5003 -32.0705 18.5003 -32.0705C18.5003 -32.0705 18.5003 -32.0705 18.5003 -32.0705C18.5003 -32.0705 18.5003 -32.0705 18.5003 -32.0705C18.5003 -32.0705 18.5003 -32.0705 18.5003 -32.0705C18.5003 -32.0705 18.5003 -32.0705 18.5003 -32.0705C18.5003 -32.0705 18.5003 -32.0705 18.5003 -32.0705C18.5003 -32.0705 18.5003 -32.0705 18.5003 -32.0705C18.5003 -32.0705 18.5003 -32.0705 18.5003 -32.0705C18.5003 -32.0705 18.5003 -32.0705 18.5003 -32.0705C18.5002 -32.0705 18.5002 -32.0705 18.5002 -32.0705C18.5002 -32.0705 18.5002 -32.0705 18.5002 -32.0705C18.5002 -32.0705 18.5002 -32.0705 18.5002 -32.0705C18.5002 -32.0705 18.5002 -32.0705 18.5002 -32.0705C18.5002 -32.0705 18.5002 -32.0705 18.5002 -32.0705C18.5002 -32.0705 18.5002 -32.0705 18.5002 -32.0705C18.5002 -32.0705 18.5002 -32.0705 18.5002 -32.0705C18.5002 -32.0705 18.5002 -32.0705 18.5002 -32.0705C18.5002 -32.0705 18.5002 -32.0705 18.5002 -32.0705C18.5002 -32.0705 18.5002 -32.0705 18.5002 -32.0705C18.5002 -32.0705 18.5002 -32.0705 18.5002 -32.0705C18.5002 -32.0705 18.5002 -32.0705 18.5002 -32.0705C18.5002 -32.0705 18.5002 -32.0705 18.5002 -32.0705C18.5002 -32.0705 18.5002 -32.0705 18.5002 -32.0705C18.5002 -32.0705 18.5002 -32.0705 18.5002 -32.0705C18.5002 -32.0705 18.5002 -32.0705 18.5002 -32.0705C18.5002 -32.0705 18.5002 -32.0705 18.5002 -32.0705C18.5002 -32.0705 18.5002 -32.0705 18.5002 -32.0705C18.5002 -32.0705 18.5002 -32.0705 18.5002 -32.0705C18.5002 -32.0705 18.5002 -32.0705 18.5002 -32.0705C18.5002 -32.0705 18.5002 -32.0705 18.5002 -32.0705C18.5002 -32.0705 18.5002 -32.0705 18.5002 -32.0705C18.5002 -32.0705 18.5002 -32.0705 18.5002 -32.0705C18.5001 -32.0705 18.5001 -32.0705 18.5001 -32.0705C18.5001 -32.0705 18.5001 -32.0705 18.5001 -32.0705C18.5001 -32.0705 18.5001 -32.0705 18.5001 -32.0705C18.5001 -32.0705 18.5001 -32.0705 18.5001 -32.0705C18.5001 -32.0705 18.5001 -32.0705 18.5001 -32.0705C18.5001 -32.0705 18.5001 -32.0705 18.5001 -32.0705C18.5001 -32.0705 18.5001 -32.0705 18.5001 -32.0705C18.5001 -32.0705 18.5001 -32.0705 18.5001 -32.0705C18.5001 -32.0705 18.5001 -32.0705 18.5001 -32.0705C18.5001 -32.0705 18.5001 -32.0705 18.5001 -32.0705C18.5001 -32.0705 18.5001 -32.0705 18.5001 -32.0705C18.5001 -32.0705 18.5001 -32.0705 18.5001 -32.0705C18.5001 -32.0705 18.5001 -32.0705 18.5001 -32.0705C18.5001 -32.0705 18.5001 -32.0705 18.5001 -32.0705C18.5001 -32.0705 18.5001 -32.0705 18.5001 -32.0705C18.5001 -32.0705 18.5001 -32.0705 18.5001 -32.0705C18.5001 -32.0705 18.5001 -32.0705 18.5001 -32.0705C18.5001 -32.0705 18.5001 -32.0705 18.5001 -32.0705C18.5001 -32.0705 18.5001 -32.0705 18.5001 -32.0705C18.5001 -32.0705 18.5001 -32.0705 18.5001 -32.0705C18.5001 -32.0705 18.5001 -32.0705 18.5001 -32.0705C18.5001 -32.0705 18.5001 -32.0705 18.5001 -32.0705C18.5001 -32.0705 18.5001 -32.0705 18.5 -32.0705C18.5 -32.0705 18.5 -32.0705 18.5 -32.0705C18.5 -32.0705 18.5 -32.0705 18.5 -32.0705C18.5 -32.0705 18.5 -32.0705 18.5 -32.0705C18.5 -32.0705 18.5 -32.0705 18.5 -32.0705C18.5 -32.0705 18.5 -32.0705 18.5 -32.0705C18.5 -32.0705 18.5 -32.0705 18.5 -32.0705C18.5 -32.0705 18.5 -32.0705 18.5 -32.0705C18.5 -32.0705 18.5 -32.0705 18.5 -32.0705C18.5 -32.0705 18.5 -32.0705 18.5 -32.0705C18.5 -32.0705 18.5 -32.0705 18.5 -32.0705C18.5 -32.0705 18.5 -32.0705 18.5 -32.0705C18.5 -32.0705 18.5 -32.0705 18.5 -32.0705C18.5 -32.0705 18.5 -32.0705 18.5 -32.0705C18.5 -32.0705 18.5 -32.0705 18.5 -32.0705V47.9295C18.5 47.9295 18.5 47.9295 18.5 47.9295C18.5 47.9295 18.5 47.9295 18.5 47.9295C18.5 47.9295 18.5 47.9295 18.5 47.9295C18.5 47.9295 18.5 47.9295 18.5 47.9295C18.5 47.9295 18.5 47.9295 18.5 47.9295C18.5 47.9295 18.5 47.9295 18.5 47.9295C18.5 47.9295 18.5 47.9295 18.5 47.9295C18.5 47.9295 18.5 47.9295 18.5 47.9295C18.5 47.9295 18.5 47.9295 18.5 47.9295C18.5 47.9295 18.5 47.9295 18.5 47.9295C18.5 47.9295 18.5 47.9295 18.5 47.9295C18.5 47.9295 18.5 47.9295 18.5 47.9295C18.5 47.9295 18.5 47.9295 18.5 47.9295C18.5 47.9295 18.5 47.9295 18.5 47.9295C18.5001 47.9295 18.5001 47.9295 18.5001 47.9295C18.5001 47.9295 18.5001 47.9295 18.5001 47.9295C18.5001 47.9295 18.5001 47.9295 18.5001 47.9295C18.5001 47.9295 18.5001 47.9295 18.5001 47.9295C18.5001 47.9295 18.5001 47.9295 18.5001 47.9295C18.5001 47.9295 18.5001 47.9295 18.5001 47.9295C18.5001 47.9295 18.5001 47.9295 18.5001 47.9295C18.5001 47.9295 18.5001 47.9295 18.5001 47.9295C18.5001 47.9295 18.5001 47.9295 18.5001 47.9295C18.5001 47.9295 18.5001 47.9295 18.5001 47.9295C18.5001 47.9295 18.5001 47.9295 18.5001 47.9295C18.5001 47.9295 18.5001 47.9295 18.5001 47.9295C18.5001 47.9295 18.5001 47.9295 18.5001 47.9295C18.5001 47.9295 18.5001 47.9295 18.5001 47.9295C18.5001 47.9295 18.5001 47.9295 18.5001 47.9295C18.5001 47.9295 18.5001 47.9295 18.5001 47.9295C18.5001 47.9295 18.5001 47.9295 18.5001 47.9295C18.5001 47.9295 18.5001 47.9295 18.5001 47.9295C18.5001 47.9295 18.5001 47.9295 18.5001 47.9295C18.5001 47.9295 18.5001 47.9295 18.5001 47.9295C18.5001 47.9295 18.5001 47.9295 18.5001 47.9295C18.5001 47.9295 18.5001 47.9295 18.5001 47.9295C18.5001 47.9295 18.5001 47.9295 18.5002 47.9295C18.5002 47.9295 18.5002 47.9295 18.5002 47.9295C18.5002 47.9295 18.5002 47.9295 18.5002 47.9295C18.5002 47.9295 18.5002 47.9295 18.5002 47.9295C18.5002 47.9295 18.5002 47.9295 18.5002 47.9295C18.5002 47.9295 18.5002 47.9295 18.5002 47.9295C18.5002 47.9295 18.5002 47.9295 18.5002 47.9295C18.5002 47.9295 18.5002 47.9295 18.5002 47.9295C18.5002 47.9295 18.5002 47.9295 18.5002 47.9295C18.5002 47.9295 18.5002 47.9295 18.5002 47.9295C18.5002 47.9295 18.5002 47.9295 18.5002 47.9295C18.5002 47.9295 18.5002 47.9295 18.5002 47.9295C18.5002 47.9295 18.5002 47.9295 18.5002 47.9295C18.5002 47.9295 18.5002 47.9295 18.5002 47.9295C18.5002 47.9295 18.5002 47.9295 18.5002 47.9295C18.5002 47.9295 18.5002 47.9295 18.5002 47.9295C18.5002 47.9295 18.5002 47.9295 18.5002 47.9295C18.5002 47.9295 18.5002 47.9295 18.5002 47.9295C18.5002 47.9295 18.5002 47.9295 18.5002 47.9295C18.5002 47.9295 18.5002 47.9295 18.5002 47.9295C18.5002 47.9295 18.5002 47.9295 18.5002 47.9295C18.5002 47.9295 18.5002 47.9295 18.5002 47.9295C18.5002 47.9295 18.5002 47.9295 18.5002 47.9295C18.5002 47.9295 18.5002 47.9295 18.5003 47.9295C18.5003 47.9295 18.5003 47.9295 18.5003 47.9295C18.5003 47.9295 18.5003 47.9295 18.5003 47.9295C18.5003 47.9295 18.5003 47.9295 18.5003 47.9295C18.5003 47.9295 18.5003 47.9295 18.5003 47.9295C18.5003 47.9295 18.5003 47.9295 18.5003 47.9295C18.5003 47.9295 18.5003 47.9295 18.5003 47.9295C18.5003 47.9295 18.5003 47.9295 18.5003 47.9295C18.5003 47.9295 18.5003 47.9295 18.5003 47.9295C18.5003 47.9295 18.5003 47.9295 18.5003 47.9295C18.5003 47.9295 18.5003 47.9295 18.5003 47.9295C18.5003 47.9295 18.5003 47.9295 18.5003 47.9295C18.5003 47.9295 18.5003 47.9295 18.5003 47.9295C18.5003 47.9295 18.5003 47.9295 18.5003 47.9295C18.5003 47.9295 18.5003 47.9295 18.5003 47.9295C18.5003 47.9295 18.5003 47.9295 18.5003 47.9295C18.5003 47.9295 18.5003 47.9295 18.5003 47.9295C18.5003 47.9295 18.5003 47.9295 18.5003 47.9295C18.5003 47.9295 18.5003 47.9295 18.5003 47.9295C18.5003 47.9295 18.5003 47.9295 18.5003 47.9295C18.5003 47.9295 18.5003 47.9295 18.5003 47.9295C18.5003 47.9295 18.5003 47.9295 18.5003 47.9295C18.5003 47.9295 18.5003 47.9295 18.5003 47.9295C18.5003 47.9295 18.5004 47.9295 18.5004 47.9295C18.5004 47.9295 18.5004 47.9295 18.5004 47.9295C18.5004 47.9295 18.5004 47.9295 18.5004 47.9295C18.5004 47.9295 18.5004 47.9295 18.5004 47.9295C18.5004 47.9295 18.5004 47.9295 18.5004 47.9295C18.5004 47.9295 18.5004 47.9295 18.5004 47.9295C18.5004 47.9295 18.5004 47.9295 18.5004 47.9295C18.5004 47.9295 18.5004 47.9295 18.5004 47.9295C18.5004 47.9295 18.5004 47.9295 18.5004 47.9295C18.5004 47.9295 18.5004 47.9295 18.5004 47.9295C18.5004 47.9295 18.5004 47.9295 18.5004 47.9295C18.5004 47.9295 18.5004 47.9295 18.5004 47.9295C18.5004 47.9295 18.5004 47.9295 18.5004 47.9295C18.5004 47.9295 18.5004 47.9295 18.5004 47.9295C18.5004 47.9295 18.5004 47.9295 18.5004 47.9295C18.5004 47.9295 18.5004 47.9295 18.5004 47.9295C18.5004 47.9295 18.5004 47.9295 18.5004 47.9295C18.5004 47.9295 18.5004 47.9295 18.5004 47.9295C18.5004 47.9295 18.5004 47.9295 18.5004 47.9295C18.5004 47.9295 18.5004 47.9295 18.5004 47.9295C18.5004 47.9295 18.5004 47.9295 18.5004 47.9295C18.5004 47.9295 18.5004 47.9295 18.5004 47.9295C18.5004 47.9295 18.5004 47.9295 18.5005 47.9295C18.5005 47.9295 18.5005 47.9295 18.5005 47.9295C18.5005 47.9295 18.5005 47.9295 18.5005 47.9295C18.5005 47.9295 18.5005 47.9295 18.5005 47.9295C18.5005 47.9295 18.5005 47.9295 18.5005 47.9295C18.5005 47.9295 18.5005 47.9295 18.5005 47.9295C18.5005 47.9295 18.5005 47.9295 18.5005 47.9295C18.5005 47.9295 18.5005 47.9295 18.5005 47.9295C18.5005 47.9295 18.5005 47.9295 18.5005 47.9295C18.5005 47.9295 18.5005 47.9295 18.5005 47.9295C18.5005 47.9295 18.5005 47.9295 18.5005 47.9295C18.5005 47.9295 18.5005 47.9295 18.5005 47.9295C18.5005 47.9295 18.5005 47.9295 18.5005 47.9295C18.5005 47.9295 18.5005 47.9295 18.5005 47.9295C18.5005 47.9295 18.5005 47.9295 18.5005 47.9295C18.5005 47.9295 18.5005 47.9295 18.5005 47.9295C18.5005 47.9295 18.5005 47.9295 18.5005 47.9295C18.5005 47.9295 18.5005 47.9295 18.5005 47.9295C18.5005 47.9295 18.5005 47.9295 18.5005 47.9295C18.5005 47.9295 18.5005 47.9295 18.5005 47.9295C18.5005 47.9295 18.5005 47.9295 18.5005 47.9295C18.5005 47.9295 18.5005 47.9295 18.5005 47.9295C18.5005 47.9295 18.5005 47.9295 18.5005 47.9295C18.5005 47.9295 18.5005 47.9295 18.5006 47.9295C18.5006 47.9295 18.5006 47.9295 18.5006 47.9295C18.5006 47.9295 18.5006 47.9295 18.5006 47.9295C18.5006 47.9295 18.5006 47.9295 18.5006 47.9295C18.5006 47.9295 18.5006 47.9295 18.5006 47.9295C18.5006 47.9295 18.5006 47.9295 18.5006 47.9295C18.5006 47.9295 18.5006 47.9295 18.5006 47.9295C18.5006 47.9295 18.5006 47.9295 18.5006 47.9295C18.5006 47.9295 18.5006 47.9295 18.5006 47.9295C18.5006 47.9295 18.5006 47.9295 18.5006 47.9295C18.5006 47.9295 18.5006 47.9295 18.5006 47.9295C18.5006 47.9295 18.5006 47.9295 18.5006 47.9295C18.5006 47.9295 18.5006 47.9295 18.5006 47.9295C18.5006 47.9295 18.5006 47.9295 18.5006 47.9295C18.5006 47.9295 18.5006 47.9295 18.5006 47.9295C18.5006 47.9295 18.5006 47.9295 18.5006 47.9295C18.5006 47.9295 18.5006 47.9295 18.5006 47.9295C18.5006 47.9295 18.5006 47.9295 18.5006 47.9295C18.5006 47.9295 18.5006 47.9295 18.5006 47.9295C18.5006 47.9295 18.5006 47.9295 18.5006 47.9295C18.5006 47.9295 18.5006 47.9295 18.5006 47.9295C18.5006 47.9295 18.5006 47.9295 18.5006 47.9295C18.5006 47.9295 18.5006 47.9295 18.5006 47.9295C18.5006 47.9295 18.5007 47.9295 18.5007 47.9295C18.5007 47.9295 18.5007 47.9295 18.5007 47.9295C18.5007 47.9295 18.5007 47.9295 18.5007 47.9295C18.5007 47.9295 18.5007 47.9295 18.5007 47.9295C18.5007 47.9295 18.5007 47.9295 18.5007 47.9295C18.5007 47.9295 18.5007 47.9295 18.5007 47.9295C18.5007 47.9295 18.5007 47.9295 18.5007 47.9295C18.5007 47.9295 18.5007 47.9295 18.5007 47.9295C18.5007 47.9295 18.5007 47.9295 18.5007 47.9295C18.5007 47.9295 18.5007 47.9295 18.5007 47.9295C18.5007 47.9295 18.5007 47.9295 18.5007 47.9295C18.5007 47.9295 18.5007 47.9295 18.5007 47.9295C18.5007 47.9295 18.5007 47.9295 18.5007 47.9295C18.5007 47.9295 18.5007 47.9295 18.5007 47.9295C18.5007 47.9295 18.5007 47.9295 18.5007 47.9295C18.5007 47.9295 18.5007 47.9295 18.5007 47.9295C18.5007 47.9295 18.5007 47.9295 18.5007 47.9295C18.5007 47.9295 18.5007 47.9295 18.5007 47.9295C18.5007 47.9295 18.5007 47.9295 18.5007 47.9295C18.5007 47.9295 18.5007 47.9295 18.5007 47.9295C18.5007 47.9295 18.5007 47.9295 18.5007 47.9295C18.5007 47.9295 18.5007 47.9295 18.5007 47.9295C18.5007 47.9295 18.5007 47.9295 18.5007 47.9295C18.5007 47.9295 18.5008 47.9295 18.5008 47.9295C18.5008 47.9295 18.5008 47.9295 18.5008 47.9295C18.5008 47.9295 18.5008 47.9295 18.5008 47.9295C18.5008 47.9295 18.5008 47.9295 18.5008 47.9295C18.5008 47.9295 18.5008 47.9295 18.5008 47.9295C18.5008 47.9295 18.5008 47.9295 18.5008 47.9295C18.5008 47.9295 18.5008 47.9295 18.5008 47.9295C18.5008 47.9295 18.5008 47.9295 18.5008 47.9295C18.5008 47.9295 18.5008 47.9295 18.5008 47.9295C18.5008 47.9295 18.5008 47.9295 18.5008 47.9295C18.5008 47.9295 18.5008 47.9295 18.5008 47.9295C18.5008 47.9295 18.5008 47.9295 18.5008 47.9295C18.5008 47.9295 18.5008 47.9295 18.5008 47.9295C18.5008 47.9295 18.5008 47.9295 18.5008 47.9295C18.5008 47.9295 18.5008 47.9295 18.5008 47.9295C18.5008 47.9295 18.5008 47.9295 18.5008 47.9295C18.5008 47.9295 18.5008 47.9295 18.5008 47.9295C18.5008 47.9295 18.5008 47.9295 18.5008 47.9295C18.5008 47.9295 18.5008 47.9295 18.5008 47.9295C18.5008 47.9295 18.5008 47.9295 18.5008 47.9295C18.5008 47.9295 18.5008 47.9295 18.5008 47.9295C18.5008 47.9295 18.5008 47.9295 18.5008 47.9295C18.5008 47.9295 18.5008 47.9295 18.5009 47.9295C18.5009 47.9295 18.5009 47.9295 18.5009 47.9295C18.5009 47.9295 18.5009 47.9295 18.5009 47.9295C18.5009 47.9295 18.5009 47.9295 18.5009 47.9295C18.5009 47.9295 18.5009 47.9295 18.5009 47.9295C18.5009 47.9295 18.5009 47.9295 18.5009 47.9295C18.5009 47.9295 18.5009 47.9295 18.5009 47.9295C18.5009 47.9295 18.5009 47.9295 18.5009 47.9295C18.5009 47.9295 18.5009 47.9295 18.5009 47.9295C18.5009 47.9295 18.5009 47.9295 18.5009 47.9295C18.5009 47.9295 18.5009 47.9295 18.5009 47.9295C18.5009 47.9295 18.5009 47.9295 18.5009 47.9295C18.5009 47.9295 18.5009 47.9295 18.5009 47.9295C18.5009 47.9295 18.5009 47.9295 18.5009 47.9295C18.5009 47.9295 18.5009 47.9295 18.5009 47.9295C18.5009 47.9295 18.5009 47.9295 18.5009 47.9295C18.5009 47.9295 18.5009 47.9295 18.5009 47.9295C18.5009 47.9295 18.5009 47.9295 18.5009 47.9295C18.5009 47.9295 18.5009 47.9295 18.5009 47.9295C18.5009 47.9295 18.5009 47.9295 18.5009 47.9295C18.5009 47.9295 18.5009 47.9295 18.5009 47.9295C18.5009 47.9295 18.5009 47.9295 18.5009 47.9295C18.5009 47.9295 18.5009 47.9295 18.5009 47.9295C18.5009 47.9295 18.5009 47.9295 18.501 47.9295C18.501 47.9295 18.501 47.9295 18.501 47.9295C18.501 47.9295 18.501 47.9295 18.501 47.9295C18.501 47.9295 18.501 47.9295 18.501 47.9295C18.501 47.9295 18.501 47.9295 18.501 47.9295C18.501 47.9295 18.501 47.9295 18.501 47.9295C18.501 47.9295 18.501 47.9295 18.501 47.9295C18.501 47.9295 18.501 47.9295 18.501 47.9295C18.501 47.9295 18.501 47.9295 18.501 47.9295C18.501 47.9295 18.501 47.9295 18.501 47.9295C18.501 47.9295 18.501 47.9295 18.501 47.9295C18.501 47.9295 18.501 47.9295 18.501 47.9295C18.501 47.9295 18.501 47.9295 18.501 47.9295C18.501 47.9295 18.501 47.9295 18.501 47.9295C18.501 47.9295 18.501 47.9295 18.501 47.9295C18.501 47.9295 18.501 47.9295 18.501 47.9295C18.501 47.9295 18.501 47.9295 18.501 47.9295C18.501 47.9295 18.501 47.9295 18.501 47.9295C18.501 47.9295 18.501 47.9295 18.501 47.9295C18.501 47.9295 18.501 47.9295 18.501 47.9295C18.501 47.9295 18.501 47.9295 18.501 47.9295C18.501 47.9295 18.501 47.9295 18.501 47.9295C18.501 47.9295 18.501 47.9295 18.501 47.9295C18.501 47.9295 18.5011 47.9295 18.5011 47.9295C18.5011 47.9295 18.5011 47.9295 18.5011 47.9295C18.5011 47.9295 18.5011 47.9295 18.5011 47.9295C18.5011 47.9295 18.5011 47.9295 18.5011 47.9295C18.5011 47.9295 18.5011 47.9295 18.5011 47.9295C18.5011 47.9295 18.5011 47.9295 18.5011 47.9295C18.5011 47.9295 18.5011 47.9295 18.5011 47.9295C18.5011 47.9295 18.5011 47.9295 18.5011 47.9295C18.5011 47.9295 18.5011 47.9295 18.5011 47.9295C18.5011 47.9295 18.5011 47.9295 18.5011 47.9295C18.5011 47.9295 18.5011 47.9295 18.5011 47.9295C18.5011 47.9295 18.5011 47.9295 18.5011 47.9295C18.5011 47.9295 18.5011 47.9295 18.5011 47.9295C18.5011 47.9295 18.5011 47.9295 18.5011 47.9295C18.5011 47.9295 18.5011 47.9295 18.5011 47.9295C18.5011 47.9295 18.5011 47.9295 18.5011 47.9295C18.5011 47.9295 18.5011 47.9295 18.5011 47.9295C18.5011 47.9295 18.5011 47.9295 18.5011 47.9295C18.5011 47.9295 18.5011 47.9295 18.5011 47.9295C18.5011 47.9295 18.5011 47.9295 18.5011 47.9295C18.5011 47.9295 18.5011 47.9295 18.5011 47.9295C18.5011 47.9295 18.5011 47.9295 18.5011 47.9295C18.5011 47.9295 18.5011 47.9295 18.5012 47.9295C18.5012 47.9295 18.5012 47.9295 18.5012 47.9295C18.5012 47.9295 18.5012 47.9295 18.5012 47.9295C18.5012 47.9295 18.5012 47.9295 18.5012 47.9295C18.5012 47.9295 18.5012 47.9295 18.5012 47.9295C18.5012 47.9295 18.5012 47.9295 18.5012 47.9295C18.5012 47.9295 18.5012 47.9295 18.5012 47.9295C18.5012 47.9295 18.5012 47.9295 18.5012 47.9295C18.5012 47.9295 18.5012 47.9295 18.5012 47.9295C18.5012 47.9295 18.5012 47.9295 18.5012 47.9295C18.5012 47.9295 18.5012 47.9295 18.5012 47.9295C18.5012 47.9295 18.5012 47.9295 18.5012 47.9295C18.5012 47.9295 18.5012 47.9295 18.5012 47.9295C18.5012 47.9295 18.5012 47.9295 18.5012 47.9295C18.5012 47.9295 18.5012 47.9295 18.5012 47.9295C18.5012 47.9295 18.5012 47.9295 18.5012 47.9295C18.5012 47.9295 18.5012 47.9295 18.5012 47.9295C18.5012 47.9295 18.5012 47.9295 18.5012 47.9295C18.5012 47.9295 18.5012 47.9295 18.5012 47.9295C18.5012 47.9295 18.5012 47.9295 18.5012 47.9295C18.5012 47.9295 18.5012 47.9295 18.5012 47.9295C18.5012 47.9295 18.5012 47.9295 18.5012 47.9295C18.5012 47.9295 18.5012 47.9295 18.5012 47.9295C18.5012 47.9295 18.5012 47.9295 18.5013 47.9295C18.5013 47.9295 18.5013 47.9295 18.5013 47.9295C18.5013 47.9295 18.5013 47.9295 18.5013 47.9295C18.5013 47.9295 18.5013 47.9295 18.5013 47.9295C18.5013 47.9295 18.5013 47.9295 18.5013 47.9295C18.5013 47.9295 18.5013 47.9295 18.5013 47.9295C18.5013 47.9295 18.5013 47.9295 18.5013 47.9295C18.5013 47.9295 18.5013 47.9295 18.5013 47.9295C18.5013 47.9295 18.5013 47.9295 18.5013 47.9295C18.5013 47.9295 18.5013 47.9295 18.5013 47.9295C18.5013 47.9295 18.5013 47.9295 18.5013 47.9295C18.5013 47.9295 18.5013 47.9295 18.5013 47.9295C18.5013 47.9295 18.5013 47.9295 18.5013 47.9295C18.5013 47.9295 18.5013 47.9295 18.5013 47.9295C18.5013 47.9295 18.5013 47.9295 18.5013 47.9295C18.5013 47.9295 18.5013 47.9295 18.5013 47.9295C18.5013 47.9295 18.5013 47.9295 18.5013 47.9295C18.5013 47.9295 18.5013 47.9295 18.5013 47.9295C18.5013 47.9295 18.5013 47.9295 18.5013 47.9295C18.5013 47.9295 18.5013 47.9295 18.5013 47.9295C18.5013 47.9295 18.5013 47.9295 18.5013 47.9295C18.5013 47.9295 18.5013 47.9295 18.5013 47.9295C18.5013 47.9295 18.5013 47.9295 18.5013 47.9295C18.5013 47.9295 18.5014 47.9295 18.5014 47.9295C18.5014 47.9295 18.5014 47.9295 18.5014 47.9295C18.5014 47.9295 18.5014 47.9295 18.5014 47.9295C18.5014 47.9295 18.5014 47.9295 18.5014 47.9295C18.5014 47.9295 18.5014 47.9295 18.5014 47.9295C18.5014 47.9295 18.5014 47.9295 18.5014 47.9295C18.5014 47.9295 18.5014 47.9295 18.5014 47.9295C18.5014 47.9295 18.5014 47.9295 18.5014 47.9295C18.5014 47.9295 18.5014 47.9295 18.5014 47.9295C18.5014 47.9295 18.5014 47.9295 18.5014 47.9295C18.5014 47.9295 18.5014 47.9295 18.5014 47.9295C18.5014 47.9295 18.5014 47.9295 18.5014 47.9295C18.5014 47.9295 18.5014 47.9295 18.5014 47.9295C18.5014 47.9295 18.5014 47.9295 18.5014 47.9295C18.5014 47.9295 18.5014 47.9295 18.5014 47.9295C18.5014 47.9295 18.5014 47.9295 18.5014 47.9295C18.5014 47.9295 18.5014 47.9295 18.5014 47.9295C18.5014 47.9295 18.5014 47.9295 18.5014 47.9295C18.5014 47.9295 18.5014 47.9295 18.5014 47.9295C18.5014 47.9295 18.5014 47.9295 18.5014 47.9295C18.5014 47.9295 18.5014 47.9295 18.5014 47.9295C18.5014 47.9295 18.5014 47.9295 18.5014 47.9295C18.5014 47.9295 18.5014 47.9295 18.5014 47.9295C18.5014 47.9295 18.5015 47.9295 18.5015 47.9295C18.5015 47.9295 18.5015 47.9295 18.5015 47.9295C18.5015 47.9295 18.5015 47.9295 18.5015 47.9295C18.5015 47.9295 18.5015 47.9295 18.5015 47.9295C18.5015 47.9295 18.5015 47.9295 18.5015 47.9295C18.5015 47.9295 18.5015 47.9295 18.5015 47.9295C18.5015 47.9295 18.5015 47.9295 18.5015 47.9295C18.5015 47.9295 18.5015 47.9295 18.5015 47.9295C18.5015 47.9295 18.5015 47.9295 18.5015 47.9295C18.5015 47.9295 18.5015 47.9295 18.5015 47.9295C18.5015 47.9295 18.5015 47.9295 18.5015 47.9295C18.5015 47.9295 18.5015 47.9295 18.5015 47.9295C18.5015 47.9295 18.5015 47.9295 18.5015 47.9295C18.5015 47.9295 18.5015 47.9295 18.5015 47.9295C18.5015 47.9295 18.5015 47.9295 18.5015 47.9295C18.5015 47.9295 18.5015 47.9295 18.5015 47.9295C18.5015 47.9295 18.5015 47.9295 18.5015 47.9295C18.5015 47.9295 18.5015 47.9295 18.5015 47.9295C18.5015 47.9295 18.5015 47.9295 18.5015 47.9295C18.5015 47.9295 18.5015 47.9295 18.5015 47.9295C18.5015 47.9295 18.5015 47.9295 18.5015 47.9295C18.5015 47.9295 18.5015 47.9295 18.5015 47.9295C18.5015 47.9295 18.5015 47.9295 18.5016 47.9295C18.5016 47.9295 18.5016 47.9295 18.5016 47.9295C18.5016 47.9295 18.5016 47.9295 18.5016 47.9295C18.5016 47.9295 18.5016 47.9295 18.5016 47.9295C18.5016 47.9295 18.5016 47.9295 18.5016 47.9295C18.5016 47.9295 18.5016 47.9295 18.5016 47.9295C18.5016 47.9295 18.5016 47.9295 18.5016 47.9295C18.5016 47.9295 18.5016 47.9295 18.5016 47.9295C18.5016 47.9295 18.5016 47.9295 18.5016 47.9295C18.5016 47.9295 18.5016 47.9295 18.5016 47.9295C18.5016 47.9295 18.5016 47.9295 18.5016 47.9295C18.5016 47.9295 18.5016 47.9295 18.5016 47.9295C18.5016 47.9295 18.5016 47.9295 18.5016 47.9295C18.5016 47.9295 18.5016 47.9295 18.5016 47.9295C18.5016 47.9295 18.5016 47.9295 18.5016 47.9295C18.5016 47.9295 18.5016 47.9295 18.5016 47.9295C18.5016 47.9295 18.5016 47.9295 18.5016 47.9295C18.5016 47.9295 18.5016 47.9295 18.5016 47.9295C18.5016 47.9295 18.5016 47.9295 18.5016 47.9295C18.5016 47.9295 18.5016 47.9295 18.5016 47.9295C18.5016 47.9295 18.5016 47.9295 18.5016 47.9295C18.5016 47.9295 18.5016 47.9295 18.5016 47.9295C18.5016 47.9295 18.5016 47.9295 18.5016 47.9295C18.5016 47.9295 18.5016 47.9295 18.5017 47.9295C18.5017 47.9295 18.5017 47.9295 18.5017 47.9295C18.5017 47.9295 18.5017 47.9295 18.5017 47.9295C18.5017 47.9295 18.5017 47.9295 18.5017 47.9295C18.5017 47.9295 18.5017 47.9295 18.5017 47.9295C18.5017 47.9295 18.5017 47.9295 18.5017 47.9295C18.5017 47.9295 18.5017 47.9295 18.5017 47.9295C18.5017 47.9295 18.5017 47.9295 18.5017 47.9295C18.5017 47.9295 18.5017 47.9295 18.5017 47.9295C18.5017 47.9295 18.5017 47.9295 18.5017 47.9295C18.5017 47.9295 18.5017 47.9295 18.5017 47.9295C18.5017 47.9295 18.5017 47.9295 18.5017 47.9295C18.5017 47.9295 18.5017 47.9295 18.5017 47.9295C18.5017 47.9295 18.5017 47.9295 18.5017 47.9295C18.5017 47.9295 18.5017 47.9295 18.5017 47.9295C18.5017 47.9295 18.5017 47.9295 18.5017 47.9295C18.5017 47.9295 18.5017 47.9295 18.5017 47.9295C18.5017 47.9295 18.5017 47.9295 18.5017 47.9295C18.5017 47.9295 18.5017 47.9295 18.5017 47.9295C18.5017 47.9295 18.5017 47.9295 18.5017 47.9295C18.5017 47.9295 18.5017 47.9295 18.5017 47.9295C18.5017 47.9295 18.5017 47.9295 18.5017 47.9295C18.5017 47.9295 18.5017 47.9295 18.5017 47.9295C18.5017 47.9295 18.5018 47.9295 18.5018 47.9295C18.5018 47.9295 18.5018 47.9295 18.5018 47.9295C18.5018 47.9295 18.5018 47.9295 18.5018 47.9295C18.5018 47.9295 18.5018 47.9295 18.5018 47.9295C18.5018 47.9295 18.5018 47.9295 18.5018 47.9295C18.5018 47.9295 18.5018 47.9295 18.5018 47.9295C18.5018 47.9295 18.5018 47.9295 18.5018 47.9295C18.5018 47.9295 18.5018 47.9295 18.5018 47.9295C18.5018 47.9295 18.5018 47.9295 18.5018 47.9295C18.5018 47.9295 18.5018 47.9295 18.5018 47.9295C18.5018 47.9295 18.5018 47.9295 18.5018 47.9295C18.5018 47.9295 18.5018 47.9295 18.5018 47.9295C18.5018 47.9295 18.5018 47.9295 18.5018 47.9295C18.5018 47.9295 18.5018 47.9295 18.5018 47.9295C18.5018 47.9295 18.5018 47.9295 18.5018 47.9295C18.5018 47.9295 18.5018 47.9295 18.5018 47.9295C18.5018 47.9295 18.5018 47.9295 18.5018 47.9295C18.5018 47.9295 18.5018 47.9295 18.5018 47.9295C18.5018 47.9295 18.5018 47.9295 18.5018 47.9295C18.5018 47.9295 18.5018 47.9295 18.5018 47.9295C18.5018 47.9295 18.5018 47.9295 18.5018 47.9295C18.5018 47.9295 18.5018 47.9295 18.5018 47.9295C18.5018 47.9295 18.5018 47.9295 18.5018 47.9295C18.5019 47.9295 18.5019 47.9295 18.5019 47.9295C18.5019 47.9295 18.5019 47.9295 18.5019 47.9295C18.5019 47.9295 18.5019 47.9295 18.5019 47.9295C18.5019 47.9295 18.5019 47.9295 18.5019 47.9295C18.5019 47.9295 18.5019 47.9295 18.5019 47.9295C18.5019 47.9295 18.5019 47.9295 18.5019 47.9295C18.5019 47.9295 18.5019 47.9295 18.5019 47.9295C18.5019 47.9295 18.5019 47.9295 18.5019 47.9295C18.5019 47.9295 18.5019 47.9295 18.5019 47.9295C18.5019 47.9295 18.5019 47.9295 18.5019 47.9295C18.5019 47.9295 18.5019 47.9295 18.5019 47.9295C18.5019 47.9295 18.5019 47.9295 18.5019 47.9295C18.5019 47.9295 18.5019 47.9295 18.5019 47.9295C18.5019 47.9295 18.5019 47.9295 18.5019 47.9295C18.5019 47.9295 18.5019 47.9295 18.5019 47.9295C18.5019 47.9295 18.5019 47.9295 18.5019 47.9295C18.5019 47.9295 18.5019 47.9295 18.5019 47.9295C18.5019 47.9295 18.5019 47.9295 18.5019 47.9295C18.5019 47.9295 18.5019 47.9295 18.5019 47.9295C18.5019 47.9295 18.5019 47.9295 18.5019 47.9295C18.5019 47.9295 18.5019 47.9295 18.5019 47.9295C18.5019 47.9295 18.5019 47.9295 18.5019 47.9295C18.5019 47.9295 18.5019 47.9295 18.502 47.9295C18.502 47.9295 18.502 47.9295 18.502 47.9295C18.502 47.9295 18.502 47.9295 18.502 47.9295C18.502 47.9295 18.502 47.9295 18.502 47.9295C18.502 47.9295 18.502 47.9295 18.502 47.9295C18.502 47.9295 18.502 47.9295 18.502 47.9295C18.502 47.9295 18.502 47.9295 18.502 47.9295C18.502 47.9295 18.502 47.9295 18.502 47.9295C18.502 47.9295 18.502 47.9295 18.502 47.9295C18.502 47.9295 18.502 47.9295 18.502 47.9295C18.502 47.9295 18.502 47.9295 18.502 47.9295C18.502 47.9295 18.502 47.9295 18.502 47.9295C18.502 47.9295 18.502 47.9295 18.502 47.9295C18.502 47.9295 18.502 47.9295 18.502 47.9295C18.502 47.9295 18.502 47.9295 18.502 47.9295C18.502 47.9295 18.502 47.9295 18.502 47.9295C18.502 47.9295 18.502 47.9295 18.502 47.9295C18.502 47.9295 18.502 47.9295 18.502 47.9295C18.502 47.9295 18.502 47.9295 18.502 47.9295C18.502 47.9295 18.502 47.9295 18.502 47.9295C18.502 47.9295 18.502 47.9295 18.502 47.9295C18.502 47.9295 18.502 47.9295 18.502 47.9295C18.502 47.9295 18.502 47.9295 18.502 47.9295C18.502 47.9295 18.5021 47.9295 18.5021 47.9295C18.5021 47.9295 18.5021 47.9295 18.5021 47.9295C18.5021 47.9295 18.5021 47.9295 18.5021 47.9295C18.5021 47.9295 18.5021 47.9295 18.5021 47.9295C18.5021 47.9295 18.5021 47.9295 18.5021 47.9295C18.5021 47.9295 18.5021 47.9295 18.5021 47.9295C18.5021 47.9295 18.5021 47.9295 18.5021 47.9295C18.5021 47.9295 18.5021 47.9295 18.5021 47.9295C18.5021 47.9295 18.5021 47.9295 18.5021 47.9295C18.5021 47.9295 18.5021 47.9295 18.5021 47.9295C18.5021 47.9295 18.5021 47.9295 18.5021 47.9295C18.5021 47.9295 18.5021 47.9295 18.5021 47.9295C18.5021 47.9295 18.5021 47.9295 18.5021 47.9295C18.5021 47.9295 18.5021 47.9295 18.5021 47.9295C18.5021 47.9295 18.5021 47.9295 18.5021 47.9295C18.5021 47.9295 18.5021 47.9295 18.5021 47.9295C18.5021 47.9295 18.5021 47.9295 18.5021 47.9295C18.5021 47.9295 18.5021 47.9295 18.5021 47.9295C18.5021 47.9295 18.5021 47.9295 18.5021 47.9295C18.5021 47.9295 18.5021 47.9295 18.5021 47.9295C18.5021 47.9295 18.5021 47.9295 18.5021 47.9295C18.5021 47.9295 18.5021 47.9295 18.5021 47.9295C18.5021 47.9295 18.5021 47.9295 18.5021 47.9295C18.5021 47.9295 18.5022 47.9295 18.5022 47.9295C18.5022 47.9295 18.5022 47.9295 18.5022 47.9295C18.5022 47.9295 18.5022 47.9295 18.5022 47.9295C18.5022 47.9295 18.5022 47.9295 18.5022 47.9295C18.5022 47.9295 18.5022 47.9295 18.5022 47.9295C18.5022 47.9295 18.5022 47.9295 18.5022 47.9295C18.5022 47.9295 18.5022 47.9295 18.5022 47.9295C18.5022 47.9295 18.5022 47.9295 18.5022 47.9295C18.5022 47.9295 18.5022 47.9295 18.5022 47.9295C18.5022 47.9295 18.5022 47.9295 18.5022 47.9295C18.5022 47.9295 18.5022 47.9295 18.5022 47.9295C18.5022 47.9295 18.5022 47.9295 18.5022 47.9295C18.5022 47.9295 18.5022 47.9295 18.5022 47.9295C18.5022 47.9295 18.5022 47.9295 18.5022 47.9295C18.5022 47.9295 18.5022 47.9295 18.5022 47.9295C18.5022 47.9295 18.5022 47.9295 18.5022 47.9295C18.5022 47.9295 18.5022 47.9295 18.5022 47.9295C18.5022 47.9295 18.5022 47.9295 18.5022 47.9295C18.5022 47.9295 18.5022 47.9295 18.5022 47.9295C18.5022 47.9295 18.5022 47.9295 18.5022 47.9295C18.5022 47.9295 18.5022 47.9295 18.5022 47.9295V-32.0705ZM18.5 -32.0705H9.25112V47.9295H18.5V-32.0705ZM49.2511 39.6477V7.92953H-30.7489V39.6477H49.2511ZM0 79.6477H9.25112V-0.352342H0V79.6477ZM-40 3.32866e-08V39.6477H40V3.32866e-08H-40ZM18.5 -40H0V40H18.5V-40Z" fill="#00AAFF" mask="url(#path-1-inside-1_296_5394)"/>
<circle cx="14.2073" cy="17.1804" r="3.30397" fill="#00AAFF"/>
<circle cx="24.053" cy="17.1804" r="3.30397" fill="#00AAFF"/>
</svg>
