<svg width="35" height="40" viewBox="0 0 35 40" fill="none" xmlns="http://www.w3.org/2000/svg">
<path d="M4.01859 0H0V40H4.01859V0Z" fill="#373737"/>
<path d="M13.7972 0H7.76928V20V40H13.7972V0Z" fill="#373737"/>
<path d="M26.8241 27.9904C27.9551 27.3405 29.0058 26.5417 29.9452 25.6066C32.7713 22.7935 34.359 18.9782 34.359 15C34.359 11.0217 32.7713 7.20643 29.9451 4.39339C27.119 1.58035 23.286 0 19.2892 0V7.5C21.2876 7.5 23.2041 8.29017 24.6172 9.69669C26.0303 11.1032 26.8241 13.0109 26.8241 15C26.8241 16.9891 26.0303 18.8968 24.6172 20.3033C23.2042 21.7098 21.2876 22.5 19.2893 22.5L19.2892 40H26.8241V27.9904Z" fill="#373737"/>
</svg>
