<svg width="104" height="104" viewBox="0 0 104 104" fill="none" xmlns="http://www.w3.org/2000/svg">
<path d="M42.0046 72.004H52.0042" stroke="#CCCCCC" stroke-width="3" stroke-linecap="round"/>
<path d="M62.0038 54.5033C62.0038 58.6435 59.7638 62.0037 57.004 62.0037C54.2441 62.0037 52.0042 58.6435 52.0042 54.5033C52.0042 50.363 54.2441 47.0028 57.004 47.0028C59.7638 47.0028 62.0038 50.363 62.0038 54.5033Z" fill="#CCCCCC"/>
<path d="M37.0049 62.0037C39.7662 62.0037 42.0047 58.6457 42.0047 54.5033C42.0047 50.3609 39.7662 47.0028 37.0049 47.0028C34.2436 47.0028 32.0051 50.3609 32.0051 54.5033C32.0051 58.6457 34.2436 62.0037 37.0049 62.0037Z" fill="#CCCCCC"/>
<path d="M81.9083 3.76538C82.1139 3.24476 82.4712 2.79801 82.934 2.48318C83.3968 2.16835 83.9435 2 84.5032 2C85.0629 2 85.6096 2.16835 86.0724 2.48318C86.5351 2.79801 86.8925 3.24476 87.0981 3.76538L90.368 12.0659C90.6529 12.7809 91.2179 13.351 91.9429 13.636L100.238 16.9062C102.587 17.8362 102.587 21.1664 100.238 22.0965L91.9379 25.3667C91.5822 25.5076 91.2593 25.7201 90.9892 25.991C90.7191 26.262 90.5077 26.5856 90.368 26.9418L87.0981 35.2373C86.8925 35.7579 86.5351 36.2047 86.0724 36.5195C85.6096 36.8343 85.0629 37.0027 84.5032 37.0027C83.9435 37.0027 83.3968 36.8343 82.934 36.5195C82.4712 36.2047 82.1139 35.7579 81.9083 35.2373L78.6384 26.9368C78.4976 26.5811 78.2851 26.2581 78.0141 25.988C77.7432 25.7179 77.4196 25.5064 77.0635 25.3667L68.7688 22.0965C68.2482 21.8909 67.8015 21.5335 67.4867 21.0707C67.1719 20.6079 67.0036 20.0611 67.0036 19.5013C67.0036 18.9416 67.1719 18.3948 67.4867 17.932C67.8015 17.4692 68.2482 17.1118 68.7688 16.9062L77.0685 13.636C77.4242 13.4951 77.7471 13.2826 78.0171 13.0116C78.2872 12.7407 78.4987 12.417 78.6384 12.0609L81.9083 3.76538Z" stroke="#CCCCCC" stroke-width="3"/>
<path d="M20.7551 32.0164C28.634 27.4689 37.8972 25.9408 46.8191 27.7169C55.7409 29.493 63.713 34.452 69.2502 41.6703C74.7874 48.8885 77.5121 57.8737 76.9168 66.952C76.3214 76.0303 72.4466 84.5826 66.0141 91.0157C59.5816 97.4489 51.0302 101.324 41.9528 101.92C32.8754 102.515 23.8911 99.7899 16.6736 94.2522C9.45605 88.7144 4.49747 80.7416 2.72158 71.8188C0.945681 62.8961 2.47357 53.6319 7.02062 45.7522" stroke="#CCCCCC" stroke-width="3" stroke-linecap="round"/>
</svg>
