<svg width="103" height="96" viewBox="0 0 103 96" fill="none" xmlns="http://www.w3.org/2000/svg">
<g filter="url(#filter0_d_1151_17397)">
<path d="M24.7478 60.2984H33.5718V65.8792C33.5718 66.645 34.0804 67.235 34.5463 67.5793C35.0274 67.935 35.6659 68.1889 36.317 68.1998C36.7625 68.249 37.224 68.1456 37.5873 68.0185C37.9631 67.887 38.3444 67.691 38.6347 67.4604L38.6369 67.4587L47.591 60.2984H70.0873C73.0648 60.2984 75.8375 58.3368 75.8375 55.5231V25.7489C75.8375 22.9351 73.0648 20.9736 70.0873 20.9736H24.7485C21.7709 20.9736 18.999 22.9352 18.999 25.7489V55.5237C18.999 58.3374 21.771 60.2984 24.7478 60.2984ZM44.9232 56.1479L38.8761 60.9842V57.7028C38.8761 56.3403 37.5774 55.5534 36.4113 55.5534H26.9759C25.5359 55.5534 24.7237 54.6511 24.7237 53.9317L24.7231 27.532C24.7231 27.532 24.7231 27.532 24.7231 27.5319C24.7231 26.813 25.5361 25.9102 26.9747 25.9102H67.8592C69.299 25.9102 70.1108 26.8123 70.1108 27.532V53.9317C70.1108 54.6512 69.2985 55.5534 67.8592 55.5534H46.0182H45.8313L45.6601 55.6285C45.477 55.7088 45.2813 55.8618 45.1979 55.9271L45.1925 55.9314C45.1329 55.9779 45.0755 56.0244 45.0289 56.0623C44.9999 56.0859 44.9777 56.104 44.9602 56.1182C44.9469 56.129 44.9363 56.1375 44.9276 56.1444L44.9232 56.1479Z" fill="white" stroke="url(#paint0_linear_1151_17397)" stroke-width="1.78333"/>
<path d="M27.3876 19.8092V18.6692V14.8836C27.3876 12.0699 30.1602 10.1083 33.1371 10.1083H78.476C81.4534 10.1083 84.2259 12.07 84.2243 14.8841M27.3876 19.8092L83.3326 14.8836M27.3876 19.8092L28.4941 19.5346C28.8698 19.4413 29.2554 19.3936 29.6425 19.3924M27.3876 19.8092L29.6413 18.5007M84.2243 14.8841L83.3326 14.8836M84.2243 14.8841V14.8836H83.3326M84.2243 14.8841V44.6578C84.2243 47.471 81.4515 49.4325 78.4741 49.4325H76.8764H75.9848V48.5408V45.9513V45.0638L76.8723 45.0597C78.3553 45.0529 79.2022 44.122 79.2022 43.3643V16.1784C79.2022 15.418 78.3478 14.4818 76.8563 14.4818H34.7556C33.2642 14.4818 32.4097 15.4185 32.4097 16.1784V18.5007V19.3924H31.5181H29.6425M83.3326 14.8836V44.6578C83.3326 46.8023 81.156 48.5408 78.4741 48.5408H77.7681H76.8764V47.6492V45.9513C78.6545 45.9432 80.0938 44.7879 80.0938 43.3643V16.1784C80.0938 14.7497 78.6438 13.5901 76.8563 13.5901H34.7556C32.9681 13.5901 31.5181 14.7504 31.5181 16.1784V17.6091V18.5007H30.6264H29.6413M29.6425 19.3924C29.6429 19.3924 29.6434 19.3924 29.6438 19.3924L29.6413 18.5007M29.6425 19.3924H29.6413V18.5007M28.2793 18.6692L28.0645 17.8038C28.1358 17.7861 28.2075 17.7696 28.2793 17.7543L28.2793 18.6692ZM28.2793 18.6692H29.171V18.5214C28.8706 18.5471 28.5724 18.5964 28.2793 18.6692Z" fill="white" stroke="url(#paint1_linear_1151_17397)" stroke-width="1.78333"/>
<path d="M39.703 40.4853V40.4853C39.703 41.1453 39.5292 41.7937 39.1991 42.3653C38.8692 42.9367 38.3947 43.4112 37.8232 43.7412C37.2516 44.0716 36.603 44.2455 35.9428 44.2455C35.2827 44.2455 34.6343 44.0717 34.0628 43.7414L39.703 40.4853ZM39.703 40.4853C39.703 39.1422 38.9869 37.9014 37.823 37.2292L37.8228 37.2291M39.703 40.4853L37.8228 37.2291M37.8228 37.2291C37.2511 36.8992 36.6028 36.7255 35.9428 36.7255M37.8228 37.2291L35.9428 36.7255M49.2989 37.2291L49.2994 37.2293C50.4625 37.9015 51.1785 39.1423 51.1785 40.4853C51.1785 42.5622 49.4952 44.2455 47.4183 44.2455C45.3418 44.2455 43.6588 42.5615 43.6587 40.4856L49.2989 37.2291ZM49.2989 37.2291C48.7273 36.8992 48.0789 36.7255 47.4189 36.7255M49.2989 37.2291L47.4189 36.7255M62.6528 40.4853V40.4853C62.6527 41.1453 62.4789 41.7937 62.1489 42.3653C61.8189 42.9367 61.3444 43.4112 60.773 43.7412C60.2014 44.0716 59.5528 44.2455 58.8925 44.2455C58.2324 44.2455 57.584 44.0716 57.0124 43.7414L62.6528 40.4853ZM62.6528 40.4853C62.6528 39.1422 61.9366 37.9014 60.7727 37.2292L60.7725 37.2291M62.6528 40.4853L60.7725 37.2291M60.7725 37.2291C60.2009 36.8992 59.5525 36.7255 58.8925 36.7255C58.2326 36.7255 57.5843 36.8991 57.0128 37.229M60.7725 37.2291L57.0128 37.229M35.9428 36.7255C35.2828 36.7255 34.6344 36.8992 34.0628 37.2291M35.9428 36.7255L34.0628 37.2291M34.0628 37.2291C33.4911 37.559 33.0164 38.0336 32.6863 38.6052M34.0628 37.2291L32.6863 38.6052M32.6863 38.6052C32.3563 39.1768 32.1825 39.8252 32.1826 40.4853L32.6863 38.6052ZM47.4189 36.7255C46.759 36.7255 46.1107 36.8991 45.5392 37.229L47.4189 36.7255ZM57.0128 37.229C56.4409 37.5588 55.966 38.0334 55.6359 38.6051C55.3058 39.1767 55.1321 39.8252 55.1323 40.4853L57.0128 37.229ZM32.1826 40.4853C32.1826 41.8282 32.8992 43.0696 34.0623 43.7412L32.1826 40.4853ZM45.5389 37.2291C44.9672 37.5589 44.4923 38.0335 44.1623 38.6051C43.8322 39.1767 43.6585 39.8252 43.6587 40.4853L45.5389 37.2291ZM55.1323 40.4856C55.1324 41.828 55.848 43.0695 57.0121 43.7412L55.1323 40.4856Z" fill="white" stroke="url(#paint2_linear_1151_17397)" stroke-width="1.78333"/>
</g>
<path d="M23.1745 63.0146H33.0789V69.4641C33.0789 70.0494 33.4748 70.5463 33.9126 70.8699C34.3596 71.2003 34.9497 71.4288 35.5312 71.4325L35.5463 71.4342C35.9176 71.4773 36.3313 71.3915 36.6861 71.2673C37.0457 71.1415 37.399 70.9572 37.6548 70.7539L37.6559 70.753L47.333 63.0146H71.4755C74.4803 63.0146 77.0971 61.0511 77.0971 58.4315V26.7125C77.0971 24.0929 74.4803 22.1294 71.4755 22.1294H23.1751C20.1702 22.1294 17.5542 24.093 17.5542 26.7125V58.4322C17.5542 61.0517 20.1703 63.0146 23.1745 63.0146ZM44.9825 59.4908L37.7215 65.2979V60.7536C37.7215 59.6797 36.6746 58.9679 35.5997 58.9679H25.5481C23.8467 58.9679 22.6447 57.8804 22.6447 56.7362L22.6441 28.6121C22.6441 28.6121 22.6441 28.6121 22.6441 28.6121C22.6441 27.4684 23.8468 26.3803 25.5468 26.3803H69.1018C70.8031 26.3803 72.0045 27.4677 72.0045 28.6121V56.7362C72.0045 57.8805 70.8025 58.9679 69.1018 58.9679H45.8342H45.7407L45.6551 59.0055C45.5255 59.0623 45.3645 59.1858 45.265 59.2636C45.2 59.3143 45.0979 59.3973 45.0359 59.4477C45.01 59.4687 44.9911 59.4841 44.9847 59.489L44.9825 59.4908Z" fill="url(#paint3_linear_1151_17397)" stroke="url(#paint4_linear_1151_17397)" stroke-width="0.891667"/>
<path d="M26.4897 19.7402V19.1701V15.1373C26.4897 12.5178 29.1065 10.5542 32.1107 10.5542H80.411C83.4158 10.5542 86.0322 12.5178 86.0307 15.1376M26.4897 19.7402L85.5848 15.1373M26.4897 19.7402L27.043 19.6028C27.4827 19.4937 27.934 19.4378 28.3871 19.4365M26.4897 19.7402L28.3865 18.9907M86.0307 15.1376L85.5848 15.1373M86.0307 15.1376V15.1373H85.5848M86.0307 15.1376V46.8563C86.0307 49.4752 83.4138 51.4388 80.409 51.4388H78.707H78.2611V50.9929V48.2343V47.7905L78.7049 47.7885C80.4516 47.7804 81.6887 46.6619 81.6887 45.4783V16.5166C81.6887 15.3288 80.4418 14.2051 78.6855 14.2051H33.8348C32.0786 14.2051 30.8317 15.3294 30.8317 16.5166V18.9907V19.4365H30.3859H28.3871M85.5848 15.1373V46.8563C85.5848 49.1409 83.2661 50.9929 80.409 50.9929H79.1528H78.707V50.5471V48.2343C80.6012 48.2256 82.1345 46.9949 82.1345 45.4783V16.5166C82.1345 14.9947 80.5898 13.7593 78.6855 13.7593H33.8348C31.9306 13.7593 30.3859 14.9953 30.3859 16.5166V18.5449V18.9907H29.94H28.3865M28.3871 19.4365C28.3873 19.4365 28.3875 19.4365 28.3878 19.4365L28.3865 18.9907M28.3871 19.4365H28.3865V18.9907M26.9355 19.1701L26.8281 18.7374C26.8639 18.7286 26.8997 18.72 26.9355 18.7117V19.1701ZM26.9355 19.1701H27.3814V19.077C27.2318 19.1025 27.0831 19.1335 26.9355 19.1701Z" fill="url(#paint5_linear_1151_17397)" stroke="url(#paint6_linear_1151_17397)" stroke-width="0.891667"/>
<path d="M38.6026 42.4109V42.4109C38.6026 43.0256 38.4407 43.6293 38.1334 44.1616C37.8261 44.6939 37.384 45.1359 36.8517 45.4432C36.3195 45.7507 35.7156 45.9127 35.1009 45.9127C34.4861 45.9127 33.8823 45.7507 33.35 45.4432L38.6026 42.4109ZM38.6026 42.4109C38.6026 41.1602 37.9358 40.0047 36.8518 39.3787L36.8517 39.3786M38.6026 42.4109L36.8517 39.3786M36.8517 39.3786C36.3193 39.0714 35.7155 38.9096 35.1009 38.9096M36.8517 39.3786L35.1009 38.9096M49.0774 39.3786L49.0776 39.3787C50.1609 40.0048 50.8277 41.1602 50.8277 42.4109C50.8277 44.3451 49.2601 45.9127 47.3259 45.9127C45.3923 45.9127 43.8249 44.3444 43.8248 42.411L49.0774 39.3786ZM49.0774 39.3786C48.5451 39.0714 47.9412 38.9096 47.3266 38.9096M49.0774 39.3786L47.3266 38.9096M63.0514 42.4109V42.4109C63.0514 43.0256 62.8895 43.6293 62.5822 44.1616C62.2749 44.6938 61.8329 45.1358 61.3007 45.4431C60.7684 45.7507 60.1645 45.9127 59.5497 45.9127C58.935 45.9127 58.3311 45.7508 57.7989 45.4432C56.7146 44.8178 56.0479 43.6615 56.0479 42.411L63.0514 42.4109ZM63.0514 42.4109C63.0514 41.1602 62.3846 40.0047 61.3006 39.3787L61.3005 39.3786M63.0514 42.4109L61.3005 39.3786M61.3005 39.3786C60.7681 39.0714 60.1643 38.9096 59.5497 38.9096M61.3005 39.3786L59.5497 38.9096M35.1009 38.9096C34.4862 38.9096 33.8824 39.0714 33.35 39.3786M35.1009 38.9096L33.35 39.3786M33.35 39.3786C32.8177 39.6858 32.3756 40.1278 32.0682 40.6601M33.35 39.3786L32.0682 40.6601M32.0682 40.6601C31.7608 41.1924 31.5991 41.7962 31.5991 42.4109L32.0682 40.6601ZM47.3266 38.9096C46.712 38.9096 46.1082 39.0713 45.5759 39.3785M47.3266 38.9096L45.5759 39.3785M45.5759 39.3785C45.0434 39.6857 44.6012 40.1276 44.2938 40.66M45.5759 39.3785L44.2938 40.66M44.2938 40.66C43.9864 41.1923 43.8246 41.7962 43.8248 42.4109L44.2938 40.66ZM59.5497 38.9096C58.935 38.9096 58.3312 39.0714 57.7988 39.3786M59.5497 38.9096L57.7988 39.3786M57.7988 39.3786V39.3786M57.7988 39.3786V39.3786M57.7988 39.3786C57.2664 39.6857 56.8242 40.1277 56.5168 40.66C56.2094 41.1923 56.0477 41.7962 56.0479 42.4109L57.7988 39.3786ZM31.5991 42.4109C31.5991 43.6615 32.2665 44.8177 33.3498 45.4431L31.5991 42.4109Z" fill="url(#paint7_linear_1151_17397)" stroke="url(#paint8_linear_1151_17397)" stroke-width="0.891667"/>
<defs>
<filter id="filter0_d_1151_17397" x="0.274088" y="0.30013" width="102.674" height="95.5534" filterUnits="userSpaceOnUse" color-interpolation-filters="sRGB">
<feFlood flood-opacity="0" result="BackgroundImageFix"/>
<feColorMatrix in="SourceAlpha" type="matrix" values="0 0 0 0 0 0 0 0 0 0 0 0 0 0 0 0 0 0 127 0" result="hardAlpha"/>
<feOffset dy="8.91667"/>
<feGaussianBlur stdDeviation="8.91667"/>
<feComposite in2="hardAlpha" operator="out"/>
<feColorMatrix type="matrix" values="0 0 0 0 0.211765 0 0 0 0 0.243137 0 0 0 0 0.929412 0 0 0 1 0"/>
<feBlend mode="normal" in2="BackgroundImageFix" result="effect1_dropShadow_1151_17397"/>
<feBlend mode="normal" in="SourceGraphic" in2="effect1_dropShadow_1151_17397" result="shape"/>
</filter>
<linearGradient id="paint0_linear_1151_17397" x1="47.4182" y1="21.8652" x2="47.4182" y2="67.3206" gradientUnits="userSpaceOnUse">
<stop stop-color="#091170"/>
<stop offset="0.17" stop-color="#00DAFF"/>
<stop offset="0.435" stop-color="#E1FFFF"/>
<stop offset="0.79" stop-color="#00DAFF"/>
<stop offset="1" stop-color="#091170"/>
</linearGradient>
<linearGradient id="paint1_linear_1151_17397" x1="55.8059" y1="11" x2="55.8059" y2="48.5408" gradientUnits="userSpaceOnUse">
<stop stop-color="#091170"/>
<stop offset="0.17" stop-color="#00DAFF"/>
<stop offset="0.435" stop-color="#E1FFFF"/>
<stop offset="0.79" stop-color="#00DAFF"/>
<stop offset="1" stop-color="#091170"/>
</linearGradient>
<linearGradient id="paint2_linear_1151_17397" x1="47.4177" y1="37.6172" x2="47.4177" y2="43.3538" gradientUnits="userSpaceOnUse">
<stop stop-color="#091170"/>
<stop offset="0.17" stop-color="#00DAFF"/>
<stop offset="0.435" stop-color="#E1FFFF"/>
<stop offset="0.79" stop-color="#00DAFF"/>
<stop offset="1" stop-color="#091170"/>
</linearGradient>
<linearGradient id="paint3_linear_1151_17397" x1="47.3256" y1="22.5752" x2="47.3256" y2="70.9997" gradientUnits="userSpaceOnUse">
<stop stop-color="#0122CE"/>
<stop offset="0.5"/>
</linearGradient>
<linearGradient id="paint4_linear_1151_17397" x1="47.3256" y1="22.5752" x2="47.3256" y2="70.9997" gradientUnits="userSpaceOnUse">
<stop stop-color="#091170"/>
<stop offset="0.17" stop-color="#00DAFF"/>
<stop offset="0.435" stop-color="#E1FFFF"/>
<stop offset="0.79" stop-color="#00DAFF"/>
<stop offset="1" stop-color="#091170"/>
</linearGradient>
<linearGradient id="paint5_linear_1151_17397" x1="56.2602" y1="11" x2="56.2602" y2="50.9929" gradientUnits="userSpaceOnUse">
<stop stop-color="#0122CE"/>
<stop offset="0.5"/>
</linearGradient>
<linearGradient id="paint6_linear_1151_17397" x1="56.2602" y1="11" x2="56.2602" y2="50.9929" gradientUnits="userSpaceOnUse">
<stop stop-color="#091170"/>
<stop offset="0.17" stop-color="#00DAFF"/>
<stop offset="0.435" stop-color="#E1FFFF"/>
<stop offset="0.79" stop-color="#00DAFF"/>
<stop offset="1" stop-color="#091170"/>
</linearGradient>
<linearGradient id="paint7_linear_1151_17397" x1="47.3253" y1="39.3555" x2="47.3253" y2="45.4668" gradientUnits="userSpaceOnUse">
<stop stop-color="#0122CE"/>
<stop offset="0.5"/>
</linearGradient>
<linearGradient id="paint8_linear_1151_17397" x1="47.3253" y1="39.3555" x2="47.3253" y2="45.4668" gradientUnits="userSpaceOnUse">
<stop stop-color="#091170"/>
<stop offset="0.17" stop-color="#00DAFF"/>
<stop offset="0.435" stop-color="#E1FFFF"/>
<stop offset="0.79" stop-color="#00DAFF"/>
<stop offset="1" stop-color="#091170"/>
</linearGradient>
</defs>
</svg>
