<svg width="1440" height="1775" viewBox="0 0 1440 1775" fill="none" xmlns="http://www.w3.org/2000/svg">
<path d="M-183 1.08643C402.12 1.08643 987.241 1.08643 1572.36 1.08643C1571.72 592.061 1571.72 1183.04 1572.36 1774.01C987.259 1774.62 402.139 1774.62 -183 1774.01V1.08643Z" stroke="#B1B1B1" stroke-miterlimit="10"/>
<path d="M-183 1689.6C-31.4094 1689.6 142.285 1713.18 290.164 1676C355.76 1659.5 413.878 1639.32 482.608 1637.76C550.293 1636.21 613.332 1648.48 678.955 1664.08C818.642 1697.4 946.837 1687.69 1088.59 1674.63C1251.61 1659.59 1410.08 1690.74 1572.44 1689.63" stroke="#B1B1B1" stroke-miterlimit="10"/>
<path d="M-183 1605.15H69.4861C150.78 1605.15 208.788 1611.6 273.339 1555.54C322.824 1512.61 360.104 1450.63 430.95 1442.8C506.058 1434.47 582.431 1488.87 644.398 1523.74C711.588 1561.59 779.108 1604.66 858.093 1604.99C932.321 1605.27 1006.8 1577.22 1078.19 1559.89C1157.4 1540.62 1230.97 1535.1 1311.49 1552.2C1399.05 1570.83 1482.27 1600.1 1572.36 1605.15" stroke="#B1B1B1" stroke-miterlimit="10"/>
<path d="M-183 1520.64H69.4861C161.969 1520.64 211.4 1526.2 255.662 1433.2C282.439 1376.95 305.505 1259.33 377.094 1243.08C454.786 1225.45 556.396 1337.74 608.356 1380.89C673.154 1434.73 750.434 1518.39 840.663 1519.73C916.156 1520.98 998.687 1470.44 1067.53 1443.67C1150.99 1411.21 1218.98 1400.66 1305.69 1430.93C1395.45 1462.22 1476.69 1508.67 1572.36 1520.45" stroke="#B1B1B1" stroke-miterlimit="10"/>
<path d="M-183 1436.31H69.4861C104.071 1436.31 150.89 1444.81 183.138 1431.12C223.331 1414.04 235.62 1369.36 246.782 1329.85C264.019 1268.76 270.287 1113.77 346.33 1092.89C427.926 1070.51 540.066 1216.67 588.094 1263.79C649.209 1323.77 734.709 1438.73 830.766 1435.67C911.042 1433.14 991.319 1374.58 1061.7 1340.87C1145.6 1300.7 1213.7 1286.87 1302.23 1324.85C1393.31 1363.95 1472.04 1422.87 1572.36 1436.28" stroke="#B1B1B1" stroke-miterlimit="10"/>
<path d="M-183 1351.9H69.4861C103.961 1351.9 150.505 1360.23 182.863 1347.23C223.853 1330.71 238.534 1284.34 252.088 1244.97C273.421 1183.1 290.109 1023.22 367.059 1003.23C450.03 981.708 560.492 1126.98 609.318 1175.1C670.873 1235.8 755.988 1351.34 852.952 1346.9C929.929 1343.4 1008.61 1298.95 1079.76 1272.29C1163.64 1240.86 1230.5 1228 1317.13 1260.32C1403.29 1292.48 1479.88 1338.4 1572.31 1351.79" stroke="#B1B1B1" stroke-miterlimit="10"/>
<path d="M-183 1267.46H69.4861C105.528 1267.46 150.01 1274.84 184.265 1262.62C229.352 1246.57 252.363 1198.45 273.064 1157.91C306.439 1092.52 348.2 928.003 432.215 910.566C519.035 892.573 624.026 1029.66 676.893 1080.72C745.623 1147.36 820.786 1243.83 921.984 1251.68C991.401 1257.04 1067.91 1240.05 1137.19 1233.39C1211.61 1226.25 1284.08 1220.86 1358.34 1233.19C1430.26 1245.13 1499.29 1263.23 1572.47 1267.43" stroke="#B1B1B1" stroke-miterlimit="10"/>
<path d="M-183 1183.04H69.486C107.123 1183.04 150.092 1189.29 186.217 1177.96C236.747 1162.13 269.078 1112.24 297.862 1070.34C346.55 999.53 412.778 834.317 507.405 816.657C596.617 799.996 699.464 932.14 754.833 984.758C829.061 1055.2 898.726 1136.09 1001.6 1155.05C1070.33 1167.72 1135.9 1183.82 1203.58 1201.04C1272.31 1218.47 1334.75 1228.25 1405.18 1214.31C1461.51 1203.2 1514.71 1187.82 1572.42 1183.1" stroke="#B1B1B1" stroke-miterlimit="10"/>
<path d="M-183 1098.57H69.4861C107.7 1098.57 150.038 1104.27 186.877 1093.44C240.678 1077.61 279.36 1025.85 313.34 983.923C372.475 911.229 457.315 743.488 558.293 725.69C648.357 709.89 750.434 839.396 807.15 892.458C884.32 964.653 952.143 1036.85 1055.16 1061.64C1128.01 1079.22 1183.27 1116.54 1247.82 1152.8C1305.88 1185.4 1375.08 1213.89 1437.82 1175.43C1488.4 1144.69 1507.78 1107.93 1572.36 1098.57" stroke="#B1B1B1" stroke-miterlimit="10"/>
<path d="M-183 1014.19H69.4861C107.975 1014.19 149.625 1019.52 186.519 1008.11C238.342 992.087 278.507 942.911 313.532 903.815C374.949 835.203 463.666 680.596 560.96 662.464C646.185 646.637 752.469 770.062 808.965 818.404C886.382 884.628 956.981 952.546 1056.23 977.481C1129.69 995.974 1186.92 1031.27 1253.18 1066.72C1310.2 1097.27 1383.52 1128.2 1444.52 1088.94C1493.65 1057.34 1506.99 1022.74 1572.33 1014.22" stroke="#B1B1B1" stroke-miterlimit="10"/>
<path d="M-183 929.756H69.4861C172.856 929.756 225.86 920.732 308.666 851.009C374.509 795.475 455.721 690.932 545.564 678.27C627.875 666.691 724.949 747.688 790.243 787.422C868.952 835.654 942.795 883.968 1034.26 898.657C1110 910.847 1179.97 932.699 1253.34 954.358C1314.9 972.49 1389.95 994.148 1452.85 969.768C1496.59 952.83 1521.58 933.505 1572.36 929.756" stroke="#B1B1B1" stroke-miterlimit="10"/>
<path d="M-183 845.343C-28.3852 845.343 158.423 875.887 302.068 809.246C374.262 775.731 444.256 728.582 525.605 723.168C606.954 717.753 689.017 749.158 765.582 772.399C845.309 796.584 922.287 820.519 1005.97 821.13C1088.61 821.713 1170.65 828.877 1253.01 834.43C1359.13 841.594 1466.02 842.288 1572.39 845.204" stroke="#B1B1B1" stroke-miterlimit="10"/>
<path d="M-183 760.907C-24.9213 760.907 140.085 774.652 297.202 756.52C447.995 739.138 594.747 735.695 746.695 741.498C917.008 748.023 1083.47 735.722 1253.18 722.2C1314.9 717.285 1413.16 693.739 1471.69 722.2C1509.65 740.637 1524.86 756.714 1572.39 760.879" stroke="#B1B1B1" stroke-miterlimit="10"/>
<path d="M-183 676.516C125.047 676.516 433.837 683.152 741.582 668.38C914.039 660.05 1081.41 651.72 1252.66 628.173C1309.46 620.399 1419.37 592.993 1472.59 625.758C1484.58 633.144 1487.41 644.75 1497.72 652.969C1522.88 672.934 1539.37 674.961 1572.36 676.516" stroke="#B1B1B1" stroke-miterlimit="10"/>
<path d="M-183 592.048C121.336 592.048 426.249 597.602 730.393 585.884C804.978 582.969 879.729 582.802 954.232 579.748C1050.67 575.805 1145.11 545.094 1238.72 523.825C1296.7 510.635 1410.41 474.177 1464.15 516.633C1508.83 551.786 1503.63 586.689 1572.36 592.104" stroke="#B1B1B1" stroke-miterlimit="10"/>
<path d="M-183 507.645C115.837 507.645 414.977 511.615 713.732 504.34C782.462 502.674 852.732 506.312 921.132 500.425C1022.66 491.734 1121.96 443.281 1217.71 410.765C1280.95 389.302 1394.46 338.904 1452.47 396.882C1499.48 443.836 1494.7 495.455 1572.5 507.672" stroke="#B1B1B1" stroke-miterlimit="10"/>
<path d="M-183 423.198C111.164 423.198 405.328 424.892 699.492 422.393C762.723 421.865 829.611 427.946 892.65 420.56C998.797 408.176 1102.72 343.229 1199.6 301.328C1268.33 271.673 1379.31 210.78 1442.02 281.447C1491.51 337.176 1487.41 405.066 1572.5 423.059" stroke="#B1B1B1" stroke-miterlimit="10"/>
<path d="M-183 338.787H694.681C756.4 338.787 821.776 345.09 883.22 337.899C991.016 325.292 1096.09 254.125 1193 209.004C1263.19 176.322 1372.3 113.708 1436.85 187.207C1487.41 244.796 1485.76 319.961 1572.39 338.759" stroke="#B1B1B1" stroke-miterlimit="10"/>
<path d="M-183 254.462H694.68C756.675 254.462 821.583 260.182 883.358 253.435C983.648 242.494 1080.8 187.016 1173.45 150.002C1248.34 120.097 1341.48 75.0314 1413.9 132.648C1471.63 178.575 1492.96 238.746 1572.42 254.406" stroke="#B1B1B1" stroke-miterlimit="10"/>
<path d="M-183 169.936H694.681C757.087 169.936 820.401 173.157 882.726 169.687C970.7 164.8 1055.92 131.562 1140.35 108.349C1217.99 87.0241 1297.44 68.0592 1375.44 97.9365C1444.17 124.176 1496.4 163.689 1572.36 169.936" stroke="#B1B1B1" stroke-miterlimit="10"/>
<path d="M-183 85.5016H694.681C834.56 85.5016 969.6 81.3643 1108.54 65.1761C1184.48 56.3184 1262.5 52.8753 1338.49 61.4276C1417.03 70.2575 1492.77 86.4179 1572.31 85.5849" stroke="#B1B1B1" stroke-miterlimit="10"/>
<path d="M1405.19 1.08643C1409.61 70.504 1440.1 120.485 1460.75 184.099C1483.92 255.543 1474.96 340.927 1479.83 415.509C1490.39 577.891 1494.45 735.385 1485.13 897.961C1480.85 973.127 1483.32 1050.43 1475.9 1125.18C1470.4 1181.05 1445 1212.39 1419.62 1259.1C1384.95 1322.96 1394.88 1395.82 1396.8 1466.07C1399.72 1568.81 1404.34 1671.3 1405.19 1774.01" stroke="#B1B1B1" stroke-miterlimit="10"/>
<path d="M1321.66 1C1332.8 71.8337 1377.31 83.8846 1415.6 134.282C1457.42 189.26 1443.67 300.19 1450 366.247C1458.99 460.655 1472.35 555.341 1474.08 650.137C1475.65 735.216 1465.83 820.766 1458.85 905.427C1452.3 985.396 1460.99 1081.08 1442.35 1158.69C1428.61 1216.39 1390.81 1213.86 1347.48 1238.74C1281.85 1276.48 1304.67 1365.67 1307.37 1429.42C1312.23 1544.29 1319.55 1659 1321.55 1773.95" stroke="#B1B1B1" stroke-miterlimit="10"/>
<path d="M1238.04 1.0542C1251.78 80.2457 1305.04 63.4467 1354.99 104.514C1403.98 144.832 1389.85 279.696 1396.23 337.757C1407.42 437.718 1424.21 538.54 1426.28 639.251C1428.09 729.383 1415.8 820.126 1407.33 909.647C1402.22 963.737 1396.83 1017.94 1392.85 1072.03C1390.54 1103.43 1396.75 1147.78 1387.35 1178.32C1368.43 1240.21 1317.93 1216.44 1269.13 1225.8C1187.78 1241.35 1217.14 1345.64 1220.22 1407.59C1226.27 1529.77 1235.56 1651.69 1237.87 1774.12" stroke="#B1B1B1" stroke-miterlimit="10"/>
<path d="M1154.49 1C1167.68 74.4993 1215.96 73.583 1259.89 119.399C1305.61 167.047 1292.25 289.111 1300.72 351.337C1313.83 447.633 1334.06 545.234 1335.05 642.696C1335.91 729.968 1326.97 817.906 1321.67 904.928C1318.53 956.519 1315.32 1008.14 1312.54 1059.78C1310.89 1091.02 1316.74 1134.23 1307.84 1164.74C1289.69 1227.03 1233.83 1214.36 1183.88 1231.58C1103.6 1259.35 1129.77 1348.64 1133.95 1418.51C1141.02 1537.02 1152.65 1655.16 1154.43 1773.92" stroke="#B1B1B1" stroke-miterlimit="10"/>
<path d="M1070.85 1.0542C1077.75 69.611 1114.46 105.625 1141.75 164.185C1172.52 230.104 1164.3 322.069 1178.51 393.791C1195.67 480.257 1219.75 567.057 1223.32 655.578C1226.37 733.576 1225.66 811.907 1228.22 889.96C1230.55 961.349 1248.48 1053.12 1232.31 1123.2C1215.82 1194.15 1148.88 1209.09 1096.75 1246.38C1021.31 1300.36 1035.55 1365.61 1043.2 1451.41C1052.74 1559.01 1067.94 1665.88 1070.83 1773.98" stroke="#B1B1B1" stroke-miterlimit="10"/>
<path d="M987.194 1.14062C988.184 75.2786 1007.37 142.975 1018.65 215.391C1030.77 293.139 1028.1 365.888 1050.34 442.608C1072.34 518.135 1099.83 591.717 1107.14 670.687C1113.33 738.771 1121.11 805.107 1133.2 872.664C1144.2 934.862 1168.37 1011.8 1157.95 1075.36C1144.56 1157.39 1062.91 1208.09 1009.16 1262.79C939.028 1334.26 938.918 1393.71 951.427 1489.04C963.936 1584.36 983.043 1677.85 987.167 1773.98" stroke="#B1B1B1" stroke-miterlimit="10"/>
<path d="M903.622 1.14062C902.303 84.4417 906.014 167.743 907.499 251.044C908.956 331.79 907.499 399.764 936.585 475.957C962.317 543.791 993.356 607.211 1001.77 680.322C1008.58 741.787 1022.04 802.312 1041.93 860.808C1060.71 916.536 1088.67 982.094 1080.75 1042.46C1068.93 1133.34 976.613 1207.84 922.674 1275.04C857.711 1355.98 845.202 1414.48 862.192 1515.11C876.735 1601.71 899.223 1685.68 903.76 1773.81" stroke="#B1B1B1" stroke-miterlimit="10"/>
<path d="M820.071 1.08643C820.071 155.443 794.668 333.485 848.388 480.512C872.855 547.43 902.382 610.35 910.354 682.184C917.117 743.271 927.097 793.252 951.455 850.868C973.448 902.765 999.071 961.742 991.181 1019.83C978.727 1111.46 885.887 1189.51 832.25 1258.63C768.468 1340.73 753.21 1399.35 771.767 1500.67C788.648 1592.3 816.662 1680.49 820.016 1774.2" stroke="#B1B1B1" stroke-miterlimit="10"/>
<path d="M736.603 1.08643C736.603 158.22 717.578 328.737 756.809 481.9C774.322 550.235 795.161 615.848 801.154 686.626C805.36 735.913 810.419 766.484 838.763 807.885C933.858 946.72 801.319 1058.87 718.266 1166.08C648.519 1256.1 641.288 1315.85 664.711 1425.81C689.454 1541.91 729.043 1655 736.63 1774.15" stroke="#B1B1B1" stroke-miterlimit="10"/>
<path d="M652.889 1.08643C652.889 160.747 641.617 325.183 662.126 483.816C671.144 553.567 681.013 622.013 684.12 692.374C684.422 699.344 681.151 740.189 691.625 747.908C701.687 755.378 708.945 747.908 716.945 751.962C724.945 756.016 732.066 747.825 742.238 756.016C753.427 765.041 750.65 798.861 749.083 811.689C738.087 901.349 646.786 978.291 594.689 1045.82C517.464 1145.78 522.247 1209.48 550.701 1330.68C585.369 1478.13 637.411 1622.57 652.697 1773.87" stroke="#B1B1B1" stroke-miterlimit="10"/>
<path d="M569.286 1.08643C569.286 141.365 567.389 281.783 568.983 422.062C569.698 483.872 572.942 545.625 574.482 607.407C575.224 640.894 560.983 713.699 581.52 740.245C603.046 724.945 605.685 693.041 627.184 677.824C688.326 772.232 471.442 949.941 433.943 1022.8C385.997 1115.88 438.534 1238.22 463.442 1331.68C502.343 1477.76 551.636 1623.24 569.396 1773.87" stroke="#B1B1B1" stroke-miterlimit="10"/>
<path d="M485.714 1.08643V608.296C485.714 641.144 471.83 714.671 492.697 740.439C512.986 721.002 514.69 688.598 535.007 669.189C595.022 756.905 384.213 942.833 349.106 1011.97C300.913 1106.99 353.202 1228.56 378.385 1324.02C417.561 1472.68 467.019 1620.82 485.604 1773.84" stroke="#B1B1B1" stroke-miterlimit="10"/>
<path d="M402.111 1.08643V485.399C402.111 556.121 400.379 627.011 402.111 697.816C402.111 697.955 400.077 746.742 407.61 750.574C410.222 751.851 426.057 750.713 423.61 748.463C422.235 747.186 435.597 743.882 439.583 746.381C448.93 752.24 445.081 789.475 443.982 799.138C435.047 881.773 372.503 955.883 332.749 1025.58C273.944 1128.48 280.982 1196.98 305.587 1312.33C338.33 1465.96 386.001 1617.24 402.111 1773.93" stroke="#B1B1B1" stroke-miterlimit="10"/>
<path d="M318.532 1.08643V485.399C318.532 593.996 308.14 706.674 329.968 813.327C354.931 935.502 318.669 1033.74 280.483 1148.92C212.88 1352.81 309.624 1567.2 318.559 1774.04" stroke="#B1B1B1" stroke-miterlimit="10"/>
<path d="M234.934 1.08643C234.934 290.086 226.686 580.556 237.683 869.389C242.473 998.198 238.035 1127.19 224.404 1255.35C206.397 1428.76 237.71 1600.77 234.961 1774.12" stroke="#B1B1B1" stroke-miterlimit="10"/>
<path d="M151.359 1.08643V1774.01" stroke="#B1B1B1" stroke-miterlimit="10"/>
<path d="M67.7568 1.08643V1774.01" stroke="#B1B1B1" stroke-miterlimit="10"/>
</svg>
