<svg width="1428" height="371" viewBox="0 0 1428 371" fill="none" xmlns="http://www.w3.org/2000/svg">
<path d="M428.551 8.82668C649.381 6.34893 870.343 7.25597 1091.22 6.34894C1132.25 35.1085 1169.11 39.0685 1184.33 92.6277C1201.48 153.045 1219.46 175.477 1265.41 217.356C1320.41 267.486 1375.49 315.913 1425.89 370.888C939.941 370.224 453.978 370.224 -32 370.888C9.61289 338.013 63.3048 320.492 101.024 283.658C134.385 251.181 161.22 219.236 198.364 190.123C275.506 129.506 339.153 48.5149 428.551 8.82668Z" stroke="#CCCCCC" stroke-miterlimit="10"/>
<path d="M54.0117 316.067C123.19 329.894 194.137 351.464 265.129 352.968C315.082 354.052 363.531 341.265 411.582 329.297C460.252 317.195 508.568 304.652 559.096 305.935C609.625 307.218 658.958 320.58 708.004 331.841C813.198 355.954 914.056 351.928 1021.26 348.742C1074.18 347.15 1127.78 349.119 1180.55 344.694C1243.62 339.429 1304.99 320.824 1367.15 310.006" stroke="#CCCCCC" stroke-miterlimit="10"/>
<path d="M121.441 260.759C178.275 265.073 236.48 270.936 293.512 265.67C348.819 260.56 402.511 244.565 456.535 232.486C503.501 221.956 554.339 210.209 602.412 219.655C646.658 228.349 684.974 254.255 724.087 275.272C815.498 324.473 907.706 314.274 1008.85 313.986C1060.55 313.832 1112.63 315.624 1164.29 313.566C1222.34 311.354 1272.18 291.731 1326.14 271.688" stroke="#CCCCCC" stroke-miterlimit="10"/>
<path d="M175.746 207.841C229.748 207.73 282.555 208.682 335.937 198.992C389.784 189.28 442.303 173.462 496.017 163.065C539.997 154.547 585.017 147.579 628.245 162.711C667.114 176.228 699.038 202.664 733.483 224.278C813.567 274.563 898.518 263.413 989.775 265.537C1093.88 267.993 1189.74 274.099 1289.25 238.99" stroke="#CCCCCC" stroke-miterlimit="10"/>
<path d="M224.07 169.903C329.375 169.638 421.361 128.003 523.369 109.066C606.617 93.5796 665.84 122.538 740.526 153.488C808.332 181.562 878.528 176.606 950.404 182.956C1045.78 191.384 1137.01 199.083 1232.58 187.38" stroke="#CCCCCC" stroke-miterlimit="10"/>
<path d="M265.76 137.162C359.317 127.826 443.605 84.3551 536.011 70.7939C611.848 59.7325 676.867 90.3504 746.93 113.734C812.723 135.724 879.467 132.981 947.848 138.556C1032.29 145.436 1114.43 151.343 1199.27 146.852" stroke="#CCCCCC" stroke-miterlimit="10"/>
<path d="M301.881 104.684C380.66 86.61 455.833 46.435 536.913 39.3115C611.356 32.6747 683.742 62.2307 754.711 79.8846C891.872 114.02 1044.7 93.1583 1185.13 95.8794" stroke="#CCCCCC" stroke-miterlimit="10"/>
<path d="M331.748 72.3629C400.041 50.2401 467.936 14.2685 540.985 12.6315C615.583 10.9059 689.893 36.9665 762.212 51.5896C896.675 78.867 1034.65 53.2488 1170.64 55.3726" stroke="#CCCCCC" stroke-miterlimit="10"/>
<path d="M359.02 43.9582C427.888 22.7867 496.557 -3.95971 569.849 1.79221C635.421 6.94681 699.533 23.561 764.242 34.4675C891.138 55.9044 1020.87 38.2505 1148.85 37.2328" stroke="#CCCCCC" stroke-miterlimit="10"/>
<path d="M384.324 27.6747C447.197 15.662 509.384 4.26875 573.673 7.14471C636.833 9.97642 699.352 20.4184 762.203 26.834C882.971 39.0237 1005.69 28.6702 1126.81 27.564" stroke="#CCCCCC" stroke-miterlimit="10"/>
<path d="M407.672 18.3619C525.829 9.31368 641.996 15.4639 760.132 19.5123C875.657 23.4723 991.58 19.092 1107.15 18.4725" stroke="#CCCCCC" stroke-miterlimit="10"/>
<path d="M1030.53 6.54828C1066.15 35.9052 1095.15 43.3163 1104.13 92.827C1108.25 115.591 1106.17 139.174 1114.6 161.009C1125.66 189.526 1151.54 212.201 1171.79 234.479C1193.91 258.814 1215.26 283.149 1235.48 309.165C1252.22 330.647 1276.29 348.433 1291.09 370.998" stroke="#CCCCCC" stroke-miterlimit="10"/>
<path d="M969.953 6.83716C1001.08 37.6763 1025.92 44.1361 1028.27 92.3416C1026.32 116.211 1027.12 140.225 1030.68 163.909C1042.81 188.253 1056.83 211.612 1072.6 233.772C1102.4 278.328 1124.57 329.298 1156.78 370.933" stroke="#CCCCCC" stroke-miterlimit="10"/>
<path d="M909.478 7.12244C938.237 43.2046 957.086 51.1467 952.351 101.277C947.927 148.885 954.984 182.489 969.342 228.372C984.208 275.936 999.252 327.371 1022.9 370.909" stroke="#CCCCCC" stroke-miterlimit="10"/>
<path d="M849.057 7.3905C866.932 48.1627 886.267 51.5254 874.631 100.594C864.565 143.114 865.892 180.678 867.308 224.481C868.923 274.324 872.064 324.586 889.431 371" stroke="#CCCCCC" stroke-miterlimit="10"/>
<path d="M788.758 7.78857C790.539 19.8078 794.942 31.288 801.656 41.4152C803.016 59.3397 799.892 77.3209 792.564 93.7355C781.192 133.07 777.719 169.816 774.865 210.632C771.193 264.125 768.56 318.657 756.349 370.978" stroke="#CCCCCC" stroke-miterlimit="10"/>
<path d="M728.53 7.9223C714.092 60.4408 702.351 113.664 693.355 167.383C680.966 238.862 646.212 302 623.956 370.912" stroke="#CCCCCC" stroke-miterlimit="10"/>
<path d="M668.221 7.89655C660.611 16.023 652.138 17.2249 642.802 11.5025C629.529 17.9476 623.946 28.7804 626.056 44.0008C627.87 57.6866 627.87 71.5519 626.056 85.2377C619.265 100.739 613.551 116.691 608.955 132.979C581.677 215.806 531.525 293.147 491.704 370.82" stroke="#CCCCCC" stroke-miterlimit="10"/>
<path d="M608.054 7.94197C587.679 18.7158 580.578 -1.12836 562.349 4.13686C539.894 10.6409 548.058 28.9365 545.115 46.5462C539.275 81.301 526.532 105.99 510.272 138.068C486.335 185.234 459.124 229.789 437.001 277.884C425.719 302.329 417.799 325.403 397.822 344.252C387.07 354.451 371.673 360.623 360.368 370.932" stroke="#CCCCCC" stroke-miterlimit="10"/>
<path d="M548.198 8.29655C525.943 16.1944 504.572 -3.22943 484.33 10.6858C471.963 19.1809 467.494 44.0248 463.49 57.1436C451.035 98.0928 425.881 130.149 401.303 164.66C365.376 215.056 347.744 255.762 322.281 312.418C313.033 333.014 309.14 346.332 288.654 355.889C269.805 364.738 249.032 361.884 229.1 370.933" stroke="#CCCCCC" stroke-miterlimit="10"/>
<path d="M488.28 8.27197C466.157 15.9707 440.34 12.4532 420.805 26.8772C402.62 40.2836 392.842 65.8796 381.25 84.2415C356.915 122.713 326.474 155.034 294.639 187.378C280.923 201.315 263.336 213.925 251.411 229.411C232.231 254.388 226.059 286.045 209.621 312.504C184.468 353.055 136.13 347.215 98.2998 370.886" stroke="#CCCCCC" stroke-miterlimit="10"/>
</svg>
