<svg width="31" height="32" viewBox="0 0 31 32" fill="none" xmlns="http://www.w3.org/2000/svg">
<path d="M12.8569 2.50007C12.8569 2.82837 12.9216 3.15346 13.0472 3.45678C13.1729 3.76009 13.357 4.03569 13.5892 4.26784C13.8213 4.49998 14.0969 4.68413 14.4002 4.80977C14.7035 4.93541 15.0286 5.00007 15.3569 5.00007C15.6852 5.00007 16.0103 4.93541 16.3136 4.80977C16.617 4.68413 16.8926 4.49998 17.1247 4.26784C17.3569 4.03569 17.541 3.76009 17.6666 3.45678C17.7923 3.15346 17.8569 2.82837 17.8569 2.50007C17.8569 2.17176 17.7923 1.84667 17.6666 1.54336C17.541 1.24004 17.3569 0.964443 17.1247 0.732296C16.8926 0.500149 16.617 0.316 16.3136 0.190363C16.0103 0.0647256 15.6852 6.10352e-05 15.3569 6.10352e-05C15.0286 6.10352e-05 14.7035 0.0647256 14.4002 0.190363C14.0969 0.316 13.8213 0.500149 13.5892 0.732296C13.357 0.964443 13.1729 1.24004 13.0472 1.54336C12.9216 1.84667 12.8569 2.17176 12.8569 2.50007Z" fill="#FFCC64"/>
<path d="M12.844 3.12663C14.4363 2.64692 16.1346 2.64692 17.7269 3.12663C20.2882 3.90478 24.0362 5.67049 24.7141 9.42865C25.7616 15.2369 25.6679 20.3187 29.4284 21.4287H1.14258C4.90301 20.3187 4.8093 15.2369 5.85687 9.42865C6.53473 5.67049 10.2827 3.90478 12.844 3.12663Z" fill="#FFBC67"/>
<path d="M17.495 21.4287H1.14258C4.90301 20.3187 4.8093 15.2369 5.85687 9.42864C6.53473 5.67049 10.2827 3.90478 12.844 3.12663C14.4363 2.64692 16.1346 2.64692 17.7269 3.12663C18.3498 3.31592 19.0426 3.56349 19.7446 3.88392C18.4428 4.29378 16.9998 5.24106 17.1426 7.42864C17.3159 10.0808 17.8755 17.1124 17.495 21.4287Z" fill="#FFCE69"/>
<path d="M11.7127 4.70854C11.9708 4.55768 12.3094 4.63454 12.468 4.88011C12.6267 5.12554 12.5458 5.44725 12.2875 5.59811C12.2875 5.59811 10.09 7.03197 9.19682 10.9331C8.81768 12.5891 8.68925 14.6774 9.04282 17.2829C9.09654 17.8299 8.67268 18.3154 8.09725 18.3664C7.52168 18.4173 7.01096 18.0146 6.95739 17.4674C6.73753 13.8316 7.31154 11.1578 8.13225 9.22712C9.56597 5.85411 11.7127 4.70854 11.7127 4.70854Z" fill="#FFEFC5"/>
<path d="M0 26.4287V22.2859C0 19.9993 6.8813 18.143 15.3572 18.143C23.8331 18.143 30.7144 19.9993 30.7144 22.2859V26.4287C30.7144 28.7153 23.8331 30.5716 15.3572 30.5716C6.8813 30.5716 0 28.7153 0 26.4287Z" fill="#FFC96A"/>
<path d="M29.8106 20.8833C30.3955 21.3214 30.7143 21.7937 30.7143 22.2858V26.4287C30.7143 27.9471 27.6794 29.276 23.158 29.9973C21.83 29.7616 20.9226 28.5074 21.1236 27.1656L21.8644 22.2207C22.0689 20.8561 23.3427 19.9143 24.7073 20.1187L29.8106 20.8833Z" fill="#FFBA63"/>
<path d="M0 22.9561V22.2857C0 20.757 3.07572 19.4207 7.6473 18.7027C7.68516 19.8081 6.98016 20.8453 5.87201 21.1804L0 22.9561Z" fill="#FFEFC5"/>
<path d="M0 26.4286C0 27.5273 1.61798 28.5811 4.49801 29.358C7.37804 30.135 11.2842 30.5714 15.3572 30.5714C19.4302 30.5714 23.3363 30.135 26.2163 29.358C29.0964 28.5811 30.7144 27.5273 30.7144 26.4286C30.7144 25.3298 29.0964 24.2761 26.2163 23.4991C23.3363 22.7222 19.4302 22.2857 15.3572 22.2857C11.2842 22.2857 7.37804 22.7222 4.49801 23.4991C1.61798 24.2761 0 25.3298 0 26.4286Z" fill="#FFBC60"/>
<path d="M2.5 26.4285C2.5 27.0293 3.85458 27.6055 6.26574 28.0303C8.6769 28.4551 11.9471 28.6938 15.357 28.6938C18.7669 28.6938 22.0372 28.4551 24.4483 28.0303C26.8595 27.6055 28.2141 27.0293 28.2141 26.4285C28.2141 25.8277 26.8595 25.2515 24.4483 24.8267C22.0372 24.4019 18.7669 24.1632 15.357 24.1632C11.9471 24.1632 8.6769 24.4019 6.26574 24.8267C3.85458 25.2515 2.5 25.8277 2.5 26.4285Z" fill="#F8873B"/>
<path d="M11.0929 28.5663C6.09001 28.256 2.5 27.4158 2.5 26.4288C2.5 25.342 6.85272 24.4329 12.6516 24.2137C11.6417 25.0133 10.9934 26.2499 10.9934 27.6366C10.9934 27.9556 11.0277 28.2666 11.0929 28.5663ZM18.0625 24.2137C23.8613 24.4329 28.2141 25.342 28.2141 26.4288C28.2141 27.4158 24.624 28.256 19.6212 28.5663C19.6863 28.2666 19.7206 27.9556 19.7206 27.6366C19.7206 26.2499 19.0723 25.0133 18.0625 24.2137Z" fill="#F8873B"/>
<path d="M19.6214 28.5661C19.195 30.5284 17.4465 31.9999 15.3572 31.9999C13.2679 31.9999 11.5195 30.5284 11.0931 28.5661C11.0268 28.2606 10.9935 27.9489 10.9937 27.6364C10.9937 26.2496 11.6419 25.0131 12.6518 24.2135C13.5532 24.1797 14.4552 24.163 15.3572 24.1632C16.2852 24.1632 17.1904 24.1805 18.0627 24.2135C19.0725 25.0131 19.7208 26.2496 19.7208 27.6364C19.7208 27.9554 19.6865 28.2664 19.6214 28.5661Z" fill="#FCC876"/>
<path d="M18.1873 27.7767C18.7314 28.1337 18.7534 29.0634 18.2363 29.8515C17.7191 30.6395 16.8576 30.9895 16.3134 30.6325C15.7694 30.2755 15.7474 29.3458 16.2646 28.5578C16.7817 27.7697 17.6433 27.4197 18.1873 27.7767Z" fill="#FFDB89"/>
</svg>
