<svg width="87" height="86" viewBox="0 0 87 86" fill="none" xmlns="http://www.w3.org/2000/svg">
<g filter="url(#filter0_d_1151_17391)">
<mask id="path-1-outside-1_1151_17391" maskUnits="userSpaceOnUse" x="13.25" y="9.22266" width="61" height="61" fill="black">
<rect fill="white" x="13.25" y="9.22266" width="61" height="61"/>
<path d="M65.2652 39.3469C65.6328 39.2487 66.0147 39.1988 66.3985 39.1988C67.258 39.1997 68.0931 39.4525 68.7744 39.9181C69.4558 40.3838 69.9453 41.0362 70.1672 41.7742C70.3139 42.2563 70.3404 42.761 70.2447 43.253C70.149 43.7451 69.9336 44.2127 69.6133 44.623C72.2771 48.2918 72.8908 51.4531 71.383 53.7805C70.012 55.899 67.0221 57.019 62.7352 57.019C61.3457 57.019 59.8223 56.9013 58.2077 56.671C56.9128 56.4817 55.6282 56.2401 54.3579 55.9471C54.0092 57.0695 53.603 58.1771 53.1406 59.2666C50.7317 64.8755 47.3859 67.9634 43.7198 67.9634C40.0479 67.9634 36.705 64.8755 34.306 59.2666C33.8423 58.176 33.4351 57.0671 33.0858 55.9433C29.9792 56.6571 27.1617 57.019 24.7057 57.019C24.5235 57.019 24.3512 57.019 24.1718 57.0127C20.1811 56.9216 17.372 55.8015 16.0579 53.7754C14.5729 51.4886 15.1424 48.3854 17.7052 44.7862C17.1302 44.1689 16.8169 43.3919 16.8196 42.5905C16.821 42.018 16.9817 41.4548 17.2874 40.9509C17.593 40.447 18.034 40.0181 18.5713 39.7024C19.1085 39.3867 19.7252 39.194 20.3665 39.1415C21.0078 39.089 21.6538 39.1782 22.2469 39.4013C19.9476 37.2967 18.148 35.2162 16.9577 33.2723C15.0471 30.1565 14.7338 27.4356 16.0508 25.4056C17.4332 23.2821 20.4274 22.1608 24.7128 22.1608C26.0967 22.1608 27.6187 22.2785 29.2389 22.5101C30.358 22.6721 31.5169 22.8859 32.7086 23.1504C32.3179 22.8271 32.0065 22.4358 31.7936 22.0007C31.5807 21.5657 31.471 21.0963 31.4713 20.6219C31.4724 20.1436 31.5847 19.6707 31.801 19.2328C32.0173 18.7949 32.333 18.4015 32.7284 18.0771C33.1238 17.7527 33.5903 17.5045 34.0987 17.3478C34.6071 17.1912 35.1463 17.1296 35.6827 17.1669C37.928 13.2766 40.7057 11.2227 43.7269 11.2227C47.3987 11.2227 50.7416 14.3119 53.1406 19.9195C53.582 20.9522 53.992 22.0659 54.3594 23.239C55.6863 22.9353 56.9791 22.6923 58.2077 22.5164C59.7041 22.2931 61.218 22.1758 62.7352 22.1658C67.0193 22.1658 70.0148 23.2884 71.3958 25.412C73.231 28.2316 71.8913 32.3472 67.6215 36.9968C66.8728 37.8086 66.0867 38.5926 65.2652 39.3469ZM67.1175 41.5553C66.9016 41.4426 66.656 41.3828 66.4056 41.3819C66.2824 41.3811 66.1596 41.396 66.0412 41.4262L66.0283 41.4287C65.6611 41.5171 65.3476 41.7303 65.1556 42.0223C64.9672 42.3155 64.9168 42.6629 65.0152 42.9891C65.1135 43.3152 65.3528 43.5936 65.681 43.7637C66.0116 43.9303 66.4024 43.9757 66.7701 43.8902C67.1332 43.8054 67.4435 43.5941 67.6443 43.2941C67.8324 43.0012 67.8826 42.654 67.7839 42.3283C67.6852 42.0025 67.4457 41.7247 67.1175 41.5553ZM58.5936 54.5069C60.0771 54.7208 61.4638 54.8283 62.7153 54.8283C66.0298 54.8283 68.349 54.0639 69.2488 52.6782C70.2355 51.1633 69.6646 48.7816 67.64 45.9467C67.2379 46.0684 66.8162 46.1308 66.3914 46.1315C65.7109 46.1315 65.036 45.9695 64.4423 45.6632C63.6602 45.2625 63.059 44.6327 62.7414 43.8816C62.4238 43.1305 62.4095 42.3046 62.7011 41.5452C60.6779 43.161 58.5465 44.6664 56.3184 46.053C56.0602 48.6675 55.6069 51.2637 54.9616 53.8248C56.2145 54.112 57.4347 54.3411 58.5936 54.5069ZM53.6532 47.6464C52.5139 48.2994 51.356 48.9264 50.1807 49.527C49.2752 49.9914 48.3498 50.4458 47.4215 50.8798C47.4571 51.0709 47.4756 51.262 47.4756 51.4531L47.4742 51.5734C49.2097 52.2087 50.9253 52.763 52.5882 53.2236C53.0353 51.4658 53.3912 49.5953 53.6532 47.6464ZM36.6181 58.4794C37.6076 60.7916 38.7965 62.6773 40.0565 63.9352C41.2553 65.1312 42.5252 65.7639 43.7269 65.7639C44.9299 65.7639 46.1999 65.1312 47.3987 63.9365C48.6587 62.6798 49.8475 60.7929 50.837 58.4807C51.2513 57.5138 51.6358 56.4622 51.9846 55.3485C50.1657 54.8467 48.3732 54.2719 46.6128 53.6261C46.2534 54.0225 45.8003 54.3437 45.2855 54.567C44.7708 54.7902 44.207 54.9099 43.6344 54.9176C43.0617 54.9254 42.4941 54.8209 41.972 54.6117C41.4498 54.4025 40.9859 54.0936 40.6132 53.7071C39.4443 54.1285 38.2797 54.5183 37.1449 54.8625L37.1264 54.8676C37.0964 54.8758 37.066 54.883 37.0353 54.8891C36.5213 55.0447 35.996 55.1966 35.4649 55.3409C35.8137 56.4508 36.1996 57.505 36.6181 58.4794ZM45.0125 51.4531C45.0122 51.2853 44.9748 51.1191 44.9022 50.9641C44.8297 50.8091 44.7236 50.6684 44.5898 50.5499C44.4561 50.4313 44.2974 50.3374 44.1229 50.2734C43.9483 50.2094 43.7612 50.1766 43.5724 50.1768C43.3836 50.1771 43.1966 50.2104 43.0223 50.2748C42.8479 50.3393 42.6896 50.4337 42.5562 50.5525C42.4229 50.6714 42.3172 50.8125 42.2452 50.9676C42.1732 51.1228 42.1363 51.2891 42.1366 51.4569C42.1371 51.7959 42.2892 52.1208 42.5592 52.3602C42.8293 52.5995 43.1953 52.7337 43.5767 52.7332C43.9581 52.7327 44.3236 52.5976 44.5929 52.3575C44.8621 52.1174 45.0131 51.7921 45.0125 51.4531ZM34.8641 53.2135C35.3596 53.0756 35.8564 52.9313 36.3476 52.7807C36.3908 52.7689 36.4345 52.7588 36.4786 52.7503C37.5561 52.4182 38.6234 52.0603 39.6792 51.6771C39.6543 51.3668 39.6788 51.055 39.7518 50.7507C37.7207 49.7908 35.7352 48.7564 33.8006 47.6502C34.0625 49.594 34.4185 51.4582 34.8641 53.2135ZM33.4945 44.8394C35.9083 46.3016 38.4123 47.6427 40.9947 48.8562C41.7256 48.2815 42.6727 47.9718 43.6483 47.9885C44.624 48.0051 45.557 48.3469 46.2626 48.9461C47.1682 48.5214 48.0648 48.0818 48.952 47.6274C50.6598 46.7536 52.33 45.8232 53.9593 44.8381C54.164 42.3993 54.2258 39.9526 54.1444 37.5081C53.3079 37.3147 52.5669 36.8808 52.0368 36.2739C51.5068 35.6671 51.2176 34.9214 51.2143 34.1531C51.2143 33.7266 51.304 33.3039 51.4763 32.9091C48.9737 31.5129 46.3856 30.2416 43.724 29.101C41.1385 30.2093 38.6224 31.4412 36.1868 32.7914C36.3245 33.2403 36.3594 33.7093 36.2894 34.1705C36.2194 34.6316 36.0458 35.0756 35.779 35.476C35.5122 35.8764 35.1576 36.2251 34.7363 36.5013C34.315 36.7776 33.8356 36.9757 33.3265 37.0841C33.2225 39.67 33.2786 42.259 33.4945 44.8394ZM33.8632 33.7127C33.8632 33.0078 33.2183 32.4332 32.4252 32.4332C32.1405 32.433 31.862 32.5078 31.6252 32.6482C31.3883 32.7887 31.2035 32.9884 31.0944 33.2222C30.9852 33.4559 30.9565 33.7132 31.0119 33.9615C31.0673 34.2098 31.2042 34.4379 31.4055 34.617C31.6067 34.796 31.8632 34.918 32.1425 34.9675C32.4217 35.0169 32.7112 34.9917 32.9743 34.8949C33.2374 34.7981 33.4623 34.6341 33.6205 34.4237C33.7788 34.2132 33.8632 33.9658 33.8632 33.7127ZM20.7221 41.3136C20.4448 41.3141 20.1737 41.3859 19.9412 41.5201C19.7087 41.6544 19.5248 41.8455 19.4115 42.0705C19.2983 42.2955 19.2606 42.5447 19.3029 42.7883C19.3452 43.0318 19.4657 43.2594 19.65 43.4435C19.9233 43.4964 20.1683 43.6303 20.3448 43.8231C20.5581 43.8744 20.7817 43.8813 20.9985 43.8435C21.2152 43.8056 21.4193 43.7239 21.5949 43.6048C21.7705 43.4857 21.9129 43.3322 22.0112 43.1563C22.1094 42.9805 22.1608 42.7869 22.1615 42.5905C22.1615 41.8856 21.5151 41.3136 20.7221 41.3136ZM20.7221 46.0568C20.4046 46.0568 20.0928 46.0227 19.7881 45.9556C17.7749 48.7828 17.2069 51.162 18.1907 52.6782C19.1047 54.0817 21.3571 54.8233 24.7043 54.8233C26.9609 54.8233 29.5763 54.4854 32.4822 53.8172C31.8364 51.2576 31.3836 48.6625 31.1268 46.0492C29.1931 44.8419 27.3303 43.5472 25.5457 42.1703C25.1165 41.8382 24.6927 41.5007 24.2743 41.1579C24.4993 41.5945 24.6246 42.0792 24.6246 42.5905C24.623 43.5099 24.2113 44.3911 23.4797 45.041C22.7481 45.6908 21.7564 46.0562 20.7221 46.0568ZM28.8474 24.6729C27.4842 24.4691 26.105 24.3616 24.7228 24.3514C21.4097 24.3514 19.0905 25.1146 18.1907 26.4965C17.3136 27.8443 17.6553 29.8528 19.1787 32.3016C20.7676 34.8555 23.5283 37.6954 27.1645 40.5125C27.1902 40.5326 27.2149 40.5537 27.2385 40.5757C28.4249 41.4878 29.6477 42.3615 30.9047 43.1954C30.7875 41.0941 30.7733 38.9892 30.862 36.8867C30.6047 36.7856 30.3604 36.6605 30.133 36.5133C29.1185 37.2046 28.128 37.9233 27.1631 38.6686C27.041 38.7636 26.8989 38.8362 26.745 38.8821C26.5911 38.928 26.4285 38.9464 26.2666 38.9362C26.1047 38.9259 25.9467 38.8873 25.8017 38.8225C25.6567 38.7576 25.5276 38.6679 25.4218 38.5585C25.315 38.45 25.2335 38.3238 25.182 38.1871C25.1305 38.0505 25.11 37.9061 25.1218 37.7623C25.1336 37.6185 25.1774 37.4783 25.2506 37.3497C25.3239 37.2211 25.4252 37.1068 25.5486 37.0132C26.57 36.2222 27.6189 35.4595 28.6936 34.7264C28.5797 34.398 28.5221 34.0563 28.5228 33.7127C28.5228 32.1168 29.7685 30.7298 31.4813 30.3501C31.6593 29.1795 31.8742 28.0215 32.1205 26.9015C32.1847 26.6178 32.3716 26.3678 32.6411 26.2054C32.9106 26.043 33.2411 25.9812 33.5614 26.0334C33.881 26.0898 34.1629 26.2555 34.3466 26.4947C34.5303 26.7339 34.6011 27.0277 34.5438 27.3128C34.311 28.3774 34.1125 29.4476 33.9486 30.5222C34.2547 30.6387 34.5423 30.7905 34.8071 30.9702C36.7679 29.8827 38.7795 28.8693 40.8367 27.9329C36.5868 26.3143 32.4608 25.1905 28.8474 24.6729ZM35.3738 19.3449C35.185 19.3449 34.998 19.378 34.8235 19.4422C34.649 19.5065 34.4905 19.6006 34.357 19.7193C34.2235 19.838 34.1175 19.9789 34.0453 20.134C33.973 20.2891 33.9358 20.4553 33.9358 20.6231C33.9358 20.791 33.973 20.9572 34.0453 21.1123C34.1175 21.2674 34.2235 21.4083 34.357 21.527C34.4905 21.6457 34.649 21.7398 34.8235 21.804C34.998 21.8683 35.185 21.9013 35.3738 21.9013C35.7552 21.9013 36.1209 21.7667 36.3906 21.527C36.6603 21.2873 36.8118 20.9621 36.8118 20.6231C36.8118 20.2841 36.6603 19.959 36.3906 19.7193C36.1209 19.4796 35.7552 19.3449 35.3738 19.3449ZM50.837 20.694C49.8461 18.3831 48.6573 16.4975 47.3973 15.2395C46.1985 14.0436 44.9299 13.4108 43.7269 13.4108C41.7493 13.4108 39.7091 15.0459 37.9565 18.0275C38.5023 18.4549 38.9026 19.0096 39.112 19.6288C39.3213 20.2481 39.3313 20.9071 39.1409 21.5311C38.9504 22.1552 38.5671 22.7193 38.0344 23.1596C37.5018 23.5999 36.841 23.8988 36.127 24.0224C38.7177 24.772 41.2551 25.6599 43.7255 26.6813C46.4059 25.5711 49.1664 24.6207 51.9888 23.8364C51.6591 22.7738 51.2748 21.7253 50.837 20.694ZM52.5897 25.9612C50.6491 26.4978 48.6459 27.1584 46.6128 27.9329C48.8175 28.9375 50.9695 30.0308 53.0623 31.2094C53.2275 31.1171 53.3983 31.0373 53.5749 30.9702C53.3344 29.2878 53.0056 27.6163 52.5897 25.9612ZM53.6774 34.1531C53.6774 34.4924 53.8291 34.8179 54.099 35.0578C54.3689 35.2978 54.735 35.4326 55.1168 35.4326C55.4986 35.4326 55.8647 35.2978 56.1346 35.0578C56.4046 34.8179 56.5562 34.4924 56.5562 34.1531C56.5562 33.8138 56.4046 33.4883 56.1346 33.2484C55.8647 33.0084 55.4986 32.8736 55.1168 32.8736C54.735 32.8736 54.3689 33.0084 54.099 33.2484C53.8291 33.4883 53.6774 33.8138 53.6774 34.1531ZM69.256 26.5016C68.3562 25.1196 66.0355 24.359 62.7196 24.359C61.4653 24.359 60.0771 24.4666 58.5936 24.6792C57.4361 24.8463 56.2159 25.0741 54.9616 25.3613C55.403 27.0787 55.7618 28.8998 56.0323 30.7842C56.8828 30.9671 57.6395 31.3986 58.1812 32.0095C58.7228 32.6204 59.018 33.3753 59.0193 34.1531C59.0193 34.3898 58.9552 34.6138 58.9011 34.8403C59.9777 35.576 61.028 36.3416 62.0504 37.136C62.1727 37.2305 62.2727 37.3456 62.3445 37.4747C62.4164 37.6038 62.4587 37.7443 62.469 37.888C62.4794 38.0317 62.4575 38.1758 62.4047 38.312C62.3519 38.4482 62.2692 38.5737 62.1615 38.6812C62.0548 38.7898 61.925 38.8785 61.7796 38.9421C61.6342 39.0058 61.476 39.0432 61.3141 39.0521C61.1523 39.0611 60.9901 39.0414 60.8369 38.9942C60.6837 38.9471 60.5426 38.8734 60.4217 38.7774C59.5238 38.0813 58.6037 37.4082 57.6624 36.7589C57.3485 37.0081 56.9907 37.2099 56.6032 37.3562C56.6695 39.3047 56.6491 41.2547 56.542 43.2018C60.2394 40.7453 63.3944 38.1345 65.7094 35.6085C67.4706 33.6937 68.7149 31.8359 69.3101 30.2388C69.8767 28.7188 69.8582 27.4267 69.256 26.5016Z"/>
</mask>
<path d="M65.2652 39.3469C65.6328 39.2487 66.0147 39.1988 66.3985 39.1988C67.258 39.1997 68.0931 39.4525 68.7744 39.9181C69.4558 40.3838 69.9453 41.0362 70.1672 41.7742C70.3139 42.2563 70.3404 42.761 70.2447 43.253C70.149 43.7451 69.9336 44.2127 69.6133 44.623C72.2771 48.2918 72.8908 51.4531 71.383 53.7805C70.012 55.899 67.0221 57.019 62.7352 57.019C61.3457 57.019 59.8223 56.9013 58.2077 56.671C56.9128 56.4817 55.6282 56.2401 54.3579 55.9471C54.0092 57.0695 53.603 58.1771 53.1406 59.2666C50.7317 64.8755 47.3859 67.9634 43.7198 67.9634C40.0479 67.9634 36.705 64.8755 34.306 59.2666C33.8423 58.176 33.4351 57.0671 33.0858 55.9433C29.9792 56.6571 27.1617 57.019 24.7057 57.019C24.5235 57.019 24.3512 57.019 24.1718 57.0127C20.1811 56.9216 17.372 55.8015 16.0579 53.7754C14.5729 51.4886 15.1424 48.3854 17.7052 44.7862C17.1302 44.1689 16.8169 43.3919 16.8196 42.5905C16.821 42.018 16.9817 41.4548 17.2874 40.9509C17.593 40.447 18.034 40.0181 18.5713 39.7024C19.1085 39.3867 19.7252 39.194 20.3665 39.1415C21.0078 39.089 21.6538 39.1782 22.2469 39.4013C19.9476 37.2967 18.148 35.2162 16.9577 33.2723C15.0471 30.1565 14.7338 27.4356 16.0508 25.4056C17.4332 23.2821 20.4274 22.1608 24.7128 22.1608C26.0967 22.1608 27.6187 22.2785 29.2389 22.5101C30.358 22.6721 31.5169 22.8859 32.7086 23.1504C32.3179 22.8271 32.0065 22.4358 31.7936 22.0007C31.5807 21.5657 31.471 21.0963 31.4713 20.6219C31.4724 20.1436 31.5847 19.6707 31.801 19.2328C32.0173 18.7949 32.333 18.4015 32.7284 18.0771C33.1238 17.7527 33.5903 17.5045 34.0987 17.3478C34.6071 17.1912 35.1463 17.1296 35.6827 17.1669C37.928 13.2766 40.7057 11.2227 43.7269 11.2227C47.3987 11.2227 50.7416 14.3119 53.1406 19.9195C53.582 20.9522 53.992 22.0659 54.3594 23.239C55.6863 22.9353 56.9791 22.6923 58.2077 22.5164C59.7041 22.2931 61.218 22.1758 62.7352 22.1658C67.0193 22.1658 70.0148 23.2884 71.3958 25.412C73.231 28.2316 71.8913 32.3472 67.6215 36.9968C66.8728 37.8086 66.0867 38.5926 65.2652 39.3469ZM67.1175 41.5553C66.9016 41.4426 66.656 41.3828 66.4056 41.3819C66.2824 41.3811 66.1596 41.396 66.0412 41.4262L66.0283 41.4287C65.6611 41.5171 65.3476 41.7303 65.1556 42.0223C64.9672 42.3155 64.9168 42.6629 65.0152 42.9891C65.1135 43.3152 65.3528 43.5936 65.681 43.7637C66.0116 43.9303 66.4024 43.9757 66.7701 43.8902C67.1332 43.8054 67.4435 43.5941 67.6443 43.2941C67.8324 43.0012 67.8826 42.654 67.7839 42.3283C67.6852 42.0025 67.4457 41.7247 67.1175 41.5553ZM58.5936 54.5069C60.0771 54.7208 61.4638 54.8283 62.7153 54.8283C66.0298 54.8283 68.349 54.0639 69.2488 52.6782C70.2355 51.1633 69.6646 48.7816 67.64 45.9467C67.2379 46.0684 66.8162 46.1308 66.3914 46.1315C65.7109 46.1315 65.036 45.9695 64.4423 45.6632C63.6602 45.2625 63.059 44.6327 62.7414 43.8816C62.4238 43.1305 62.4095 42.3046 62.7011 41.5452C60.6779 43.161 58.5465 44.6664 56.3184 46.053C56.0602 48.6675 55.6069 51.2637 54.9616 53.8248C56.2145 54.112 57.4347 54.3411 58.5936 54.5069ZM53.6532 47.6464C52.5139 48.2994 51.356 48.9264 50.1807 49.527C49.2752 49.9914 48.3498 50.4458 47.4215 50.8798C47.4571 51.0709 47.4756 51.262 47.4756 51.4531L47.4742 51.5734C49.2097 52.2087 50.9253 52.763 52.5882 53.2236C53.0353 51.4658 53.3912 49.5953 53.6532 47.6464ZM36.6181 58.4794C37.6076 60.7916 38.7965 62.6773 40.0565 63.9352C41.2553 65.1312 42.5252 65.7639 43.7269 65.7639C44.9299 65.7639 46.1999 65.1312 47.3987 63.9365C48.6587 62.6798 49.8475 60.7929 50.837 58.4807C51.2513 57.5138 51.6358 56.4622 51.9846 55.3485C50.1657 54.8467 48.3732 54.2719 46.6128 53.6261C46.2534 54.0225 45.8003 54.3437 45.2855 54.567C44.7708 54.7902 44.207 54.9099 43.6344 54.9176C43.0617 54.9254 42.4941 54.8209 41.972 54.6117C41.4498 54.4025 40.9859 54.0936 40.6132 53.7071C39.4443 54.1285 38.2797 54.5183 37.1449 54.8625L37.1264 54.8676C37.0964 54.8758 37.066 54.883 37.0353 54.8891C36.5213 55.0447 35.996 55.1966 35.4649 55.3409C35.8137 56.4508 36.1996 57.505 36.6181 58.4794ZM45.0125 51.4531C45.0122 51.2853 44.9748 51.1191 44.9022 50.9641C44.8297 50.8091 44.7236 50.6684 44.5898 50.5499C44.4561 50.4313 44.2974 50.3374 44.1229 50.2734C43.9483 50.2094 43.7612 50.1766 43.5724 50.1768C43.3836 50.1771 43.1966 50.2104 43.0223 50.2748C42.8479 50.3393 42.6896 50.4337 42.5562 50.5525C42.4229 50.6714 42.3172 50.8125 42.2452 50.9676C42.1732 51.1228 42.1363 51.2891 42.1366 51.4569C42.1371 51.7959 42.2892 52.1208 42.5592 52.3602C42.8293 52.5995 43.1953 52.7337 43.5767 52.7332C43.9581 52.7327 44.3236 52.5976 44.5929 52.3575C44.8621 52.1174 45.0131 51.7921 45.0125 51.4531ZM34.8641 53.2135C35.3596 53.0756 35.8564 52.9313 36.3476 52.7807C36.3908 52.7689 36.4345 52.7588 36.4786 52.7503C37.5561 52.4182 38.6234 52.0603 39.6792 51.6771C39.6543 51.3668 39.6788 51.055 39.7518 50.7507C37.7207 49.7908 35.7352 48.7564 33.8006 47.6502C34.0625 49.594 34.4185 51.4582 34.8641 53.2135ZM33.4945 44.8394C35.9083 46.3016 38.4123 47.6427 40.9947 48.8562C41.7256 48.2815 42.6727 47.9718 43.6483 47.9885C44.624 48.0051 45.557 48.3469 46.2626 48.9461C47.1682 48.5214 48.0648 48.0818 48.952 47.6274C50.6598 46.7536 52.33 45.8232 53.9593 44.8381C54.164 42.3993 54.2258 39.9526 54.1444 37.5081C53.3079 37.3147 52.5669 36.8808 52.0368 36.2739C51.5068 35.6671 51.2176 34.9214 51.2143 34.1531C51.2143 33.7266 51.304 33.3039 51.4763 32.9091C48.9737 31.5129 46.3856 30.2416 43.724 29.101C41.1385 30.2093 38.6224 31.4412 36.1868 32.7914C36.3245 33.2403 36.3594 33.7093 36.2894 34.1705C36.2194 34.6316 36.0458 35.0756 35.779 35.476C35.5122 35.8764 35.1576 36.2251 34.7363 36.5013C34.315 36.7776 33.8356 36.9757 33.3265 37.0841C33.2225 39.67 33.2786 42.259 33.4945 44.8394ZM33.8632 33.7127C33.8632 33.0078 33.2183 32.4332 32.4252 32.4332C32.1405 32.433 31.862 32.5078 31.6252 32.6482C31.3883 32.7887 31.2035 32.9884 31.0944 33.2222C30.9852 33.4559 30.9565 33.7132 31.0119 33.9615C31.0673 34.2098 31.2042 34.4379 31.4055 34.617C31.6067 34.796 31.8632 34.918 32.1425 34.9675C32.4217 35.0169 32.7112 34.9917 32.9743 34.8949C33.2374 34.7981 33.4623 34.6341 33.6205 34.4237C33.7788 34.2132 33.8632 33.9658 33.8632 33.7127ZM20.7221 41.3136C20.4448 41.3141 20.1737 41.3859 19.9412 41.5201C19.7087 41.6544 19.5248 41.8455 19.4115 42.0705C19.2983 42.2955 19.2606 42.5447 19.3029 42.7883C19.3452 43.0318 19.4657 43.2594 19.65 43.4435C19.9233 43.4964 20.1683 43.6303 20.3448 43.8231C20.5581 43.8744 20.7817 43.8813 20.9985 43.8435C21.2152 43.8056 21.4193 43.7239 21.5949 43.6048C21.7705 43.4857 21.9129 43.3322 22.0112 43.1563C22.1094 42.9805 22.1608 42.7869 22.1615 42.5905C22.1615 41.8856 21.5151 41.3136 20.7221 41.3136ZM20.7221 46.0568C20.4046 46.0568 20.0928 46.0227 19.7881 45.9556C17.7749 48.7828 17.2069 51.162 18.1907 52.6782C19.1047 54.0817 21.3571 54.8233 24.7043 54.8233C26.9609 54.8233 29.5763 54.4854 32.4822 53.8172C31.8364 51.2576 31.3836 48.6625 31.1268 46.0492C29.1931 44.8419 27.3303 43.5472 25.5457 42.1703C25.1165 41.8382 24.6927 41.5007 24.2743 41.1579C24.4993 41.5945 24.6246 42.0792 24.6246 42.5905C24.623 43.5099 24.2113 44.3911 23.4797 45.041C22.7481 45.6908 21.7564 46.0562 20.7221 46.0568ZM28.8474 24.6729C27.4842 24.4691 26.105 24.3616 24.7228 24.3514C21.4097 24.3514 19.0905 25.1146 18.1907 26.4965C17.3136 27.8443 17.6553 29.8528 19.1787 32.3016C20.7676 34.8555 23.5283 37.6954 27.1645 40.5125C27.1902 40.5326 27.2149 40.5537 27.2385 40.5757C28.4249 41.4878 29.6477 42.3615 30.9047 43.1954C30.7875 41.0941 30.7733 38.9892 30.862 36.8867C30.6047 36.7856 30.3604 36.6605 30.133 36.5133C29.1185 37.2046 28.128 37.9233 27.1631 38.6686C27.041 38.7636 26.8989 38.8362 26.745 38.8821C26.5911 38.928 26.4285 38.9464 26.2666 38.9362C26.1047 38.9259 25.9467 38.8873 25.8017 38.8225C25.6567 38.7576 25.5276 38.6679 25.4218 38.5585C25.315 38.45 25.2335 38.3238 25.182 38.1871C25.1305 38.0505 25.11 37.9061 25.1218 37.7623C25.1336 37.6185 25.1774 37.4783 25.2506 37.3497C25.3239 37.2211 25.4252 37.1068 25.5486 37.0132C26.57 36.2222 27.6189 35.4595 28.6936 34.7264C28.5797 34.398 28.5221 34.0563 28.5228 33.7127C28.5228 32.1168 29.7685 30.7298 31.4813 30.3501C31.6593 29.1795 31.8742 28.0215 32.1205 26.9015C32.1847 26.6178 32.3716 26.3678 32.6411 26.2054C32.9106 26.043 33.2411 25.9812 33.5614 26.0334C33.881 26.0898 34.1629 26.2555 34.3466 26.4947C34.5303 26.7339 34.6011 27.0277 34.5438 27.3128C34.311 28.3774 34.1125 29.4476 33.9486 30.5222C34.2547 30.6387 34.5423 30.7905 34.8071 30.9702C36.7679 29.8827 38.7795 28.8693 40.8367 27.9329C36.5868 26.3143 32.4608 25.1905 28.8474 24.6729ZM35.3738 19.3449C35.185 19.3449 34.998 19.378 34.8235 19.4422C34.649 19.5065 34.4905 19.6006 34.357 19.7193C34.2235 19.838 34.1175 19.9789 34.0453 20.134C33.973 20.2891 33.9358 20.4553 33.9358 20.6231C33.9358 20.791 33.973 20.9572 34.0453 21.1123C34.1175 21.2674 34.2235 21.4083 34.357 21.527C34.4905 21.6457 34.649 21.7398 34.8235 21.804C34.998 21.8683 35.185 21.9013 35.3738 21.9013C35.7552 21.9013 36.1209 21.7667 36.3906 21.527C36.6603 21.2873 36.8118 20.9621 36.8118 20.6231C36.8118 20.2841 36.6603 19.959 36.3906 19.7193C36.1209 19.4796 35.7552 19.3449 35.3738 19.3449ZM50.837 20.694C49.8461 18.3831 48.6573 16.4975 47.3973 15.2395C46.1985 14.0436 44.9299 13.4108 43.7269 13.4108C41.7493 13.4108 39.7091 15.0459 37.9565 18.0275C38.5023 18.4549 38.9026 19.0096 39.112 19.6288C39.3213 20.2481 39.3313 20.9071 39.1409 21.5311C38.9504 22.1552 38.5671 22.7193 38.0344 23.1596C37.5018 23.5999 36.841 23.8988 36.127 24.0224C38.7177 24.772 41.2551 25.6599 43.7255 26.6813C46.4059 25.5711 49.1664 24.6207 51.9888 23.8364C51.6591 22.7738 51.2748 21.7253 50.837 20.694ZM52.5897 25.9612C50.6491 26.4978 48.6459 27.1584 46.6128 27.9329C48.8175 28.9375 50.9695 30.0308 53.0623 31.2094C53.2275 31.1171 53.3983 31.0373 53.5749 30.9702C53.3344 29.2878 53.0056 27.6163 52.5897 25.9612ZM53.6774 34.1531C53.6774 34.4924 53.8291 34.8179 54.099 35.0578C54.3689 35.2978 54.735 35.4326 55.1168 35.4326C55.4986 35.4326 55.8647 35.2978 56.1346 35.0578C56.4046 34.8179 56.5562 34.4924 56.5562 34.1531C56.5562 33.8138 56.4046 33.4883 56.1346 33.2484C55.8647 33.0084 55.4986 32.8736 55.1168 32.8736C54.735 32.8736 54.3689 33.0084 54.099 33.2484C53.8291 33.4883 53.6774 33.8138 53.6774 34.1531ZM69.256 26.5016C68.3562 25.1196 66.0355 24.359 62.7196 24.359C61.4653 24.359 60.0771 24.4666 58.5936 24.6792C57.4361 24.8463 56.2159 25.0741 54.9616 25.3613C55.403 27.0787 55.7618 28.8998 56.0323 30.7842C56.8828 30.9671 57.6395 31.3986 58.1812 32.0095C58.7228 32.6204 59.018 33.3753 59.0193 34.1531C59.0193 34.3898 58.9552 34.6138 58.9011 34.8403C59.9777 35.576 61.028 36.3416 62.0504 37.136C62.1727 37.2305 62.2727 37.3456 62.3445 37.4747C62.4164 37.6038 62.4587 37.7443 62.469 37.888C62.4794 38.0317 62.4575 38.1758 62.4047 38.312C62.3519 38.4482 62.2692 38.5737 62.1615 38.6812C62.0548 38.7898 61.925 38.8785 61.7796 38.9421C61.6342 39.0058 61.476 39.0432 61.3141 39.0521C61.1523 39.0611 60.9901 39.0414 60.8369 38.9942C60.6837 38.9471 60.5426 38.8734 60.4217 38.7774C59.5238 38.0813 58.6037 37.4082 57.6624 36.7589C57.3485 37.0081 56.9907 37.2099 56.6032 37.3562C56.6695 39.3047 56.6491 41.2547 56.542 43.2018C60.2394 40.7453 63.3944 38.1345 65.7094 35.6085C67.4706 33.6937 68.7149 31.8359 69.3101 30.2388C69.8767 28.7188 69.8582 27.4267 69.256 26.5016Z" fill="url(#paint0_linear_1151_17391)"/>
<path d="M65.2652 39.3469C65.6328 39.2487 66.0147 39.1988 66.3985 39.1988C67.258 39.1997 68.0931 39.4525 68.7744 39.9181C69.4558 40.3838 69.9453 41.0362 70.1672 41.7742C70.3139 42.2563 70.3404 42.761 70.2447 43.253C70.149 43.7451 69.9336 44.2127 69.6133 44.623C72.2771 48.2918 72.8908 51.4531 71.383 53.7805C70.012 55.899 67.0221 57.019 62.7352 57.019C61.3457 57.019 59.8223 56.9013 58.2077 56.671C56.9128 56.4817 55.6282 56.2401 54.3579 55.9471C54.0092 57.0695 53.603 58.1771 53.1406 59.2666C50.7317 64.8755 47.3859 67.9634 43.7198 67.9634C40.0479 67.9634 36.705 64.8755 34.306 59.2666C33.8423 58.176 33.4351 57.0671 33.0858 55.9433C29.9792 56.6571 27.1617 57.019 24.7057 57.019C24.5235 57.019 24.3512 57.019 24.1718 57.0127C20.1811 56.9216 17.372 55.8015 16.0579 53.7754C14.5729 51.4886 15.1424 48.3854 17.7052 44.7862C17.1302 44.1689 16.8169 43.3919 16.8196 42.5905C16.821 42.018 16.9817 41.4548 17.2874 40.9509C17.593 40.447 18.034 40.0181 18.5713 39.7024C19.1085 39.3867 19.7252 39.194 20.3665 39.1415C21.0078 39.089 21.6538 39.1782 22.2469 39.4013C19.9476 37.2967 18.148 35.2162 16.9577 33.2723C15.0471 30.1565 14.7338 27.4356 16.0508 25.4056C17.4332 23.2821 20.4274 22.1608 24.7128 22.1608C26.0967 22.1608 27.6187 22.2785 29.2389 22.5101C30.358 22.6721 31.5169 22.8859 32.7086 23.1504C32.3179 22.8271 32.0065 22.4358 31.7936 22.0007C31.5807 21.5657 31.471 21.0963 31.4713 20.6219C31.4724 20.1436 31.5847 19.6707 31.801 19.2328C32.0173 18.7949 32.333 18.4015 32.7284 18.0771C33.1238 17.7527 33.5903 17.5045 34.0987 17.3478C34.6071 17.1912 35.1463 17.1296 35.6827 17.1669C37.928 13.2766 40.7057 11.2227 43.7269 11.2227C47.3987 11.2227 50.7416 14.3119 53.1406 19.9195C53.582 20.9522 53.992 22.0659 54.3594 23.239C55.6863 22.9353 56.9791 22.6923 58.2077 22.5164C59.7041 22.2931 61.218 22.1758 62.7352 22.1658C67.0193 22.1658 70.0148 23.2884 71.3958 25.412C73.231 28.2316 71.8913 32.3472 67.6215 36.9968C66.8728 37.8086 66.0867 38.5926 65.2652 39.3469ZM67.1175 41.5553C66.9016 41.4426 66.656 41.3828 66.4056 41.3819C66.2824 41.3811 66.1596 41.396 66.0412 41.4262L66.0283 41.4287C65.6611 41.5171 65.3476 41.7303 65.1556 42.0223C64.9672 42.3155 64.9168 42.6629 65.0152 42.9891C65.1135 43.3152 65.3528 43.5936 65.681 43.7637C66.0116 43.9303 66.4024 43.9757 66.7701 43.8902C67.1332 43.8054 67.4435 43.5941 67.6443 43.2941C67.8324 43.0012 67.8826 42.654 67.7839 42.3283C67.6852 42.0025 67.4457 41.7247 67.1175 41.5553ZM58.5936 54.5069C60.0771 54.7208 61.4638 54.8283 62.7153 54.8283C66.0298 54.8283 68.349 54.0639 69.2488 52.6782C70.2355 51.1633 69.6646 48.7816 67.64 45.9467C67.2379 46.0684 66.8162 46.1308 66.3914 46.1315C65.7109 46.1315 65.036 45.9695 64.4423 45.6632C63.6602 45.2625 63.059 44.6327 62.7414 43.8816C62.4238 43.1305 62.4095 42.3046 62.7011 41.5452C60.6779 43.161 58.5465 44.6664 56.3184 46.053C56.0602 48.6675 55.6069 51.2637 54.9616 53.8248C56.2145 54.112 57.4347 54.3411 58.5936 54.5069ZM53.6532 47.6464C52.5139 48.2994 51.356 48.9264 50.1807 49.527C49.2752 49.9914 48.3498 50.4458 47.4215 50.8798C47.4571 51.0709 47.4756 51.262 47.4756 51.4531L47.4742 51.5734C49.2097 52.2087 50.9253 52.763 52.5882 53.2236C53.0353 51.4658 53.3912 49.5953 53.6532 47.6464ZM36.6181 58.4794C37.6076 60.7916 38.7965 62.6773 40.0565 63.9352C41.2553 65.1312 42.5252 65.7639 43.7269 65.7639C44.9299 65.7639 46.1999 65.1312 47.3987 63.9365C48.6587 62.6798 49.8475 60.7929 50.837 58.4807C51.2513 57.5138 51.6358 56.4622 51.9846 55.3485C50.1657 54.8467 48.3732 54.2719 46.6128 53.6261C46.2534 54.0225 45.8003 54.3437 45.2855 54.567C44.7708 54.7902 44.207 54.9099 43.6344 54.9176C43.0617 54.9254 42.4941 54.8209 41.972 54.6117C41.4498 54.4025 40.9859 54.0936 40.6132 53.7071C39.4443 54.1285 38.2797 54.5183 37.1449 54.8625L37.1264 54.8676C37.0964 54.8758 37.066 54.883 37.0353 54.8891C36.5213 55.0447 35.996 55.1966 35.4649 55.3409C35.8137 56.4508 36.1996 57.505 36.6181 58.4794ZM45.0125 51.4531C45.0122 51.2853 44.9748 51.1191 44.9022 50.9641C44.8297 50.8091 44.7236 50.6684 44.5898 50.5499C44.4561 50.4313 44.2974 50.3374 44.1229 50.2734C43.9483 50.2094 43.7612 50.1766 43.5724 50.1768C43.3836 50.1771 43.1966 50.2104 43.0223 50.2748C42.8479 50.3393 42.6896 50.4337 42.5562 50.5525C42.4229 50.6714 42.3172 50.8125 42.2452 50.9676C42.1732 51.1228 42.1363 51.2891 42.1366 51.4569C42.1371 51.7959 42.2892 52.1208 42.5592 52.3602C42.8293 52.5995 43.1953 52.7337 43.5767 52.7332C43.9581 52.7327 44.3236 52.5976 44.5929 52.3575C44.8621 52.1174 45.0131 51.7921 45.0125 51.4531ZM34.8641 53.2135C35.3596 53.0756 35.8564 52.9313 36.3476 52.7807C36.3908 52.7689 36.4345 52.7588 36.4786 52.7503C37.5561 52.4182 38.6234 52.0603 39.6792 51.6771C39.6543 51.3668 39.6788 51.055 39.7518 50.7507C37.7207 49.7908 35.7352 48.7564 33.8006 47.6502C34.0625 49.594 34.4185 51.4582 34.8641 53.2135ZM33.4945 44.8394C35.9083 46.3016 38.4123 47.6427 40.9947 48.8562C41.7256 48.2815 42.6727 47.9718 43.6483 47.9885C44.624 48.0051 45.557 48.3469 46.2626 48.9461C47.1682 48.5214 48.0648 48.0818 48.952 47.6274C50.6598 46.7536 52.33 45.8232 53.9593 44.8381C54.164 42.3993 54.2258 39.9526 54.1444 37.5081C53.3079 37.3147 52.5669 36.8808 52.0368 36.2739C51.5068 35.6671 51.2176 34.9214 51.2143 34.1531C51.2143 33.7266 51.304 33.3039 51.4763 32.9091C48.9737 31.5129 46.3856 30.2416 43.724 29.101C41.1385 30.2093 38.6224 31.4412 36.1868 32.7914C36.3245 33.2403 36.3594 33.7093 36.2894 34.1705C36.2194 34.6316 36.0458 35.0756 35.779 35.476C35.5122 35.8764 35.1576 36.2251 34.7363 36.5013C34.315 36.7776 33.8356 36.9757 33.3265 37.0841C33.2225 39.67 33.2786 42.259 33.4945 44.8394ZM33.8632 33.7127C33.8632 33.0078 33.2183 32.4332 32.4252 32.4332C32.1405 32.433 31.862 32.5078 31.6252 32.6482C31.3883 32.7887 31.2035 32.9884 31.0944 33.2222C30.9852 33.4559 30.9565 33.7132 31.0119 33.9615C31.0673 34.2098 31.2042 34.4379 31.4055 34.617C31.6067 34.796 31.8632 34.918 32.1425 34.9675C32.4217 35.0169 32.7112 34.9917 32.9743 34.8949C33.2374 34.7981 33.4623 34.6341 33.6205 34.4237C33.7788 34.2132 33.8632 33.9658 33.8632 33.7127ZM20.7221 41.3136C20.4448 41.3141 20.1737 41.3859 19.9412 41.5201C19.7087 41.6544 19.5248 41.8455 19.4115 42.0705C19.2983 42.2955 19.2606 42.5447 19.3029 42.7883C19.3452 43.0318 19.4657 43.2594 19.65 43.4435C19.9233 43.4964 20.1683 43.6303 20.3448 43.8231C20.5581 43.8744 20.7817 43.8813 20.9985 43.8435C21.2152 43.8056 21.4193 43.7239 21.5949 43.6048C21.7705 43.4857 21.9129 43.3322 22.0112 43.1563C22.1094 42.9805 22.1608 42.7869 22.1615 42.5905C22.1615 41.8856 21.5151 41.3136 20.7221 41.3136ZM20.7221 46.0568C20.4046 46.0568 20.0928 46.0227 19.7881 45.9556C17.7749 48.7828 17.2069 51.162 18.1907 52.6782C19.1047 54.0817 21.3571 54.8233 24.7043 54.8233C26.9609 54.8233 29.5763 54.4854 32.4822 53.8172C31.8364 51.2576 31.3836 48.6625 31.1268 46.0492C29.1931 44.8419 27.3303 43.5472 25.5457 42.1703C25.1165 41.8382 24.6927 41.5007 24.2743 41.1579C24.4993 41.5945 24.6246 42.0792 24.6246 42.5905C24.623 43.5099 24.2113 44.3911 23.4797 45.041C22.7481 45.6908 21.7564 46.0562 20.7221 46.0568ZM28.8474 24.6729C27.4842 24.4691 26.105 24.3616 24.7228 24.3514C21.4097 24.3514 19.0905 25.1146 18.1907 26.4965C17.3136 27.8443 17.6553 29.8528 19.1787 32.3016C20.7676 34.8555 23.5283 37.6954 27.1645 40.5125C27.1902 40.5326 27.2149 40.5537 27.2385 40.5757C28.4249 41.4878 29.6477 42.3615 30.9047 43.1954C30.7875 41.0941 30.7733 38.9892 30.862 36.8867C30.6047 36.7856 30.3604 36.6605 30.133 36.5133C29.1185 37.2046 28.128 37.9233 27.1631 38.6686C27.041 38.7636 26.8989 38.8362 26.745 38.8821C26.5911 38.928 26.4285 38.9464 26.2666 38.9362C26.1047 38.9259 25.9467 38.8873 25.8017 38.8225C25.6567 38.7576 25.5276 38.6679 25.4218 38.5585C25.315 38.45 25.2335 38.3238 25.182 38.1871C25.1305 38.0505 25.11 37.9061 25.1218 37.7623C25.1336 37.6185 25.1774 37.4783 25.2506 37.3497C25.3239 37.2211 25.4252 37.1068 25.5486 37.0132C26.57 36.2222 27.6189 35.4595 28.6936 34.7264C28.5797 34.398 28.5221 34.0563 28.5228 33.7127C28.5228 32.1168 29.7685 30.7298 31.4813 30.3501C31.6593 29.1795 31.8742 28.0215 32.1205 26.9015C32.1847 26.6178 32.3716 26.3678 32.6411 26.2054C32.9106 26.043 33.2411 25.9812 33.5614 26.0334C33.881 26.0898 34.1629 26.2555 34.3466 26.4947C34.5303 26.7339 34.6011 27.0277 34.5438 27.3128C34.311 28.3774 34.1125 29.4476 33.9486 30.5222C34.2547 30.6387 34.5423 30.7905 34.8071 30.9702C36.7679 29.8827 38.7795 28.8693 40.8367 27.9329C36.5868 26.3143 32.4608 25.1905 28.8474 24.6729ZM35.3738 19.3449C35.185 19.3449 34.998 19.378 34.8235 19.4422C34.649 19.5065 34.4905 19.6006 34.357 19.7193C34.2235 19.838 34.1175 19.9789 34.0453 20.134C33.973 20.2891 33.9358 20.4553 33.9358 20.6231C33.9358 20.791 33.973 20.9572 34.0453 21.1123C34.1175 21.2674 34.2235 21.4083 34.357 21.527C34.4905 21.6457 34.649 21.7398 34.8235 21.804C34.998 21.8683 35.185 21.9013 35.3738 21.9013C35.7552 21.9013 36.1209 21.7667 36.3906 21.527C36.6603 21.2873 36.8118 20.9621 36.8118 20.6231C36.8118 20.2841 36.6603 19.959 36.3906 19.7193C36.1209 19.4796 35.7552 19.3449 35.3738 19.3449ZM50.837 20.694C49.8461 18.3831 48.6573 16.4975 47.3973 15.2395C46.1985 14.0436 44.9299 13.4108 43.7269 13.4108C41.7493 13.4108 39.7091 15.0459 37.9565 18.0275C38.5023 18.4549 38.9026 19.0096 39.112 19.6288C39.3213 20.2481 39.3313 20.9071 39.1409 21.5311C38.9504 22.1552 38.5671 22.7193 38.0344 23.1596C37.5018 23.5999 36.841 23.8988 36.127 24.0224C38.7177 24.772 41.2551 25.6599 43.7255 26.6813C46.4059 25.5711 49.1664 24.6207 51.9888 23.8364C51.6591 22.7738 51.2748 21.7253 50.837 20.694ZM52.5897 25.9612C50.6491 26.4978 48.6459 27.1584 46.6128 27.9329C48.8175 28.9375 50.9695 30.0308 53.0623 31.2094C53.2275 31.1171 53.3983 31.0373 53.5749 30.9702C53.3344 29.2878 53.0056 27.6163 52.5897 25.9612ZM53.6774 34.1531C53.6774 34.4924 53.8291 34.8179 54.099 35.0578C54.3689 35.2978 54.735 35.4326 55.1168 35.4326C55.4986 35.4326 55.8647 35.2978 56.1346 35.0578C56.4046 34.8179 56.5562 34.4924 56.5562 34.1531C56.5562 33.8138 56.4046 33.4883 56.1346 33.2484C55.8647 33.0084 55.4986 32.8736 55.1168 32.8736C54.735 32.8736 54.3689 33.0084 54.099 33.2484C53.8291 33.4883 53.6774 33.8138 53.6774 34.1531ZM69.256 26.5016C68.3562 25.1196 66.0355 24.359 62.7196 24.359C61.4653 24.359 60.0771 24.4666 58.5936 24.6792C57.4361 24.8463 56.2159 25.0741 54.9616 25.3613C55.403 27.0787 55.7618 28.8998 56.0323 30.7842C56.8828 30.9671 57.6395 31.3986 58.1812 32.0095C58.7228 32.6204 59.018 33.3753 59.0193 34.1531C59.0193 34.3898 58.9552 34.6138 58.9011 34.8403C59.9777 35.576 61.028 36.3416 62.0504 37.136C62.1727 37.2305 62.2727 37.3456 62.3445 37.4747C62.4164 37.6038 62.4587 37.7443 62.469 37.888C62.4794 38.0317 62.4575 38.1758 62.4047 38.312C62.3519 38.4482 62.2692 38.5737 62.1615 38.6812C62.0548 38.7898 61.925 38.8785 61.7796 38.9421C61.6342 39.0058 61.476 39.0432 61.3141 39.0521C61.1523 39.0611 60.9901 39.0414 60.8369 38.9942C60.6837 38.9471 60.5426 38.8734 60.4217 38.7774C59.5238 38.0813 58.6037 37.4082 57.6624 36.7589C57.3485 37.0081 56.9907 37.2099 56.6032 37.3562C56.6695 39.3047 56.6491 41.2547 56.542 43.2018C60.2394 40.7453 63.3944 38.1345 65.7094 35.6085C67.4706 33.6937 68.7149 31.8359 69.3101 30.2388C69.8767 28.7188 69.8582 27.4267 69.256 26.5016Z" stroke="url(#paint1_linear_1151_17391)" stroke-width="2.63222" mask="url(#path-1-outside-1_1151_17391)"/>
</g>
<path d="M66.6962 38.7397C67.0835 38.6359 67.4858 38.5831 67.8902 38.5831C68.7957 38.584 69.6756 38.8514 70.3935 39.3438C71.1114 39.8361 71.6271 40.526 71.8609 41.3065C72.0155 41.8162 72.0434 42.3499 71.9426 42.8702C71.8418 43.3906 71.6147 43.885 71.2774 44.3188C74.084 48.1984 74.7305 51.5413 73.1419 54.0023C71.6974 56.2426 68.5472 57.4269 64.0306 57.4269C62.5665 57.4269 60.9615 57.3024 59.2604 57.0589C57.896 56.8587 56.5426 56.6033 55.2042 56.2934C54.8368 57.4803 54.4088 58.6516 53.9217 59.8036C51.3836 65.7347 47.8585 69 43.9958 69C40.1272 69 36.605 65.7347 34.0774 59.8036C33.5889 58.6504 33.1599 57.4777 32.7919 56.2894C29.5188 57.0442 26.5502 57.4269 23.9626 57.4269C23.7706 57.4269 23.589 57.4269 23.4 57.4202C19.1954 57.3239 16.2358 56.1395 14.8512 53.997C13.2867 51.5788 13.8867 48.2974 16.5868 44.4915C15.981 43.8387 15.6509 43.0171 15.6537 42.1696C15.6553 41.5643 15.8246 40.9687 16.1466 40.4358C16.4686 39.903 16.9333 39.4495 17.4993 39.1156C18.0653 38.7818 18.7151 38.5781 19.3908 38.5225C20.0665 38.467 20.7471 38.5613 21.372 38.7973C18.9494 36.5718 17.0533 34.3717 15.7993 32.3162C13.7862 29.0214 13.4562 26.1442 14.8437 23.9977C16.3003 21.7521 19.4549 20.5664 23.9701 20.5664C25.4281 20.5664 27.0317 20.6909 28.7387 20.9358C29.9178 21.1071 31.1388 21.3332 32.3944 21.6129C31.9828 21.2711 31.6547 20.8572 31.4304 20.3972C31.2061 19.9371 31.0905 19.4408 31.0908 18.9391C31.092 18.4334 31.2102 17.9333 31.4382 17.4703C31.6661 17.0072 31.9987 16.5912 32.4153 16.2482C32.8319 15.9052 33.3234 15.6426 33.859 15.477C34.3947 15.3114 34.9628 15.2463 35.528 15.2857C37.8936 11.172 40.8202 9 44.0033 9C47.872 9 51.3941 12.2666 53.9217 18.1964C54.3867 19.2884 54.8187 20.466 55.2057 21.7066C56.6038 21.3854 57.9658 21.1285 59.2604 20.9425C60.8369 20.7063 62.432 20.5823 64.0306 20.5718C68.5442 20.5718 71.7004 21.7588 73.1554 24.0043C75.089 26.9859 73.6774 31.3379 69.1788 36.2546C68.3899 37.1131 67.5616 37.9421 66.6962 38.7397ZM68.6478 41.0749C68.4203 40.9558 68.1615 40.8926 67.8977 40.8916C67.7679 40.8907 67.6385 40.9065 67.5137 40.9384L67.5002 40.9411C67.1132 41.0345 66.783 41.26 66.5807 41.5688C66.3822 41.8788 66.3291 42.2462 66.4327 42.5911C66.5364 42.9359 66.7885 43.2303 67.1342 43.4102C67.4826 43.5864 67.8943 43.6344 68.2817 43.544C68.6643 43.4543 68.9913 43.2308 69.2028 42.9137C69.4009 42.6039 69.4538 42.2367 69.3498 41.8923C69.2459 41.5479 68.9935 41.2541 68.6478 41.0749ZM59.6669 54.7705C61.23 54.9967 62.691 55.1104 64.0096 55.1104C67.5017 55.1104 69.9453 54.3021 70.8933 52.8367C71.9329 51.2349 71.3314 48.7163 69.1983 45.7186C68.7746 45.8473 68.3302 45.9133 67.8827 45.914C67.1657 45.914 66.4547 45.7427 65.8291 45.4189C65.0051 44.9951 64.3716 44.3292 64.037 43.5349C63.7024 42.7406 63.6874 41.8673 63.9946 41.0642C61.863 42.7729 59.6173 44.3647 57.2698 45.831C56.9978 48.5956 56.5202 51.3411 55.8403 54.0492C57.1603 54.353 58.4459 54.5952 59.6669 54.7705ZM54.4617 47.5159C53.2613 48.2064 52.0414 48.8695 50.8031 49.5045C49.849 49.9956 48.874 50.4761 47.896 50.9351C47.9335 51.1372 47.953 51.3392 47.953 51.5413L47.9515 51.6685C49.78 52.3402 51.5876 52.9264 53.3397 53.4135C53.8107 51.5547 54.1857 49.5768 54.4617 47.5159ZM36.5135 58.9712C37.5561 61.4162 38.8086 63.4102 40.1362 64.7404C41.3992 66.005 42.7373 66.6741 44.0033 66.6741C45.2709 66.6741 46.6089 66.005 47.872 64.7417C49.1995 63.4128 50.4521 61.4175 51.4946 58.9726C51.9311 57.9501 52.3361 56.8381 52.7036 55.6604C50.7872 55.1298 48.8987 54.522 47.0439 53.8391C46.6653 54.2583 46.1879 54.598 45.6455 54.834C45.1032 55.0701 44.5092 55.1967 43.9058 55.2048C43.3025 55.213 42.7045 55.1026 42.1543 54.8813C41.6042 54.6601 41.1154 54.3335 40.7227 53.9247C39.4911 54.3704 38.2641 54.7825 37.0686 55.1465L37.0491 55.1519C37.0174 55.1606 36.9854 55.1682 36.9531 55.1746C36.4115 55.3392 35.858 55.4998 35.2985 55.6524C35.666 56.826 36.0725 57.9408 36.5135 58.9712ZM45.3579 51.5413C45.3576 51.3638 45.3181 51.1881 45.2417 51.0242C45.1653 50.8603 45.0534 50.7115 44.9125 50.5862C44.7716 50.4608 44.6045 50.3615 44.4205 50.2938C44.2366 50.2261 44.0395 50.1914 43.8406 50.1917C43.6416 50.192 43.4447 50.2272 43.2609 50.2954C43.0772 50.3635 42.9104 50.4633 42.7699 50.589C42.6294 50.7147 42.5181 50.8638 42.4422 51.0279C42.3664 51.192 42.3275 51.3678 42.3278 51.5453C42.3284 51.9038 42.4885 52.2474 42.7731 52.5005C43.0576 52.7536 43.4432 52.8955 43.8451 52.8949C44.2469 52.8944 44.632 52.7515 44.9157 52.4976C45.1994 52.2438 45.3585 51.8998 45.3579 51.5413ZM34.6655 53.4028C35.1875 53.2569 35.711 53.1044 36.2285 52.9451C36.274 52.9327 36.32 52.922 36.3665 52.913C37.5018 52.5618 38.6262 52.1834 39.7387 51.7782C39.7124 51.4501 39.7382 51.1203 39.8152 50.7986C37.6752 49.7835 35.5833 48.6897 33.5449 47.5199C33.8209 49.5754 34.1959 51.5467 34.6655 53.4028ZM33.2224 44.5477C35.7656 46.0939 38.4039 47.512 41.1247 48.7952C41.8948 48.1876 42.8926 47.8601 43.9206 47.8777C44.9485 47.8953 45.9315 48.2567 46.6749 48.8903C47.6291 48.4412 48.5738 47.9763 49.5085 47.4958C51.3078 46.5719 53.0676 45.588 54.7842 44.5463C54.9999 41.9674 55.065 39.3802 54.9792 36.7952C54.0979 36.5908 53.3171 36.132 52.7587 35.4902C52.2003 34.8485 51.8956 34.06 51.8921 33.2476C51.8921 32.7966 51.9866 32.3496 52.1681 31.9321C49.5314 30.4557 46.8046 29.1113 44.0003 27.9053C41.2762 29.0772 38.6252 30.3799 36.059 31.8076C36.2042 32.2824 36.241 32.7783 36.1672 33.2659C36.0934 33.7536 35.9105 34.2231 35.6294 34.6465C35.3483 35.0699 34.9747 35.4386 34.5309 35.7307C34.087 36.0228 33.5818 36.2323 33.0454 36.3469C32.9359 39.0813 32.9949 41.8191 33.2224 44.5477ZM33.6109 32.7819C33.6109 32.0365 32.9314 31.4289 32.0959 31.4289C31.7959 31.4286 31.5025 31.5078 31.2529 31.6563C31.0033 31.8048 30.8087 32.016 30.6937 32.2632C30.5787 32.5104 30.5484 32.7825 30.6068 33.045C30.6651 33.3075 30.8094 33.5487 31.0215 33.7381C31.2335 33.9274 31.5037 34.0564 31.798 34.1087C32.0922 34.161 32.3972 34.1343 32.6744 34.032C32.9516 33.9296 33.1885 33.7562 33.3552 33.5337C33.5219 33.3111 33.6109 33.0495 33.6109 32.7819ZM19.7654 40.8193C19.4733 40.8199 19.1876 40.8958 18.9426 41.0378C18.6977 41.1798 18.5039 41.3819 18.3846 41.6197C18.2653 41.8576 18.2255 42.1212 18.2701 42.3787C18.3147 42.6363 18.4417 42.8769 18.6359 43.0716C18.9238 43.1276 19.1819 43.2691 19.3679 43.4731C19.5926 43.5272 19.8282 43.5346 20.0566 43.4946C20.285 43.4545 20.5 43.3682 20.685 43.2422C20.87 43.1162 21.0201 42.9539 21.1236 42.768C21.2271 42.582 21.2813 42.3773 21.282 42.1696C21.282 41.4242 20.6009 40.8193 19.7654 40.8193ZM19.7654 45.8351C19.4309 45.8351 19.1024 45.7989 18.7814 45.728C16.6603 48.7176 16.0618 51.2335 17.0983 52.8367C18.0613 54.3208 20.4344 55.105 23.9611 55.105C26.3387 55.105 29.0943 54.7477 32.1559 54.0412C31.4755 51.3345 30.9984 48.5904 30.7278 45.827C28.6905 44.5504 26.7278 43.1813 24.8476 41.7253C24.3954 41.3741 23.9489 41.0172 23.508 40.6547C23.7451 41.1164 23.8771 41.629 23.8771 42.1696C23.8755 43.1418 23.4417 44.0737 22.6708 44.7609C21.9 45.448 20.8551 45.8344 19.7654 45.8351ZM28.3262 23.2228C26.89 23.0074 25.4369 22.8937 23.9806 22.8829C20.4899 22.8829 18.0463 23.6899 17.0983 25.1512C16.1743 26.5764 16.5343 28.7002 18.1393 31.2897C19.8134 33.9903 22.722 36.9933 26.5532 39.9722C26.5803 39.9935 26.6063 40.0158 26.6312 40.0391C27.8811 41.0035 29.1695 41.9275 30.4938 42.8093C30.3704 40.5872 30.3554 38.3614 30.4488 36.1382C30.1778 36.0313 29.9203 35.899 29.6808 35.7434C28.6118 36.4743 27.5683 37.2344 26.5517 38.0224C26.423 38.1229 26.2733 38.1996 26.1111 38.2482C25.949 38.2968 25.7777 38.3162 25.6072 38.3054C25.4366 38.2946 25.2701 38.2537 25.1173 38.1851C24.9646 38.1166 24.8285 38.0217 24.7171 37.906C24.6045 37.7913 24.5186 37.6579 24.4644 37.5133C24.4101 37.3688 24.3885 37.2161 24.401 37.0641C24.4134 36.9121 24.4595 36.7638 24.5367 36.6278C24.6139 36.4918 24.7206 36.3709 24.8506 36.272C25.9268 35.4355 27.0319 34.6291 28.1642 33.8538C28.0442 33.5066 27.9836 33.1452 27.9842 32.7819C27.9842 31.0943 29.2968 29.6276 31.1013 29.2262C31.2888 27.9883 31.5153 26.7638 31.7749 25.5795C31.8424 25.2794 32.0394 25.0151 32.3233 24.8433C32.6073 24.6716 32.9555 24.6063 33.2929 24.6614C33.6297 24.7211 33.9267 24.8963 34.1202 25.1493C34.3138 25.4023 34.3884 25.7129 34.328 26.0144C34.0827 27.1401 33.8736 28.2718 33.7009 29.4082C34.0234 29.5313 34.3265 29.6919 34.6055 29.8819C36.6713 28.7318 38.7908 27.6603 40.9582 26.6701C36.4805 24.9585 32.1334 23.7702 28.3262 23.2228ZM35.2025 17.5888C35.0035 17.5888 34.8065 17.6238 34.6227 17.6917C34.4389 17.7596 34.2719 17.8592 34.1312 17.9847C33.9905 18.1102 33.8789 18.2592 33.8028 18.4232C33.7266 18.5872 33.6874 18.7629 33.6874 18.9404C33.6874 19.1179 33.7266 19.2937 33.8028 19.4577C33.8789 19.6217 33.9905 19.7707 34.1312 19.8962C34.2719 20.0217 34.4389 20.1213 34.6227 20.1892C34.8065 20.2571 35.0035 20.2921 35.2025 20.2921C35.6043 20.2921 35.9897 20.1497 36.2738 19.8962C36.5579 19.6427 36.7175 19.2989 36.7175 18.9404C36.7175 18.582 36.5579 18.2382 36.2738 17.9847C35.9897 17.7312 35.6043 17.5888 35.2025 17.5888ZM51.4946 19.0154C50.4506 16.5718 49.198 14.5778 47.8705 13.2476C46.6074 11.9829 45.2709 11.3138 44.0033 11.3138C41.9197 11.3138 39.7702 13.0428 37.9236 16.1957C38.4987 16.6476 38.9205 17.2342 39.141 17.889C39.3616 18.5439 39.3721 19.2407 39.1715 19.9006C38.9708 20.5605 38.567 21.157 38.0058 21.6226C37.4445 22.0882 36.7483 22.4043 35.996 22.535C38.7256 23.3276 41.3991 24.2665 44.0018 25.3466C46.8259 24.1727 49.7345 23.1676 52.7081 22.3382C52.3607 21.2147 51.9558 20.1059 51.4946 19.0154ZM53.3412 24.5851C51.2966 25.1526 49.186 25.8511 47.0439 26.6701C49.3668 27.7324 51.6342 28.8885 53.8392 30.1348C54.0132 30.0371 54.1932 29.9528 54.3792 29.8819C54.1258 28.1029 53.7794 26.3353 53.3412 24.5851ZM54.4872 33.2476C54.4872 33.6064 54.647 33.9505 54.9314 34.2043C55.2158 34.458 55.6016 34.6005 56.0038 34.6005C56.406 34.6005 56.7917 34.458 57.0761 34.2043C57.3606 33.9505 57.5203 33.6064 57.5203 33.2476C57.5203 32.8887 57.3606 32.5446 57.0761 32.2909C56.7917 32.0372 56.406 31.8946 56.0038 31.8946C55.6016 31.8946 55.2158 32.0372 54.9314 32.2909C54.647 32.5446 54.4872 32.8887 54.4872 33.2476ZM70.9008 25.1566C69.9528 23.6952 67.5077 22.8909 64.0141 22.8909C62.6925 22.8909 61.23 23.0047 59.6669 23.2295C58.4474 23.4062 57.1618 23.647 55.8403 23.9508C56.3053 25.7668 56.6833 27.6925 56.9683 29.6852C57.8644 29.8786 58.6617 30.3349 59.2324 30.9808C59.8031 31.6268 60.1141 32.4251 60.1154 33.2476C60.1154 33.4978 60.0479 33.7347 59.9909 33.9742C61.1252 34.7522 62.2318 35.5618 63.309 36.4018C63.4379 36.5017 63.5432 36.6235 63.6189 36.76C63.6946 36.8965 63.7392 37.045 63.7501 37.197C63.761 37.349 63.7379 37.5014 63.6823 37.6454C63.6267 37.7894 63.5396 37.9221 63.4261 38.0358C63.3137 38.1506 63.177 38.2444 63.0237 38.3117C62.8705 38.379 62.7038 38.4185 62.5333 38.428C62.3628 38.4375 62.1919 38.4166 62.0305 38.3668C61.8691 38.3169 61.7204 38.239 61.593 38.1375C60.647 37.4014 59.6775 36.6896 58.6859 36.003C58.3551 36.2666 57.9781 36.48 57.5698 36.6347C57.6397 38.6951 57.6182 40.7571 57.5053 42.816C61.401 40.2185 64.7251 37.4577 67.1642 34.7865C69.0198 32.7618 70.3308 30.7973 70.9578 29.1084C71.5549 27.5012 71.5354 26.1348 70.9008 25.1566Z" fill="url(#paint2_linear_1151_17391)"/>
<defs>
<filter id="filter0_d_1151_17391" x="0.768576" y="0.0354161" width="85.9062" height="85.6953" filterUnits="userSpaceOnUse" color-interpolation-filters="sRGB">
<feFlood flood-opacity="0" result="BackgroundImageFix"/>
<feColorMatrix in="SourceAlpha" type="matrix" values="0 0 0 0 0 0 0 0 0 0 0 0 0 0 0 0 0 0 127 0" result="hardAlpha"/>
<feOffset dy="3.29028"/>
<feGaussianBlur stdDeviation="6.58056"/>
<feComposite in2="hardAlpha" operator="out"/>
<feColorMatrix type="matrix" values="0 0 0 0 0.219608 0 0 0 0 0.239216 0 0 0 0 0.92549 0 0 0 1 0"/>
<feBlend mode="normal" in2="BackgroundImageFix" result="effect1_dropShadow_1151_17391"/>
<feBlend mode="normal" in="SourceGraphic" in2="effect1_dropShadow_1151_17391" result="shape"/>
</filter>
<linearGradient id="paint0_linear_1151_17391" x1="22.112" y1="23.6202" x2="62.9472" y2="61.3551" gradientUnits="userSpaceOnUse">
<stop stop-color="#E1FFFF"/>
<stop offset="0.455" stop-color="white"/>
<stop offset="1" stop-color="#E1FFFF"/>
</linearGradient>
<linearGradient id="paint1_linear_1151_17391" x1="43.7237" y1="11.2227" x2="43.7237" y2="67.9634" gradientUnits="userSpaceOnUse">
<stop stop-color="#091170"/>
<stop offset="0.17" stop-color="#00DAFF"/>
<stop offset="0.435" stop-color="#E1FFFF"/>
<stop offset="0.79" stop-color="#00DAFF"/>
<stop offset="1" stop-color="#091170"/>
</linearGradient>
<linearGradient id="paint2_linear_1151_17391" x1="44" y1="9" x2="44" y2="69" gradientUnits="userSpaceOnUse">
<stop/>
<stop offset="1" stop-color="#0022D2"/>
</linearGradient>
</defs>
</svg>
