<svg width="7" height="12" viewBox="0 0 7 12" fill="none" xmlns="http://www.w3.org/2000/svg">
<path d="M5.66715 11.8336C5.86186 11.834 6.05056 11.7662 6.20049 11.6419C6.28487 11.572 6.35462 11.4861 6.40575 11.3891C6.45687 11.2922 6.48837 11.1861 6.49843 11.0769C6.5085 10.9678 6.49693 10.8577 6.46439 10.753C6.43185 10.6484 6.37899 10.5511 6.30882 10.4669L6.25873 10.407C4.11721 7.84484 4.08237 4.12714 6.17549 1.52528C6.24471 1.44004 6.2964 1.34196 6.32759 1.23667C6.35879 1.13139 6.36887 1.02098 6.35725 0.911791C6.34563 0.8026 6.31255 0.696782 6.25991 0.600418C6.20726 0.504054 6.13609 0.419045 6.05049 0.350276C5.96426 0.274412 5.86329 0.217189 5.75391 0.182198C5.64452 0.147208 5.52909 0.135204 5.41484 0.146942C5.3006 0.158679 5.19001 0.193904 5.09003 0.250406C4.99004 0.306907 4.90281 0.383465 4.83382 0.475276L0.80882 5.47528C0.686252 5.62439 0.619247 5.81142 0.619247 6.00444C0.619247 6.19746 0.686252 6.3845 0.80882 6.53361L4.97549 11.5336C5.05908 11.6345 5.16528 11.7142 5.28545 11.7663C5.40563 11.8184 5.5364 11.8415 5.66715 11.8336Z" fill="#00DAFF"/>
</svg>
