<svg width="22" height="20" viewBox="0 0 22 20" fill="none" xmlns="http://www.w3.org/2000/svg">
<path d="M2.06971 11.3334H17.6891L12.9084 17.1467C12.7977 17.2815 12.7144 17.4371 12.6631 17.6045C12.6118 17.772 12.5935 17.948 12.6094 18.1226C12.6416 18.4752 12.8107 18.8004 13.0796 19.0267C13.3486 19.253 13.6953 19.3619 14.0436 19.3294C14.3918 19.2969 14.713 19.1256 14.9366 18.8534L21.5215 10.8534C21.5658 10.7897 21.6054 10.7229 21.64 10.6534C21.64 10.5867 21.7058 10.5467 21.7322 10.48C21.7919 10.3271 21.8231 10.1644 21.8244 10C21.8231 9.83564 21.7919 9.6729 21.7322 9.52002C21.7322 9.45336 21.6663 9.41336 21.64 9.34669C21.6054 9.27717 21.5658 9.21032 21.5215 9.14669L14.9366 1.14669C14.8127 0.996179 14.6577 0.875139 14.4824 0.792178C14.3071 0.709216 14.116 0.666371 13.9225 0.66669C13.6148 0.666081 13.3166 0.774581 13.0796 0.973356C12.9463 1.08529 12.836 1.22276 12.7552 1.37789C12.6744 1.53301 12.6247 1.70276 12.6088 1.87739C12.5929 2.05203 12.6111 2.22813 12.6626 2.3956C12.714 2.56307 12.7975 2.71863 12.9084 2.85336L17.6891 8.66669H2.06971C1.72042 8.66669 1.38545 8.80717 1.13847 9.05721C0.891484 9.30726 0.752731 9.6464 0.752731 10C0.752731 10.3536 0.891484 10.6928 1.13847 10.9428C1.38545 11.1929 1.72042 11.3334 2.06971 11.3334Z" fill="#231F20"/>
</svg>
