<svg width="26" height="26" viewBox="0 0 26 26" fill="none" xmlns="http://www.w3.org/2000/svg">
<mask id="path-1-inside-1_120_6497" fill="white">
<path fill-rule="evenodd" clip-rule="evenodd" d="M10 0C4.47715 0 0 4.47715 0 10V16C0 21.5228 4.47715 26 10 26H16C21.5228 26 26 21.5228 26 16V10C26 4.47715 21.5228 0 16 0H10ZM12.9958 14.6706L18.3675 20.0423L20.0424 18.3674L14.6707 12.9958L20.0381 7.62834L18.3717 5.96194L13.0043 11.3294L7.63263 5.9577L5.95776 7.63257L11.3294 13.0042L5.962 18.3717L7.62839 20.0381L12.9958 14.6706Z"/>
</mask>
<path fill-rule="evenodd" clip-rule="evenodd" d="M10 0C4.47715 0 0 4.47715 0 10V16C0 21.5228 4.47715 26 10 26H16C21.5228 26 26 21.5228 26 16V10C26 4.47715 21.5228 0 16 0H10ZM12.9958 14.6706L18.3675 20.0423L20.0424 18.3674L14.6707 12.9958L20.0381 7.62834L18.3717 5.96194L13.0043 11.3294L7.63263 5.9577L5.95776 7.63257L11.3294 13.0042L5.962 18.3717L7.62839 20.0381L12.9958 14.6706Z" fill="#FF0000" fill-opacity="0.5"/>
<path d="M18.3675 20.0423L17.6604 20.7494L18.3675 21.4565L19.0746 20.7494L18.3675 20.0423ZM12.9958 14.6706L13.7029 13.9635L12.9958 13.2564L12.2887 13.9635L12.9958 14.6706ZM20.0424 18.3674L20.7495 19.0745L21.4566 18.3674L20.7495 17.6603L20.0424 18.3674ZM14.6707 12.9958L13.9636 12.2887L13.2565 12.9958L13.9636 13.7029L14.6707 12.9958ZM20.0381 7.62834L20.7452 8.33544L21.4523 7.62834L20.7452 6.92123L20.0381 7.62834ZM18.3717 5.96194L19.0788 5.25484L18.3717 4.54773L17.6646 5.25484L18.3717 5.96194ZM13.0043 11.3294L12.2972 12.0365L13.0043 12.7436L13.7114 12.0365L13.0043 11.3294ZM7.63263 5.9577L8.33974 5.2506L7.63263 4.54349L6.92552 5.2506L7.63263 5.9577ZM5.95776 7.63257L5.25065 6.92547L4.54354 7.63257L5.25065 8.33968L5.95776 7.63257ZM11.3294 13.0042L12.0365 13.7113L12.7436 13.0042L12.0365 12.2971L11.3294 13.0042ZM5.962 18.3717L5.25489 17.6646L4.54778 18.3717L5.25489 19.0788L5.962 18.3717ZM7.62839 20.0381L6.92128 20.7452L7.62839 21.4523L8.3355 20.7452L7.62839 20.0381ZM1 10C1 5.02944 5.02944 1 10 1V-1C3.92487 -1 -1 3.92487 -1 10H1ZM1 16V10H-1V16H1ZM10 25C5.02944 25 1 20.9706 1 16H-1C-1 22.0751 3.92487 27 10 27V25ZM16 25H10V27H16V25ZM25 16C25 20.9706 20.9706 25 16 25V27C22.0751 27 27 22.0751 27 16H25ZM25 10V16H27V10H25ZM16 1C20.9706 1 25 5.02944 25 10H27C27 3.92487 22.0751 -1 16 -1V1ZM10 1H16V-1H10V1ZM19.0746 19.3352L13.7029 13.9635L12.2887 15.3777L17.6604 20.7494L19.0746 19.3352ZM19.3352 17.6603L17.6604 19.3352L19.0746 20.7494L20.7495 19.0745L19.3352 17.6603ZM13.9636 13.7029L19.3352 19.0745L20.7495 17.6603L15.3778 12.2887L13.9636 13.7029ZM19.331 6.92123L13.9636 12.2887L15.3778 13.7029L20.7452 8.33544L19.331 6.92123ZM17.6646 6.66905L19.331 8.33544L20.7452 6.92123L19.0788 5.25484L17.6646 6.66905ZM13.7114 12.0365L19.0788 6.66905L17.6646 5.25484L12.2972 10.6223L13.7114 12.0365ZM6.92552 6.66481L12.2972 12.0365L13.7114 10.6223L8.33974 5.2506L6.92552 6.66481ZM6.66486 8.33968L8.33974 6.66481L6.92552 5.2506L5.25065 6.92547L6.66486 8.33968ZM12.0365 12.2971L6.66486 6.92547L5.25065 8.33968L10.6223 13.7113L12.0365 12.2971ZM6.6691 19.0788L12.0365 13.7113L10.6223 12.2971L5.25489 17.6646L6.6691 19.0788ZM8.3355 19.331L6.6691 17.6646L5.25489 19.0788L6.92128 20.7452L8.3355 19.331ZM12.2887 13.9635L6.92128 19.331L8.3355 20.7452L13.7029 15.3777L12.2887 13.9635Z" fill="#FF0000" mask="url(#path-1-inside-1_120_6497)"/>
</svg>
