<svg width="24" height="22" viewBox="0 0 24 22" fill="none" xmlns="http://www.w3.org/2000/svg">
<path d="M22.5447 0L13.2793 6.85592L15.0027 2.8156L22.5447 0Z" fill="#E17726"/>
<path d="M1.17269 0L10.3555 6.92011L8.71534 2.8156L1.17269 0ZM19.2089 15.8967L16.7433 19.6633L22.0222 21.1166L23.534 15.9793L19.2082 15.8967H19.2089ZM0.192112 15.9793L1.69472 21.1166L6.96442 19.6633L4.50875 15.8967L0.191406 15.9793H0.192112Z" fill="#E27625"/>
<path d="M6.68077 9.5344L5.21484 11.7461L10.4387 11.9839L10.2644 6.36113L6.68077 9.5337V9.5344ZM17.0367 9.5344L13.3988 6.29834L13.2795 11.9846L18.5034 11.7468L17.0367 9.5344ZM6.96506 19.6631L10.1269 18.1364L7.40526 16.0157L6.96506 19.6631ZM13.5913 18.1364L16.744 19.6631L16.3137 16.0157L13.5906 18.1364H13.5913Z" fill="#E27625"/>
<path d="M16.7438 19.6629L13.5904 18.1362L13.8479 20.1843L13.8197 21.052L16.7438 19.6629ZM6.96484 19.6629L9.8981 21.0527L9.87905 20.1843L10.1267 18.1362L6.96484 19.6629Z" fill="#D5BFB2"/>
<path d="M9.95277 14.6626L7.33203 13.895L9.18313 13.0449L9.95277 14.6626ZM13.7657 14.6626L14.5354 13.0449L16.3956 13.895L13.7657 14.6626Z" fill="#233447"/>
<path d="M6.96543 19.6631L7.42397 15.8965L4.50977 15.979L6.96543 19.6631ZM16.295 15.8965L16.7444 19.6631L19.2092 15.979L16.2957 15.8965H16.295ZM18.5037 11.7461L13.2799 11.9845L13.7652 14.6626L14.5356 13.0449L16.3959 13.895L18.5037 11.7468V11.7461ZM7.33226 13.895L9.18336 13.0449L9.95301 14.6626L10.4391 11.9845L5.21521 11.7468L7.33156 13.895H7.33226Z" fill="#CC6228"/>
<path d="M5.21484 11.7461L7.40526 16.0157L7.33189 13.895L5.21555 11.7468L5.21484 11.7461ZM16.3955 13.895L16.313 16.0157L18.5034 11.7468L16.3955 13.895ZM10.4387 11.9845L9.95334 14.6626L10.5671 17.8253L10.7046 13.6573L10.4387 11.9838V11.9845ZM13.2795 11.9845L13.0227 13.6481L13.1511 17.8253L13.7649 14.6626L13.2795 11.9845Z" fill="#E27525"/>
<path d="M13.7657 14.6621L13.152 17.8255L13.5915 18.1359L16.3131 16.0152L16.3956 13.8945L13.7657 14.6621ZM7.33203 13.8945L7.4054 16.0152L10.127 18.1359L10.5672 17.8255L9.95348 14.6621L7.33203 13.8945Z" fill="#F5841F"/>
<path d="M13.8197 21.0529L13.8479 20.1844L13.6095 19.9834H10.1083L9.87905 20.1844L9.8981 21.0522L6.96484 19.6631L7.99127 20.504L10.0723 21.9397H13.637L15.7265 20.504L16.7438 19.6631L13.8204 21.0529H13.8197Z" fill="#C0AC9D"/>
<path d="M13.5915 18.1366L13.1513 17.8262H10.568L10.1278 18.1366L9.88086 20.1846L10.1094 19.9835H13.6106L13.849 20.1846L13.5922 18.1366H13.5915Z" fill="#161616"/>
<path d="M22.9391 7.3039L23.7172 3.52038L22.5447 0L13.5912 6.62734L17.0373 9.53394L21.9035 10.952L22.9758 9.69902L22.508 9.36039L23.2509 8.68453L22.6823 8.24572L23.4244 7.67851L22.9391 7.3046V7.3039ZM0 3.51967L0.787986 7.3039L0.284296 7.67851L1.0356 8.24572L0.467712 8.68453L1.20984 9.3611L0.742132 9.69973L1.81441 10.9513L6.6813 9.53465L10.1267 6.62804L1.17316 0L0 3.51967Z" fill="#763E1A"/>
<path d="M21.903 10.9506L17.0368 9.53399L18.5027 11.7464L16.3123 16.0146L19.2089 15.9793H23.534L21.903 10.9506ZM6.68012 9.53399L1.81394 10.9506L0.191406 15.9786H4.50875L7.40462 16.0153L5.2142 11.7464L6.68012 9.53399ZM13.2789 11.9841L13.5907 6.62668L15.0016 2.81494H8.71534L10.1262 6.62668L10.438 11.9841L10.5573 13.666L10.5664 17.8256H13.1505L13.1597 13.666L13.2796 11.9841H13.2789Z" fill="#F5841F"/>
</svg>
