<svg width="22" height="20" viewBox="0 0 22 20" fill="none" xmlns="http://www.w3.org/2000/svg">
<path d="M2.06991 11.3334H17.6893L12.9086 17.1467C12.7979 17.2815 12.7146 17.4371 12.6633 17.6045C12.612 17.772 12.5937 17.948 12.6096 18.1226C12.6418 18.4752 12.8109 18.8004 13.0798 19.0267C13.3488 19.253 13.6955 19.3619 14.0438 19.3294C14.392 19.2969 14.7132 19.1256 14.9368 18.8534L21.5217 10.8534C21.566 10.7897 21.6056 10.7229 21.6402 10.6534C21.6402 10.5867 21.706 10.5467 21.7324 10.48C21.7921 10.3271 21.8233 10.1644 21.8246 10C21.8233 9.83564 21.7921 9.6729 21.7324 9.52002C21.7324 9.45336 21.6665 9.41336 21.6402 9.34669C21.6056 9.27717 21.566 9.21032 21.5217 9.14669L14.9368 1.14669C14.8129 0.996179 14.6579 0.875139 14.4826 0.792178C14.3073 0.709216 14.1162 0.666371 13.9227 0.66669C13.615 0.666081 13.3168 0.774581 13.0798 0.973356C12.9465 1.08529 12.8362 1.22276 12.7554 1.37789C12.6746 1.53301 12.6249 1.70276 12.609 1.87739C12.5931 2.05203 12.6113 2.22813 12.6628 2.3956C12.7142 2.56307 12.7977 2.71863 12.9086 2.85336L17.6893 8.66669H2.06991C1.72062 8.66669 1.38564 8.80717 1.13866 9.05721C0.891682 9.30726 0.75293 9.6464 0.75293 10C0.75293 10.3536 0.891682 10.6928 1.13866 10.9428C1.38564 11.1929 1.72062 11.3334 2.06991 11.3334Z" fill="#627EEA"/>
</svg>
