<svg width="35" height="40" viewBox="0 0 35 40" fill="none" xmlns="http://www.w3.org/2000/svg">
<path d="M19.9712 2.80007C18.6373 1.47954 17.9704 0.819271 17.1449 0.821345C16.3194 0.82342 15.6558 1.48703 14.3286 2.81425L1.17158 15.9713C0.593523 16.5493 0.304493 16.8384 0.152252 17.2059C1.1687e-05 17.5735 1.1474e-05 17.9822 1.1048e-05 18.7997L2.0845e-06 36C1.10186e-06 37.8856 6.10534e-07 38.8284 0.585787 39.4142C1.17157 40 2.11438 40 4 40H7.42857C9.31419 40 10.257 40 10.8428 39.4142C11.4286 38.8284 11.4286 37.8856 11.4286 36V32.5714C11.4286 30.6858 11.4286 29.743 12.0144 29.1572C12.6001 28.5714 13.543 28.5714 15.4286 28.5714H18.8571C20.7428 28.5714 21.6856 28.5714 22.2714 29.1572C22.8571 29.743 22.8571 30.6858 22.8571 32.5714V36C22.8571 37.8856 22.8571 38.8284 23.4429 39.4142C24.0287 40 24.9715 40 26.8571 40H30.2857C32.1713 40 33.1141 40 33.6999 39.4142C34.2857 38.8284 34.2857 37.8856 34.2857 36V18.6401C34.2857 17.8169 34.2857 17.4053 34.1315 17.0357C33.9774 16.6662 33.6849 16.3766 33.0999 15.7975L19.9712 2.80007Z" fill="#00AAFF"/>
</svg>
