<svg width="36" height="28" viewBox="0 0 36 28" fill="none" xmlns="http://www.w3.org/2000/svg">
<path d="M30.1167 2.88374C27.9 1.8504 25.5 1.1004 23 0.667069C22.9781 0.666368 22.9563 0.670481 22.9361 0.67912C22.916 0.687759 22.8979 0.700713 22.8833 0.717069C22.5833 1.26707 22.2333 1.98374 22 2.53374C19.3483 2.13374 16.6517 2.13374 14 2.53374C13.7667 1.96707 13.4167 1.26707 13.1 0.717069C13.0833 0.683736 13.0333 0.667069 12.9833 0.667069C10.4833 1.1004 8.09999 1.8504 5.86666 2.88374C5.84999 2.88374 5.83333 2.9004 5.81666 2.91707C1.28333 9.7004 0.0333252 16.3004 0.649992 22.8337C0.649992 22.8671 0.666659 22.9004 0.699992 22.9171C3.69999 25.1171 6.58333 26.4504 9.43333 27.3337C9.48333 27.3504 9.53332 27.3337 9.54999 27.3004C10.2167 26.3837 10.8167 25.4171 11.3333 24.4004C11.3667 24.3337 11.3333 24.2671 11.2667 24.2504C10.3167 23.8837 9.41666 23.4504 8.53333 22.9504C8.46666 22.9171 8.46666 22.8171 8.51666 22.7671C8.69999 22.6337 8.88332 22.4837 9.06666 22.3504C9.09999 22.3171 9.14999 22.3171 9.18332 22.3337C14.9167 24.9504 21.1 24.9504 26.7667 22.3337C26.8 22.3171 26.85 22.3171 26.8833 22.3504C27.0667 22.5004 27.25 22.6337 27.4333 22.7837C27.5 22.8337 27.5 22.9337 27.4167 22.9671C26.55 23.4837 25.6333 23.9004 24.6833 24.2671C24.6167 24.2837 24.6 24.3671 24.6167 24.4171C25.15 25.4337 25.75 26.4004 26.4 27.3171C26.45 27.3337 26.5 27.3504 26.55 27.3337C29.4167 26.4504 32.3 25.1171 35.3 22.9171C35.3333 22.9004 35.35 22.8671 35.35 22.8337C36.0833 15.2837 34.1333 8.73374 30.1833 2.91707C30.1667 2.9004 30.15 2.88374 30.1167 2.88374ZM12.2 18.8504C10.4833 18.8504 9.04999 17.2671 9.04999 15.3171C9.04999 13.3671 10.45 11.7837 12.2 11.7837C13.9667 11.7837 15.3667 13.3837 15.35 15.3171C15.35 17.2671 13.95 18.8504 12.2 18.8504ZM23.8167 18.8504C22.1 18.8504 20.6667 17.2671 20.6667 15.3171C20.6667 13.3671 22.0667 11.7837 23.8167 11.7837C25.5833 11.7837 26.9833 13.3837 26.9667 15.3171C26.9667 17.2671 25.5833 18.8504 23.8167 18.8504Z" fill="black"/>
</svg>
