<svg width="103" height="93" viewBox="0 0 103 93" fill="none" xmlns="http://www.w3.org/2000/svg">
<g filter="url(#filter0_d_1151_17383)">
<path d="M85.2038 15.7942L85.2039 15.7946C85.3289 16.2658 85.3185 16.7581 85.1742 17.2237C85.174 17.2243 85.1739 17.2249 85.1737 17.2255L81.9983 27.5447L81.9982 27.5449C81.8439 28.0458 81.5447 28.4876 81.1464 28.8319C80.7489 29.1755 80.2644 29.4126 79.7463 29.5294C79.2281 29.6462 78.6851 29.641 78.1695 29.5139C77.654 29.3869 77.1747 29.14 76.7851 28.7877L77.346 28.1673L76.7851 28.7877L74.3403 26.577L59.2885 38.3017L59.2884 38.3017C58.7021 38.7584 57.9591 38.9943 57.2079 38.9846C56.4568 38.9749 55.7206 38.7199 55.148 38.2466L55.1479 38.2465L48.6182 32.8479L35.7178 44.6608C35.7941 44.9645 35.842 45.2889 35.842 45.6329V45.633C35.8419 46.6595 35.477 47.6476 34.8183 48.4621C34.1612 49.2746 33.246 49.8735 32.21 50.1946C31.1742 50.5158 30.0535 50.5485 28.9974 50.2896C27.9413 50.0307 26.9858 49.4887 26.2711 48.7205C25.5547 47.9507 25.1153 46.9899 25.036 45.9667C24.9566 44.9427 25.244 43.932 25.8412 43.076H25.8412M85.2038 15.7942L25.8412 43.076L26.525 43.5531L25.8412 43.076M85.2038 15.7942C85.0016 15.0335 84.472 14.4095 83.7776 14.0315C83.085 13.6545 82.2631 13.5384 81.4858 13.6957C81.4857 13.6957 81.4857 13.6958 81.4856 13.6958L69.5639 16.1078L85.2038 15.7942ZM25.8412 43.076C26.4368 42.2223 27.3073 41.5683 28.3186 41.1857C29.1974 40.8532 30.1556 40.7355 31.0952 40.8388L46.2898 26.9255L46.2899 26.9254C46.8677 26.3965 47.64 26.106 48.4322 26.0883C49.2244 26.0707 50.0097 26.3264 50.6138 26.8258L50.614 26.8259L57.3153 32.3683L69.9018 22.563L68.0393 20.8808L68.039 20.8805C67.6485 20.5275 67.3599 20.0786 67.2183 19.5737L68.0236 19.3479L67.2183 19.5737C67.0764 19.0674 67.0912 18.5357 67.26 18.0378C67.4283 17.5413 67.7394 17.1073 68.1464 16.7729L68.6774 17.419L68.1464 16.7729C68.5526 16.439 69.0428 16.213 69.5636 16.1078L25.8412 43.076Z" fill="white" stroke="url(#paint0_linear_1151_17383)" stroke-width="1.67273"/>
<path d="M20.2629 66.0451L20.813 65.4151L20.2629 66.0451C20.8545 66.5617 21.6355 66.8363 22.4299 66.8363H79.594C80.3884 66.8363 81.1693 66.5617 81.761 66.0451C82.3563 65.5252 82.717 64.794 82.717 64.0032C82.717 63.2124 82.3563 62.4811 81.761 61.9613C81.1693 61.4446 80.3884 61.17 79.594 61.17H22.4299C21.6354 61.17 20.8545 61.4446 20.2629 61.9613L20.813 62.5912L20.2629 61.9613C19.6676 62.4811 19.3069 63.2124 19.3069 64.0032C19.3069 64.794 19.6676 65.5252 20.2629 66.0451ZM80.7373 33.3692C79.9429 33.3692 79.162 33.6438 78.5703 34.1605C77.9751 34.6803 77.6144 35.4116 77.6144 36.2024V52.0226C77.6144 52.291 77.4933 52.5755 77.2309 52.8046C76.9649 53.0368 76.5826 53.183 76.1642 53.183H25.8597C25.4412 53.183 25.059 53.0368 24.793 52.8046C24.5306 52.5755 24.4095 52.291 24.4095 52.0226V16.0811C24.4095 15.8127 24.5306 15.5282 24.793 15.2991C25.059 15.0669 25.4412 14.9207 25.8597 14.9207H63.7778C64.5722 14.9207 65.3532 14.6461 65.9448 14.1295C66.5401 13.6096 66.9008 12.8784 66.9008 12.0876C66.9008 11.2968 66.5401 10.5655 65.9448 10.0457C65.3532 9.52902 64.5722 9.25446 63.7778 9.25446H25.8597C23.8524 9.25446 21.9083 9.94976 20.459 11.2154C19.0061 12.4841 18.1636 14.2311 18.1636 16.0811V52.0226C18.1636 53.8726 19.0061 55.6196 20.459 56.8884C21.9083 58.154 23.8524 58.8493 25.8597 58.8493H76.1642C78.1715 58.8493 80.1156 58.154 81.5648 56.8884C83.0177 55.6196 83.8602 53.8726 83.8602 52.0226V36.2024C83.8602 35.4116 83.4996 34.6803 82.9043 34.1605C82.3126 33.6438 81.5317 33.3692 80.7373 33.3692Z" fill="white" stroke="url(#paint1_linear_1151_17383)" stroke-width="1.67273"/>
</g>
<path d="M86.7985 11.8475L86.7986 11.8479C86.9257 12.3268 86.9151 12.8271 86.7685 13.3004C86.7683 13.3011 86.7681 13.3018 86.7679 13.3024L83.515 23.8734L83.5149 23.8735C83.3581 24.3828 83.0538 24.8322 82.6486 25.1825C82.244 25.5322 81.7508 25.7736 81.2231 25.8926C80.6954 26.0116 80.1423 26.0062 79.6173 25.8768C79.0922 25.7474 78.6043 25.496 78.2078 25.1375L78.7688 24.5172L78.2078 25.1375L75.6907 22.8615L60.2583 34.8826L60.2582 34.8827C59.6614 35.3475 58.9049 35.5877 58.1398 35.5778C57.3747 35.568 56.6251 35.3083 56.0423 34.8266L56.0422 34.8265L49.3396 29.2848L36.1025 41.4061C36.182 41.7193 36.2321 42.0538 36.2321 42.4087V42.4089C36.2319 43.4554 35.8599 44.4632 35.1879 45.2941C34.5175 46.123 33.5835 46.7344 32.5259 47.0623C31.4683 47.3901 30.3241 47.4235 29.2458 47.1592L29.445 46.3469L29.2458 47.1592C28.1675 46.8949 27.1923 46.3415 26.463 45.5578C25.7322 44.7723 25.2841 43.7924 25.2032 42.7491C25.1223 41.705 25.4153 40.6743 26.0245 39.8012C26.6321 38.9303 27.5203 38.2628 28.5528 37.8722C29.4529 37.5317 30.4346 37.4117 31.3968 37.519L46.9689 23.2601L46.969 23.26C47.5569 22.7218 48.3432 22.4258 49.1502 22.4079C49.9571 22.3899 50.7567 22.6504 51.3716 23.1586L51.3718 23.1588L58.2492 28.8468L71.1747 18.7773L69.2488 17.0378L69.2484 17.0375C68.8511 16.6783 68.5577 16.2217 68.4137 15.7084L69.219 15.4826L68.4137 15.7084C68.2694 15.1938 68.2845 14.6533 68.456 14.1472C68.6271 13.6424 68.9436 13.2009 69.3577 12.8606C69.7711 12.5208 70.2701 12.2907 70.8006 12.1835L86.7985 11.8475ZM86.7985 11.8475C86.5929 11.0742 86.0544 10.4393 85.3475 10.0545C84.6423 9.6707 83.8053 9.55232 83.0135 9.71262C83.0135 9.71263 83.0135 9.71264 83.0134 9.71265L70.8009 12.1835L86.7985 11.8475Z" fill="url(#paint2_linear_1151_17383)" stroke="url(#paint3_linear_1151_17383)" stroke-width="1.67273"/>
<path d="M82.2431 29.8666C81.4339 29.8666 80.6388 30.1463 80.0367 30.6721C79.431 31.201 79.0644 31.9447 79.0644 32.7484V48.9545C79.0644 49.2358 78.9374 49.5327 78.6646 49.7709C78.3882 50.0123 77.9917 50.1636 77.5584 50.1636H26.027C25.5937 50.1636 25.1973 50.0123 24.9209 49.7709C24.648 49.5327 24.521 49.2358 24.521 48.9545V12.1364C24.521 11.8551 24.648 11.5582 24.9209 11.32C25.1973 11.0786 25.5938 10.9273 26.027 10.9273H64.87C65.6792 10.9273 66.4743 10.6476 67.0764 10.1218C67.6821 9.59283 68.0487 8.84916 68.0487 8.04545C68.0487 7.24175 67.6821 6.49808 67.0764 5.96913C66.4743 5.44333 65.6792 5.16364 64.87 5.16364H26.027C23.9754 5.16364 21.9887 5.87433 20.508 7.16733C19.0238 8.46347 18.1636 10.2477 18.1636 12.1364V48.9545C18.1636 50.8432 19.0238 52.6274 20.508 53.9236C21.9887 55.2166 23.9754 55.9273 26.027 55.9273H77.5584C79.6101 55.9273 81.5967 55.2166 83.0774 53.9236C84.5617 52.6274 85.4218 50.8432 85.4218 48.9545V32.7484C85.4218 31.9447 85.0552 31.201 84.4495 30.6721C83.8474 30.1463 83.0523 29.8666 82.2431 29.8666ZM81.0719 58.3455H22.5135C21.7043 58.3455 20.9092 58.6251 20.3071 59.151C19.7014 59.6799 19.3348 60.4236 19.3348 61.2273C19.3348 62.031 19.7014 62.7747 20.3071 63.3036C20.9092 63.8294 21.7043 64.1091 22.5135 64.1091H81.0719C81.8811 64.1091 82.6762 63.8294 83.2783 63.3036C83.8841 62.7747 84.2506 62.031 84.2506 61.2273C84.2506 60.4236 83.8841 59.6799 83.2784 59.151C82.6762 58.6251 81.8811 58.3455 81.0719 58.3455Z" fill="url(#paint4_linear_1151_17383)" stroke="url(#paint5_linear_1151_17383)" stroke-width="1.67273"/>
<defs>
<filter id="filter0_d_1151_17383" x="0.599874" y="0.0543318" width="102.254" height="92.7094" filterUnits="userSpaceOnUse" color-interpolation-filters="sRGB">
<feFlood flood-opacity="0" result="BackgroundImageFix"/>
<feColorMatrix in="SourceAlpha" type="matrix" values="0 0 0 0 0 0 0 0 0 0 0 0 0 0 0 0 0 0 127 0" result="hardAlpha"/>
<feOffset dy="8.36364"/>
<feGaussianBlur stdDeviation="8.36364"/>
<feComposite in2="hardAlpha" operator="out"/>
<feColorMatrix type="matrix" values="0 0 0 0 0.211765 0 0 0 0 0.243137 0 0 0 0 0.929412 0 0 0 1 0"/>
<feBlend mode="normal" in2="BackgroundImageFix" result="effect1_dropShadow_1151_17383"/>
<feBlend mode="normal" in="SourceGraphic" in2="effect1_dropShadow_1151_17383" result="shape"/>
</filter>
<linearGradient id="paint0_linear_1151_17383" x1="55.1568" y1="14.4639" x2="55.1568" y2="49.6259" gradientUnits="userSpaceOnUse">
<stop stop-color="#091170"/>
<stop offset="0.17" stop-color="#00DAFF"/>
<stop offset="0.435" stop-color="#E1FFFF"/>
<stop offset="0.79" stop-color="#00DAFF"/>
<stop offset="1" stop-color="#091170"/>
</linearGradient>
<linearGradient id="paint1_linear_1151_17383" x1="51.0119" y1="10.0908" x2="51.0119" y2="65.9999" gradientUnits="userSpaceOnUse">
<stop stop-color="#091170"/>
<stop offset="0.17" stop-color="#00DAFF"/>
<stop offset="0.435" stop-color="#E1FFFF"/>
<stop offset="0.79" stop-color="#00DAFF"/>
<stop offset="1" stop-color="#091170"/>
</linearGradient>
<linearGradient id="paint2_linear_1151_17383" x1="56.0384" y1="10.4795" x2="56.0384" y2="46.4991" gradientUnits="userSpaceOnUse">
<stop stop-color="#0122CE"/>
<stop offset="0.5"/>
</linearGradient>
<linearGradient id="paint3_linear_1151_17383" x1="56.0384" y1="10.4795" x2="56.0384" y2="46.4991" gradientUnits="userSpaceOnUse">
<stop stop-color="#091170"/>
<stop offset="0.17" stop-color="#00DAFF"/>
<stop offset="0.435" stop-color="#E1FFFF"/>
<stop offset="0.79" stop-color="#00DAFF"/>
<stop offset="1" stop-color="#091170"/>
</linearGradient>
<linearGradient id="paint4_linear_1151_17383" x1="51.7927" y1="6" x2="51.7927" y2="63.2727" gradientUnits="userSpaceOnUse">
<stop stop-color="#0122CE"/>
<stop offset="0.5"/>
</linearGradient>
<linearGradient id="paint5_linear_1151_17383" x1="51.7927" y1="6" x2="51.7927" y2="63.2727" gradientUnits="userSpaceOnUse">
<stop stop-color="#091170"/>
<stop offset="0.17" stop-color="#00DAFF"/>
<stop offset="0.435" stop-color="#E1FFFF"/>
<stop offset="0.79" stop-color="#00DAFF"/>
<stop offset="1" stop-color="#091170"/>
</linearGradient>
</defs>
</svg>
