<svg width="100" height="100" viewBox="0 0 100 100" fill="none" xmlns="http://www.w3.org/2000/svg">
<path opacity="0.5" d="M50 100C77.615 100 100 77.615 100 50C100 22.385 77.615 0 50 0C22.385 0 0 22.385 0 50C0 77.615 22.385 100 50 100Z" fill="#FF9900"/>
<path d="M27.75 38C26.9544 37.4033 26.4284 36.5149 26.2877 35.5303C26.1471 34.5458 26.4033 33.5457 27 32.75C27.5968 31.9544 28.4851 31.4284 29.4697 31.2877C30.4543 31.1471 31.4544 31.4033 32.25 32L42.25 39.5C42.7157 39.8493 43.0938 40.3023 43.3541 40.823C43.6145 41.3437 43.75 41.9178 43.75 42.5C43.75 43.0822 43.6145 43.6564 43.3541 44.1771C43.0938 44.6978 42.7157 45.1507 42.25 45.5L32.25 53C31.856 53.2955 31.4077 53.5105 30.9307 53.6327C30.4536 53.7549 29.9572 53.782 29.4697 53.7123C28.9822 53.6427 28.5132 53.4777 28.0894 53.2268C27.6657 52.9759 27.2955 52.644 27 52.25C26.7045 51.8561 26.4896 51.4077 26.3673 50.9307C26.2451 50.4536 26.2181 49.9572 26.2877 49.4697C26.3573 48.9822 26.5223 48.5132 26.7732 48.0894C27.0241 47.6657 27.3561 47.2955 27.75 47L33.75 42.5L27.75 38ZM73 32.75C73.2955 33.144 73.5105 33.5923 73.6327 34.0693C73.7549 34.5464 73.782 35.0428 73.7123 35.5303C73.6427 36.0179 73.4777 36.4869 73.2268 36.9106C72.9759 37.3344 72.644 37.7045 72.25 38L66.25 42.5L72.25 47C73.0457 47.5968 73.5717 48.4851 73.7123 49.4697C73.853 50.4543 73.5968 51.4544 73 52.25C72.4033 53.0457 71.5149 53.5717 70.5303 53.7123C69.5458 53.853 68.5457 53.5968 67.75 53L57.75 45.5C57.2843 45.1507 56.9063 44.6978 56.6459 44.1771C56.3856 43.6564 56.25 43.0822 56.25 42.5C56.25 41.9178 56.3856 41.3437 56.6459 40.823C56.9063 40.3023 57.2843 39.8493 57.75 39.5L67.75 32C68.5457 31.4033 69.5458 31.1471 70.5303 31.2877C71.5149 31.4284 72.4033 31.9544 73 32.75ZM67.65 72.65C66.9469 73.3523 65.9938 73.7467 65 73.7467C64.0063 73.7467 63.0531 73.3523 62.35 72.65L60 70.3C57.195 72.95 52.8 72.95 50 70.3C47.2 72.95 42.805 72.95 40 70.3L37.65 72.65C37.3067 73.0185 36.8927 73.314 36.4327 73.5189C35.9727 73.7239 35.4761 73.8341 34.9726 73.843C34.4691 73.8519 33.969 73.7592 33.502 73.5706C33.0351 73.382 32.6109 73.1013 32.2548 72.7452C31.8987 72.3891 31.618 71.9649 31.4294 71.498C31.2408 71.0311 31.1482 70.5309 31.1571 70.0274C31.1659 69.5239 31.2762 69.0273 31.4811 68.5673C31.6861 68.1073 31.9816 67.6933 32.35 67.35L34.85 64.85C36.1899 63.5096 37.9995 62.7441 39.8946 62.7161C41.7897 62.6881 43.6211 63.3998 45 64.7C47.8 62.05 52.2 62.05 55 64.7C56.379 63.3998 58.2104 62.6881 60.1054 62.7161C62.0005 62.7441 63.8101 63.5096 65.15 64.85L67.65 67.35C68.3523 68.0531 68.7467 69.0063 68.7467 70C68.7467 70.9938 68.3523 71.9469 67.65 72.65Z" fill="#FF9900"/>
</svg>
